%TF.GenerationSoftware,KiCad,Pcbnew,7.0.1-0*%
%TF.CreationDate,2023-07-05T09:43:18+01:00*%
%TF.ProjectId,Penfold_VCA,50656e66-6f6c-4645-9f56-43412e6b6963,rev?*%
%TF.SameCoordinates,Original*%
%TF.FileFunction,Copper,L2,Bot*%
%TF.FilePolarity,Positive*%
%FSLAX46Y46*%
G04 Gerber Fmt 4.6, Leading zero omitted, Abs format (unit mm)*
G04 Created by KiCad (PCBNEW 7.0.1-0) date 2023-07-05 09:43:18*
%MOMM*%
%LPD*%
G01*
G04 APERTURE LIST*
%TA.AperFunction,ComponentPad*%
%ADD10R,1.600000X1.600000*%
%TD*%
%TA.AperFunction,ComponentPad*%
%ADD11C,1.600000*%
%TD*%
%TA.AperFunction,ComponentPad*%
%ADD12R,1.700000X1.700000*%
%TD*%
%TA.AperFunction,ComponentPad*%
%ADD13O,1.700000X1.700000*%
%TD*%
%TA.AperFunction,ComponentPad*%
%ADD14O,1.600000X1.600000*%
%TD*%
%TA.AperFunction,ComponentPad*%
%ADD15R,2.200000X2.200000*%
%TD*%
%TA.AperFunction,ComponentPad*%
%ADD16O,2.200000X2.200000*%
%TD*%
%TA.AperFunction,ComponentPad*%
%ADD17R,2.400000X1.600000*%
%TD*%
%TA.AperFunction,ComponentPad*%
%ADD18O,2.400000X1.600000*%
%TD*%
%TA.AperFunction,Conductor*%
%ADD19C,0.300000*%
%TD*%
%TA.AperFunction,Conductor*%
%ADD20C,0.500000*%
%TD*%
G04 APERTURE END LIST*
D10*
%TO.P,C2,1*%
%TO.N,Net-(C2-Pad1)*%
X150000000Y-116000000D03*
D11*
%TO.P,C2,2*%
%TO.N,GND*%
X152000000Y-116000000D03*
%TD*%
D12*
%TO.P,SW1,1,A*%
%TO.N,CV Bus*%
X115475000Y-116000000D03*
D13*
%TO.P,SW1,2,B*%
%TO.N,3*%
X118015000Y-116000000D03*
%TO.P,SW1,3,C*%
%TO.N,Net-(SW1-C)*%
X120555000Y-116000000D03*
%TD*%
D11*
%TO.P,R2,1*%
%TO.N,+12V*%
X145288000Y-105283000D03*
D14*
%TO.P,R2,2*%
%TO.N,Net-(U1C-DIODE_BIAS)*%
X145288000Y-95123000D03*
%TD*%
D15*
%TO.P,D4,1,K*%
%TO.N,+12V*%
X125080000Y-82000000D03*
D16*
%TO.P,D4,2,A*%
%TO.N,Net-(D4-A)*%
X114920000Y-82000000D03*
%TD*%
D11*
%TO.P,R1,1*%
%TO.N,Net-(U2--)*%
X129921000Y-87000000D03*
D14*
%TO.P,R1,2*%
%TO.N,1*%
X140081000Y-87000000D03*
%TD*%
D11*
%TO.P,R3,1*%
%TO.N,Net-(C2-Pad1)*%
X150749000Y-80920000D03*
D14*
%TO.P,R3,2*%
%TO.N,Net-(U1C--)*%
X150749000Y-91080000D03*
%TD*%
D12*
%TO.P,J1,1,Pin_1*%
%TO.N,Gate Bus*%
X106000000Y-89840000D03*
D13*
%TO.P,J1,2,Pin_2*%
X108540000Y-89840000D03*
%TO.P,J1,3,Pin_3*%
%TO.N,CV Bus*%
X106000000Y-92380000D03*
%TO.P,J1,4,Pin_4*%
X108540000Y-92380000D03*
%TO.P,J1,5,Pin_5*%
%TO.N,+5V*%
X106000000Y-94920000D03*
%TO.P,J1,6,Pin_6*%
X108540000Y-94920000D03*
%TO.P,J1,7,Pin_7*%
%TO.N,Net-(D4-A)*%
X106000000Y-97460000D03*
%TO.P,J1,8,Pin_8*%
X108540000Y-97460000D03*
%TO.P,J1,9,Pin_9*%
%TO.N,GND*%
X106000000Y-100000000D03*
%TO.P,J1,10,Pin_10*%
X108540000Y-100000000D03*
%TO.P,J1,11,Pin_11*%
X106000000Y-102540000D03*
%TO.P,J1,12,Pin_12*%
X108540000Y-102540000D03*
%TO.P,J1,13,Pin_13*%
X106000000Y-105080000D03*
%TO.P,J1,14,Pin_14*%
X108540000Y-105080000D03*
%TO.P,J1,15,Pin_15*%
%TO.N,Net-(D1-K)*%
X106000000Y-107620000D03*
%TO.P,J1,16,Pin_16*%
X108540000Y-107620000D03*
%TD*%
D17*
%TO.P,U2,1,NULL*%
%TO.N,unconnected-(U2-NULL-Pad1)*%
X131200000Y-93200000D03*
D18*
%TO.P,U2,2,-*%
%TO.N,Net-(U2--)*%
X131200000Y-95740000D03*
%TO.P,U2,3,+*%
%TO.N,3*%
X131200000Y-98280000D03*
%TO.P,U2,4,V-*%
%TO.N,GND*%
X131200000Y-100820000D03*
%TO.P,U2,5,NULL*%
%TO.N,unconnected-(U2-NULL-Pad5)*%
X138820000Y-100820000D03*
%TO.P,U2,6*%
%TO.N,Net-(U2--)*%
X138820000Y-98280000D03*
%TO.P,U2,7,V+*%
%TO.N,+12V*%
X138820000Y-95740000D03*
%TO.P,U2,8,STRB*%
%TO.N,unconnected-(U2-STRB-Pad8)*%
X138820000Y-93200000D03*
%TD*%
D11*
%TO.P,R8,1*%
%TO.N,GND*%
X169000000Y-99080000D03*
D14*
%TO.P,R8,2*%
%TO.N,Net-(C3-Pad1)*%
X169000000Y-88920000D03*
%TD*%
D12*
%TO.P,J4,1,Pin_1*%
%TO.N,GND*%
X128920000Y-116000000D03*
D13*
%TO.P,J4,2,Pin_2*%
X131460000Y-116000000D03*
%TO.P,J4,3,Pin_3*%
%TO.N,2*%
X134000000Y-116000000D03*
%TD*%
D15*
%TO.P,D1,1,K*%
%TO.N,Net-(D1-K)*%
X114920000Y-97000000D03*
D16*
%TO.P,D1,2,A*%
%TO.N,-12V*%
X125080000Y-97000000D03*
%TD*%
D12*
%TO.P,J6,1,Pin_1*%
%TO.N,GND*%
X169000000Y-108540000D03*
D13*
%TO.P,J6,2,Pin_2*%
X169000000Y-106000000D03*
%TO.P,J6,3,Pin_3*%
%TO.N,3*%
X169000000Y-103460000D03*
%TD*%
D11*
%TO.P,R4,1*%
%TO.N,Net-(C2-Pad1)*%
X149920000Y-104000000D03*
D14*
%TO.P,R4,2*%
%TO.N,Net-(U1C-+)*%
X160080000Y-104000000D03*
%TD*%
D10*
%TO.P,C4,1*%
%TO.N,GND*%
X115000000Y-90000000D03*
D11*
%TO.P,C4,2*%
%TO.N,-12V*%
X117000000Y-90000000D03*
%TD*%
D10*
%TO.P,C3,1*%
%TO.N,Net-(C3-Pad1)*%
X159000000Y-116000000D03*
D11*
%TO.P,C3,2*%
%TO.N,3*%
X161000000Y-116000000D03*
%TD*%
%TO.P,R7,1*%
%TO.N,GND*%
X129920000Y-82000000D03*
D14*
%TO.P,R7,2*%
%TO.N,Net-(C2-Pad1)*%
X140080000Y-82000000D03*
%TD*%
D10*
%TO.P,C1,1*%
%TO.N,Net-(C1-Pad1)*%
X143000000Y-116000000D03*
D11*
%TO.P,C1,2*%
%TO.N,2*%
X141000000Y-116000000D03*
%TD*%
%TO.P,R5,1*%
%TO.N,Net-(C1-Pad1)*%
X149920000Y-109000000D03*
D14*
%TO.P,R5,2*%
%TO.N,Net-(U1C-+)*%
X160080000Y-109000000D03*
%TD*%
D10*
%TO.P,C5,1*%
%TO.N,+12V*%
X123000000Y-90000000D03*
D11*
%TO.P,C5,2*%
%TO.N,GND*%
X125000000Y-90000000D03*
%TD*%
D17*
%TO.P,U1,1*%
%TO.N,1*%
X156200000Y-81220000D03*
D18*
%TO.P,U1,2,DIODE_BIAS*%
%TO.N,Net-(U1C-DIODE_BIAS)*%
X156200000Y-83760000D03*
%TO.P,U1,3,+*%
%TO.N,Net-(U1C-+)*%
X156200000Y-86300000D03*
%TO.P,U1,4,-*%
%TO.N,Net-(U1C--)*%
X156200000Y-88840000D03*
%TO.P,U1,5*%
%TO.N,Net-(C2-Pad1)*%
X156200000Y-91380000D03*
%TO.P,U1,6,V-*%
%TO.N,GND*%
X156200000Y-93920000D03*
%TO.P,U1,7*%
%TO.N,Net-(C2-Pad1)*%
X156200000Y-96460000D03*
%TO.P,U1,8*%
%TO.N,Net-(C3-Pad1)*%
X156200000Y-99000000D03*
%TO.P,U1,9*%
%TO.N,N/C*%
X163820000Y-99000000D03*
%TO.P,U1,10*%
X163820000Y-96460000D03*
%TO.P,U1,11,V+*%
%TO.N,+12V*%
X163820000Y-93920000D03*
%TO.P,U1,12*%
%TO.N,N/C*%
X163820000Y-91380000D03*
%TO.P,U1,13*%
X163820000Y-88840000D03*
%TO.P,U1,14*%
X163820000Y-86300000D03*
%TO.P,U1,15*%
X163820000Y-83760000D03*
%TO.P,U1,16*%
X163820000Y-81220000D03*
%TD*%
D11*
%TO.P,R6,1*%
%TO.N,Net-(C2-Pad1)*%
X145288000Y-80920000D03*
D14*
%TO.P,R6,2*%
%TO.N,+12V*%
X145288000Y-91080000D03*
%TD*%
D19*
%TO.N,3*%
X161000000Y-114868630D02*
X161000000Y-116000000D01*
X157131370Y-111000000D02*
X161000000Y-114868630D01*
X131200000Y-98280000D02*
X143920000Y-111000000D01*
X143920000Y-111000000D02*
X157131370Y-111000000D01*
D20*
%TO.N,+12V*%
X140628000Y-95740000D02*
X145288000Y-91080000D01*
X146838000Y-92630000D02*
X162530000Y-92630000D01*
X138820000Y-95740000D02*
X140628000Y-95740000D01*
X162530000Y-92630000D02*
X163820000Y-93920000D01*
X125080000Y-83926767D02*
X136893233Y-95740000D01*
X136893233Y-95740000D02*
X138820000Y-95740000D01*
X145288000Y-91080000D02*
X146838000Y-92630000D01*
X125080000Y-82000000D02*
X125080000Y-83926767D01*
%TD*%
%TA.AperFunction,Conductor*%
%TO.N,GND*%
G36*
X171002562Y-78000605D02*
G01*
X171217600Y-78009500D01*
X171413455Y-78018052D01*
X171423330Y-78018881D01*
X171636706Y-78045479D01*
X171636793Y-78045490D01*
X171834945Y-78071577D01*
X171844192Y-78073153D01*
X172053521Y-78117044D01*
X172054765Y-78117312D01*
X172250386Y-78160680D01*
X172258901Y-78162889D01*
X172463665Y-78223850D01*
X172465325Y-78224359D01*
X172656696Y-78284698D01*
X172664453Y-78287431D01*
X172863363Y-78365046D01*
X172865513Y-78365911D01*
X173051024Y-78442752D01*
X173057972Y-78445886D01*
X173225903Y-78527982D01*
X173249587Y-78539561D01*
X173252383Y-78540972D01*
X173430420Y-78633652D01*
X173436636Y-78637118D01*
X173619793Y-78746255D01*
X173622929Y-78748187D01*
X173686491Y-78788681D01*
X173792282Y-78856078D01*
X173797710Y-78859741D01*
X173971184Y-78983599D01*
X173974616Y-78986140D01*
X174133912Y-79108372D01*
X174138567Y-79112126D01*
X174301226Y-79249891D01*
X174304838Y-79253072D01*
X174452925Y-79388769D01*
X174456807Y-79392486D01*
X174607512Y-79543191D01*
X174611232Y-79547076D01*
X174746921Y-79695155D01*
X174750107Y-79698772D01*
X174887872Y-79861431D01*
X174891626Y-79866086D01*
X175013858Y-80025382D01*
X175016399Y-80028814D01*
X175140257Y-80202288D01*
X175143920Y-80207716D01*
X175251800Y-80377052D01*
X175253743Y-80380205D01*
X175362880Y-80563362D01*
X175366346Y-80569578D01*
X175459026Y-80747615D01*
X175460437Y-80750411D01*
X175554099Y-80941997D01*
X175557260Y-80949005D01*
X175634051Y-81134395D01*
X175634991Y-81136734D01*
X175652157Y-81180724D01*
X175712559Y-81335523D01*
X175715302Y-81343309D01*
X175775602Y-81534554D01*
X175776186Y-81536460D01*
X175837105Y-81741084D01*
X175839321Y-81749627D01*
X175882671Y-81945166D01*
X175882971Y-81946559D01*
X175926844Y-82155802D01*
X175928422Y-82165062D01*
X175954459Y-82362829D01*
X175954568Y-82363677D01*
X175981114Y-82576641D01*
X175981948Y-82586570D01*
X175990513Y-82782728D01*
X175990525Y-82783013D01*
X175999394Y-82997438D01*
X175999500Y-83002562D01*
X175999500Y-115997438D01*
X175999394Y-116002563D01*
X175990525Y-116216987D01*
X175990513Y-116217271D01*
X175981948Y-116413428D01*
X175981114Y-116423357D01*
X175954568Y-116636321D01*
X175954459Y-116637169D01*
X175928422Y-116834936D01*
X175926844Y-116844196D01*
X175882971Y-117053439D01*
X175882671Y-117054832D01*
X175839321Y-117250371D01*
X175837105Y-117258914D01*
X175776186Y-117463538D01*
X175775602Y-117465444D01*
X175715302Y-117656689D01*
X175712559Y-117664475D01*
X175635008Y-117863224D01*
X175634051Y-117865603D01*
X175557260Y-118050993D01*
X175554099Y-118058001D01*
X175460437Y-118249587D01*
X175459026Y-118252383D01*
X175366346Y-118430420D01*
X175362880Y-118436636D01*
X175253743Y-118619793D01*
X175251800Y-118622946D01*
X175143920Y-118792282D01*
X175140257Y-118797710D01*
X175016399Y-118971184D01*
X175013858Y-118974616D01*
X174891626Y-119133912D01*
X174887872Y-119138567D01*
X174750107Y-119301226D01*
X174746908Y-119304858D01*
X174611254Y-119452899D01*
X174607512Y-119456807D01*
X174456807Y-119607512D01*
X174452899Y-119611254D01*
X174304858Y-119746908D01*
X174301226Y-119750107D01*
X174138567Y-119887872D01*
X174133912Y-119891626D01*
X173974616Y-120013858D01*
X173971184Y-120016399D01*
X173797710Y-120140257D01*
X173792282Y-120143920D01*
X173622946Y-120251800D01*
X173619793Y-120253743D01*
X173436636Y-120362880D01*
X173430420Y-120366346D01*
X173252383Y-120459026D01*
X173249587Y-120460437D01*
X173058001Y-120554099D01*
X173050993Y-120557260D01*
X172865603Y-120634051D01*
X172863224Y-120635008D01*
X172664475Y-120712559D01*
X172656689Y-120715302D01*
X172465444Y-120775602D01*
X172463538Y-120776186D01*
X172258914Y-120837105D01*
X172250371Y-120839321D01*
X172054832Y-120882671D01*
X172053439Y-120882971D01*
X171844196Y-120926844D01*
X171834936Y-120928422D01*
X171637169Y-120954459D01*
X171636321Y-120954568D01*
X171423357Y-120981114D01*
X171413428Y-120981948D01*
X171217381Y-120990508D01*
X171217097Y-120990520D01*
X171002563Y-120999394D01*
X170997438Y-120999500D01*
X107002562Y-120999500D01*
X106997437Y-120999394D01*
X106782901Y-120990520D01*
X106782617Y-120990508D01*
X106586570Y-120981948D01*
X106576641Y-120981114D01*
X106363677Y-120954568D01*
X106362829Y-120954459D01*
X106165062Y-120928422D01*
X106155802Y-120926844D01*
X105946559Y-120882971D01*
X105945166Y-120882671D01*
X105749627Y-120839321D01*
X105741084Y-120837105D01*
X105536460Y-120776186D01*
X105534554Y-120775602D01*
X105343309Y-120715302D01*
X105335523Y-120712559D01*
X105206985Y-120662404D01*
X105136734Y-120634991D01*
X105134395Y-120634051D01*
X104949005Y-120557260D01*
X104941997Y-120554099D01*
X104750411Y-120460437D01*
X104747615Y-120459026D01*
X104569578Y-120366346D01*
X104563362Y-120362880D01*
X104380205Y-120253743D01*
X104377052Y-120251800D01*
X104207716Y-120143920D01*
X104202288Y-120140257D01*
X104028814Y-120016399D01*
X104025382Y-120013858D01*
X103866086Y-119891626D01*
X103861431Y-119887872D01*
X103698772Y-119750107D01*
X103695155Y-119746921D01*
X103547076Y-119611232D01*
X103543191Y-119607512D01*
X103392486Y-119456807D01*
X103388769Y-119452925D01*
X103253072Y-119304838D01*
X103249891Y-119301226D01*
X103112126Y-119138567D01*
X103108372Y-119133912D01*
X102986140Y-118974616D01*
X102983599Y-118971184D01*
X102859741Y-118797710D01*
X102856078Y-118792282D01*
X102748198Y-118622946D01*
X102746255Y-118619793D01*
X102637118Y-118436636D01*
X102633652Y-118430420D01*
X102540972Y-118252383D01*
X102539561Y-118249587D01*
X102527982Y-118225903D01*
X102445886Y-118057972D01*
X102442752Y-118051024D01*
X102365911Y-117865513D01*
X102365046Y-117863363D01*
X102287431Y-117664453D01*
X102284696Y-117656689D01*
X102224359Y-117465325D01*
X102223850Y-117463665D01*
X102162889Y-117258901D01*
X102160680Y-117250386D01*
X102117312Y-117054765D01*
X102117027Y-117053439D01*
X102111495Y-117027057D01*
X102073153Y-116844192D01*
X102071576Y-116834936D01*
X102057165Y-116725472D01*
X102045490Y-116636793D01*
X102045483Y-116636743D01*
X102018881Y-116423330D01*
X102018052Y-116413455D01*
X102009486Y-116217271D01*
X102003302Y-116067764D01*
X105145787Y-116067764D01*
X105175413Y-116337016D01*
X105208523Y-116463662D01*
X105243928Y-116599088D01*
X105297720Y-116725670D01*
X105349871Y-116848392D01*
X105490982Y-117079611D01*
X105664253Y-117287818D01*
X105664255Y-117287820D01*
X105865998Y-117468582D01*
X106091910Y-117618044D01*
X106103197Y-117623335D01*
X106337177Y-117733021D01*
X106596562Y-117811058D01*
X106596569Y-117811060D01*
X106864561Y-117850500D01*
X107067631Y-117850500D01*
X107067634Y-117850500D01*
X107270156Y-117835677D01*
X107343782Y-117819276D01*
X107534553Y-117776780D01*
X107787558Y-117680014D01*
X108023777Y-117547441D01*
X108238177Y-117381888D01*
X108426186Y-117186881D01*
X108583799Y-116966579D01*
X108619125Y-116897869D01*
X114124500Y-116897869D01*
X114130909Y-116957484D01*
X114146784Y-117000046D01*
X114181204Y-117092331D01*
X114267454Y-117207546D01*
X114382669Y-117293796D01*
X114517517Y-117344091D01*
X114577127Y-117350500D01*
X116372872Y-117350499D01*
X116432483Y-117344091D01*
X116567331Y-117293796D01*
X116682546Y-117207546D01*
X116768796Y-117092331D01*
X116817810Y-116960916D01*
X116852789Y-116910537D01*
X116907634Y-116883084D01*
X116968927Y-116885273D01*
X117021672Y-116916568D01*
X117143599Y-117038495D01*
X117337170Y-117174035D01*
X117551337Y-117273903D01*
X117779592Y-117335063D01*
X118015000Y-117355659D01*
X118250408Y-117335063D01*
X118478663Y-117273903D01*
X118692830Y-117174035D01*
X118886401Y-117038495D01*
X119053495Y-116871401D01*
X119183426Y-116685839D01*
X119227743Y-116646975D01*
X119285000Y-116632964D01*
X119342257Y-116646975D01*
X119386573Y-116685839D01*
X119516505Y-116871401D01*
X119683599Y-117038495D01*
X119877170Y-117174035D01*
X120091337Y-117273903D01*
X120319592Y-117335063D01*
X120555000Y-117355659D01*
X120790408Y-117335063D01*
X121018663Y-117273903D01*
X121232830Y-117174035D01*
X121426401Y-117038495D01*
X121593495Y-116871401D01*
X121729035Y-116677830D01*
X121828903Y-116463663D01*
X121886153Y-116250000D01*
X127570000Y-116250000D01*
X127570000Y-116897824D01*
X127576402Y-116957375D01*
X127626647Y-117092089D01*
X127712811Y-117207188D01*
X127827910Y-117293352D01*
X127962624Y-117343597D01*
X128022176Y-117350000D01*
X128670000Y-117350000D01*
X128670000Y-116250000D01*
X129170000Y-116250000D01*
X129170000Y-117350000D01*
X129817824Y-117350000D01*
X129877375Y-117343597D01*
X130012089Y-117293352D01*
X130127188Y-117207188D01*
X130213352Y-117092088D01*
X130262614Y-116960013D01*
X130297593Y-116909633D01*
X130352438Y-116882180D01*
X130413731Y-116884369D01*
X130466477Y-116915665D01*
X130588918Y-117038106D01*
X130782423Y-117173600D01*
X130996507Y-117273430D01*
X131209999Y-117330635D01*
X131210000Y-117330636D01*
X131210000Y-117330635D01*
X131710000Y-117330635D01*
X131923492Y-117273430D01*
X132137576Y-117173600D01*
X132331081Y-117038106D01*
X132498109Y-116871078D01*
X132628119Y-116685405D01*
X132672437Y-116646539D01*
X132729694Y-116632528D01*
X132786951Y-116646539D01*
X132831267Y-116685402D01*
X132961505Y-116871401D01*
X133128599Y-117038495D01*
X133322170Y-117174035D01*
X133536337Y-117273903D01*
X133764592Y-117335063D01*
X134000000Y-117355659D01*
X134235408Y-117335063D01*
X134463663Y-117273903D01*
X134677830Y-117174035D01*
X134871401Y-117038495D01*
X135038495Y-116871401D01*
X135174035Y-116677830D01*
X135273903Y-116463663D01*
X135335063Y-116235408D01*
X135355659Y-116000000D01*
X139694531Y-116000000D01*
X139714364Y-116226689D01*
X139773261Y-116446497D01*
X139869432Y-116652735D01*
X139999953Y-116839140D01*
X140160859Y-117000046D01*
X140347264Y-117130567D01*
X140347265Y-117130567D01*
X140347266Y-117130568D01*
X140553504Y-117226739D01*
X140773308Y-117285635D01*
X141000000Y-117305468D01*
X141226692Y-117285635D01*
X141446496Y-117226739D01*
X141652734Y-117130568D01*
X141665555Y-117121589D01*
X141724563Y-117099757D01*
X141786692Y-117109697D01*
X141835945Y-117148852D01*
X141842452Y-117157544D01*
X141842453Y-117157544D01*
X141842454Y-117157546D01*
X141957669Y-117243796D01*
X142092517Y-117294091D01*
X142152127Y-117300500D01*
X143847872Y-117300499D01*
X143907483Y-117294091D01*
X144042331Y-117243796D01*
X144157546Y-117157546D01*
X144243796Y-117042331D01*
X144294091Y-116907483D01*
X144300500Y-116847873D01*
X144300500Y-116847869D01*
X148699500Y-116847869D01*
X148705909Y-116907484D01*
X148727950Y-116966579D01*
X148756204Y-117042331D01*
X148842454Y-117157546D01*
X148957669Y-117243796D01*
X149092517Y-117294091D01*
X149152127Y-117300500D01*
X150847872Y-117300499D01*
X150907483Y-117294091D01*
X151042331Y-117243796D01*
X151157546Y-117157546D01*
X151164351Y-117148454D01*
X151213601Y-117109299D01*
X151275731Y-117099357D01*
X151334742Y-117121189D01*
X151347515Y-117130133D01*
X151553673Y-117226266D01*
X151773397Y-117285141D01*
X152000000Y-117304966D01*
X152226602Y-117285141D01*
X152446326Y-117226266D01*
X152652480Y-117130134D01*
X152725472Y-117079025D01*
X151734128Y-116087681D01*
X151702034Y-116032094D01*
X151702034Y-116000001D01*
X152353553Y-116000001D01*
X153079025Y-116725472D01*
X153130134Y-116652480D01*
X153226266Y-116446326D01*
X153285141Y-116226602D01*
X153304966Y-115999999D01*
X153285141Y-115773397D01*
X153226266Y-115553673D01*
X153130133Y-115347515D01*
X153079025Y-115274526D01*
X152353553Y-116000000D01*
X152353553Y-116000001D01*
X151702034Y-116000001D01*
X151702034Y-115967906D01*
X151734128Y-115912319D01*
X152000000Y-115646447D01*
X152725472Y-114920974D01*
X152725471Y-114920972D01*
X152652484Y-114869866D01*
X152446326Y-114773733D01*
X152226602Y-114714858D01*
X152000000Y-114695033D01*
X151773397Y-114714858D01*
X151553672Y-114773733D01*
X151347518Y-114869865D01*
X151334740Y-114878812D01*
X151275730Y-114900642D01*
X151213602Y-114890700D01*
X151164352Y-114851545D01*
X151157547Y-114842455D01*
X151136100Y-114826400D01*
X151042331Y-114756204D01*
X150907483Y-114705909D01*
X150847873Y-114699500D01*
X150847869Y-114699500D01*
X149152130Y-114699500D01*
X149092515Y-114705909D01*
X148957669Y-114756204D01*
X148842454Y-114842454D01*
X148756204Y-114957668D01*
X148705909Y-115092516D01*
X148699500Y-115152130D01*
X148699500Y-116847869D01*
X144300500Y-116847869D01*
X144300499Y-115152128D01*
X144294091Y-115092517D01*
X144243796Y-114957669D01*
X144157546Y-114842454D01*
X144042331Y-114756204D01*
X143907483Y-114705909D01*
X143847873Y-114699500D01*
X143847869Y-114699500D01*
X142152130Y-114699500D01*
X142092515Y-114705909D01*
X141957670Y-114756203D01*
X141842451Y-114842456D01*
X141835944Y-114851149D01*
X141786694Y-114890301D01*
X141724567Y-114900242D01*
X141665559Y-114878412D01*
X141663414Y-114876910D01*
X141652734Y-114869432D01*
X141541431Y-114817530D01*
X141446497Y-114773261D01*
X141226689Y-114714364D01*
X141000000Y-114694531D01*
X140773310Y-114714364D01*
X140553502Y-114773261D01*
X140347264Y-114869432D01*
X140160859Y-114999953D01*
X139999953Y-115160859D01*
X139869432Y-115347264D01*
X139773261Y-115553502D01*
X139714364Y-115773310D01*
X139694531Y-116000000D01*
X135355659Y-116000000D01*
X135335063Y-115764592D01*
X135273903Y-115536337D01*
X135174035Y-115322171D01*
X135038495Y-115128599D01*
X134871401Y-114961505D01*
X134677830Y-114825965D01*
X134463663Y-114726097D01*
X134391074Y-114706647D01*
X134235407Y-114664936D01*
X134000000Y-114644340D01*
X133764592Y-114664936D01*
X133536336Y-114726097D01*
X133322170Y-114825965D01*
X133128598Y-114961505D01*
X132961508Y-115128595D01*
X132961505Y-115128598D01*
X132961505Y-115128599D01*
X132938915Y-115160861D01*
X132831269Y-115314596D01*
X132786951Y-115353461D01*
X132729694Y-115367472D01*
X132672437Y-115353461D01*
X132628119Y-115314595D01*
X132498109Y-115128921D01*
X132331081Y-114961893D01*
X132137576Y-114826399D01*
X131923492Y-114726569D01*
X131710000Y-114669364D01*
X131710000Y-117330635D01*
X131210000Y-117330635D01*
X131210000Y-116250000D01*
X129170000Y-116250000D01*
X128670000Y-116250000D01*
X127570000Y-116250000D01*
X121886153Y-116250000D01*
X121890063Y-116235408D01*
X121910659Y-116000000D01*
X121890063Y-115764592D01*
X121886153Y-115750000D01*
X127570000Y-115750000D01*
X128670000Y-115750000D01*
X128670000Y-114650000D01*
X129170000Y-114650000D01*
X129170000Y-115750000D01*
X131210000Y-115750000D01*
X131210000Y-114669364D01*
X131209999Y-114669364D01*
X130996507Y-114726569D01*
X130782421Y-114826400D01*
X130588924Y-114961888D01*
X130466477Y-115084335D01*
X130413730Y-115115630D01*
X130352438Y-115117819D01*
X130297593Y-115090366D01*
X130262614Y-115039987D01*
X130213352Y-114907910D01*
X130127188Y-114792811D01*
X130012089Y-114706647D01*
X129877375Y-114656402D01*
X129817824Y-114650000D01*
X129170000Y-114650000D01*
X128670000Y-114650000D01*
X128022176Y-114650000D01*
X127962624Y-114656402D01*
X127827910Y-114706647D01*
X127712811Y-114792811D01*
X127626647Y-114907910D01*
X127576402Y-115042624D01*
X127570000Y-115102176D01*
X127570000Y-115750000D01*
X121886153Y-115750000D01*
X121828903Y-115536337D01*
X121729035Y-115322171D01*
X121593495Y-115128599D01*
X121426401Y-114961505D01*
X121232830Y-114825965D01*
X121018663Y-114726097D01*
X120946074Y-114706647D01*
X120790407Y-114664936D01*
X120555000Y-114644340D01*
X120319592Y-114664936D01*
X120091336Y-114726097D01*
X119877170Y-114825965D01*
X119683598Y-114961505D01*
X119516505Y-115128598D01*
X119386575Y-115314159D01*
X119342257Y-115353025D01*
X119285000Y-115367036D01*
X119227743Y-115353025D01*
X119183425Y-115314159D01*
X119076085Y-115160861D01*
X119053495Y-115128599D01*
X118886401Y-114961505D01*
X118692830Y-114825965D01*
X118478663Y-114726097D01*
X118406074Y-114706647D01*
X118250407Y-114664936D01*
X118015000Y-114644340D01*
X117779592Y-114664936D01*
X117551336Y-114726097D01*
X117337170Y-114825965D01*
X117143601Y-114961503D01*
X117021673Y-115083431D01*
X116968926Y-115114726D01*
X116907634Y-115116915D01*
X116852789Y-115089462D01*
X116817810Y-115039082D01*
X116810658Y-115019907D01*
X116768796Y-114907669D01*
X116682546Y-114792454D01*
X116567331Y-114706204D01*
X116432483Y-114655909D01*
X116372873Y-114649500D01*
X116372869Y-114649500D01*
X114577130Y-114649500D01*
X114517515Y-114655909D01*
X114382669Y-114706204D01*
X114267454Y-114792454D01*
X114181204Y-114907668D01*
X114131852Y-115039987D01*
X114130909Y-115042517D01*
X114125534Y-115092516D01*
X114124500Y-115102130D01*
X114124500Y-116897869D01*
X108619125Y-116897869D01*
X108707656Y-116725675D01*
X108795118Y-116469305D01*
X108844319Y-116202933D01*
X108854212Y-115932235D01*
X108824586Y-115662982D01*
X108756072Y-115400912D01*
X108650130Y-115151610D01*
X108525448Y-114947311D01*
X108509017Y-114920388D01*
X108335746Y-114712181D01*
X108316048Y-114694532D01*
X108134002Y-114531418D01*
X107908090Y-114381956D01*
X107908086Y-114381954D01*
X107662822Y-114266978D01*
X107403437Y-114188941D01*
X107403431Y-114188940D01*
X107135439Y-114149500D01*
X106932369Y-114149500D01*
X106932366Y-114149500D01*
X106729843Y-114164322D01*
X106465449Y-114223219D01*
X106212441Y-114319986D01*
X105976223Y-114452559D01*
X105761825Y-114618109D01*
X105573813Y-114813120D01*
X105416201Y-115033420D01*
X105292342Y-115274329D01*
X105204881Y-115530695D01*
X105155680Y-115797066D01*
X105145787Y-116067764D01*
X102003302Y-116067764D01*
X102000605Y-116002562D01*
X102000500Y-115997439D01*
X102000500Y-107620000D01*
X104644340Y-107620000D01*
X104664936Y-107855407D01*
X104703667Y-107999953D01*
X104726097Y-108083663D01*
X104825965Y-108297830D01*
X104961505Y-108491401D01*
X105128599Y-108658495D01*
X105322170Y-108794035D01*
X105536337Y-108893903D01*
X105764592Y-108955063D01*
X106000000Y-108975659D01*
X106235408Y-108955063D01*
X106463663Y-108893903D01*
X106677830Y-108794035D01*
X106871401Y-108658495D01*
X107038495Y-108491401D01*
X107168428Y-108305837D01*
X107212742Y-108266975D01*
X107269999Y-108252964D01*
X107327255Y-108266974D01*
X107371573Y-108305839D01*
X107501505Y-108491401D01*
X107668599Y-108658495D01*
X107862170Y-108794035D01*
X108076337Y-108893903D01*
X108304592Y-108955063D01*
X108540000Y-108975659D01*
X108775408Y-108955063D01*
X109003663Y-108893903D01*
X109217830Y-108794035D01*
X109411401Y-108658495D01*
X109578495Y-108491401D01*
X109714035Y-108297830D01*
X109813903Y-108083663D01*
X109875063Y-107855408D01*
X109895659Y-107620000D01*
X109875063Y-107384592D01*
X109813903Y-107156337D01*
X109714035Y-106942171D01*
X109578495Y-106748599D01*
X109411401Y-106581505D01*
X109225402Y-106451267D01*
X109186539Y-106406951D01*
X109172528Y-106349694D01*
X109186539Y-106292437D01*
X109225405Y-106248119D01*
X109411078Y-106118109D01*
X109578106Y-105951081D01*
X109713600Y-105757576D01*
X109813430Y-105543492D01*
X109870636Y-105330000D01*
X104669364Y-105330000D01*
X104726569Y-105543492D01*
X104826399Y-105757576D01*
X104961893Y-105951081D01*
X105128918Y-106118106D01*
X105314595Y-106248119D01*
X105353460Y-106292437D01*
X105367471Y-106349694D01*
X105353460Y-106406951D01*
X105314595Y-106451269D01*
X105128595Y-106581508D01*
X104961505Y-106748598D01*
X104825965Y-106942170D01*
X104726097Y-107156336D01*
X104664936Y-107384592D01*
X104644340Y-107620000D01*
X102000500Y-107620000D01*
X102000500Y-102790000D01*
X104669364Y-102790000D01*
X104726569Y-103003492D01*
X104826399Y-103217576D01*
X104961893Y-103411081D01*
X105128918Y-103578106D01*
X105315031Y-103708425D01*
X105353896Y-103752743D01*
X105367907Y-103810000D01*
X105353896Y-103867257D01*
X105315031Y-103911575D01*
X105128918Y-104041893D01*
X104961890Y-104208921D01*
X104826400Y-104402421D01*
X104726569Y-104616507D01*
X104669364Y-104829999D01*
X104669364Y-104830000D01*
X105750000Y-104830000D01*
X105750000Y-102790000D01*
X106250000Y-102790000D01*
X106250000Y-104830000D01*
X108290000Y-104830000D01*
X108290000Y-102790000D01*
X108790000Y-102790000D01*
X108790000Y-104830000D01*
X109870636Y-104830000D01*
X109870635Y-104829999D01*
X109813430Y-104616507D01*
X109713599Y-104402421D01*
X109578109Y-104208921D01*
X109411081Y-104041893D01*
X109224968Y-103911575D01*
X109186103Y-103867257D01*
X109172092Y-103810000D01*
X109186103Y-103752743D01*
X109224968Y-103708425D01*
X109411081Y-103578106D01*
X109578106Y-103411081D01*
X109713600Y-103217576D01*
X109813430Y-103003492D01*
X109870636Y-102790000D01*
X108790000Y-102790000D01*
X108290000Y-102790000D01*
X106250000Y-102790000D01*
X105750000Y-102790000D01*
X104669364Y-102790000D01*
X102000500Y-102790000D01*
X102000500Y-100250000D01*
X104669364Y-100250000D01*
X104726569Y-100463492D01*
X104826399Y-100677576D01*
X104961893Y-100871081D01*
X105128918Y-101038106D01*
X105315031Y-101168425D01*
X105353896Y-101212743D01*
X105367907Y-101270000D01*
X105353896Y-101327257D01*
X105315031Y-101371575D01*
X105128918Y-101501893D01*
X104961890Y-101668921D01*
X104826400Y-101862421D01*
X104726569Y-102076507D01*
X104669364Y-102289999D01*
X104669364Y-102290000D01*
X105750000Y-102290000D01*
X105750000Y-100250000D01*
X106250000Y-100250000D01*
X106250000Y-102290000D01*
X108290000Y-102290000D01*
X108290000Y-100250000D01*
X108790000Y-100250000D01*
X108790000Y-102290000D01*
X109870636Y-102290000D01*
X109870635Y-102289999D01*
X109813430Y-102076507D01*
X109713599Y-101862421D01*
X109578109Y-101668921D01*
X109411081Y-101501893D01*
X109224968Y-101371575D01*
X109186103Y-101327257D01*
X109172092Y-101270000D01*
X109186103Y-101212743D01*
X109224968Y-101168425D01*
X109365532Y-101070000D01*
X129521128Y-101070000D01*
X129573733Y-101266326D01*
X129669865Y-101472480D01*
X129800341Y-101658819D01*
X129961180Y-101819658D01*
X130147519Y-101950134D01*
X130353673Y-102046266D01*
X130573397Y-102105141D01*
X130743235Y-102120000D01*
X130950000Y-102120000D01*
X130950000Y-101070000D01*
X129521128Y-101070000D01*
X109365532Y-101070000D01*
X109411081Y-101038106D01*
X109578106Y-100871081D01*
X109713600Y-100677576D01*
X109813430Y-100463492D01*
X109870636Y-100250000D01*
X108790000Y-100250000D01*
X108290000Y-100250000D01*
X106250000Y-100250000D01*
X105750000Y-100250000D01*
X104669364Y-100250000D01*
X102000500Y-100250000D01*
X102000500Y-97459999D01*
X104644340Y-97459999D01*
X104664936Y-97695407D01*
X104704318Y-97842382D01*
X104726097Y-97923663D01*
X104825965Y-98137830D01*
X104961505Y-98331401D01*
X105128599Y-98498495D01*
X105314597Y-98628732D01*
X105353460Y-98673048D01*
X105367471Y-98730305D01*
X105353461Y-98787561D01*
X105314595Y-98831880D01*
X105128919Y-98961892D01*
X104961890Y-99128921D01*
X104826400Y-99322421D01*
X104726569Y-99536507D01*
X104669364Y-99749999D01*
X104669364Y-99750000D01*
X109870636Y-99750000D01*
X109870635Y-99749999D01*
X109813430Y-99536507D01*
X109713599Y-99322421D01*
X109578109Y-99128921D01*
X109411081Y-98961893D01*
X109225404Y-98831880D01*
X109186539Y-98787562D01*
X109172528Y-98730305D01*
X109186539Y-98673048D01*
X109225402Y-98628732D01*
X109411401Y-98498495D01*
X109578495Y-98331401D01*
X109707006Y-98147869D01*
X113319500Y-98147869D01*
X113320897Y-98160859D01*
X113325909Y-98207483D01*
X113376204Y-98342331D01*
X113462454Y-98457546D01*
X113577669Y-98543796D01*
X113712517Y-98594091D01*
X113772127Y-98600500D01*
X116067872Y-98600499D01*
X116127483Y-98594091D01*
X116262331Y-98543796D01*
X116377546Y-98457546D01*
X116463796Y-98342331D01*
X116514091Y-98207483D01*
X116520500Y-98147873D01*
X116520499Y-97000000D01*
X123474551Y-97000000D01*
X123494317Y-97251149D01*
X123553126Y-97496110D01*
X123592252Y-97590568D01*
X123649534Y-97728859D01*
X123781164Y-97943659D01*
X123944776Y-98135224D01*
X124136341Y-98298836D01*
X124351141Y-98430466D01*
X124583889Y-98526873D01*
X124828852Y-98585683D01*
X125080000Y-98605449D01*
X125331148Y-98585683D01*
X125576111Y-98526873D01*
X125808859Y-98430466D01*
X126023659Y-98298836D01*
X126215224Y-98135224D01*
X126378836Y-97943659D01*
X126510466Y-97728859D01*
X126606873Y-97496111D01*
X126665683Y-97251148D01*
X126685449Y-97000000D01*
X126665683Y-96748852D01*
X126606873Y-96503889D01*
X126510466Y-96271141D01*
X126378836Y-96056341D01*
X126215224Y-95864776D01*
X126023659Y-95701164D01*
X125808859Y-95569534D01*
X125673117Y-95513308D01*
X125576110Y-95473126D01*
X125331149Y-95414317D01*
X125080000Y-95394551D01*
X124828850Y-95414317D01*
X124583889Y-95473126D01*
X124416518Y-95542454D01*
X124351231Y-95569497D01*
X124351139Y-95569535D01*
X124136342Y-95701163D01*
X123944776Y-95864776D01*
X123781163Y-96056342D01*
X123649535Y-96271139D01*
X123553126Y-96503889D01*
X123494317Y-96748850D01*
X123474551Y-97000000D01*
X116520499Y-97000000D01*
X116520499Y-95852128D01*
X116514091Y-95792517D01*
X116463796Y-95657669D01*
X116377546Y-95542454D01*
X116262331Y-95456204D01*
X116127483Y-95405909D01*
X116067873Y-95399500D01*
X116067869Y-95399500D01*
X113772130Y-95399500D01*
X113712515Y-95405909D01*
X113577669Y-95456204D01*
X113462454Y-95542454D01*
X113376204Y-95657668D01*
X113325909Y-95792516D01*
X113319500Y-95852130D01*
X113319500Y-98147869D01*
X109707006Y-98147869D01*
X109714035Y-98137830D01*
X109813903Y-97923663D01*
X109875063Y-97695408D01*
X109895659Y-97460000D01*
X109875063Y-97224592D01*
X109813903Y-96996337D01*
X109714035Y-96782171D01*
X109578495Y-96588599D01*
X109411401Y-96421505D01*
X109225839Y-96291573D01*
X109186975Y-96247257D01*
X109172964Y-96190000D01*
X109186975Y-96132743D01*
X109225839Y-96088426D01*
X109411401Y-95958495D01*
X109578495Y-95791401D01*
X109714035Y-95597830D01*
X109813903Y-95383663D01*
X109875063Y-95155408D01*
X109895659Y-94920000D01*
X109875063Y-94684592D01*
X109813903Y-94456337D01*
X109714035Y-94242171D01*
X109578495Y-94048599D01*
X109411401Y-93881505D01*
X109225839Y-93751573D01*
X109186975Y-93707257D01*
X109172964Y-93650000D01*
X109186975Y-93592743D01*
X109225839Y-93548426D01*
X109411401Y-93418495D01*
X109578495Y-93251401D01*
X109714035Y-93057830D01*
X109813903Y-92843663D01*
X109875063Y-92615408D01*
X109895659Y-92380000D01*
X109875063Y-92144592D01*
X109813903Y-91916337D01*
X109714035Y-91702171D01*
X109578495Y-91508599D01*
X109411401Y-91341505D01*
X109225839Y-91211573D01*
X109186974Y-91167255D01*
X109172964Y-91109999D01*
X109186975Y-91052742D01*
X109225837Y-91008428D01*
X109411401Y-90878495D01*
X109578495Y-90711401D01*
X109714035Y-90517830D01*
X109813903Y-90303663D01*
X109828282Y-90250000D01*
X113700000Y-90250000D01*
X113700000Y-90847824D01*
X113706402Y-90907375D01*
X113756647Y-91042089D01*
X113842811Y-91157188D01*
X113957910Y-91243352D01*
X114092624Y-91293597D01*
X114152176Y-91300000D01*
X114750000Y-91300000D01*
X115250000Y-91300000D01*
X115847824Y-91300000D01*
X115907375Y-91293597D01*
X116042089Y-91243352D01*
X116157187Y-91157189D01*
X116163641Y-91148569D01*
X116212892Y-91109412D01*
X116275022Y-91099470D01*
X116334031Y-91121300D01*
X116347266Y-91130568D01*
X116553504Y-91226739D01*
X116773308Y-91285635D01*
X116924435Y-91298856D01*
X116999999Y-91305468D01*
X116999999Y-91305467D01*
X117000000Y-91305468D01*
X117226692Y-91285635D01*
X117446496Y-91226739D01*
X117652734Y-91130568D01*
X117839139Y-91000047D01*
X117991317Y-90847869D01*
X121699500Y-90847869D01*
X121705909Y-90907484D01*
X121715613Y-90933502D01*
X121756204Y-91042331D01*
X121842454Y-91157546D01*
X121957669Y-91243796D01*
X122092517Y-91294091D01*
X122152127Y-91300500D01*
X123847872Y-91300499D01*
X123907483Y-91294091D01*
X124042331Y-91243796D01*
X124157546Y-91157546D01*
X124164351Y-91148454D01*
X124213601Y-91109299D01*
X124275731Y-91099357D01*
X124334742Y-91121189D01*
X124347515Y-91130133D01*
X124553673Y-91226266D01*
X124773397Y-91285141D01*
X125000000Y-91304966D01*
X125226602Y-91285141D01*
X125446326Y-91226266D01*
X125652480Y-91130134D01*
X125725472Y-91079025D01*
X124734128Y-90087681D01*
X124702034Y-90032094D01*
X124702034Y-90000001D01*
X125353553Y-90000001D01*
X126079025Y-90725472D01*
X126130134Y-90652480D01*
X126226266Y-90446326D01*
X126285141Y-90226602D01*
X126304966Y-89999999D01*
X126285141Y-89773397D01*
X126226266Y-89553673D01*
X126130133Y-89347515D01*
X126079025Y-89274526D01*
X125353553Y-90000000D01*
X125353553Y-90000001D01*
X124702034Y-90000001D01*
X124702034Y-89967906D01*
X124734128Y-89912319D01*
X125000000Y-89646447D01*
X125725472Y-88920974D01*
X125725471Y-88920972D01*
X125652484Y-88869866D01*
X125446326Y-88773733D01*
X125226602Y-88714858D01*
X124999999Y-88695033D01*
X124773397Y-88714858D01*
X124553672Y-88773733D01*
X124347518Y-88869865D01*
X124334740Y-88878812D01*
X124275730Y-88900642D01*
X124213602Y-88890700D01*
X124164352Y-88851545D01*
X124157547Y-88842455D01*
X124154266Y-88839999D01*
X124042331Y-88756204D01*
X123907483Y-88705909D01*
X123847873Y-88699500D01*
X123847869Y-88699500D01*
X122152130Y-88699500D01*
X122092515Y-88705909D01*
X121957669Y-88756204D01*
X121842454Y-88842454D01*
X121756204Y-88957668D01*
X121752127Y-88968598D01*
X121705909Y-89092517D01*
X121700085Y-89146692D01*
X121699500Y-89152130D01*
X121699500Y-90847869D01*
X117991317Y-90847869D01*
X118000047Y-90839139D01*
X118130568Y-90652734D01*
X118226739Y-90446496D01*
X118285635Y-90226692D01*
X118305468Y-90000000D01*
X118285635Y-89773308D01*
X118226739Y-89553504D01*
X118130568Y-89347266D01*
X118088017Y-89286497D01*
X118000046Y-89160859D01*
X117839140Y-88999953D01*
X117652735Y-88869432D01*
X117446497Y-88773261D01*
X117226689Y-88714364D01*
X116999999Y-88694531D01*
X116773310Y-88714364D01*
X116553502Y-88773261D01*
X116347264Y-88869432D01*
X116334029Y-88878699D01*
X116275020Y-88900528D01*
X116212894Y-88890586D01*
X116163644Y-88851433D01*
X116157190Y-88842811D01*
X116042089Y-88756647D01*
X115907375Y-88706402D01*
X115847824Y-88700000D01*
X115250000Y-88700000D01*
X115250000Y-91300000D01*
X114750000Y-91300000D01*
X114750000Y-90250000D01*
X113700000Y-90250000D01*
X109828282Y-90250000D01*
X109875063Y-90075408D01*
X109895659Y-89840000D01*
X109887785Y-89750000D01*
X113700000Y-89750000D01*
X114750000Y-89750000D01*
X114750000Y-88700000D01*
X114152176Y-88700000D01*
X114092624Y-88706402D01*
X113957910Y-88756647D01*
X113842811Y-88842811D01*
X113756647Y-88957910D01*
X113706402Y-89092624D01*
X113700000Y-89152176D01*
X113700000Y-89750000D01*
X109887785Y-89750000D01*
X109875063Y-89604592D01*
X109813903Y-89376337D01*
X109714035Y-89162171D01*
X109578495Y-88968599D01*
X109411401Y-88801505D01*
X109217830Y-88665965D01*
X109003663Y-88566097D01*
X108942502Y-88549709D01*
X108775407Y-88504936D01*
X108540000Y-88484340D01*
X108304592Y-88504936D01*
X108076336Y-88566097D01*
X107862170Y-88665965D01*
X107668601Y-88801503D01*
X107546673Y-88923431D01*
X107493926Y-88954726D01*
X107432634Y-88956915D01*
X107377789Y-88929462D01*
X107342810Y-88879082D01*
X107332497Y-88851433D01*
X107293796Y-88747669D01*
X107207546Y-88632454D01*
X107092331Y-88546204D01*
X106957483Y-88495909D01*
X106897873Y-88489500D01*
X106897869Y-88489500D01*
X105102130Y-88489500D01*
X105042515Y-88495909D01*
X104907669Y-88546204D01*
X104792454Y-88632454D01*
X104706204Y-88747668D01*
X104660627Y-88869866D01*
X104655909Y-88882517D01*
X104651775Y-88920972D01*
X104649500Y-88942130D01*
X104649500Y-90737869D01*
X104655909Y-90797484D01*
X104671446Y-90839139D01*
X104706204Y-90932331D01*
X104792454Y-91047546D01*
X104907669Y-91133796D01*
X104997383Y-91167257D01*
X105039082Y-91182810D01*
X105089462Y-91217789D01*
X105116915Y-91272634D01*
X105114726Y-91333926D01*
X105083431Y-91386673D01*
X104961503Y-91508601D01*
X104825965Y-91702170D01*
X104726097Y-91916336D01*
X104664936Y-92144592D01*
X104644340Y-92379999D01*
X104664936Y-92615407D01*
X104701939Y-92753502D01*
X104726097Y-92843663D01*
X104825965Y-93057830D01*
X104961505Y-93251401D01*
X105128599Y-93418495D01*
X105314160Y-93548426D01*
X105353024Y-93592743D01*
X105367035Y-93650000D01*
X105353024Y-93707257D01*
X105314158Y-93751575D01*
X105169689Y-93852734D01*
X105128595Y-93881508D01*
X104961505Y-94048598D01*
X104825965Y-94242170D01*
X104726097Y-94456336D01*
X104664936Y-94684592D01*
X104644340Y-94920000D01*
X104664936Y-95155407D01*
X104701939Y-95293502D01*
X104726097Y-95383663D01*
X104825965Y-95597830D01*
X104961505Y-95791401D01*
X105128599Y-95958495D01*
X105314160Y-96088426D01*
X105353024Y-96132743D01*
X105367035Y-96190000D01*
X105353024Y-96247257D01*
X105314158Y-96291575D01*
X105136563Y-96415929D01*
X105128595Y-96421508D01*
X104961505Y-96588598D01*
X104825965Y-96782170D01*
X104726097Y-96996336D01*
X104664936Y-97224592D01*
X104644340Y-97459999D01*
X102000500Y-97459999D01*
X102000500Y-83067764D01*
X105145787Y-83067764D01*
X105175413Y-83337016D01*
X105176803Y-83342331D01*
X105243928Y-83599088D01*
X105349870Y-83848390D01*
X105349871Y-83848392D01*
X105490982Y-84079611D01*
X105664253Y-84287818D01*
X105664255Y-84287820D01*
X105865998Y-84468582D01*
X106091910Y-84618044D01*
X106198211Y-84667875D01*
X106337177Y-84733021D01*
X106596562Y-84811058D01*
X106596569Y-84811060D01*
X106864561Y-84850500D01*
X107067631Y-84850500D01*
X107067634Y-84850500D01*
X107270156Y-84835677D01*
X107270156Y-84835676D01*
X107534553Y-84776780D01*
X107787558Y-84680014D01*
X108023777Y-84547441D01*
X108238177Y-84381888D01*
X108426186Y-84186881D01*
X108583799Y-83966579D01*
X108707656Y-83725675D01*
X108795118Y-83469305D01*
X108844319Y-83202933D01*
X108854212Y-82932235D01*
X108824586Y-82662982D01*
X108756072Y-82400912D01*
X108650130Y-82151610D01*
X108557604Y-82000001D01*
X108557603Y-82000000D01*
X113314551Y-82000000D01*
X113319893Y-82067872D01*
X113334317Y-82251149D01*
X113393126Y-82496110D01*
X113426483Y-82576641D01*
X113489534Y-82728859D01*
X113621164Y-82943659D01*
X113784776Y-83135224D01*
X113976341Y-83298836D01*
X114191141Y-83430466D01*
X114423889Y-83526873D01*
X114668852Y-83585683D01*
X114920000Y-83605449D01*
X115171148Y-83585683D01*
X115416111Y-83526873D01*
X115648859Y-83430466D01*
X115863659Y-83298836D01*
X116040419Y-83147869D01*
X123479500Y-83147869D01*
X123485909Y-83207484D01*
X123493091Y-83226739D01*
X123536204Y-83342331D01*
X123622454Y-83457546D01*
X123737669Y-83543796D01*
X123872517Y-83594091D01*
X123932127Y-83600500D01*
X124205500Y-83600500D01*
X124267500Y-83617113D01*
X124312887Y-83662500D01*
X124329500Y-83724500D01*
X124329500Y-83863061D01*
X124328191Y-83881031D01*
X124324711Y-83904790D01*
X124329028Y-83954136D01*
X124329500Y-83964943D01*
X124329500Y-83970475D01*
X124333098Y-84001263D01*
X124333464Y-84004848D01*
X124340110Y-84080808D01*
X124344329Y-84099838D01*
X124344758Y-84101018D01*
X124344759Y-84101022D01*
X124370413Y-84171509D01*
X124371582Y-84174874D01*
X124395580Y-84247291D01*
X124404075Y-84264839D01*
X124445979Y-84328551D01*
X124447889Y-84331549D01*
X124478941Y-84381890D01*
X124487952Y-84396499D01*
X124500253Y-84411597D01*
X124501168Y-84412460D01*
X124501170Y-84412463D01*
X124555709Y-84463918D01*
X124558296Y-84466431D01*
X131779684Y-91687819D01*
X131809934Y-91737182D01*
X131814476Y-91794898D01*
X131792321Y-91848385D01*
X131748298Y-91885985D01*
X131692003Y-91899500D01*
X129952130Y-91899500D01*
X129892515Y-91905909D01*
X129757669Y-91956204D01*
X129642454Y-92042454D01*
X129556204Y-92157668D01*
X129505909Y-92292516D01*
X129499500Y-92352130D01*
X129499500Y-94047869D01*
X129505909Y-94107483D01*
X129556204Y-94242331D01*
X129642454Y-94357546D01*
X129757669Y-94443796D01*
X129892517Y-94494091D01*
X129927594Y-94497862D01*
X129983513Y-94518239D01*
X130023497Y-94562327D01*
X130038332Y-94619968D01*
X130024600Y-94677881D01*
X129985464Y-94722724D01*
X129960860Y-94739952D01*
X129799953Y-94900859D01*
X129669432Y-95087264D01*
X129573261Y-95293502D01*
X129514364Y-95513310D01*
X129494531Y-95740000D01*
X129514364Y-95966689D01*
X129573261Y-96186497D01*
X129669432Y-96392735D01*
X129799953Y-96579140D01*
X129960859Y-96740046D01*
X130085095Y-96827036D01*
X130147266Y-96870568D01*
X130205275Y-96897618D01*
X130257450Y-96943375D01*
X130276869Y-97010000D01*
X130257450Y-97076625D01*
X130205275Y-97122382D01*
X130147263Y-97149433D01*
X129960859Y-97279953D01*
X129799953Y-97440859D01*
X129669432Y-97627264D01*
X129573261Y-97833502D01*
X129514364Y-98053310D01*
X129494531Y-98280000D01*
X129514364Y-98506689D01*
X129573261Y-98726497D01*
X129669432Y-98932735D01*
X129799953Y-99119140D01*
X129960859Y-99280046D01*
X130147264Y-99410567D01*
X130147265Y-99410567D01*
X130147266Y-99410568D01*
X130205865Y-99437893D01*
X130258040Y-99483650D01*
X130277460Y-99550274D01*
X130258041Y-99616899D01*
X130205866Y-99662656D01*
X130147522Y-99689863D01*
X129961180Y-99820341D01*
X129800341Y-99981180D01*
X129669865Y-100167519D01*
X129573733Y-100373673D01*
X129521128Y-100569999D01*
X129521128Y-100570000D01*
X131326000Y-100570000D01*
X131388000Y-100586613D01*
X131433387Y-100632000D01*
X131450000Y-100694000D01*
X131450000Y-102120000D01*
X131656765Y-102120000D01*
X131826602Y-102105141D01*
X132046326Y-102046266D01*
X132252480Y-101950134D01*
X132438819Y-101819658D01*
X132599658Y-101658819D01*
X132730134Y-101472480D01*
X132826266Y-101266327D01*
X132863686Y-101126675D01*
X132895780Y-101071088D01*
X132951367Y-101038994D01*
X133015555Y-101038994D01*
X133071142Y-101071088D01*
X143399564Y-111399510D01*
X143412912Y-111416169D01*
X143465831Y-111465864D01*
X143468628Y-111468575D01*
X143488962Y-111488909D01*
X143492443Y-111491609D01*
X143501326Y-111499195D01*
X143534607Y-111530448D01*
X143553198Y-111540668D01*
X143569462Y-111551351D01*
X143586235Y-111564362D01*
X143628138Y-111582495D01*
X143638626Y-111587633D01*
X143678632Y-111609627D01*
X143699197Y-111614906D01*
X143717593Y-111621205D01*
X143737074Y-111629636D01*
X143782178Y-111636779D01*
X143793597Y-111639144D01*
X143837823Y-111650500D01*
X143859045Y-111650500D01*
X143878443Y-111652026D01*
X143899405Y-111655347D01*
X143944863Y-111651049D01*
X143956531Y-111650500D01*
X156810562Y-111650500D01*
X156858015Y-111659939D01*
X156898243Y-111686819D01*
X159699243Y-114487819D01*
X159729493Y-114537182D01*
X159734035Y-114594898D01*
X159711880Y-114648385D01*
X159667857Y-114685985D01*
X159611562Y-114699500D01*
X158152130Y-114699500D01*
X158092515Y-114705909D01*
X157957669Y-114756204D01*
X157842454Y-114842454D01*
X157756204Y-114957668D01*
X157705909Y-115092516D01*
X157699500Y-115152130D01*
X157699500Y-116847869D01*
X157705909Y-116907484D01*
X157727950Y-116966579D01*
X157756204Y-117042331D01*
X157842454Y-117157546D01*
X157957669Y-117243796D01*
X158092517Y-117294091D01*
X158152127Y-117300500D01*
X159847872Y-117300499D01*
X159907483Y-117294091D01*
X160042331Y-117243796D01*
X160157546Y-117157546D01*
X160164052Y-117148854D01*
X160213304Y-117109699D01*
X160275433Y-117099757D01*
X160334444Y-117121590D01*
X160347264Y-117130567D01*
X160347265Y-117130567D01*
X160347266Y-117130568D01*
X160553504Y-117226739D01*
X160773308Y-117285635D01*
X161000000Y-117305468D01*
X161226692Y-117285635D01*
X161446496Y-117226739D01*
X161652734Y-117130568D01*
X161839139Y-117000047D01*
X162000047Y-116839139D01*
X162130568Y-116652734D01*
X162226739Y-116446496D01*
X162285635Y-116226692D01*
X162299539Y-116067764D01*
X169145787Y-116067764D01*
X169175413Y-116337016D01*
X169208523Y-116463662D01*
X169243928Y-116599088D01*
X169297720Y-116725670D01*
X169349871Y-116848392D01*
X169490982Y-117079611D01*
X169664253Y-117287818D01*
X169664255Y-117287820D01*
X169865998Y-117468582D01*
X170091910Y-117618044D01*
X170103197Y-117623335D01*
X170337177Y-117733021D01*
X170596562Y-117811058D01*
X170596569Y-117811060D01*
X170864561Y-117850500D01*
X171067631Y-117850500D01*
X171067634Y-117850500D01*
X171270156Y-117835677D01*
X171343782Y-117819276D01*
X171534553Y-117776780D01*
X171787558Y-117680014D01*
X172023777Y-117547441D01*
X172238177Y-117381888D01*
X172426186Y-117186881D01*
X172583799Y-116966579D01*
X172707656Y-116725675D01*
X172795118Y-116469305D01*
X172844319Y-116202933D01*
X172854212Y-115932235D01*
X172824586Y-115662982D01*
X172756072Y-115400912D01*
X172650130Y-115151610D01*
X172525448Y-114947311D01*
X172509017Y-114920388D01*
X172335746Y-114712181D01*
X172316048Y-114694532D01*
X172134002Y-114531418D01*
X171908090Y-114381956D01*
X171908086Y-114381954D01*
X171662822Y-114266978D01*
X171403437Y-114188941D01*
X171403431Y-114188940D01*
X171135439Y-114149500D01*
X170932369Y-114149500D01*
X170932366Y-114149500D01*
X170729843Y-114164322D01*
X170465449Y-114223219D01*
X170212441Y-114319986D01*
X169976223Y-114452559D01*
X169761825Y-114618109D01*
X169573813Y-114813120D01*
X169416201Y-115033420D01*
X169292342Y-115274329D01*
X169204881Y-115530695D01*
X169155680Y-115797066D01*
X169145787Y-116067764D01*
X162299539Y-116067764D01*
X162305468Y-116000000D01*
X162285635Y-115773308D01*
X162226739Y-115553504D01*
X162130568Y-115347266D01*
X162112996Y-115322171D01*
X162000046Y-115160859D01*
X161839140Y-114999953D01*
X161701668Y-114903695D01*
X161663714Y-114861097D01*
X161648852Y-114806013D01*
X161648426Y-114792454D01*
X161647597Y-114766061D01*
X161641675Y-114745678D01*
X161637732Y-114726641D01*
X161635071Y-114705572D01*
X161618263Y-114663121D01*
X161614480Y-114652072D01*
X161604613Y-114618109D01*
X161601744Y-114608232D01*
X161590937Y-114589959D01*
X161582382Y-114572496D01*
X161574568Y-114552759D01*
X161547733Y-114515823D01*
X161541325Y-114506066D01*
X161518084Y-114466768D01*
X161518081Y-114466765D01*
X161503068Y-114451752D01*
X161490435Y-114436960D01*
X161477963Y-114419793D01*
X161442779Y-114390686D01*
X161434140Y-114382824D01*
X157651804Y-110600488D01*
X157638461Y-110583833D01*
X157585536Y-110534134D01*
X157582739Y-110531423D01*
X157562404Y-110511088D01*
X157558917Y-110508383D01*
X157550041Y-110500801D01*
X157516764Y-110469552D01*
X157498163Y-110459326D01*
X157481902Y-110448645D01*
X157465134Y-110435638D01*
X157423240Y-110417508D01*
X157412749Y-110412369D01*
X157372737Y-110390372D01*
X157352170Y-110385091D01*
X157333768Y-110378791D01*
X157314294Y-110370364D01*
X157269207Y-110363223D01*
X157257768Y-110360854D01*
X157213548Y-110349500D01*
X157213547Y-110349500D01*
X157192325Y-110349500D01*
X157172926Y-110347973D01*
X157151966Y-110344653D01*
X157151965Y-110344653D01*
X157129928Y-110346736D01*
X157106509Y-110348950D01*
X157094840Y-110349500D01*
X150653344Y-110349500D01*
X150593227Y-110333953D01*
X150548186Y-110291210D01*
X150529514Y-110231989D01*
X150541894Y-110171141D01*
X150582221Y-110123925D01*
X150759140Y-110000046D01*
X150920046Y-109839140D01*
X151050567Y-109652735D01*
X151050568Y-109652734D01*
X151146739Y-109446496D01*
X151205635Y-109226692D01*
X151225468Y-109000000D01*
X151225468Y-108999999D01*
X158774531Y-108999999D01*
X158794364Y-109226689D01*
X158853261Y-109446497D01*
X158949432Y-109652735D01*
X159079953Y-109839140D01*
X159240859Y-110000046D01*
X159427264Y-110130567D01*
X159427265Y-110130567D01*
X159427266Y-110130568D01*
X159633504Y-110226739D01*
X159853308Y-110285635D01*
X160080000Y-110305468D01*
X160306692Y-110285635D01*
X160526496Y-110226739D01*
X160732734Y-110130568D01*
X160919139Y-110000047D01*
X161080047Y-109839139D01*
X161210568Y-109652734D01*
X161306739Y-109446496D01*
X161365635Y-109226692D01*
X161385468Y-109000000D01*
X161367095Y-108790000D01*
X167650000Y-108790000D01*
X167650000Y-109437824D01*
X167656402Y-109497375D01*
X167706647Y-109632089D01*
X167792811Y-109747188D01*
X167907910Y-109833352D01*
X168042624Y-109883597D01*
X168102176Y-109890000D01*
X168750000Y-109890000D01*
X168750000Y-108790000D01*
X169250000Y-108790000D01*
X169250000Y-109890000D01*
X169897824Y-109890000D01*
X169957375Y-109883597D01*
X170092089Y-109833352D01*
X170207188Y-109747188D01*
X170293352Y-109632089D01*
X170343597Y-109497375D01*
X170350000Y-109437824D01*
X170350000Y-108790000D01*
X169250000Y-108790000D01*
X168750000Y-108790000D01*
X167650000Y-108790000D01*
X161367095Y-108790000D01*
X161365635Y-108773308D01*
X161306739Y-108553504D01*
X161210568Y-108347266D01*
X161181562Y-108305841D01*
X161170470Y-108290000D01*
X167650000Y-108290000D01*
X168750000Y-108290000D01*
X168750000Y-106250000D01*
X169250000Y-106250000D01*
X169250000Y-108290000D01*
X170350000Y-108290000D01*
X170350000Y-107642176D01*
X170343597Y-107582624D01*
X170293352Y-107447910D01*
X170207188Y-107332811D01*
X170092088Y-107246647D01*
X169960012Y-107197385D01*
X169909633Y-107162405D01*
X169882180Y-107107561D01*
X169884369Y-107046268D01*
X169915665Y-106993521D01*
X170038109Y-106871077D01*
X170173600Y-106677576D01*
X170273430Y-106463492D01*
X170330636Y-106250000D01*
X169250000Y-106250000D01*
X168750000Y-106250000D01*
X167669364Y-106250000D01*
X167726569Y-106463492D01*
X167826399Y-106677576D01*
X167961893Y-106871081D01*
X168084334Y-106993522D01*
X168115630Y-107046268D01*
X168117819Y-107107561D01*
X168090366Y-107162405D01*
X168039987Y-107197385D01*
X167907911Y-107246647D01*
X167792811Y-107332811D01*
X167706647Y-107447910D01*
X167656402Y-107582624D01*
X167650000Y-107642176D01*
X167650000Y-108290000D01*
X161170470Y-108290000D01*
X161080046Y-108160859D01*
X160919140Y-107999953D01*
X160732735Y-107869432D01*
X160526497Y-107773261D01*
X160306689Y-107714364D01*
X160080000Y-107694531D01*
X159853310Y-107714364D01*
X159633502Y-107773261D01*
X159427264Y-107869432D01*
X159240859Y-107999953D01*
X159079953Y-108160859D01*
X158949432Y-108347264D01*
X158853261Y-108553502D01*
X158794364Y-108773310D01*
X158774531Y-108999999D01*
X151225468Y-108999999D01*
X151205635Y-108773308D01*
X151146739Y-108553504D01*
X151050568Y-108347266D01*
X151021562Y-108305841D01*
X150920046Y-108160859D01*
X150759140Y-107999953D01*
X150572735Y-107869432D01*
X150366497Y-107773261D01*
X150146689Y-107714364D01*
X149920000Y-107694531D01*
X149693310Y-107714364D01*
X149473502Y-107773261D01*
X149267264Y-107869432D01*
X149080859Y-107999953D01*
X148919953Y-108160859D01*
X148789432Y-108347264D01*
X148693261Y-108553502D01*
X148634364Y-108773310D01*
X148614531Y-108999999D01*
X148634364Y-109226689D01*
X148693261Y-109446497D01*
X148789432Y-109652735D01*
X148919953Y-109839140D01*
X149080859Y-110000046D01*
X149257779Y-110123925D01*
X149298106Y-110171141D01*
X149310486Y-110231989D01*
X149291814Y-110291210D01*
X149246773Y-110333953D01*
X149186656Y-110349500D01*
X144240808Y-110349500D01*
X144193355Y-110340061D01*
X144153127Y-110313181D01*
X139122945Y-105282999D01*
X143982531Y-105282999D01*
X144002364Y-105509689D01*
X144061261Y-105729497D01*
X144157432Y-105935735D01*
X144287953Y-106122140D01*
X144448859Y-106283046D01*
X144635264Y-106413567D01*
X144635265Y-106413567D01*
X144635266Y-106413568D01*
X144841504Y-106509739D01*
X145061308Y-106568635D01*
X145288000Y-106588468D01*
X145514692Y-106568635D01*
X145734496Y-106509739D01*
X145940734Y-106413568D01*
X146127139Y-106283047D01*
X146288047Y-106122139D01*
X146418568Y-105935734D01*
X146514739Y-105729496D01*
X146573635Y-105509692D01*
X146593468Y-105283000D01*
X146573635Y-105056308D01*
X146514739Y-104836504D01*
X146418568Y-104630266D01*
X146417492Y-104628730D01*
X146288046Y-104443859D01*
X146127140Y-104282953D01*
X145940735Y-104152432D01*
X145734497Y-104056261D01*
X145524523Y-103999999D01*
X148614531Y-103999999D01*
X148634364Y-104226689D01*
X148693261Y-104446497D01*
X148789432Y-104652735D01*
X148919953Y-104839140D01*
X149080859Y-105000046D01*
X149267264Y-105130567D01*
X149267265Y-105130567D01*
X149267266Y-105130568D01*
X149473504Y-105226739D01*
X149693308Y-105285635D01*
X149920000Y-105305468D01*
X150146692Y-105285635D01*
X150366496Y-105226739D01*
X150572734Y-105130568D01*
X150759139Y-105000047D01*
X150920047Y-104839139D01*
X151050568Y-104652734D01*
X151146739Y-104446496D01*
X151205635Y-104226692D01*
X151225468Y-104000000D01*
X151225468Y-103999999D01*
X158774531Y-103999999D01*
X158794364Y-104226689D01*
X158853261Y-104446497D01*
X158949432Y-104652735D01*
X159079953Y-104839140D01*
X159240859Y-105000046D01*
X159427264Y-105130567D01*
X159427265Y-105130567D01*
X159427266Y-105130568D01*
X159633504Y-105226739D01*
X159853308Y-105285635D01*
X160080000Y-105305468D01*
X160306692Y-105285635D01*
X160526496Y-105226739D01*
X160732734Y-105130568D01*
X160919139Y-105000047D01*
X161080047Y-104839139D01*
X161210568Y-104652734D01*
X161306739Y-104446496D01*
X161365635Y-104226692D01*
X161385468Y-104000000D01*
X161385237Y-103997365D01*
X161365635Y-103773310D01*
X161365635Y-103773308D01*
X161306739Y-103553504D01*
X161263137Y-103460000D01*
X167644340Y-103460000D01*
X167664936Y-103695407D01*
X167695641Y-103810000D01*
X167726097Y-103923663D01*
X167825965Y-104137830D01*
X167961505Y-104331401D01*
X168128599Y-104498495D01*
X168314597Y-104628732D01*
X168353460Y-104673048D01*
X168367471Y-104730305D01*
X168353461Y-104787561D01*
X168314595Y-104831880D01*
X168128919Y-104961892D01*
X167961890Y-105128921D01*
X167826400Y-105322421D01*
X167726569Y-105536507D01*
X167669364Y-105749999D01*
X167669364Y-105750000D01*
X170330636Y-105750000D01*
X170330635Y-105749999D01*
X170273430Y-105536507D01*
X170173599Y-105322421D01*
X170038109Y-105128921D01*
X169871081Y-104961893D01*
X169685404Y-104831880D01*
X169646539Y-104787562D01*
X169632528Y-104730305D01*
X169646539Y-104673048D01*
X169685402Y-104628732D01*
X169871401Y-104498495D01*
X170038495Y-104331401D01*
X170174035Y-104137830D01*
X170273903Y-103923663D01*
X170335063Y-103695408D01*
X170355659Y-103460000D01*
X170335063Y-103224592D01*
X170273903Y-102996337D01*
X170174035Y-102782171D01*
X170038495Y-102588599D01*
X169871401Y-102421505D01*
X169677830Y-102285965D01*
X169463663Y-102186097D01*
X169402502Y-102169709D01*
X169235407Y-102124936D01*
X169000000Y-102104340D01*
X168764592Y-102124936D01*
X168536336Y-102186097D01*
X168322170Y-102285965D01*
X168128598Y-102421505D01*
X167961505Y-102588598D01*
X167825965Y-102782170D01*
X167726097Y-102996336D01*
X167664936Y-103224592D01*
X167644340Y-103460000D01*
X161263137Y-103460000D01*
X161210568Y-103347266D01*
X161124935Y-103224969D01*
X161080046Y-103160859D01*
X160919140Y-102999953D01*
X160732735Y-102869432D01*
X160526497Y-102773261D01*
X160306689Y-102714364D01*
X160080000Y-102694531D01*
X159853310Y-102714364D01*
X159633502Y-102773261D01*
X159427264Y-102869432D01*
X159240859Y-102999953D01*
X159079953Y-103160859D01*
X158949432Y-103347264D01*
X158853261Y-103553502D01*
X158794364Y-103773310D01*
X158774531Y-103999999D01*
X151225468Y-103999999D01*
X151225237Y-103997365D01*
X151205635Y-103773310D01*
X151205635Y-103773308D01*
X151146739Y-103553504D01*
X151050568Y-103347266D01*
X150964935Y-103224969D01*
X150920046Y-103160859D01*
X150759140Y-102999953D01*
X150572735Y-102869432D01*
X150366497Y-102773261D01*
X150146689Y-102714364D01*
X149920000Y-102694531D01*
X149693310Y-102714364D01*
X149473502Y-102773261D01*
X149267264Y-102869432D01*
X149080859Y-102999953D01*
X148919953Y-103160859D01*
X148789432Y-103347264D01*
X148693261Y-103553502D01*
X148634364Y-103773310D01*
X148614531Y-103999999D01*
X145524523Y-103999999D01*
X145514689Y-103997364D01*
X145288000Y-103977531D01*
X145061310Y-103997364D01*
X144841502Y-104056261D01*
X144635264Y-104152432D01*
X144448859Y-104282953D01*
X144287953Y-104443859D01*
X144157432Y-104630264D01*
X144061261Y-104836502D01*
X144002364Y-105056310D01*
X143982531Y-105282999D01*
X139122945Y-105282999D01*
X132805355Y-98965409D01*
X132777797Y-98923509D01*
X132769088Y-98874121D01*
X132780652Y-98825326D01*
X132826739Y-98726496D01*
X132885635Y-98506692D01*
X132905468Y-98280000D01*
X132885635Y-98053308D01*
X132826739Y-97833504D01*
X132730568Y-97627266D01*
X132723812Y-97617618D01*
X132600046Y-97440859D01*
X132439140Y-97279953D01*
X132252733Y-97149431D01*
X132194725Y-97122382D01*
X132142549Y-97076625D01*
X132123129Y-97010000D01*
X132142549Y-96943375D01*
X132194725Y-96897618D01*
X132252734Y-96870568D01*
X132439139Y-96740047D01*
X132600047Y-96579139D01*
X132730568Y-96392734D01*
X132826739Y-96186496D01*
X132885635Y-95966692D01*
X132905468Y-95740000D01*
X132885635Y-95513308D01*
X132826739Y-95293504D01*
X132730568Y-95087266D01*
X132723812Y-95077618D01*
X132600046Y-94900859D01*
X132439140Y-94739953D01*
X132414537Y-94722726D01*
X132375399Y-94677884D01*
X132361666Y-94619970D01*
X132376500Y-94562328D01*
X132416485Y-94518239D01*
X132472406Y-94497861D01*
X132507483Y-94494091D01*
X132642331Y-94443796D01*
X132757546Y-94357546D01*
X132843796Y-94242331D01*
X132894091Y-94107483D01*
X132900500Y-94047873D01*
X132900499Y-93107993D01*
X132914014Y-93051700D01*
X132951614Y-93007677D01*
X133005101Y-92985522D01*
X133062817Y-92990064D01*
X133112180Y-93020314D01*
X136317500Y-96225634D01*
X136329281Y-96239266D01*
X136343623Y-96258530D01*
X136381588Y-96290386D01*
X136389550Y-96297684D01*
X136393457Y-96301591D01*
X136417775Y-96320819D01*
X136420531Y-96323063D01*
X136478019Y-96371302D01*
X136478021Y-96371303D01*
X136478990Y-96372116D01*
X136495410Y-96382576D01*
X136496554Y-96383109D01*
X136496556Y-96383111D01*
X136564590Y-96414835D01*
X136567689Y-96416335D01*
X136633900Y-96449588D01*
X136635937Y-96450611D01*
X136654317Y-96456998D01*
X136655554Y-96457253D01*
X136655560Y-96457256D01*
X136729095Y-96472439D01*
X136732442Y-96473181D01*
X136805512Y-96490500D01*
X136805514Y-96490500D01*
X136806738Y-96490790D01*
X136826109Y-96492769D01*
X136827373Y-96492732D01*
X136827377Y-96492733D01*
X136902343Y-96490552D01*
X136905949Y-96490500D01*
X137293337Y-96490500D01*
X137350594Y-96504511D01*
X137394912Y-96543377D01*
X137419953Y-96579140D01*
X137580859Y-96740046D01*
X137705095Y-96827036D01*
X137767266Y-96870568D01*
X137825275Y-96897618D01*
X137877450Y-96943375D01*
X137896869Y-97010000D01*
X137877450Y-97076625D01*
X137825275Y-97122382D01*
X137767263Y-97149433D01*
X137580859Y-97279953D01*
X137419953Y-97440859D01*
X137289432Y-97627264D01*
X137193261Y-97833502D01*
X137134364Y-98053310D01*
X137114531Y-98280000D01*
X137134364Y-98506689D01*
X137193261Y-98726497D01*
X137289432Y-98932735D01*
X137419953Y-99119140D01*
X137580859Y-99280046D01*
X137767263Y-99410566D01*
X137767266Y-99410568D01*
X137825275Y-99437618D01*
X137877450Y-99483375D01*
X137896869Y-99550000D01*
X137877450Y-99616625D01*
X137825275Y-99662382D01*
X137767263Y-99689433D01*
X137580859Y-99819953D01*
X137419953Y-99980859D01*
X137289432Y-100167264D01*
X137193261Y-100373502D01*
X137134364Y-100593310D01*
X137114531Y-100820000D01*
X137134364Y-101046689D01*
X137193261Y-101266497D01*
X137289432Y-101472735D01*
X137419953Y-101659140D01*
X137580859Y-101820046D01*
X137767264Y-101950567D01*
X137767265Y-101950567D01*
X137767266Y-101950568D01*
X137973504Y-102046739D01*
X138193308Y-102105635D01*
X138278261Y-102113067D01*
X138363214Y-102120500D01*
X138363216Y-102120500D01*
X139276784Y-102120500D01*
X139276786Y-102120500D01*
X139344747Y-102114553D01*
X139446692Y-102105635D01*
X139666496Y-102046739D01*
X139872734Y-101950568D01*
X140059139Y-101820047D01*
X140220047Y-101659139D01*
X140350568Y-101472734D01*
X140446739Y-101266496D01*
X140505635Y-101046692D01*
X140525468Y-100820000D01*
X140505635Y-100593308D01*
X140446739Y-100373504D01*
X140350568Y-100167266D01*
X140344798Y-100159026D01*
X140220046Y-99980859D01*
X140059140Y-99819953D01*
X139872733Y-99689431D01*
X139814725Y-99662382D01*
X139762549Y-99616625D01*
X139743129Y-99550000D01*
X139762549Y-99483375D01*
X139814725Y-99437618D01*
X139872734Y-99410568D01*
X140059139Y-99280047D01*
X140220047Y-99119139D01*
X140303469Y-98999999D01*
X154494531Y-98999999D01*
X154514364Y-99226689D01*
X154573261Y-99446497D01*
X154669432Y-99652735D01*
X154799953Y-99839140D01*
X154960859Y-100000046D01*
X155147264Y-100130567D01*
X155147265Y-100130567D01*
X155147266Y-100130568D01*
X155353504Y-100226739D01*
X155573308Y-100285635D01*
X155658262Y-100293067D01*
X155743214Y-100300500D01*
X155743216Y-100300500D01*
X156656784Y-100300500D01*
X156656786Y-100300500D01*
X156724747Y-100294554D01*
X156826692Y-100285635D01*
X157046496Y-100226739D01*
X157252734Y-100130568D01*
X157439139Y-100000047D01*
X157600047Y-99839139D01*
X157730568Y-99652734D01*
X157826739Y-99446496D01*
X157885635Y-99226692D01*
X157905468Y-99000000D01*
X157885635Y-98773308D01*
X157826739Y-98553504D01*
X157730568Y-98347266D01*
X157719461Y-98331404D01*
X157600046Y-98160859D01*
X157439140Y-97999953D01*
X157252733Y-97869431D01*
X157194725Y-97842382D01*
X157142549Y-97796625D01*
X157123129Y-97730000D01*
X157142549Y-97663375D01*
X157194725Y-97617618D01*
X157252734Y-97590568D01*
X157439139Y-97460047D01*
X157600047Y-97299139D01*
X157730568Y-97112734D01*
X157826739Y-96906496D01*
X157885635Y-96686692D01*
X157905468Y-96460000D01*
X157904819Y-96452587D01*
X157888119Y-96261701D01*
X157885635Y-96233308D01*
X157826739Y-96013504D01*
X157730568Y-95807266D01*
X157720239Y-95792515D01*
X157600046Y-95620859D01*
X157439140Y-95459953D01*
X157252736Y-95329433D01*
X157194725Y-95302382D01*
X157194132Y-95302105D01*
X157141958Y-95256348D01*
X157122539Y-95189723D01*
X157141959Y-95123098D01*
X157194135Y-95077342D01*
X157252479Y-95050135D01*
X157438819Y-94919658D01*
X157599658Y-94758819D01*
X157730134Y-94572480D01*
X157826266Y-94366326D01*
X157878872Y-94170000D01*
X154521128Y-94170000D01*
X154573733Y-94366326D01*
X154669865Y-94572480D01*
X154800341Y-94758819D01*
X154961180Y-94919658D01*
X155147519Y-95050134D01*
X155205865Y-95077342D01*
X155258040Y-95123099D01*
X155277460Y-95189723D01*
X155258041Y-95256348D01*
X155205866Y-95302105D01*
X155147267Y-95329430D01*
X154960859Y-95459953D01*
X154799953Y-95620859D01*
X154669432Y-95807264D01*
X154573261Y-96013502D01*
X154514364Y-96233310D01*
X154494531Y-96459999D01*
X154514364Y-96686689D01*
X154573261Y-96906497D01*
X154669432Y-97112735D01*
X154799953Y-97299140D01*
X154960859Y-97460046D01*
X155012366Y-97496111D01*
X155147266Y-97590568D01*
X155205273Y-97617617D01*
X155257449Y-97663373D01*
X155276869Y-97729997D01*
X155257451Y-97796622D01*
X155205276Y-97842380D01*
X155147266Y-97869431D01*
X154960859Y-97999953D01*
X154799953Y-98160859D01*
X154669432Y-98347264D01*
X154573261Y-98553502D01*
X154514364Y-98773310D01*
X154494531Y-98999999D01*
X140303469Y-98999999D01*
X140350568Y-98932734D01*
X140446739Y-98726496D01*
X140505635Y-98506692D01*
X140525468Y-98280000D01*
X140505635Y-98053308D01*
X140446739Y-97833504D01*
X140350568Y-97627266D01*
X140343812Y-97617618D01*
X140220046Y-97440859D01*
X140059140Y-97279953D01*
X139872733Y-97149431D01*
X139814725Y-97122382D01*
X139762549Y-97076625D01*
X139743129Y-97010000D01*
X139762549Y-96943375D01*
X139814725Y-96897618D01*
X139872734Y-96870568D01*
X140059139Y-96740047D01*
X140220047Y-96579139D01*
X140245088Y-96543377D01*
X140289406Y-96504511D01*
X140346663Y-96490500D01*
X140564294Y-96490500D01*
X140582264Y-96491809D01*
X140586320Y-96492402D01*
X140606023Y-96495289D01*
X140655368Y-96490972D01*
X140666176Y-96490500D01*
X140671706Y-96490500D01*
X140671709Y-96490500D01*
X140702550Y-96486894D01*
X140706031Y-96486539D01*
X140780797Y-96479999D01*
X140780797Y-96479998D01*
X140782052Y-96479889D01*
X140801062Y-96475674D01*
X140802250Y-96475241D01*
X140802255Y-96475241D01*
X140872820Y-96449557D01*
X140876095Y-96448419D01*
X140947334Y-96424814D01*
X140947336Y-96424812D01*
X140948536Y-96424415D01*
X140966063Y-96415929D01*
X140967112Y-96415238D01*
X140967117Y-96415237D01*
X141029806Y-96374005D01*
X141032798Y-96372099D01*
X141096656Y-96332712D01*
X141096656Y-96332711D01*
X141097729Y-96332050D01*
X141112824Y-96319753D01*
X141113692Y-96318832D01*
X141113696Y-96318830D01*
X141165185Y-96264253D01*
X141167631Y-96261735D01*
X142306367Y-95122999D01*
X143982531Y-95122999D01*
X144002364Y-95349689D01*
X144061261Y-95569497D01*
X144157432Y-95775735D01*
X144287953Y-95962140D01*
X144448859Y-96123046D01*
X144635264Y-96253567D01*
X144635265Y-96253567D01*
X144635266Y-96253568D01*
X144841504Y-96349739D01*
X145061308Y-96408635D01*
X145288000Y-96428468D01*
X145514692Y-96408635D01*
X145734496Y-96349739D01*
X145940734Y-96253568D01*
X146127139Y-96123047D01*
X146288047Y-95962139D01*
X146418568Y-95775734D01*
X146514739Y-95569496D01*
X146573635Y-95349692D01*
X146593468Y-95123000D01*
X146573635Y-94896308D01*
X146514739Y-94676504D01*
X146418568Y-94470266D01*
X146408814Y-94456336D01*
X146288046Y-94283859D01*
X146127140Y-94122953D01*
X145940735Y-93992432D01*
X145734497Y-93896261D01*
X145514689Y-93837364D01*
X145288000Y-93817531D01*
X145061310Y-93837364D01*
X144841502Y-93896261D01*
X144635264Y-93992432D01*
X144448859Y-94122953D01*
X144287953Y-94283859D01*
X144157432Y-94470264D01*
X144061261Y-94676502D01*
X144002364Y-94896310D01*
X143982531Y-95122999D01*
X142306367Y-95122999D01*
X145022652Y-92406714D01*
X145067921Y-92377875D01*
X145121136Y-92370869D01*
X145264366Y-92383400D01*
X145287999Y-92385468D01*
X145287999Y-92385467D01*
X145288000Y-92385468D01*
X145454861Y-92370869D01*
X145508077Y-92377875D01*
X145553348Y-92406716D01*
X146262269Y-93115637D01*
X146274051Y-93129270D01*
X146288389Y-93148529D01*
X146326337Y-93180372D01*
X146334311Y-93187680D01*
X146338221Y-93191590D01*
X146362537Y-93210816D01*
X146365336Y-93213096D01*
X146423752Y-93262113D01*
X146440179Y-93272578D01*
X146509320Y-93304819D01*
X146512567Y-93306391D01*
X146580699Y-93340609D01*
X146599087Y-93347000D01*
X146600323Y-93347255D01*
X146600327Y-93347257D01*
X146673895Y-93362447D01*
X146677242Y-93363189D01*
X146750279Y-93380500D01*
X146750281Y-93380500D01*
X146751509Y-93380791D01*
X146770878Y-93382770D01*
X146772140Y-93382733D01*
X146772144Y-93382734D01*
X146844533Y-93380627D01*
X146847131Y-93380552D01*
X146850737Y-93380500D01*
X154437099Y-93380500D01*
X154491943Y-93393288D01*
X154535475Y-93429014D01*
X154558716Y-93480309D01*
X154556874Y-93536594D01*
X154521128Y-93669999D01*
X154521128Y-93670000D01*
X157878872Y-93670000D01*
X157878871Y-93669999D01*
X157843126Y-93536594D01*
X157841284Y-93480309D01*
X157864525Y-93429014D01*
X157908057Y-93393288D01*
X157962901Y-93380500D01*
X162056581Y-93380500D01*
X162111425Y-93393288D01*
X162154957Y-93429014D01*
X162178198Y-93480309D01*
X162176356Y-93536593D01*
X162134364Y-93693308D01*
X162114531Y-93919999D01*
X162134364Y-94146689D01*
X162193261Y-94366497D01*
X162289432Y-94572735D01*
X162419953Y-94759140D01*
X162580859Y-94920046D01*
X162767263Y-95050566D01*
X162767266Y-95050568D01*
X162824683Y-95077342D01*
X162825275Y-95077618D01*
X162877450Y-95123375D01*
X162896869Y-95190000D01*
X162877450Y-95256625D01*
X162825275Y-95302382D01*
X162767263Y-95329433D01*
X162580859Y-95459953D01*
X162419953Y-95620859D01*
X162289432Y-95807264D01*
X162193261Y-96013502D01*
X162134364Y-96233310D01*
X162114531Y-96459999D01*
X162134364Y-96686689D01*
X162193261Y-96906497D01*
X162289432Y-97112735D01*
X162419953Y-97299140D01*
X162580859Y-97460046D01*
X162632366Y-97496111D01*
X162767266Y-97590568D01*
X162825273Y-97617617D01*
X162877449Y-97663373D01*
X162896869Y-97729997D01*
X162877451Y-97796622D01*
X162825276Y-97842380D01*
X162767266Y-97869431D01*
X162580859Y-97999953D01*
X162419953Y-98160859D01*
X162289432Y-98347264D01*
X162193261Y-98553502D01*
X162134364Y-98773310D01*
X162114531Y-98999999D01*
X162134364Y-99226689D01*
X162193261Y-99446497D01*
X162289432Y-99652735D01*
X162419953Y-99839140D01*
X162580859Y-100000046D01*
X162767264Y-100130567D01*
X162767265Y-100130567D01*
X162767266Y-100130568D01*
X162973504Y-100226739D01*
X163193308Y-100285635D01*
X163278262Y-100293067D01*
X163363214Y-100300500D01*
X163363216Y-100300500D01*
X164276784Y-100300500D01*
X164276786Y-100300500D01*
X164344747Y-100294554D01*
X164446692Y-100285635D01*
X164666496Y-100226739D01*
X164811706Y-100159026D01*
X168274526Y-100159026D01*
X168347515Y-100210133D01*
X168553673Y-100306266D01*
X168773397Y-100365141D01*
X169000000Y-100384966D01*
X169226602Y-100365141D01*
X169446326Y-100306266D01*
X169652480Y-100210134D01*
X169725472Y-100159025D01*
X169000001Y-99433553D01*
X169000000Y-99433553D01*
X168274526Y-100159025D01*
X168274526Y-100159026D01*
X164811706Y-100159026D01*
X164872734Y-100130568D01*
X165059139Y-100000047D01*
X165220047Y-99839139D01*
X165350568Y-99652734D01*
X165446739Y-99446496D01*
X165505635Y-99226692D01*
X165518469Y-99080000D01*
X167695033Y-99080000D01*
X167714858Y-99306602D01*
X167773733Y-99526326D01*
X167869866Y-99732484D01*
X167920972Y-99805471D01*
X167920974Y-99805472D01*
X168646446Y-99080001D01*
X169353553Y-99080001D01*
X170079025Y-99805472D01*
X170130134Y-99732480D01*
X170226266Y-99526326D01*
X170285141Y-99306602D01*
X170304966Y-99080000D01*
X170285141Y-98853397D01*
X170226266Y-98633673D01*
X170130133Y-98427515D01*
X170079025Y-98354526D01*
X169353553Y-99080000D01*
X169353553Y-99080001D01*
X168646446Y-99080001D01*
X168646446Y-99080000D01*
X167920973Y-98354526D01*
X167920973Y-98354527D01*
X167869865Y-98427516D01*
X167773733Y-98633672D01*
X167714858Y-98853397D01*
X167695033Y-99080000D01*
X165518469Y-99080000D01*
X165525468Y-99000000D01*
X165505635Y-98773308D01*
X165446739Y-98553504D01*
X165350568Y-98347266D01*
X165339461Y-98331404D01*
X165220046Y-98160859D01*
X165060160Y-98000973D01*
X168274526Y-98000973D01*
X169000000Y-98726446D01*
X169000001Y-98726446D01*
X169725472Y-98000974D01*
X169725471Y-98000972D01*
X169652484Y-97949866D01*
X169446326Y-97853733D01*
X169226602Y-97794858D01*
X169000000Y-97775033D01*
X168773397Y-97794858D01*
X168553672Y-97853733D01*
X168347516Y-97949865D01*
X168274527Y-98000973D01*
X168274526Y-98000973D01*
X165060160Y-98000973D01*
X165059140Y-97999953D01*
X164872733Y-97869431D01*
X164814725Y-97842382D01*
X164762549Y-97796625D01*
X164743129Y-97730000D01*
X164762549Y-97663375D01*
X164814725Y-97617618D01*
X164872734Y-97590568D01*
X165059139Y-97460047D01*
X165220047Y-97299139D01*
X165350568Y-97112734D01*
X165446739Y-96906496D01*
X165505635Y-96686692D01*
X165525468Y-96460000D01*
X165524819Y-96452587D01*
X165508119Y-96261701D01*
X165505635Y-96233308D01*
X165446739Y-96013504D01*
X165350568Y-95807266D01*
X165340239Y-95792515D01*
X165220046Y-95620859D01*
X165059140Y-95459953D01*
X164872733Y-95329431D01*
X164814725Y-95302382D01*
X164762549Y-95256625D01*
X164743129Y-95190000D01*
X164762549Y-95123375D01*
X164814725Y-95077618D01*
X164815317Y-95077342D01*
X164872734Y-95050568D01*
X165059139Y-94920047D01*
X165220047Y-94759139D01*
X165350568Y-94572734D01*
X165446739Y-94366496D01*
X165505635Y-94146692D01*
X165525468Y-93920000D01*
X165505635Y-93693308D01*
X165446739Y-93473504D01*
X165350568Y-93267266D01*
X165339461Y-93251404D01*
X165220046Y-93080859D01*
X165059140Y-92919953D01*
X164872733Y-92789431D01*
X164814725Y-92762382D01*
X164762549Y-92716625D01*
X164743129Y-92650000D01*
X164762549Y-92583375D01*
X164814725Y-92537618D01*
X164872734Y-92510568D01*
X165059139Y-92380047D01*
X165220047Y-92219139D01*
X165350568Y-92032734D01*
X165446739Y-91826496D01*
X165505635Y-91606692D01*
X165525468Y-91380000D01*
X165505635Y-91153308D01*
X165446739Y-90933504D01*
X165350568Y-90727266D01*
X165349172Y-90725273D01*
X165220046Y-90540859D01*
X165059140Y-90379953D01*
X164872733Y-90249431D01*
X164814725Y-90222382D01*
X164762549Y-90176625D01*
X164743129Y-90110000D01*
X164762549Y-90043375D01*
X164814725Y-89997618D01*
X164872734Y-89970568D01*
X165059139Y-89840047D01*
X165220047Y-89679139D01*
X165350568Y-89492734D01*
X165446739Y-89286496D01*
X165505635Y-89066692D01*
X165518469Y-88919999D01*
X167694531Y-88919999D01*
X167714364Y-89146689D01*
X167773261Y-89366497D01*
X167869432Y-89572735D01*
X167999953Y-89759140D01*
X168160859Y-89920046D01*
X168347264Y-90050567D01*
X168347265Y-90050567D01*
X168347266Y-90050568D01*
X168553504Y-90146739D01*
X168773308Y-90205635D01*
X169000000Y-90225468D01*
X169226692Y-90205635D01*
X169446496Y-90146739D01*
X169652734Y-90050568D01*
X169839139Y-89920047D01*
X170000047Y-89759139D01*
X170130568Y-89572734D01*
X170226739Y-89366496D01*
X170285635Y-89146692D01*
X170305468Y-88920000D01*
X170285635Y-88693308D01*
X170226739Y-88473504D01*
X170130568Y-88267266D01*
X170102190Y-88226738D01*
X170000046Y-88080859D01*
X169839140Y-87919953D01*
X169652735Y-87789432D01*
X169446497Y-87693261D01*
X169226689Y-87634364D01*
X168999999Y-87614531D01*
X168773310Y-87634364D01*
X168553502Y-87693261D01*
X168347264Y-87789432D01*
X168160859Y-87919953D01*
X167999953Y-88080859D01*
X167869432Y-88267264D01*
X167773261Y-88473502D01*
X167714364Y-88693310D01*
X167694531Y-88919999D01*
X165518469Y-88919999D01*
X165525468Y-88840000D01*
X165505635Y-88613308D01*
X165446739Y-88393504D01*
X165350568Y-88187266D01*
X165310867Y-88130567D01*
X165220046Y-88000859D01*
X165059140Y-87839953D01*
X164872732Y-87709430D01*
X164814724Y-87682380D01*
X164762549Y-87636623D01*
X164743130Y-87569997D01*
X164762550Y-87503373D01*
X164814721Y-87457619D01*
X164872734Y-87430568D01*
X165059139Y-87300047D01*
X165220047Y-87139139D01*
X165350568Y-86952734D01*
X165446739Y-86746496D01*
X165505635Y-86526692D01*
X165525468Y-86300000D01*
X165505635Y-86073308D01*
X165446739Y-85853504D01*
X165350568Y-85647266D01*
X165220047Y-85460861D01*
X165220046Y-85460859D01*
X165059140Y-85299953D01*
X164872733Y-85169431D01*
X164814725Y-85142382D01*
X164762549Y-85096625D01*
X164743129Y-85030000D01*
X164762549Y-84963375D01*
X164814725Y-84917618D01*
X164872734Y-84890568D01*
X165059139Y-84760047D01*
X165220047Y-84599139D01*
X165350568Y-84412734D01*
X165446739Y-84206496D01*
X165505635Y-83986692D01*
X165525468Y-83760000D01*
X165505635Y-83533308D01*
X165446739Y-83313504D01*
X165350568Y-83107266D01*
X165330794Y-83079026D01*
X165322908Y-83067764D01*
X169145787Y-83067764D01*
X169175413Y-83337016D01*
X169176803Y-83342331D01*
X169243928Y-83599088D01*
X169349870Y-83848390D01*
X169349871Y-83848392D01*
X169490982Y-84079611D01*
X169664253Y-84287818D01*
X169664255Y-84287820D01*
X169865998Y-84468582D01*
X170091910Y-84618044D01*
X170198211Y-84667875D01*
X170337177Y-84733021D01*
X170596562Y-84811058D01*
X170596569Y-84811060D01*
X170864561Y-84850500D01*
X171067631Y-84850500D01*
X171067634Y-84850500D01*
X171270156Y-84835677D01*
X171270156Y-84835676D01*
X171534553Y-84776780D01*
X171787558Y-84680014D01*
X172023777Y-84547441D01*
X172238177Y-84381888D01*
X172426186Y-84186881D01*
X172583799Y-83966579D01*
X172707656Y-83725675D01*
X172795118Y-83469305D01*
X172844319Y-83202933D01*
X172854212Y-82932235D01*
X172824586Y-82662982D01*
X172756072Y-82400912D01*
X172650130Y-82151610D01*
X172557604Y-82000001D01*
X172509017Y-81920388D01*
X172335746Y-81712181D01*
X172284759Y-81666497D01*
X172134002Y-81531418D01*
X171908090Y-81381956D01*
X171908086Y-81381954D01*
X171662822Y-81266978D01*
X171403437Y-81188941D01*
X171403431Y-81188940D01*
X171135439Y-81149500D01*
X170932369Y-81149500D01*
X170932366Y-81149500D01*
X170729843Y-81164322D01*
X170465449Y-81223219D01*
X170212441Y-81319986D01*
X169976223Y-81452559D01*
X169761825Y-81618109D01*
X169573813Y-81813120D01*
X169416201Y-82033420D01*
X169292342Y-82274329D01*
X169204881Y-82530695D01*
X169155680Y-82797066D01*
X169145787Y-83067764D01*
X165322908Y-83067764D01*
X165220046Y-82920859D01*
X165059140Y-82759953D01*
X164872733Y-82629431D01*
X164814725Y-82602382D01*
X164762549Y-82556625D01*
X164743129Y-82490000D01*
X164762549Y-82423375D01*
X164814725Y-82377618D01*
X164872734Y-82350568D01*
X165059139Y-82220047D01*
X165220047Y-82059139D01*
X165350568Y-81872734D01*
X165446739Y-81666496D01*
X165505635Y-81446692D01*
X165525468Y-81220000D01*
X165505635Y-80993308D01*
X165446739Y-80773504D01*
X165350568Y-80567266D01*
X165347834Y-80563362D01*
X165220046Y-80380859D01*
X165059140Y-80219953D01*
X164872735Y-80089432D01*
X164666497Y-79993261D01*
X164446689Y-79934364D01*
X164276786Y-79919500D01*
X164276784Y-79919500D01*
X163363216Y-79919500D01*
X163363214Y-79919500D01*
X163193310Y-79934364D01*
X162973502Y-79993261D01*
X162767264Y-80089432D01*
X162580859Y-80219953D01*
X162419953Y-80380859D01*
X162289432Y-80567264D01*
X162193261Y-80773502D01*
X162134364Y-80993310D01*
X162114531Y-81219999D01*
X162134364Y-81446689D01*
X162193261Y-81666497D01*
X162289432Y-81872735D01*
X162419953Y-82059140D01*
X162580859Y-82220046D01*
X162658384Y-82274329D01*
X162767266Y-82350568D01*
X162825275Y-82377618D01*
X162877450Y-82423375D01*
X162896869Y-82490000D01*
X162877450Y-82556625D01*
X162825275Y-82602382D01*
X162767263Y-82629433D01*
X162580859Y-82759953D01*
X162419953Y-82920859D01*
X162289432Y-83107264D01*
X162193261Y-83313502D01*
X162134364Y-83533310D01*
X162114531Y-83759999D01*
X162134364Y-83986689D01*
X162193261Y-84206497D01*
X162289432Y-84412735D01*
X162419953Y-84599140D01*
X162580859Y-84760046D01*
X162710042Y-84850500D01*
X162767266Y-84890568D01*
X162825275Y-84917618D01*
X162877450Y-84963375D01*
X162896869Y-85030000D01*
X162877450Y-85096625D01*
X162825275Y-85142382D01*
X162767263Y-85169433D01*
X162580859Y-85299953D01*
X162419953Y-85460859D01*
X162289432Y-85647264D01*
X162193261Y-85853502D01*
X162134364Y-86073310D01*
X162114531Y-86299999D01*
X162134364Y-86526689D01*
X162193261Y-86746497D01*
X162289432Y-86952735D01*
X162419953Y-87139140D01*
X162580859Y-87300046D01*
X162767262Y-87430565D01*
X162767266Y-87430568D01*
X162825273Y-87457617D01*
X162877449Y-87503373D01*
X162896869Y-87569997D01*
X162877451Y-87636622D01*
X162825276Y-87682380D01*
X162767266Y-87709431D01*
X162580859Y-87839953D01*
X162419953Y-88000859D01*
X162289432Y-88187264D01*
X162193261Y-88393502D01*
X162134364Y-88613310D01*
X162114531Y-88839999D01*
X162134364Y-89066689D01*
X162193261Y-89286497D01*
X162289432Y-89492735D01*
X162419953Y-89679140D01*
X162580859Y-89840046D01*
X162684077Y-89912319D01*
X162767266Y-89970568D01*
X162825275Y-89997618D01*
X162877450Y-90043375D01*
X162896869Y-90110000D01*
X162877450Y-90176625D01*
X162825275Y-90222382D01*
X162767263Y-90249433D01*
X162580859Y-90379953D01*
X162419953Y-90540859D01*
X162289432Y-90727264D01*
X162193261Y-90933502D01*
X162134364Y-91153310D01*
X162114531Y-91379999D01*
X162134364Y-91606691D01*
X162165638Y-91723407D01*
X162167480Y-91779691D01*
X162144239Y-91830987D01*
X162100707Y-91866712D01*
X162045863Y-91879500D01*
X157974137Y-91879500D01*
X157919293Y-91866712D01*
X157875761Y-91830987D01*
X157852520Y-91779691D01*
X157854362Y-91723407D01*
X157885635Y-91606691D01*
X157905468Y-91379999D01*
X157886006Y-91157545D01*
X157885635Y-91153308D01*
X157826739Y-90933504D01*
X157730568Y-90727266D01*
X157729172Y-90725273D01*
X157600046Y-90540859D01*
X157439140Y-90379953D01*
X157252733Y-90249431D01*
X157194725Y-90222382D01*
X157142549Y-90176625D01*
X157123129Y-90110000D01*
X157142549Y-90043375D01*
X157194725Y-89997618D01*
X157252734Y-89970568D01*
X157439139Y-89840047D01*
X157600047Y-89679139D01*
X157730568Y-89492734D01*
X157826739Y-89286496D01*
X157885635Y-89066692D01*
X157905468Y-88840000D01*
X157885635Y-88613308D01*
X157826739Y-88393504D01*
X157730568Y-88187266D01*
X157690867Y-88130567D01*
X157600046Y-88000859D01*
X157439140Y-87839953D01*
X157252732Y-87709430D01*
X157194724Y-87682380D01*
X157142549Y-87636623D01*
X157123130Y-87569997D01*
X157142550Y-87503373D01*
X157194721Y-87457619D01*
X157252734Y-87430568D01*
X157439139Y-87300047D01*
X157600047Y-87139139D01*
X157730568Y-86952734D01*
X157826739Y-86746496D01*
X157885635Y-86526692D01*
X157905468Y-86300000D01*
X157885635Y-86073308D01*
X157826739Y-85853504D01*
X157730568Y-85647266D01*
X157600047Y-85460861D01*
X157600046Y-85460859D01*
X157439140Y-85299953D01*
X157252733Y-85169431D01*
X157194725Y-85142382D01*
X157142549Y-85096625D01*
X157123129Y-85030000D01*
X157142549Y-84963375D01*
X157194725Y-84917618D01*
X157252734Y-84890568D01*
X157439139Y-84760047D01*
X157600047Y-84599139D01*
X157730568Y-84412734D01*
X157826739Y-84206496D01*
X157885635Y-83986692D01*
X157905468Y-83760000D01*
X157885635Y-83533308D01*
X157826739Y-83313504D01*
X157730568Y-83107266D01*
X157710794Y-83079026D01*
X157600046Y-82920859D01*
X157439140Y-82759953D01*
X157414537Y-82742726D01*
X157375399Y-82697884D01*
X157361666Y-82639970D01*
X157376500Y-82582328D01*
X157416485Y-82538239D01*
X157472406Y-82517861D01*
X157507483Y-82514091D01*
X157642331Y-82463796D01*
X157757546Y-82377546D01*
X157843796Y-82262331D01*
X157894091Y-82127483D01*
X157900500Y-82067873D01*
X157900499Y-80372128D01*
X157894091Y-80312517D01*
X157843796Y-80177669D01*
X157757546Y-80062454D01*
X157642331Y-79976204D01*
X157507483Y-79925909D01*
X157447873Y-79919500D01*
X157447869Y-79919500D01*
X154952130Y-79919500D01*
X154892515Y-79925909D01*
X154757669Y-79976204D01*
X154642454Y-80062454D01*
X154556204Y-80177668D01*
X154505909Y-80312516D01*
X154499500Y-80372130D01*
X154499500Y-82067869D01*
X154505909Y-82127484D01*
X154514908Y-82151610D01*
X154556204Y-82262331D01*
X154642454Y-82377546D01*
X154757669Y-82463796D01*
X154892517Y-82514091D01*
X154927594Y-82517862D01*
X154983513Y-82538239D01*
X155023497Y-82582327D01*
X155038332Y-82639968D01*
X155024600Y-82697881D01*
X154985464Y-82742724D01*
X154960860Y-82759952D01*
X154799953Y-82920859D01*
X154669432Y-83107264D01*
X154573261Y-83313502D01*
X154514364Y-83533310D01*
X154494531Y-83759999D01*
X154514364Y-83986689D01*
X154573261Y-84206497D01*
X154669432Y-84412735D01*
X154799953Y-84599140D01*
X154960859Y-84760046D01*
X155090042Y-84850500D01*
X155147266Y-84890568D01*
X155205275Y-84917618D01*
X155257450Y-84963375D01*
X155276869Y-85030000D01*
X155257450Y-85096625D01*
X155205275Y-85142382D01*
X155147263Y-85169433D01*
X154960859Y-85299953D01*
X154799953Y-85460859D01*
X154669432Y-85647264D01*
X154573261Y-85853502D01*
X154514364Y-86073310D01*
X154494531Y-86299999D01*
X154514364Y-86526689D01*
X154573261Y-86746497D01*
X154669432Y-86952735D01*
X154799953Y-87139140D01*
X154960859Y-87300046D01*
X155147262Y-87430565D01*
X155147266Y-87430568D01*
X155205273Y-87457617D01*
X155257449Y-87503373D01*
X155276869Y-87569997D01*
X155257451Y-87636622D01*
X155205276Y-87682380D01*
X155147266Y-87709431D01*
X154960859Y-87839953D01*
X154799953Y-88000859D01*
X154669432Y-88187264D01*
X154573261Y-88393502D01*
X154514364Y-88613310D01*
X154494531Y-88839999D01*
X154514364Y-89066689D01*
X154573261Y-89286497D01*
X154669432Y-89492735D01*
X154799953Y-89679140D01*
X154960859Y-89840046D01*
X155064077Y-89912319D01*
X155147266Y-89970568D01*
X155205275Y-89997618D01*
X155257450Y-90043375D01*
X155276869Y-90110000D01*
X155257450Y-90176625D01*
X155205275Y-90222382D01*
X155147263Y-90249433D01*
X154960859Y-90379953D01*
X154799953Y-90540859D01*
X154669432Y-90727264D01*
X154573261Y-90933502D01*
X154514364Y-91153310D01*
X154494531Y-91379999D01*
X154514364Y-91606691D01*
X154545638Y-91723407D01*
X154547480Y-91779691D01*
X154524239Y-91830987D01*
X154480707Y-91866712D01*
X154425863Y-91879500D01*
X152005771Y-91879500D01*
X151946128Y-91864214D01*
X151901190Y-91822125D01*
X151882036Y-91763610D01*
X151893389Y-91703095D01*
X151900512Y-91687819D01*
X151975739Y-91526496D01*
X152034635Y-91306692D01*
X152054468Y-91080000D01*
X152034635Y-90853308D01*
X151975739Y-90633504D01*
X151879568Y-90427266D01*
X151846439Y-90379953D01*
X151749046Y-90240859D01*
X151588140Y-90079953D01*
X151401735Y-89949432D01*
X151195497Y-89853261D01*
X150975689Y-89794364D01*
X150749000Y-89774531D01*
X150522310Y-89794364D01*
X150302502Y-89853261D01*
X150096264Y-89949432D01*
X149909859Y-90079953D01*
X149748953Y-90240859D01*
X149618432Y-90427264D01*
X149522261Y-90633502D01*
X149463364Y-90853310D01*
X149443531Y-91079999D01*
X149463364Y-91306689D01*
X149522261Y-91526497D01*
X149604611Y-91703095D01*
X149615964Y-91763610D01*
X149596810Y-91822125D01*
X149551872Y-91864214D01*
X149492229Y-91879500D01*
X147200230Y-91879500D01*
X147152777Y-91870061D01*
X147112549Y-91843181D01*
X146614716Y-91345348D01*
X146585875Y-91300077D01*
X146578869Y-91246861D01*
X146593468Y-91080000D01*
X146573635Y-90853308D01*
X146514739Y-90633504D01*
X146418568Y-90427266D01*
X146385439Y-90379953D01*
X146288046Y-90240859D01*
X146127140Y-90079953D01*
X145940735Y-89949432D01*
X145734497Y-89853261D01*
X145514689Y-89794364D01*
X145288000Y-89774531D01*
X145061310Y-89794364D01*
X144841502Y-89853261D01*
X144635264Y-89949432D01*
X144448859Y-90079953D01*
X144287953Y-90240859D01*
X144157432Y-90427264D01*
X144061261Y-90633502D01*
X144002364Y-90853310D01*
X143982531Y-91080000D01*
X143997129Y-91246860D01*
X143990123Y-91300078D01*
X143961282Y-91345348D01*
X140400590Y-94906041D01*
X140345003Y-94938135D01*
X140280815Y-94938135D01*
X140225228Y-94906041D01*
X140059140Y-94739953D01*
X139872733Y-94609431D01*
X139814725Y-94582382D01*
X139762549Y-94536625D01*
X139743129Y-94470000D01*
X139762549Y-94403375D01*
X139814725Y-94357618D01*
X139872734Y-94330568D01*
X140059139Y-94200047D01*
X140220047Y-94039139D01*
X140350568Y-93852734D01*
X140446739Y-93646496D01*
X140505635Y-93426692D01*
X140525468Y-93200000D01*
X140505635Y-92973308D01*
X140446739Y-92753504D01*
X140350568Y-92547266D01*
X140343812Y-92537618D01*
X140220046Y-92360859D01*
X140059140Y-92199953D01*
X139872735Y-92069432D01*
X139666497Y-91973261D01*
X139446689Y-91914364D01*
X139276786Y-91899500D01*
X139276784Y-91899500D01*
X138363216Y-91899500D01*
X138363214Y-91899500D01*
X138193310Y-91914364D01*
X137973502Y-91973261D01*
X137767264Y-92069432D01*
X137580859Y-92199953D01*
X137419953Y-92360859D01*
X137289432Y-92547264D01*
X137193261Y-92753502D01*
X137134364Y-92973310D01*
X137114531Y-93200000D01*
X137134364Y-93426689D01*
X137193261Y-93646497D01*
X137289432Y-93852735D01*
X137419953Y-94039140D01*
X137580859Y-94200046D01*
X137641249Y-94242331D01*
X137767266Y-94330568D01*
X137825275Y-94357618D01*
X137877450Y-94403375D01*
X137896869Y-94470000D01*
X137877450Y-94536625D01*
X137825275Y-94582382D01*
X137767263Y-94609433D01*
X137580859Y-94739953D01*
X137419953Y-94900859D01*
X137394912Y-94936623D01*
X137350594Y-94975489D01*
X137293337Y-94989500D01*
X137255463Y-94989500D01*
X137208010Y-94980061D01*
X137167782Y-94953181D01*
X130543077Y-88328476D01*
X130512496Y-88278079D01*
X130508643Y-88219254D01*
X130532390Y-88165299D01*
X130565953Y-88138368D01*
X130564848Y-88136790D01*
X130573735Y-88130567D01*
X130760139Y-88000047D01*
X130921047Y-87839139D01*
X131051568Y-87652734D01*
X131147739Y-87446496D01*
X131206635Y-87226692D01*
X131226468Y-87000000D01*
X138775531Y-87000000D01*
X138795364Y-87226689D01*
X138854261Y-87446497D01*
X138950432Y-87652735D01*
X139080953Y-87839140D01*
X139241859Y-88000046D01*
X139428264Y-88130567D01*
X139428265Y-88130567D01*
X139428266Y-88130568D01*
X139634504Y-88226739D01*
X139854308Y-88285635D01*
X140081000Y-88305468D01*
X140307692Y-88285635D01*
X140527496Y-88226739D01*
X140733734Y-88130568D01*
X140920139Y-88000047D01*
X141081047Y-87839139D01*
X141211568Y-87652734D01*
X141307739Y-87446496D01*
X141366635Y-87226692D01*
X141386468Y-87000000D01*
X141366635Y-86773308D01*
X141307739Y-86553504D01*
X141211568Y-86347266D01*
X141178472Y-86300000D01*
X141081046Y-86160859D01*
X140920140Y-85999953D01*
X140733735Y-85869432D01*
X140527497Y-85773261D01*
X140307689Y-85714364D01*
X140080999Y-85694531D01*
X139854310Y-85714364D01*
X139634502Y-85773261D01*
X139428264Y-85869432D01*
X139241859Y-85999953D01*
X139080953Y-86160859D01*
X138950432Y-86347264D01*
X138854261Y-86553502D01*
X138795364Y-86773310D01*
X138775531Y-87000000D01*
X131226468Y-87000000D01*
X131206635Y-86773308D01*
X131147739Y-86553504D01*
X131051568Y-86347266D01*
X131018472Y-86300000D01*
X130921046Y-86160859D01*
X130760140Y-85999953D01*
X130573735Y-85869432D01*
X130367497Y-85773261D01*
X130147689Y-85714364D01*
X129920999Y-85694531D01*
X129694310Y-85714364D01*
X129474502Y-85773261D01*
X129268264Y-85869432D01*
X129081859Y-85999953D01*
X128920953Y-86160859D01*
X128784210Y-86356152D01*
X128782633Y-86355048D01*
X128755683Y-86388622D01*
X128701731Y-86412358D01*
X128642914Y-86408501D01*
X128592523Y-86377922D01*
X126026781Y-83812180D01*
X125996531Y-83762817D01*
X125991989Y-83705101D01*
X126014144Y-83651614D01*
X126058167Y-83614014D01*
X126114462Y-83600499D01*
X126227870Y-83600499D01*
X126227872Y-83600499D01*
X126287483Y-83594091D01*
X126422331Y-83543796D01*
X126537546Y-83457546D01*
X126623796Y-83342331D01*
X126674091Y-83207483D01*
X126680500Y-83147873D01*
X126680500Y-83079026D01*
X129194526Y-83079026D01*
X129267515Y-83130133D01*
X129473673Y-83226266D01*
X129693397Y-83285141D01*
X129920000Y-83304966D01*
X130146602Y-83285141D01*
X130366326Y-83226266D01*
X130572480Y-83130134D01*
X130645472Y-83079025D01*
X129920001Y-82353553D01*
X129920000Y-82353553D01*
X129194526Y-83079025D01*
X129194526Y-83079026D01*
X126680500Y-83079026D01*
X126680499Y-81999999D01*
X128615033Y-81999999D01*
X128634858Y-82226602D01*
X128693733Y-82446326D01*
X128789866Y-82652484D01*
X128840972Y-82725471D01*
X128840974Y-82725472D01*
X129566446Y-82000001D01*
X129566446Y-82000000D01*
X129566445Y-81999999D01*
X130273553Y-81999999D01*
X130999025Y-82725472D01*
X131050134Y-82652480D01*
X131146266Y-82446326D01*
X131205141Y-82226602D01*
X131224966Y-82000000D01*
X138774531Y-82000000D01*
X138794364Y-82226689D01*
X138853261Y-82446497D01*
X138949432Y-82652735D01*
X139079953Y-82839140D01*
X139240859Y-83000046D01*
X139427264Y-83130567D01*
X139427265Y-83130567D01*
X139427266Y-83130568D01*
X139633504Y-83226739D01*
X139853308Y-83285635D01*
X140080000Y-83305468D01*
X140306692Y-83285635D01*
X140526496Y-83226739D01*
X140732734Y-83130568D01*
X140919139Y-83000047D01*
X141080047Y-82839139D01*
X141210568Y-82652734D01*
X141306739Y-82446496D01*
X141365635Y-82226692D01*
X141385468Y-82000000D01*
X141365635Y-81773308D01*
X141306739Y-81553504D01*
X141210568Y-81347266D01*
X141207797Y-81343309D01*
X141080046Y-81160859D01*
X140919140Y-80999953D01*
X140804953Y-80919999D01*
X143982531Y-80919999D01*
X144002364Y-81146689D01*
X144061261Y-81366497D01*
X144157432Y-81572735D01*
X144287953Y-81759140D01*
X144448859Y-81920046D01*
X144635264Y-82050567D01*
X144635265Y-82050567D01*
X144635266Y-82050568D01*
X144841504Y-82146739D01*
X145061308Y-82205635D01*
X145288000Y-82225468D01*
X145514692Y-82205635D01*
X145734496Y-82146739D01*
X145940734Y-82050568D01*
X146127139Y-81920047D01*
X146288047Y-81759139D01*
X146418568Y-81572734D01*
X146514739Y-81366496D01*
X146573635Y-81146692D01*
X146593468Y-80920000D01*
X146593468Y-80919999D01*
X149443531Y-80919999D01*
X149463364Y-81146689D01*
X149522261Y-81366497D01*
X149618432Y-81572735D01*
X149748953Y-81759140D01*
X149909859Y-81920046D01*
X150096264Y-82050567D01*
X150096265Y-82050567D01*
X150096266Y-82050568D01*
X150302504Y-82146739D01*
X150522308Y-82205635D01*
X150749000Y-82225468D01*
X150975692Y-82205635D01*
X151195496Y-82146739D01*
X151401734Y-82050568D01*
X151588139Y-81920047D01*
X151749047Y-81759139D01*
X151879568Y-81572734D01*
X151975739Y-81366496D01*
X152034635Y-81146692D01*
X152054468Y-80920000D01*
X152034635Y-80693308D01*
X151975739Y-80473504D01*
X151879568Y-80267266D01*
X151846439Y-80219953D01*
X151749046Y-80080859D01*
X151588140Y-79919953D01*
X151401735Y-79789432D01*
X151195497Y-79693261D01*
X150975689Y-79634364D01*
X150749000Y-79614531D01*
X150522310Y-79634364D01*
X150302502Y-79693261D01*
X150096264Y-79789432D01*
X149909859Y-79919953D01*
X149748953Y-80080859D01*
X149618432Y-80267264D01*
X149522261Y-80473502D01*
X149463364Y-80693310D01*
X149443531Y-80919999D01*
X146593468Y-80919999D01*
X146573635Y-80693308D01*
X146514739Y-80473504D01*
X146418568Y-80267266D01*
X146385439Y-80219953D01*
X146288046Y-80080859D01*
X146127140Y-79919953D01*
X145940735Y-79789432D01*
X145734497Y-79693261D01*
X145514689Y-79634364D01*
X145288000Y-79614531D01*
X145061310Y-79634364D01*
X144841502Y-79693261D01*
X144635264Y-79789432D01*
X144448859Y-79919953D01*
X144287953Y-80080859D01*
X144157432Y-80267264D01*
X144061261Y-80473502D01*
X144002364Y-80693310D01*
X143982531Y-80919999D01*
X140804953Y-80919999D01*
X140732735Y-80869432D01*
X140526497Y-80773261D01*
X140306689Y-80714364D01*
X140080000Y-80694531D01*
X139853310Y-80714364D01*
X139633502Y-80773261D01*
X139427264Y-80869432D01*
X139240859Y-80999953D01*
X139079953Y-81160859D01*
X138949432Y-81347264D01*
X138853261Y-81553502D01*
X138794364Y-81773310D01*
X138774531Y-82000000D01*
X131224966Y-82000000D01*
X131224966Y-81999999D01*
X131205141Y-81773397D01*
X131146266Y-81553673D01*
X131050133Y-81347515D01*
X130999025Y-81274526D01*
X130273553Y-81999998D01*
X130273553Y-81999999D01*
X129566445Y-81999999D01*
X128840973Y-81274526D01*
X128840973Y-81274527D01*
X128789865Y-81347516D01*
X128693733Y-81553672D01*
X128634858Y-81773397D01*
X128615033Y-81999999D01*
X126680499Y-81999999D01*
X126680499Y-80920973D01*
X129194526Y-80920973D01*
X129920000Y-81646446D01*
X129920001Y-81646446D01*
X130645472Y-80920974D01*
X130645471Y-80920972D01*
X130572484Y-80869866D01*
X130366326Y-80773733D01*
X130146602Y-80714858D01*
X129920000Y-80695033D01*
X129693397Y-80714858D01*
X129473672Y-80773733D01*
X129267516Y-80869865D01*
X129194527Y-80920973D01*
X129194526Y-80920973D01*
X126680499Y-80920973D01*
X126680499Y-80852128D01*
X126674091Y-80792517D01*
X126623796Y-80657669D01*
X126537546Y-80542454D01*
X126422331Y-80456204D01*
X126287483Y-80405909D01*
X126227873Y-80399500D01*
X126227869Y-80399500D01*
X123932130Y-80399500D01*
X123872515Y-80405909D01*
X123737669Y-80456204D01*
X123622454Y-80542454D01*
X123536204Y-80657668D01*
X123485909Y-80792516D01*
X123479500Y-80852130D01*
X123479500Y-83147869D01*
X116040419Y-83147869D01*
X116055224Y-83135224D01*
X116218836Y-82943659D01*
X116350466Y-82728859D01*
X116446873Y-82496111D01*
X116505683Y-82251148D01*
X116525449Y-82000000D01*
X116505683Y-81748852D01*
X116446873Y-81503889D01*
X116350466Y-81271141D01*
X116218836Y-81056341D01*
X116055224Y-80864776D01*
X115863659Y-80701164D01*
X115648859Y-80569534D01*
X115532485Y-80521330D01*
X115416110Y-80473126D01*
X115171149Y-80414317D01*
X114920000Y-80394551D01*
X114668850Y-80414317D01*
X114423889Y-80473126D01*
X114256518Y-80542454D01*
X114196617Y-80567266D01*
X114191139Y-80569535D01*
X113976342Y-80701163D01*
X113784776Y-80864776D01*
X113621163Y-81056342D01*
X113518900Y-81223220D01*
X113489534Y-81271141D01*
X113475415Y-81305225D01*
X113393126Y-81503889D01*
X113334317Y-81748850D01*
X113318856Y-81945302D01*
X113314551Y-82000000D01*
X108557603Y-82000000D01*
X108509017Y-81920388D01*
X108335746Y-81712181D01*
X108284759Y-81666497D01*
X108134002Y-81531418D01*
X107908090Y-81381956D01*
X107908086Y-81381954D01*
X107662822Y-81266978D01*
X107403437Y-81188941D01*
X107403431Y-81188940D01*
X107135439Y-81149500D01*
X106932369Y-81149500D01*
X106932366Y-81149500D01*
X106729843Y-81164322D01*
X106465449Y-81223219D01*
X106212441Y-81319986D01*
X105976223Y-81452559D01*
X105761825Y-81618109D01*
X105573813Y-81813120D01*
X105416201Y-82033420D01*
X105292342Y-82274329D01*
X105204881Y-82530695D01*
X105155680Y-82797066D01*
X105145787Y-83067764D01*
X102000500Y-83067764D01*
X102000500Y-83002561D01*
X102000606Y-82997437D01*
X102008893Y-82797067D01*
X102009488Y-82782687D01*
X102018052Y-82586540D01*
X102018881Y-82576673D01*
X102045491Y-82363195D01*
X102071578Y-82165045D01*
X102073151Y-82155816D01*
X102117062Y-81946392D01*
X102117297Y-81945302D01*
X102160684Y-81749599D01*
X102162885Y-81741111D01*
X102223875Y-81536253D01*
X102224337Y-81534743D01*
X102284704Y-81343284D01*
X102287423Y-81335565D01*
X102365074Y-81136564D01*
X102365883Y-81134553D01*
X102442762Y-80948951D01*
X102445874Y-80942051D01*
X102539587Y-80750357D01*
X102540945Y-80747667D01*
X102633667Y-80569551D01*
X102637118Y-80563362D01*
X102746295Y-80380139D01*
X102748150Y-80377129D01*
X102856090Y-80207697D01*
X102859721Y-80202316D01*
X102983635Y-80028764D01*
X102986102Y-80025433D01*
X103108401Y-79866048D01*
X103112114Y-79861445D01*
X103249903Y-79698758D01*
X103253027Y-79695211D01*
X103388811Y-79547028D01*
X103392440Y-79543238D01*
X103543238Y-79392440D01*
X103547028Y-79388811D01*
X103695211Y-79253027D01*
X103698758Y-79249903D01*
X103861445Y-79112114D01*
X103866048Y-79108401D01*
X104025433Y-78986102D01*
X104028764Y-78983635D01*
X104202316Y-78859721D01*
X104207697Y-78856090D01*
X104377129Y-78748150D01*
X104380139Y-78746295D01*
X104563373Y-78637111D01*
X104569551Y-78633667D01*
X104747667Y-78540945D01*
X104750357Y-78539587D01*
X104942051Y-78445874D01*
X104948951Y-78442762D01*
X105134553Y-78365883D01*
X105136564Y-78365074D01*
X105335565Y-78287423D01*
X105343284Y-78284704D01*
X105534743Y-78224337D01*
X105536253Y-78223875D01*
X105741111Y-78162885D01*
X105749599Y-78160684D01*
X105945302Y-78117297D01*
X105946392Y-78117062D01*
X106155816Y-78073151D01*
X106165045Y-78071578D01*
X106363195Y-78045491D01*
X106576673Y-78018881D01*
X106586540Y-78018052D01*
X106782628Y-78009490D01*
X106997437Y-78000605D01*
X107002561Y-78000500D01*
X170997439Y-78000500D01*
X171002562Y-78000605D01*
G37*
%TD.AperFunction*%
%TD*%
M02*
