%TF.GenerationSoftware,KiCad,Pcbnew,7.0.1-0*%
%TF.CreationDate,2023-07-23T18:38:07-04:00*%
%TF.ProjectId,Penfold_VCA,50656e66-6f6c-4645-9f56-43412e6b6963,rev?*%
%TF.SameCoordinates,Original*%
%TF.FileFunction,Copper,L2,Bot*%
%TF.FilePolarity,Positive*%
%FSLAX46Y46*%
G04 Gerber Fmt 4.6, Leading zero omitted, Abs format (unit mm)*
G04 Created by KiCad (PCBNEW 7.0.1-0) date 2023-07-23 18:38:07*
%MOMM*%
%LPD*%
G01*
G04 APERTURE LIST*
%TA.AperFunction,ComponentPad*%
%ADD10C,1.600000*%
%TD*%
%TA.AperFunction,ComponentPad*%
%ADD11O,1.600000X1.600000*%
%TD*%
%TA.AperFunction,ComponentPad*%
%ADD12R,1.600000X1.600000*%
%TD*%
%TA.AperFunction,ComponentPad*%
%ADD13R,1.700000X1.700000*%
%TD*%
%TA.AperFunction,ComponentPad*%
%ADD14O,1.700000X1.700000*%
%TD*%
%TA.AperFunction,ComponentPad*%
%ADD15R,2.200000X2.200000*%
%TD*%
%TA.AperFunction,ComponentPad*%
%ADD16O,2.200000X2.200000*%
%TD*%
%TA.AperFunction,ComponentPad*%
%ADD17R,2.400000X1.600000*%
%TD*%
%TA.AperFunction,ComponentPad*%
%ADD18O,2.400000X1.600000*%
%TD*%
%TA.AperFunction,Conductor*%
%ADD19C,0.300000*%
%TD*%
%TA.AperFunction,Conductor*%
%ADD20C,0.500000*%
%TD*%
G04 APERTURE END LIST*
D10*
%TO.P,R9,1*%
%TO.N,Net-(C2-Pad1)*%
X150500000Y-95170000D03*
D11*
%TO.P,R9,2*%
%TO.N,Net-(R9-Pad2)*%
X150500000Y-105330000D03*
%TD*%
%TO.P,R4,2*%
%TO.N,Net-(U1C-+)*%
X164330000Y-104500000D03*
D10*
%TO.P,R4,1*%
%TO.N,Net-(C2-Pad1)*%
X154170000Y-104500000D03*
%TD*%
D12*
%TO.P,C2,1*%
%TO.N,Net-(C2-Pad1)*%
X150000000Y-116000000D03*
D10*
%TO.P,C2,2*%
%TO.N,GND*%
X152000000Y-116000000D03*
%TD*%
D13*
%TO.P,SW1,1,A*%
%TO.N,CV Bus*%
X115475000Y-116000000D03*
D14*
%TO.P,SW1,2,B*%
%TO.N,3*%
X118015000Y-116000000D03*
%TO.P,SW1,3,C*%
%TO.N,Net-(SW1-C)*%
X120555000Y-116000000D03*
%TD*%
D10*
%TO.P,R2,1*%
%TO.N,+12V*%
X145288000Y-105283000D03*
D11*
%TO.P,R2,2*%
%TO.N,Net-(U1C-DIODE_BIAS)*%
X145288000Y-95123000D03*
%TD*%
D15*
%TO.P,D4,1,K*%
%TO.N,+12V*%
X125080000Y-82000000D03*
D16*
%TO.P,D4,2,A*%
%TO.N,Net-(D4-A)*%
X114920000Y-82000000D03*
%TD*%
D10*
%TO.P,R1,1*%
%TO.N,Net-(U2--)*%
X129921000Y-87000000D03*
D11*
%TO.P,R1,2*%
%TO.N,1*%
X140081000Y-87000000D03*
%TD*%
D10*
%TO.P,R3,1*%
%TO.N,Net-(C2-Pad1)*%
X150749000Y-80920000D03*
D11*
%TO.P,R3,2*%
%TO.N,Net-(U1C--)*%
X150749000Y-91080000D03*
%TD*%
D13*
%TO.P,J1,1,Pin_1*%
%TO.N,Gate Bus*%
X106000000Y-89840000D03*
D14*
%TO.P,J1,2,Pin_2*%
X108540000Y-89840000D03*
%TO.P,J1,3,Pin_3*%
%TO.N,CV Bus*%
X106000000Y-92380000D03*
%TO.P,J1,4,Pin_4*%
X108540000Y-92380000D03*
%TO.P,J1,5,Pin_5*%
%TO.N,+5V*%
X106000000Y-94920000D03*
%TO.P,J1,6,Pin_6*%
X108540000Y-94920000D03*
%TO.P,J1,7,Pin_7*%
%TO.N,Net-(D4-A)*%
X106000000Y-97460000D03*
%TO.P,J1,8,Pin_8*%
X108540000Y-97460000D03*
%TO.P,J1,9,Pin_9*%
%TO.N,GND*%
X106000000Y-100000000D03*
%TO.P,J1,10,Pin_10*%
X108540000Y-100000000D03*
%TO.P,J1,11,Pin_11*%
X106000000Y-102540000D03*
%TO.P,J1,12,Pin_12*%
X108540000Y-102540000D03*
%TO.P,J1,13,Pin_13*%
X106000000Y-105080000D03*
%TO.P,J1,14,Pin_14*%
X108540000Y-105080000D03*
%TO.P,J1,15,Pin_15*%
%TO.N,Net-(D1-K)*%
X106000000Y-107620000D03*
%TO.P,J1,16,Pin_16*%
X108540000Y-107620000D03*
%TD*%
D17*
%TO.P,U2,1,NULL*%
%TO.N,unconnected-(U2-NULL-Pad1)*%
X131200000Y-93200000D03*
D18*
%TO.P,U2,2,-*%
%TO.N,Net-(U2--)*%
X131200000Y-95740000D03*
%TO.P,U2,3,+*%
%TO.N,3*%
X131200000Y-98280000D03*
%TO.P,U2,4,V-*%
%TO.N,GND*%
X131200000Y-100820000D03*
%TO.P,U2,5,NULL*%
%TO.N,unconnected-(U2-NULL-Pad5)*%
X138820000Y-100820000D03*
%TO.P,U2,6*%
%TO.N,Net-(U2--)*%
X138820000Y-98280000D03*
%TO.P,U2,7,V+*%
%TO.N,+12V*%
X138820000Y-95740000D03*
%TO.P,U2,8,STRB*%
%TO.N,unconnected-(U2-STRB-Pad8)*%
X138820000Y-93200000D03*
%TD*%
D10*
%TO.P,R8,1*%
%TO.N,GND*%
X169000000Y-99080000D03*
D11*
%TO.P,R8,2*%
%TO.N,Net-(C3-Pad1)*%
X169000000Y-88920000D03*
%TD*%
D13*
%TO.P,J4,1,Pin_1*%
%TO.N,GND*%
X128920000Y-116000000D03*
D14*
%TO.P,J4,2,Pin_2*%
X131460000Y-116000000D03*
%TO.P,J4,3,Pin_3*%
%TO.N,2*%
X134000000Y-116000000D03*
%TD*%
D15*
%TO.P,D1,1,K*%
%TO.N,Net-(D1-K)*%
X114920000Y-97000000D03*
D16*
%TO.P,D1,2,A*%
%TO.N,-12V*%
X125080000Y-97000000D03*
%TD*%
D13*
%TO.P,J6,1,Pin_1*%
%TO.N,GND*%
X169000000Y-108540000D03*
D14*
%TO.P,J6,2,Pin_2*%
X169000000Y-106000000D03*
%TO.P,J6,3,Pin_3*%
%TO.N,3*%
X169000000Y-103460000D03*
%TD*%
D12*
%TO.P,C4,1*%
%TO.N,GND*%
X115000000Y-90000000D03*
D10*
%TO.P,C4,2*%
%TO.N,-12V*%
X117000000Y-90000000D03*
%TD*%
D12*
%TO.P,C3,1*%
%TO.N,Net-(C3-Pad1)*%
X159000000Y-116000000D03*
D10*
%TO.P,C3,2*%
%TO.N,3*%
X161000000Y-116000000D03*
%TD*%
%TO.P,R7,1*%
%TO.N,GND*%
X129920000Y-82000000D03*
D11*
%TO.P,R7,2*%
%TO.N,Net-(C2-Pad1)*%
X140080000Y-82000000D03*
%TD*%
D12*
%TO.P,C1,1*%
%TO.N,Net-(C1-Pad1)*%
X143000000Y-116000000D03*
D10*
%TO.P,C1,2*%
%TO.N,2*%
X141000000Y-116000000D03*
%TD*%
%TO.P,R5,1*%
%TO.N,Net-(C1-Pad1)*%
X149920000Y-109000000D03*
D11*
%TO.P,R5,2*%
%TO.N,Net-(U1C-+)*%
X160080000Y-109000000D03*
%TD*%
D12*
%TO.P,C5,1*%
%TO.N,+12V*%
X123000000Y-90000000D03*
D10*
%TO.P,C5,2*%
%TO.N,GND*%
X125000000Y-90000000D03*
%TD*%
D17*
%TO.P,U1,1*%
%TO.N,1*%
X156200000Y-81220000D03*
D18*
%TO.P,U1,2,DIODE_BIAS*%
%TO.N,Net-(U1C-DIODE_BIAS)*%
X156200000Y-83760000D03*
%TO.P,U1,3,+*%
%TO.N,Net-(U1C-+)*%
X156200000Y-86300000D03*
%TO.P,U1,4,-*%
%TO.N,Net-(U1C--)*%
X156200000Y-88840000D03*
%TO.P,U1,5*%
%TO.N,Net-(R9-Pad2)*%
X156200000Y-91380000D03*
%TO.P,U1,6,V-*%
%TO.N,GND*%
X156200000Y-93920000D03*
%TO.P,U1,7*%
%TO.N,Net-(R9-Pad2)*%
X156200000Y-96460000D03*
%TO.P,U1,8*%
%TO.N,Net-(C3-Pad1)*%
X156200000Y-99000000D03*
%TO.P,U1,9*%
%TO.N,N/C*%
X163820000Y-99000000D03*
%TO.P,U1,10*%
X163820000Y-96460000D03*
%TO.P,U1,11,V+*%
%TO.N,+12V*%
X163820000Y-93920000D03*
%TO.P,U1,12*%
%TO.N,N/C*%
X163820000Y-91380000D03*
%TO.P,U1,13*%
X163820000Y-88840000D03*
%TO.P,U1,14*%
X163820000Y-86300000D03*
%TO.P,U1,15*%
X163820000Y-83760000D03*
%TO.P,U1,16*%
X163820000Y-81220000D03*
%TD*%
D10*
%TO.P,R6,1*%
%TO.N,Net-(C2-Pad1)*%
X145288000Y-80920000D03*
D11*
%TO.P,R6,2*%
%TO.N,+12V*%
X145288000Y-91080000D03*
%TD*%
D19*
%TO.N,3*%
X161000000Y-114868630D02*
X161000000Y-116000000D01*
X157131370Y-111000000D02*
X161000000Y-114868630D01*
X131200000Y-98280000D02*
X143920000Y-111000000D01*
X143920000Y-111000000D02*
X157131370Y-111000000D01*
D20*
%TO.N,+12V*%
X140628000Y-95740000D02*
X145288000Y-91080000D01*
X146838000Y-92630000D02*
X162530000Y-92630000D01*
X138820000Y-95740000D02*
X140628000Y-95740000D01*
X162530000Y-92630000D02*
X163820000Y-93920000D01*
X125080000Y-83926767D02*
X136893233Y-95740000D01*
X136893233Y-95740000D02*
X138820000Y-95740000D01*
X145288000Y-91080000D02*
X146838000Y-92630000D01*
X125080000Y-82000000D02*
X125080000Y-83926767D01*
%TD*%
%TA.AperFunction,Conductor*%
%TO.N,GND*%
G36*
X171002562Y-78000605D02*
G01*
X171217600Y-78009500D01*
X171413455Y-78018052D01*
X171423330Y-78018881D01*
X171636706Y-78045479D01*
X171636793Y-78045490D01*
X171834945Y-78071577D01*
X171844192Y-78073153D01*
X172053521Y-78117044D01*
X172054765Y-78117312D01*
X172250386Y-78160680D01*
X172258901Y-78162889D01*
X172463665Y-78223850D01*
X172465325Y-78224359D01*
X172656696Y-78284698D01*
X172664453Y-78287431D01*
X172863363Y-78365046D01*
X172865513Y-78365911D01*
X173051024Y-78442752D01*
X173057972Y-78445886D01*
X173225903Y-78527982D01*
X173249587Y-78539561D01*
X173252383Y-78540972D01*
X173430420Y-78633652D01*
X173436636Y-78637118D01*
X173619793Y-78746255D01*
X173622929Y-78748187D01*
X173686491Y-78788681D01*
X173792282Y-78856078D01*
X173797710Y-78859741D01*
X173971184Y-78983599D01*
X173974616Y-78986140D01*
X174133912Y-79108372D01*
X174138567Y-79112126D01*
X174301226Y-79249891D01*
X174304838Y-79253072D01*
X174452925Y-79388769D01*
X174456807Y-79392486D01*
X174607512Y-79543191D01*
X174611232Y-79547076D01*
X174746921Y-79695155D01*
X174750107Y-79698772D01*
X174887872Y-79861431D01*
X174891626Y-79866086D01*
X175013858Y-80025382D01*
X175016399Y-80028814D01*
X175140257Y-80202288D01*
X175143920Y-80207716D01*
X175251800Y-80377052D01*
X175253743Y-80380205D01*
X175362880Y-80563362D01*
X175366346Y-80569578D01*
X175459026Y-80747615D01*
X175460437Y-80750411D01*
X175554099Y-80941997D01*
X175557260Y-80949005D01*
X175634051Y-81134395D01*
X175634991Y-81136734D01*
X175646957Y-81167398D01*
X175712559Y-81335523D01*
X175715302Y-81343309D01*
X175775602Y-81534554D01*
X175776186Y-81536460D01*
X175837105Y-81741084D01*
X175839321Y-81749627D01*
X175882671Y-81945166D01*
X175882971Y-81946559D01*
X175926844Y-82155802D01*
X175928422Y-82165062D01*
X175954459Y-82362829D01*
X175954568Y-82363677D01*
X175981114Y-82576641D01*
X175981948Y-82586570D01*
X175990513Y-82782728D01*
X175990525Y-82783013D01*
X175999394Y-82997438D01*
X175999500Y-83002562D01*
X175999500Y-115997438D01*
X175999394Y-116002563D01*
X175990525Y-116216987D01*
X175990513Y-116217271D01*
X175981948Y-116413428D01*
X175981114Y-116423357D01*
X175954568Y-116636321D01*
X175954459Y-116637169D01*
X175928422Y-116834936D01*
X175926844Y-116844196D01*
X175882971Y-117053439D01*
X175882671Y-117054832D01*
X175839321Y-117250371D01*
X175837105Y-117258914D01*
X175776186Y-117463538D01*
X175775602Y-117465444D01*
X175715302Y-117656689D01*
X175712559Y-117664475D01*
X175635008Y-117863224D01*
X175634051Y-117865603D01*
X175557260Y-118050993D01*
X175554099Y-118058001D01*
X175460437Y-118249587D01*
X175459026Y-118252383D01*
X175366346Y-118430420D01*
X175362880Y-118436636D01*
X175253743Y-118619793D01*
X175251800Y-118622946D01*
X175143920Y-118792282D01*
X175140257Y-118797710D01*
X175016399Y-118971184D01*
X175013858Y-118974616D01*
X174891626Y-119133912D01*
X174887872Y-119138567D01*
X174750107Y-119301226D01*
X174746908Y-119304858D01*
X174611254Y-119452899D01*
X174607512Y-119456807D01*
X174456807Y-119607512D01*
X174452899Y-119611254D01*
X174304858Y-119746908D01*
X174301226Y-119750107D01*
X174138567Y-119887872D01*
X174133912Y-119891626D01*
X173974616Y-120013858D01*
X173971184Y-120016399D01*
X173797710Y-120140257D01*
X173792282Y-120143920D01*
X173622946Y-120251800D01*
X173619793Y-120253743D01*
X173436636Y-120362880D01*
X173430420Y-120366346D01*
X173252383Y-120459026D01*
X173249587Y-120460437D01*
X173058001Y-120554099D01*
X173050993Y-120557260D01*
X172865603Y-120634051D01*
X172863224Y-120635008D01*
X172664475Y-120712559D01*
X172656689Y-120715302D01*
X172465444Y-120775602D01*
X172463538Y-120776186D01*
X172258914Y-120837105D01*
X172250371Y-120839321D01*
X172054832Y-120882671D01*
X172053439Y-120882971D01*
X171844196Y-120926844D01*
X171834936Y-120928422D01*
X171637169Y-120954459D01*
X171636321Y-120954568D01*
X171423357Y-120981114D01*
X171413428Y-120981948D01*
X171217381Y-120990508D01*
X171217097Y-120990520D01*
X171002563Y-120999394D01*
X170997438Y-120999500D01*
X107002562Y-120999500D01*
X106997437Y-120999394D01*
X106782901Y-120990520D01*
X106782617Y-120990508D01*
X106586570Y-120981948D01*
X106576641Y-120981114D01*
X106363677Y-120954568D01*
X106362829Y-120954459D01*
X106165062Y-120928422D01*
X106155802Y-120926844D01*
X105946559Y-120882971D01*
X105945166Y-120882671D01*
X105749627Y-120839321D01*
X105741084Y-120837105D01*
X105536460Y-120776186D01*
X105534554Y-120775602D01*
X105343309Y-120715302D01*
X105335523Y-120712559D01*
X105206985Y-120662404D01*
X105136734Y-120634991D01*
X105134395Y-120634051D01*
X104949005Y-120557260D01*
X104941997Y-120554099D01*
X104750411Y-120460437D01*
X104747615Y-120459026D01*
X104569578Y-120366346D01*
X104563362Y-120362880D01*
X104380205Y-120253743D01*
X104377052Y-120251800D01*
X104207716Y-120143920D01*
X104202288Y-120140257D01*
X104028814Y-120016399D01*
X104025382Y-120013858D01*
X103866086Y-119891626D01*
X103861431Y-119887872D01*
X103698772Y-119750107D01*
X103695155Y-119746921D01*
X103547076Y-119611232D01*
X103543191Y-119607512D01*
X103392486Y-119456807D01*
X103388769Y-119452925D01*
X103253072Y-119304838D01*
X103249891Y-119301226D01*
X103112126Y-119138567D01*
X103108372Y-119133912D01*
X102986140Y-118974616D01*
X102983599Y-118971184D01*
X102859741Y-118797710D01*
X102856078Y-118792282D01*
X102748198Y-118622946D01*
X102746255Y-118619793D01*
X102637118Y-118436636D01*
X102633652Y-118430420D01*
X102540972Y-118252383D01*
X102539561Y-118249587D01*
X102527982Y-118225903D01*
X102445886Y-118057972D01*
X102442752Y-118051024D01*
X102365911Y-117865513D01*
X102365046Y-117863363D01*
X102287431Y-117664453D01*
X102284696Y-117656689D01*
X102224359Y-117465325D01*
X102223850Y-117463665D01*
X102162889Y-117258901D01*
X102160680Y-117250386D01*
X102117312Y-117054765D01*
X102117027Y-117053439D01*
X102116768Y-117052206D01*
X102073153Y-116844192D01*
X102071576Y-116834936D01*
X102068466Y-116811311D01*
X102045490Y-116636793D01*
X102045483Y-116636743D01*
X102018881Y-116423330D01*
X102018052Y-116413455D01*
X102009486Y-116217271D01*
X102003302Y-116067764D01*
X105145787Y-116067764D01*
X105175413Y-116337016D01*
X105211919Y-116476651D01*
X105243928Y-116599088D01*
X105334113Y-116811311D01*
X105349871Y-116848392D01*
X105490982Y-117079611D01*
X105664253Y-117287818D01*
X105664255Y-117287820D01*
X105865998Y-117468582D01*
X106091910Y-117618044D01*
X106103197Y-117623335D01*
X106337177Y-117733021D01*
X106596562Y-117811058D01*
X106596569Y-117811060D01*
X106864561Y-117850500D01*
X107067631Y-117850500D01*
X107067634Y-117850500D01*
X107270156Y-117835677D01*
X107343782Y-117819276D01*
X107534553Y-117776780D01*
X107787558Y-117680014D01*
X108023777Y-117547441D01*
X108238177Y-117381888D01*
X108426186Y-117186881D01*
X108583799Y-116966579D01*
X108620669Y-116894867D01*
X114324500Y-116894867D01*
X114327414Y-116919988D01*
X114327414Y-116919990D01*
X114327415Y-116919991D01*
X114357114Y-116987252D01*
X114372795Y-117022767D01*
X114452232Y-117102204D01*
X114452233Y-117102204D01*
X114452235Y-117102206D01*
X114555009Y-117147585D01*
X114580135Y-117150500D01*
X116369864Y-117150499D01*
X116369867Y-117150499D01*
X116382427Y-117149042D01*
X116394991Y-117147585D01*
X116497765Y-117102206D01*
X116577206Y-117022765D01*
X116622585Y-116919991D01*
X116625500Y-116894865D01*
X116625499Y-116156046D01*
X116641170Y-116095710D01*
X116684221Y-116050622D01*
X116743772Y-116032181D01*
X116804770Y-116045049D01*
X116851799Y-116085972D01*
X116872970Y-116144607D01*
X116879243Y-116212310D01*
X116937595Y-116417390D01*
X117032631Y-116608252D01*
X117161126Y-116778405D01*
X117161128Y-116778407D01*
X117318698Y-116922052D01*
X117499981Y-117034298D01*
X117698802Y-117111321D01*
X117908390Y-117150500D01*
X118121608Y-117150500D01*
X118121610Y-117150500D01*
X118331198Y-117111321D01*
X118530019Y-117034298D01*
X118711302Y-116922052D01*
X118868872Y-116778407D01*
X118997366Y-116608255D01*
X118997366Y-116608253D01*
X118997368Y-116608252D01*
X119066554Y-116469305D01*
X119092405Y-116417389D01*
X119150756Y-116212310D01*
X119161529Y-116096047D01*
X119181633Y-116038996D01*
X119224410Y-115999999D01*
X119345589Y-115999999D01*
X119388367Y-116038996D01*
X119408471Y-116096048D01*
X119419243Y-116212310D01*
X119477595Y-116417390D01*
X119572631Y-116608252D01*
X119701126Y-116778405D01*
X119701128Y-116778407D01*
X119858698Y-116922052D01*
X120039981Y-117034298D01*
X120238802Y-117111321D01*
X120448390Y-117150500D01*
X120661608Y-117150500D01*
X120661610Y-117150500D01*
X120871198Y-117111321D01*
X121070019Y-117034298D01*
X121251302Y-116922052D01*
X121408872Y-116778407D01*
X121537366Y-116608255D01*
X121537366Y-116608253D01*
X121537368Y-116608252D01*
X121606554Y-116469305D01*
X121632405Y-116417389D01*
X121680032Y-116250000D01*
X127570000Y-116250000D01*
X127570000Y-116897824D01*
X127576402Y-116957375D01*
X127626647Y-117092089D01*
X127712811Y-117207188D01*
X127827910Y-117293352D01*
X127962624Y-117343597D01*
X128022176Y-117350000D01*
X128670000Y-117350000D01*
X128670000Y-116250000D01*
X129170000Y-116250000D01*
X129170000Y-117350000D01*
X129817824Y-117350000D01*
X129877375Y-117343597D01*
X130012089Y-117293352D01*
X130127188Y-117207188D01*
X130213352Y-117092088D01*
X130262614Y-116960013D01*
X130297593Y-116909633D01*
X130352438Y-116882180D01*
X130413731Y-116884369D01*
X130466477Y-116915665D01*
X130588918Y-117038106D01*
X130782423Y-117173600D01*
X130996507Y-117273430D01*
X131209999Y-117330635D01*
X131210000Y-117330636D01*
X131210000Y-116250000D01*
X129170000Y-116250000D01*
X128670000Y-116250000D01*
X127570000Y-116250000D01*
X121680032Y-116250000D01*
X121690756Y-116212310D01*
X121710429Y-116000000D01*
X121690756Y-115787690D01*
X121680032Y-115750000D01*
X127570000Y-115750000D01*
X128670000Y-115750000D01*
X128670000Y-114650000D01*
X129170000Y-114650000D01*
X129170000Y-115750000D01*
X131210000Y-115750000D01*
X131210000Y-114669364D01*
X131710000Y-114669364D01*
X131710000Y-117330635D01*
X131923492Y-117273430D01*
X132137576Y-117173600D01*
X132331081Y-117038106D01*
X132498106Y-116871081D01*
X132633600Y-116677576D01*
X132727294Y-116476651D01*
X132772381Y-116424905D01*
X132838085Y-116405066D01*
X132904276Y-116423213D01*
X132950677Y-116473785D01*
X133017634Y-116608256D01*
X133146126Y-116778405D01*
X133146128Y-116778407D01*
X133303698Y-116922052D01*
X133484981Y-117034298D01*
X133683802Y-117111321D01*
X133893390Y-117150500D01*
X134106608Y-117150500D01*
X134106610Y-117150500D01*
X134316198Y-117111321D01*
X134515019Y-117034298D01*
X134696302Y-116922052D01*
X134853872Y-116778407D01*
X134982366Y-116608255D01*
X134982366Y-116608253D01*
X134982368Y-116608252D01*
X135051554Y-116469305D01*
X135077405Y-116417389D01*
X135135756Y-116212310D01*
X135155429Y-116000000D01*
X139894785Y-116000000D01*
X139913602Y-116203083D01*
X139969418Y-116399251D01*
X140060324Y-116581818D01*
X140183236Y-116744580D01*
X140333958Y-116881981D01*
X140507361Y-116989347D01*
X140507363Y-116989348D01*
X140697544Y-117063024D01*
X140898024Y-117100500D01*
X141101974Y-117100500D01*
X141101976Y-117100500D01*
X141302456Y-117063024D01*
X141492637Y-116989348D01*
X141666041Y-116881981D01*
X141710990Y-116841004D01*
X141761973Y-116812991D01*
X141820122Y-116811311D01*
X141872638Y-116836335D01*
X141907961Y-116882553D01*
X141945063Y-116966579D01*
X141947795Y-116972767D01*
X142027232Y-117052204D01*
X142027233Y-117052204D01*
X142027235Y-117052206D01*
X142130009Y-117097585D01*
X142155135Y-117100500D01*
X143844864Y-117100499D01*
X143844867Y-117100499D01*
X143857427Y-117099041D01*
X143869991Y-117097585D01*
X143972765Y-117052206D01*
X144052206Y-116972765D01*
X144097585Y-116869991D01*
X144100500Y-116844867D01*
X148899500Y-116844867D01*
X148902414Y-116869988D01*
X148902414Y-116869990D01*
X148902415Y-116869991D01*
X148945063Y-116966579D01*
X148947795Y-116972767D01*
X149027232Y-117052204D01*
X149027233Y-117052204D01*
X149027235Y-117052206D01*
X149130009Y-117097585D01*
X149155135Y-117100500D01*
X150844864Y-117100499D01*
X150844867Y-117100499D01*
X150857427Y-117099041D01*
X150869991Y-117097585D01*
X150972765Y-117052206D01*
X151007693Y-117017277D01*
X151056371Y-116987252D01*
X151113346Y-116982267D01*
X151166499Y-117003383D01*
X151347519Y-117130134D01*
X151553673Y-117226266D01*
X151773397Y-117285141D01*
X152000000Y-117304966D01*
X152226602Y-117285141D01*
X152446326Y-117226266D01*
X152652480Y-117130134D01*
X152725472Y-117079025D01*
X151734128Y-116087681D01*
X151702034Y-116032094D01*
X151702034Y-116000001D01*
X152353553Y-116000001D01*
X153079025Y-116725472D01*
X153130134Y-116652480D01*
X153226266Y-116446326D01*
X153285141Y-116226602D01*
X153304966Y-115999999D01*
X153285141Y-115773397D01*
X153226266Y-115553673D01*
X153130133Y-115347515D01*
X153079025Y-115274526D01*
X152353553Y-116000000D01*
X152353553Y-116000001D01*
X151702034Y-116000001D01*
X151702034Y-115967906D01*
X151734128Y-115912319D01*
X152000000Y-115646447D01*
X152725472Y-114920974D01*
X152725471Y-114920972D01*
X152652484Y-114869866D01*
X152446326Y-114773733D01*
X152226602Y-114714858D01*
X152000000Y-114695033D01*
X151773397Y-114714858D01*
X151553673Y-114773733D01*
X151347515Y-114869866D01*
X151166498Y-114996616D01*
X151113346Y-115017732D01*
X151056371Y-115012747D01*
X151007694Y-114982722D01*
X150972767Y-114947795D01*
X150912023Y-114920974D01*
X150869991Y-114902415D01*
X150844865Y-114899500D01*
X150844863Y-114899500D01*
X149155132Y-114899500D01*
X149130011Y-114902414D01*
X149027232Y-114947795D01*
X148947795Y-115027232D01*
X148902415Y-115130009D01*
X148899500Y-115155136D01*
X148899500Y-116844867D01*
X144100500Y-116844867D01*
X144100500Y-116844865D01*
X144100499Y-115155136D01*
X144097585Y-115130009D01*
X144052206Y-115027235D01*
X144052204Y-115027233D01*
X144052204Y-115027232D01*
X143972767Y-114947795D01*
X143912023Y-114920974D01*
X143869991Y-114902415D01*
X143844865Y-114899500D01*
X143844863Y-114899500D01*
X142155132Y-114899500D01*
X142130011Y-114902414D01*
X142027232Y-114947795D01*
X141947793Y-115027234D01*
X141907962Y-115117444D01*
X141872638Y-115163664D01*
X141820122Y-115188688D01*
X141761974Y-115187008D01*
X141710990Y-115158995D01*
X141666041Y-115118018D01*
X141492638Y-115010652D01*
X141302457Y-114936976D01*
X141216852Y-114920974D01*
X141101976Y-114899500D01*
X140898024Y-114899500D01*
X140812463Y-114915494D01*
X140697542Y-114936976D01*
X140507361Y-115010652D01*
X140333958Y-115118018D01*
X140183236Y-115255419D01*
X140060324Y-115418181D01*
X139969418Y-115600748D01*
X139913602Y-115796916D01*
X139894785Y-116000000D01*
X135155429Y-116000000D01*
X135135756Y-115787690D01*
X135077405Y-115582611D01*
X135047896Y-115523348D01*
X134982368Y-115391747D01*
X134853873Y-115221594D01*
X134696301Y-115077947D01*
X134533645Y-114977235D01*
X134515019Y-114965702D01*
X134515017Y-114965701D01*
X134316198Y-114888679D01*
X134307259Y-114887008D01*
X134106610Y-114849500D01*
X133893390Y-114849500D01*
X133753664Y-114875619D01*
X133683801Y-114888679D01*
X133484982Y-114965701D01*
X133303698Y-115077947D01*
X133146126Y-115221594D01*
X133017631Y-115391747D01*
X132950676Y-115526214D01*
X132904276Y-115576786D01*
X132838085Y-115594933D01*
X132772382Y-115575094D01*
X132727294Y-115523348D01*
X132633599Y-115322421D01*
X132498109Y-115128921D01*
X132331081Y-114961893D01*
X132137576Y-114826399D01*
X131923492Y-114726569D01*
X131710000Y-114669364D01*
X131210000Y-114669364D01*
X131209999Y-114669364D01*
X130996507Y-114726569D01*
X130782421Y-114826400D01*
X130588924Y-114961888D01*
X130466477Y-115084335D01*
X130413730Y-115115630D01*
X130352438Y-115117819D01*
X130297593Y-115090366D01*
X130262614Y-115039987D01*
X130213352Y-114907910D01*
X130127188Y-114792811D01*
X130012089Y-114706647D01*
X129877375Y-114656402D01*
X129817824Y-114650000D01*
X129170000Y-114650000D01*
X128670000Y-114650000D01*
X128022176Y-114650000D01*
X127962624Y-114656402D01*
X127827910Y-114706647D01*
X127712811Y-114792811D01*
X127626647Y-114907910D01*
X127576402Y-115042624D01*
X127570000Y-115102176D01*
X127570000Y-115750000D01*
X121680032Y-115750000D01*
X121632405Y-115582611D01*
X121602896Y-115523348D01*
X121537368Y-115391747D01*
X121408873Y-115221594D01*
X121251301Y-115077947D01*
X121088645Y-114977235D01*
X121070019Y-114965702D01*
X121070017Y-114965701D01*
X120871198Y-114888679D01*
X120862259Y-114887008D01*
X120661610Y-114849500D01*
X120448390Y-114849500D01*
X120308664Y-114875619D01*
X120238801Y-114888679D01*
X120039982Y-114965701D01*
X119858698Y-115077947D01*
X119701126Y-115221594D01*
X119572631Y-115391747D01*
X119477595Y-115582609D01*
X119419243Y-115787689D01*
X119408471Y-115903951D01*
X119388367Y-115961003D01*
X119345589Y-115999999D01*
X119224410Y-115999999D01*
X119181633Y-115961003D01*
X119161529Y-115903951D01*
X119150756Y-115787689D01*
X119097566Y-115600750D01*
X119092405Y-115582611D01*
X119062896Y-115523348D01*
X118997368Y-115391747D01*
X118868873Y-115221594D01*
X118711301Y-115077947D01*
X118548645Y-114977235D01*
X118530019Y-114965702D01*
X118530017Y-114965701D01*
X118331198Y-114888679D01*
X118322259Y-114887008D01*
X118121610Y-114849500D01*
X117908390Y-114849500D01*
X117768664Y-114875619D01*
X117698801Y-114888679D01*
X117499982Y-114965701D01*
X117318698Y-115077947D01*
X117161126Y-115221594D01*
X117032631Y-115391747D01*
X116937595Y-115582609D01*
X116879243Y-115787689D01*
X116872970Y-115855393D01*
X116851799Y-115914029D01*
X116804770Y-115954952D01*
X116743772Y-115967820D01*
X116684221Y-115949379D01*
X116641170Y-115904291D01*
X116625499Y-115843952D01*
X116625499Y-115105133D01*
X116622585Y-115080011D01*
X116622585Y-115080009D01*
X116577206Y-114977235D01*
X116577204Y-114977233D01*
X116577204Y-114977232D01*
X116497767Y-114897795D01*
X116473337Y-114887008D01*
X116394991Y-114852415D01*
X116369865Y-114849500D01*
X116369863Y-114849500D01*
X114580132Y-114849500D01*
X114555011Y-114852414D01*
X114452232Y-114897795D01*
X114372795Y-114977232D01*
X114327415Y-115080009D01*
X114324500Y-115105136D01*
X114324500Y-116894867D01*
X108620669Y-116894867D01*
X108707656Y-116725675D01*
X108795118Y-116469305D01*
X108844319Y-116202933D01*
X108854212Y-115932235D01*
X108824586Y-115662982D01*
X108756072Y-115400912D01*
X108650130Y-115151610D01*
X108564104Y-115010652D01*
X108509017Y-114920388D01*
X108335746Y-114712181D01*
X108230758Y-114618112D01*
X108134002Y-114531418D01*
X107908090Y-114381956D01*
X107908086Y-114381954D01*
X107662822Y-114266978D01*
X107403437Y-114188941D01*
X107403431Y-114188940D01*
X107135439Y-114149500D01*
X106932369Y-114149500D01*
X106932366Y-114149500D01*
X106729843Y-114164322D01*
X106465449Y-114223219D01*
X106212441Y-114319986D01*
X105976223Y-114452559D01*
X105761825Y-114618109D01*
X105573813Y-114813120D01*
X105416201Y-115033420D01*
X105292342Y-115274329D01*
X105204881Y-115530695D01*
X105155680Y-115797066D01*
X105145787Y-116067764D01*
X102003302Y-116067764D01*
X102000605Y-116002562D01*
X102000500Y-115997439D01*
X102000500Y-105330000D01*
X104669364Y-105330000D01*
X104726569Y-105543492D01*
X104826399Y-105757576D01*
X104961893Y-105951081D01*
X105128918Y-106118106D01*
X105322423Y-106253600D01*
X105521572Y-106346466D01*
X105566566Y-106382105D01*
X105590690Y-106434188D01*
X105588776Y-106491555D01*
X105561232Y-106541914D01*
X105513962Y-106574474D01*
X105484984Y-106585700D01*
X105303698Y-106697947D01*
X105146126Y-106841594D01*
X105017631Y-107011747D01*
X104922595Y-107202609D01*
X104864243Y-107407689D01*
X104844571Y-107620000D01*
X104864243Y-107832310D01*
X104922595Y-108037390D01*
X105017631Y-108228252D01*
X105146126Y-108398405D01*
X105146128Y-108398407D01*
X105303698Y-108542052D01*
X105484981Y-108654298D01*
X105683802Y-108731321D01*
X105893390Y-108770500D01*
X106106608Y-108770500D01*
X106106610Y-108770500D01*
X106316198Y-108731321D01*
X106515019Y-108654298D01*
X106696302Y-108542052D01*
X106853872Y-108398407D01*
X106982366Y-108228255D01*
X106982366Y-108228253D01*
X106982368Y-108228252D01*
X107037257Y-108118018D01*
X107077405Y-108037389D01*
X107135756Y-107832310D01*
X107146529Y-107716047D01*
X107166633Y-107658996D01*
X107209410Y-107619999D01*
X107166633Y-107581003D01*
X107146529Y-107523951D01*
X107135756Y-107407689D01*
X107112550Y-107326132D01*
X107077405Y-107202611D01*
X107057385Y-107162405D01*
X106982368Y-107011747D01*
X106853873Y-106841594D01*
X106696301Y-106697947D01*
X106515014Y-106585699D01*
X106486038Y-106574474D01*
X106438767Y-106541915D01*
X106411223Y-106491556D01*
X106409309Y-106434189D01*
X106433433Y-106382105D01*
X106478427Y-106346466D01*
X106677576Y-106253600D01*
X106871081Y-106118106D01*
X107038106Y-105951081D01*
X107168425Y-105764968D01*
X107212743Y-105726103D01*
X107270000Y-105712092D01*
X107327257Y-105726103D01*
X107371575Y-105764968D01*
X107501893Y-105951081D01*
X107668918Y-106118106D01*
X107862423Y-106253600D01*
X108061572Y-106346466D01*
X108106566Y-106382105D01*
X108130690Y-106434188D01*
X108128776Y-106491555D01*
X108101232Y-106541914D01*
X108053962Y-106574474D01*
X108024984Y-106585700D01*
X107843698Y-106697947D01*
X107686126Y-106841594D01*
X107557631Y-107011747D01*
X107462595Y-107202609D01*
X107404243Y-107407689D01*
X107393471Y-107523951D01*
X107373367Y-107581003D01*
X107330589Y-107619999D01*
X107373367Y-107658996D01*
X107393471Y-107716048D01*
X107404243Y-107832310D01*
X107462595Y-108037390D01*
X107557631Y-108228252D01*
X107686126Y-108398405D01*
X107686128Y-108398407D01*
X107843698Y-108542052D01*
X108024981Y-108654298D01*
X108223802Y-108731321D01*
X108433390Y-108770500D01*
X108646608Y-108770500D01*
X108646610Y-108770500D01*
X108856198Y-108731321D01*
X109055019Y-108654298D01*
X109236302Y-108542052D01*
X109393872Y-108398407D01*
X109522366Y-108228255D01*
X109522366Y-108228253D01*
X109522368Y-108228252D01*
X109577257Y-108118018D01*
X109617405Y-108037389D01*
X109675756Y-107832310D01*
X109695429Y-107620000D01*
X109675756Y-107407690D01*
X109617405Y-107202611D01*
X109597385Y-107162405D01*
X109522368Y-107011747D01*
X109393873Y-106841594D01*
X109236301Y-106697947D01*
X109055014Y-106585699D01*
X109026038Y-106574474D01*
X108978767Y-106541915D01*
X108951223Y-106491556D01*
X108949309Y-106434189D01*
X108973433Y-106382105D01*
X109018427Y-106346466D01*
X109217576Y-106253600D01*
X109411081Y-106118106D01*
X109578106Y-105951081D01*
X109713600Y-105757576D01*
X109813430Y-105543492D01*
X109870636Y-105330000D01*
X104669364Y-105330000D01*
X102000500Y-105330000D01*
X102000500Y-102790000D01*
X104669364Y-102790000D01*
X104726569Y-103003492D01*
X104826399Y-103217576D01*
X104961893Y-103411081D01*
X105128918Y-103578106D01*
X105315031Y-103708425D01*
X105353896Y-103752743D01*
X105367907Y-103810000D01*
X105353896Y-103867257D01*
X105315031Y-103911575D01*
X105128918Y-104041893D01*
X104961890Y-104208921D01*
X104826400Y-104402421D01*
X104726569Y-104616507D01*
X104669364Y-104829999D01*
X104669364Y-104830000D01*
X105750000Y-104830000D01*
X105750000Y-102790000D01*
X106250000Y-102790000D01*
X106250000Y-104830000D01*
X108290000Y-104830000D01*
X108290000Y-102790000D01*
X108790000Y-102790000D01*
X108790000Y-104830000D01*
X109870636Y-104830000D01*
X109870635Y-104829999D01*
X109813430Y-104616507D01*
X109713599Y-104402421D01*
X109578109Y-104208921D01*
X109411081Y-104041893D01*
X109224968Y-103911575D01*
X109186103Y-103867257D01*
X109172092Y-103810000D01*
X109186103Y-103752743D01*
X109224968Y-103708425D01*
X109411081Y-103578106D01*
X109578106Y-103411081D01*
X109713600Y-103217576D01*
X109813430Y-103003492D01*
X109870636Y-102790000D01*
X108790000Y-102790000D01*
X108290000Y-102790000D01*
X106250000Y-102790000D01*
X105750000Y-102790000D01*
X104669364Y-102790000D01*
X102000500Y-102790000D01*
X102000500Y-100250000D01*
X104669364Y-100250000D01*
X104726569Y-100463492D01*
X104826399Y-100677576D01*
X104961893Y-100871081D01*
X105128918Y-101038106D01*
X105315031Y-101168425D01*
X105353896Y-101212743D01*
X105367907Y-101270000D01*
X105353896Y-101327257D01*
X105315031Y-101371575D01*
X105128918Y-101501893D01*
X104961890Y-101668921D01*
X104826400Y-101862421D01*
X104726569Y-102076507D01*
X104669364Y-102289999D01*
X104669364Y-102290000D01*
X105750000Y-102290000D01*
X105750000Y-100250000D01*
X106250000Y-100250000D01*
X106250000Y-102290000D01*
X108290000Y-102290000D01*
X108290000Y-100250000D01*
X108790000Y-100250000D01*
X108790000Y-102290000D01*
X109870636Y-102290000D01*
X109870635Y-102289999D01*
X109813430Y-102076507D01*
X109713599Y-101862421D01*
X109578109Y-101668921D01*
X109411081Y-101501893D01*
X109224968Y-101371575D01*
X109186103Y-101327257D01*
X109172092Y-101270000D01*
X109186103Y-101212743D01*
X109224968Y-101168425D01*
X109365532Y-101070000D01*
X129521128Y-101070000D01*
X129573733Y-101266326D01*
X129669865Y-101472480D01*
X129800341Y-101658819D01*
X129961180Y-101819658D01*
X130147519Y-101950134D01*
X130353673Y-102046266D01*
X130573397Y-102105141D01*
X130743235Y-102120000D01*
X130950000Y-102120000D01*
X130950000Y-101070000D01*
X131450000Y-101070000D01*
X131450000Y-102120000D01*
X131656765Y-102120000D01*
X131826602Y-102105141D01*
X132046326Y-102046266D01*
X132252480Y-101950134D01*
X132438819Y-101819658D01*
X132599658Y-101658819D01*
X132730134Y-101472480D01*
X132826266Y-101266326D01*
X132878872Y-101070000D01*
X131450000Y-101070000D01*
X130950000Y-101070000D01*
X129521128Y-101070000D01*
X109365532Y-101070000D01*
X109411081Y-101038106D01*
X109578106Y-100871081D01*
X109713600Y-100677576D01*
X109763764Y-100570000D01*
X129521128Y-100570000D01*
X132801534Y-100570000D01*
X132848987Y-100579439D01*
X132889215Y-100606319D01*
X143578630Y-111295733D01*
X143587896Y-111306101D01*
X143610120Y-111333969D01*
X143657364Y-111366180D01*
X143661145Y-111368863D01*
X143711973Y-111406376D01*
X143716568Y-111408695D01*
X143722325Y-111410470D01*
X143722327Y-111410472D01*
X143747351Y-111418190D01*
X143776980Y-111427330D01*
X143781371Y-111428774D01*
X143835301Y-111447646D01*
X143835303Y-111447646D01*
X143840990Y-111449636D01*
X143846071Y-111450500D01*
X143852098Y-111450500D01*
X143909246Y-111450500D01*
X143913883Y-111450586D01*
X143971010Y-111452725D01*
X143971010Y-111452724D01*
X143977026Y-111452950D01*
X143995638Y-111450500D01*
X156893404Y-111450500D01*
X156940857Y-111459939D01*
X156981085Y-111486819D01*
X160395157Y-114900890D01*
X160424585Y-114947809D01*
X160430650Y-115002861D01*
X160412142Y-115055061D01*
X160372754Y-115093997D01*
X160333960Y-115118017D01*
X160289008Y-115158996D01*
X160238024Y-115187009D01*
X160179876Y-115188688D01*
X160127360Y-115163663D01*
X160092037Y-115117444D01*
X160052206Y-115027235D01*
X160052205Y-115027234D01*
X160052205Y-115027233D01*
X159972767Y-114947795D01*
X159912023Y-114920974D01*
X159869991Y-114902415D01*
X159844865Y-114899500D01*
X159844863Y-114899500D01*
X158155132Y-114899500D01*
X158130011Y-114902414D01*
X158027232Y-114947795D01*
X157947795Y-115027232D01*
X157902415Y-115130009D01*
X157899500Y-115155136D01*
X157899500Y-116844867D01*
X157902414Y-116869988D01*
X157902414Y-116869990D01*
X157902415Y-116869991D01*
X157945063Y-116966579D01*
X157947795Y-116972767D01*
X158027232Y-117052204D01*
X158027233Y-117052204D01*
X158027235Y-117052206D01*
X158130009Y-117097585D01*
X158155135Y-117100500D01*
X159844864Y-117100499D01*
X159844867Y-117100499D01*
X159857427Y-117099041D01*
X159869991Y-117097585D01*
X159972765Y-117052206D01*
X160052206Y-116972765D01*
X160092038Y-116882552D01*
X160127360Y-116836336D01*
X160179876Y-116811311D01*
X160238025Y-116812991D01*
X160289009Y-116841004D01*
X160333958Y-116881981D01*
X160507361Y-116989347D01*
X160507363Y-116989348D01*
X160697544Y-117063024D01*
X160898024Y-117100500D01*
X161101974Y-117100500D01*
X161101976Y-117100500D01*
X161302456Y-117063024D01*
X161492637Y-116989348D01*
X161666041Y-116881981D01*
X161816764Y-116744579D01*
X161939673Y-116581821D01*
X161939673Y-116581819D01*
X161939675Y-116581818D01*
X162021550Y-116417389D01*
X162030582Y-116399250D01*
X162086397Y-116203083D01*
X162098936Y-116067764D01*
X169145787Y-116067764D01*
X169175413Y-116337016D01*
X169211919Y-116476651D01*
X169243928Y-116599088D01*
X169334113Y-116811311D01*
X169349871Y-116848392D01*
X169490982Y-117079611D01*
X169664253Y-117287818D01*
X169664255Y-117287820D01*
X169865998Y-117468582D01*
X170091910Y-117618044D01*
X170103197Y-117623335D01*
X170337177Y-117733021D01*
X170596562Y-117811058D01*
X170596569Y-117811060D01*
X170864561Y-117850500D01*
X171067631Y-117850500D01*
X171067634Y-117850500D01*
X171270156Y-117835677D01*
X171343782Y-117819276D01*
X171534553Y-117776780D01*
X171787558Y-117680014D01*
X172023777Y-117547441D01*
X172238177Y-117381888D01*
X172426186Y-117186881D01*
X172583799Y-116966579D01*
X172707656Y-116725675D01*
X172795118Y-116469305D01*
X172844319Y-116202933D01*
X172854212Y-115932235D01*
X172824586Y-115662982D01*
X172756072Y-115400912D01*
X172650130Y-115151610D01*
X172564104Y-115010652D01*
X172509017Y-114920388D01*
X172335746Y-114712181D01*
X172230758Y-114618112D01*
X172134002Y-114531418D01*
X171908090Y-114381956D01*
X171908086Y-114381954D01*
X171662822Y-114266978D01*
X171403437Y-114188941D01*
X171403431Y-114188940D01*
X171135439Y-114149500D01*
X170932369Y-114149500D01*
X170932366Y-114149500D01*
X170729843Y-114164322D01*
X170465449Y-114223219D01*
X170212441Y-114319986D01*
X169976223Y-114452559D01*
X169761825Y-114618109D01*
X169573813Y-114813120D01*
X169416201Y-115033420D01*
X169292342Y-115274329D01*
X169204881Y-115530695D01*
X169155680Y-115797066D01*
X169145787Y-116067764D01*
X162098936Y-116067764D01*
X162105215Y-116000000D01*
X162086397Y-115796917D01*
X162083771Y-115787689D01*
X162030581Y-115600748D01*
X161939675Y-115418181D01*
X161816763Y-115255419D01*
X161666043Y-115118020D01*
X161509222Y-115020921D01*
X161466171Y-114975833D01*
X161450500Y-114915494D01*
X161450500Y-114900892D01*
X161451280Y-114887008D01*
X161455270Y-114851596D01*
X161454874Y-114849501D01*
X161444635Y-114795391D01*
X161443864Y-114790850D01*
X161435348Y-114734343D01*
X161435347Y-114734341D01*
X161434448Y-114728376D01*
X161432842Y-114723494D01*
X161430023Y-114718161D01*
X161430023Y-114718158D01*
X161403282Y-114667563D01*
X161401220Y-114663477D01*
X161373814Y-114606566D01*
X161370818Y-114602344D01*
X161326151Y-114557677D01*
X161322933Y-114554337D01*
X161301668Y-114531419D01*
X161284055Y-114512436D01*
X161284053Y-114512435D01*
X161279958Y-114508021D01*
X161265070Y-114496596D01*
X157472738Y-110704265D01*
X157463472Y-110693897D01*
X157441249Y-110666030D01*
X157393978Y-110633800D01*
X157390240Y-110631148D01*
X157339405Y-110593629D01*
X157334794Y-110591302D01*
X157274419Y-110572679D01*
X157270014Y-110571230D01*
X157210393Y-110550368D01*
X157205284Y-110549500D01*
X157199272Y-110549500D01*
X157142108Y-110549500D01*
X157137471Y-110549413D01*
X157074340Y-110547050D01*
X157055735Y-110549500D01*
X144157965Y-110549500D01*
X144110512Y-110540061D01*
X144070284Y-110513181D01*
X142557103Y-109000000D01*
X148814785Y-109000000D01*
X148833602Y-109203083D01*
X148889418Y-109399251D01*
X148980324Y-109581818D01*
X149103236Y-109744580D01*
X149253958Y-109881981D01*
X149427361Y-109989347D01*
X149427363Y-109989348D01*
X149617544Y-110063024D01*
X149818024Y-110100500D01*
X150021974Y-110100500D01*
X150021976Y-110100500D01*
X150222456Y-110063024D01*
X150412637Y-109989348D01*
X150586041Y-109881981D01*
X150736764Y-109744579D01*
X150859673Y-109581821D01*
X150859673Y-109581819D01*
X150859675Y-109581818D01*
X150905313Y-109490161D01*
X150950582Y-109399250D01*
X151006397Y-109203083D01*
X151025215Y-109000000D01*
X158974785Y-109000000D01*
X158993602Y-109203083D01*
X159049418Y-109399251D01*
X159140324Y-109581818D01*
X159263236Y-109744580D01*
X159413958Y-109881981D01*
X159587361Y-109989347D01*
X159587363Y-109989348D01*
X159777544Y-110063024D01*
X159978024Y-110100500D01*
X160181974Y-110100500D01*
X160181976Y-110100500D01*
X160382456Y-110063024D01*
X160572637Y-109989348D01*
X160746041Y-109881981D01*
X160896764Y-109744579D01*
X161019673Y-109581821D01*
X161019673Y-109581819D01*
X161019675Y-109581818D01*
X161065313Y-109490161D01*
X161110582Y-109399250D01*
X161166397Y-109203083D01*
X161185215Y-109000000D01*
X161166397Y-108796917D01*
X161164429Y-108790000D01*
X167650000Y-108790000D01*
X167650000Y-109437824D01*
X167656402Y-109497375D01*
X167706647Y-109632089D01*
X167792811Y-109747188D01*
X167907910Y-109833352D01*
X168042624Y-109883597D01*
X168102176Y-109890000D01*
X168750000Y-109890000D01*
X168750000Y-108790000D01*
X169250000Y-108790000D01*
X169250000Y-109890000D01*
X169897824Y-109890000D01*
X169957375Y-109883597D01*
X170092089Y-109833352D01*
X170207188Y-109747188D01*
X170293352Y-109632089D01*
X170343597Y-109497375D01*
X170350000Y-109437824D01*
X170350000Y-108790000D01*
X169250000Y-108790000D01*
X168750000Y-108790000D01*
X167650000Y-108790000D01*
X161164429Y-108790000D01*
X161110582Y-108600750D01*
X161081354Y-108542052D01*
X161019675Y-108418181D01*
X160922877Y-108290000D01*
X167650000Y-108290000D01*
X168750000Y-108290000D01*
X168750000Y-106250000D01*
X169250000Y-106250000D01*
X169250000Y-108290000D01*
X170350000Y-108290000D01*
X170350000Y-107642176D01*
X170343597Y-107582624D01*
X170293352Y-107447910D01*
X170207188Y-107332811D01*
X170092088Y-107246647D01*
X169960012Y-107197385D01*
X169909633Y-107162405D01*
X169882180Y-107107561D01*
X169884369Y-107046268D01*
X169915665Y-106993521D01*
X170038109Y-106871077D01*
X170173600Y-106677576D01*
X170273430Y-106463492D01*
X170330636Y-106250000D01*
X169250000Y-106250000D01*
X168750000Y-106250000D01*
X167669364Y-106250000D01*
X167726569Y-106463492D01*
X167826399Y-106677576D01*
X167961893Y-106871081D01*
X168084334Y-106993522D01*
X168115630Y-107046268D01*
X168117819Y-107107561D01*
X168090366Y-107162405D01*
X168039987Y-107197385D01*
X167907911Y-107246647D01*
X167792811Y-107332811D01*
X167706647Y-107447910D01*
X167656402Y-107582624D01*
X167650000Y-107642176D01*
X167650000Y-108290000D01*
X160922877Y-108290000D01*
X160896763Y-108255419D01*
X160746041Y-108118018D01*
X160572638Y-108010652D01*
X160382457Y-107936976D01*
X160315629Y-107924484D01*
X160181976Y-107899500D01*
X159978024Y-107899500D01*
X159877784Y-107918237D01*
X159777542Y-107936976D01*
X159587361Y-108010652D01*
X159413958Y-108118018D01*
X159263236Y-108255419D01*
X159140324Y-108418181D01*
X159049418Y-108600748D01*
X158993602Y-108796916D01*
X158974785Y-109000000D01*
X151025215Y-109000000D01*
X151006397Y-108796917D01*
X150950582Y-108600750D01*
X150921354Y-108542052D01*
X150859675Y-108418181D01*
X150736763Y-108255419D01*
X150586041Y-108118018D01*
X150412638Y-108010652D01*
X150222457Y-107936976D01*
X150155629Y-107924484D01*
X150021976Y-107899500D01*
X149818024Y-107899500D01*
X149717784Y-107918237D01*
X149617542Y-107936976D01*
X149427361Y-108010652D01*
X149253958Y-108118018D01*
X149103236Y-108255419D01*
X148980324Y-108418181D01*
X148889418Y-108600748D01*
X148833602Y-108796916D01*
X148814785Y-109000000D01*
X142557103Y-109000000D01*
X138840102Y-105282999D01*
X144182785Y-105282999D01*
X144201602Y-105486083D01*
X144257418Y-105682251D01*
X144348324Y-105864818D01*
X144471236Y-106027580D01*
X144621958Y-106164981D01*
X144795361Y-106272347D01*
X144795363Y-106272348D01*
X144985544Y-106346024D01*
X145186024Y-106383500D01*
X145389974Y-106383500D01*
X145389976Y-106383500D01*
X145590456Y-106346024D01*
X145780637Y-106272348D01*
X145954041Y-106164981D01*
X145954040Y-106164981D01*
X146104763Y-106027580D01*
X146104764Y-106027579D01*
X146227673Y-105864821D01*
X146227673Y-105864819D01*
X146227675Y-105864818D01*
X146296746Y-105726103D01*
X146318582Y-105682250D01*
X146374397Y-105486083D01*
X146388860Y-105330000D01*
X149394785Y-105330000D01*
X149413602Y-105533083D01*
X149469418Y-105729251D01*
X149560324Y-105911818D01*
X149683236Y-106074580D01*
X149833958Y-106211981D01*
X149931455Y-106272348D01*
X150007363Y-106319348D01*
X150197544Y-106393024D01*
X150398024Y-106430500D01*
X150601974Y-106430500D01*
X150601976Y-106430500D01*
X150802456Y-106393024D01*
X150992637Y-106319348D01*
X151166041Y-106211981D01*
X151316764Y-106074579D01*
X151439673Y-105911821D01*
X151439673Y-105911819D01*
X151439675Y-105911818D01*
X151485313Y-105820161D01*
X151520250Y-105750000D01*
X167669364Y-105750000D01*
X170330636Y-105750000D01*
X170330635Y-105749999D01*
X170273430Y-105536507D01*
X170173599Y-105322421D01*
X170038109Y-105128921D01*
X169871081Y-104961893D01*
X169677576Y-104826399D01*
X169478427Y-104733533D01*
X169433432Y-104697893D01*
X169409308Y-104645809D01*
X169411224Y-104588441D01*
X169438769Y-104538083D01*
X169486038Y-104505524D01*
X169515019Y-104494298D01*
X169696302Y-104382052D01*
X169853872Y-104238407D01*
X169982366Y-104068255D01*
X169982366Y-104068253D01*
X169982368Y-104068252D01*
X170057094Y-103918179D01*
X170077405Y-103877389D01*
X170135756Y-103672310D01*
X170155429Y-103460000D01*
X170135756Y-103247690D01*
X170077405Y-103042611D01*
X170057926Y-103003492D01*
X169982368Y-102851747D01*
X169853873Y-102681594D01*
X169696301Y-102537947D01*
X169515017Y-102425701D01*
X169316198Y-102348679D01*
X169106610Y-102309500D01*
X168893390Y-102309500D01*
X168753664Y-102335619D01*
X168683801Y-102348679D01*
X168484982Y-102425701D01*
X168303698Y-102537947D01*
X168146126Y-102681594D01*
X168017631Y-102851747D01*
X167922595Y-103042609D01*
X167864243Y-103247689D01*
X167844571Y-103459999D01*
X167864243Y-103672310D01*
X167922595Y-103877390D01*
X168017631Y-104068252D01*
X168146126Y-104238405D01*
X168146128Y-104238407D01*
X168303698Y-104382052D01*
X168484981Y-104494298D01*
X168513961Y-104505524D01*
X168561231Y-104538083D01*
X168588775Y-104588442D01*
X168590691Y-104645809D01*
X168566567Y-104697893D01*
X168521573Y-104733533D01*
X168322419Y-104826401D01*
X168128921Y-104961890D01*
X167961890Y-105128921D01*
X167826400Y-105322421D01*
X167726569Y-105536507D01*
X167669364Y-105749999D01*
X167669364Y-105750000D01*
X151520250Y-105750000D01*
X151530582Y-105729250D01*
X151586397Y-105533083D01*
X151605215Y-105330000D01*
X151586397Y-105126917D01*
X151530582Y-104930750D01*
X151530209Y-104930001D01*
X151439675Y-104748181D01*
X151316763Y-104585419D01*
X151223062Y-104499999D01*
X153064785Y-104499999D01*
X153083602Y-104703083D01*
X153139418Y-104899251D01*
X153230324Y-105081818D01*
X153353236Y-105244580D01*
X153503958Y-105381981D01*
X153677361Y-105489347D01*
X153677363Y-105489348D01*
X153867544Y-105563024D01*
X154068024Y-105600500D01*
X154271974Y-105600500D01*
X154271976Y-105600500D01*
X154472456Y-105563024D01*
X154662637Y-105489348D01*
X154836041Y-105381981D01*
X154986764Y-105244579D01*
X155109673Y-105081821D01*
X155109673Y-105081819D01*
X155109675Y-105081818D01*
X155184898Y-104930748D01*
X155200582Y-104899250D01*
X155256397Y-104703083D01*
X155275215Y-104500000D01*
X155275215Y-104499999D01*
X163224785Y-104499999D01*
X163243602Y-104703083D01*
X163299418Y-104899251D01*
X163390324Y-105081818D01*
X163513236Y-105244580D01*
X163663958Y-105381981D01*
X163837361Y-105489347D01*
X163837363Y-105489348D01*
X164027544Y-105563024D01*
X164228024Y-105600500D01*
X164431974Y-105600500D01*
X164431976Y-105600500D01*
X164632456Y-105563024D01*
X164822637Y-105489348D01*
X164996041Y-105381981D01*
X165146764Y-105244579D01*
X165269673Y-105081821D01*
X165269673Y-105081819D01*
X165269675Y-105081818D01*
X165344898Y-104930748D01*
X165360582Y-104899250D01*
X165416397Y-104703083D01*
X165435215Y-104500000D01*
X165416397Y-104296917D01*
X165360582Y-104100750D01*
X165331275Y-104041893D01*
X165269675Y-103918181D01*
X165146763Y-103755419D01*
X164996041Y-103618018D01*
X164822638Y-103510652D01*
X164632457Y-103436976D01*
X164565629Y-103424483D01*
X164431976Y-103399500D01*
X164228024Y-103399500D01*
X164127784Y-103418237D01*
X164027542Y-103436976D01*
X163837361Y-103510652D01*
X163663958Y-103618018D01*
X163513236Y-103755419D01*
X163390324Y-103918181D01*
X163299418Y-104100748D01*
X163243602Y-104296916D01*
X163224785Y-104499999D01*
X155275215Y-104499999D01*
X155256397Y-104296917D01*
X155200582Y-104100750D01*
X155171275Y-104041893D01*
X155109675Y-103918181D01*
X154986763Y-103755419D01*
X154836041Y-103618018D01*
X154662638Y-103510652D01*
X154472457Y-103436976D01*
X154405629Y-103424483D01*
X154271976Y-103399500D01*
X154068024Y-103399500D01*
X153967784Y-103418237D01*
X153867542Y-103436976D01*
X153677361Y-103510652D01*
X153503958Y-103618018D01*
X153353236Y-103755419D01*
X153230324Y-103918181D01*
X153139418Y-104100748D01*
X153083602Y-104296916D01*
X153064785Y-104499999D01*
X151223062Y-104499999D01*
X151166041Y-104448018D01*
X150992638Y-104340652D01*
X150802457Y-104266976D01*
X150735629Y-104254483D01*
X150601976Y-104229500D01*
X150398024Y-104229500D01*
X150297784Y-104248237D01*
X150197542Y-104266976D01*
X150007361Y-104340652D01*
X149833958Y-104448018D01*
X149683236Y-104585419D01*
X149560324Y-104748181D01*
X149469418Y-104930748D01*
X149413602Y-105126916D01*
X149394785Y-105330000D01*
X146388860Y-105330000D01*
X146393215Y-105283000D01*
X146376140Y-105098734D01*
X146374397Y-105079916D01*
X146318581Y-104883748D01*
X146227675Y-104701181D01*
X146104763Y-104538419D01*
X145954041Y-104401018D01*
X145780638Y-104293652D01*
X145590457Y-104219976D01*
X145523629Y-104207483D01*
X145389976Y-104182500D01*
X145186024Y-104182500D01*
X145085784Y-104201237D01*
X144985542Y-104219976D01*
X144795361Y-104293652D01*
X144621958Y-104401018D01*
X144471236Y-104538419D01*
X144348324Y-104701181D01*
X144257418Y-104883748D01*
X144201602Y-105079916D01*
X144182785Y-105282999D01*
X138840102Y-105282999D01*
X134324499Y-100767396D01*
X137315746Y-100767396D01*
X137325746Y-100977330D01*
X137375297Y-101181580D01*
X137462602Y-101372752D01*
X137533619Y-101472480D01*
X137584514Y-101543952D01*
X137736622Y-101688986D01*
X137808964Y-101735478D01*
X137913425Y-101802612D01*
X137952580Y-101818287D01*
X138108543Y-101880725D01*
X138237228Y-101905527D01*
X138314914Y-101920500D01*
X138314915Y-101920500D01*
X139272420Y-101920500D01*
X139272425Y-101920500D01*
X139429218Y-101905528D01*
X139630875Y-101846316D01*
X139817682Y-101750011D01*
X139982886Y-101620092D01*
X140120519Y-101461256D01*
X140225604Y-101279244D01*
X140294344Y-101080633D01*
X140324254Y-100872602D01*
X140314254Y-100662670D01*
X140264704Y-100458424D01*
X140231157Y-100384966D01*
X140177397Y-100267247D01*
X140100332Y-100159026D01*
X168274526Y-100159026D01*
X168347515Y-100210133D01*
X168553673Y-100306266D01*
X168773397Y-100365141D01*
X169000000Y-100384966D01*
X169226602Y-100365141D01*
X169446326Y-100306266D01*
X169652480Y-100210134D01*
X169725472Y-100159025D01*
X169000001Y-99433553D01*
X169000000Y-99433553D01*
X168274526Y-100159025D01*
X168274526Y-100159026D01*
X140100332Y-100159026D01*
X140055487Y-100096050D01*
X140055486Y-100096048D01*
X139903378Y-99951014D01*
X139870694Y-99930009D01*
X139726574Y-99837387D01*
X139570609Y-99774949D01*
X139531457Y-99759275D01*
X139531456Y-99759274D01*
X139531454Y-99759274D01*
X139325086Y-99719500D01*
X139325085Y-99719500D01*
X138367575Y-99719500D01*
X138269579Y-99728857D01*
X138210779Y-99734472D01*
X138009126Y-99793683D01*
X137822315Y-99889990D01*
X137657115Y-100019906D01*
X137519479Y-100178745D01*
X137414396Y-100360754D01*
X137345655Y-100559366D01*
X137315746Y-100767396D01*
X134324499Y-100767396D01*
X132559688Y-99002585D01*
X132530847Y-98957314D01*
X132523841Y-98904097D01*
X132539982Y-98852904D01*
X132605533Y-98739367D01*
X132605604Y-98739244D01*
X132674344Y-98540633D01*
X132704254Y-98332602D01*
X132699243Y-98227398D01*
X137315746Y-98227398D01*
X137325746Y-98437330D01*
X137373378Y-98633672D01*
X137375297Y-98641580D01*
X137462602Y-98832752D01*
X137544242Y-98947398D01*
X137584514Y-99003952D01*
X137736622Y-99148986D01*
X137808964Y-99195478D01*
X137913425Y-99262612D01*
X137952580Y-99278287D01*
X138108543Y-99340725D01*
X138216749Y-99361580D01*
X138314914Y-99380500D01*
X138314915Y-99380500D01*
X139272420Y-99380500D01*
X139272425Y-99380500D01*
X139429218Y-99365528D01*
X139630875Y-99306316D01*
X139817682Y-99210011D01*
X139982886Y-99080092D01*
X140097867Y-98947398D01*
X154695746Y-98947398D01*
X154702067Y-99080092D01*
X154705746Y-99157330D01*
X154755297Y-99361580D01*
X154842602Y-99552752D01*
X154940241Y-99689865D01*
X154964514Y-99723952D01*
X155116622Y-99868986D01*
X155149305Y-99889990D01*
X155293425Y-99982612D01*
X155332580Y-99998287D01*
X155488543Y-100060725D01*
X155617228Y-100085527D01*
X155694914Y-100100500D01*
X155694915Y-100100500D01*
X156652420Y-100100500D01*
X156652425Y-100100500D01*
X156809218Y-100085528D01*
X157010875Y-100026316D01*
X157197682Y-99930011D01*
X157362886Y-99800092D01*
X157500519Y-99641256D01*
X157605604Y-99459244D01*
X157674344Y-99260633D01*
X157704254Y-99052602D01*
X157699243Y-98947398D01*
X162315746Y-98947398D01*
X162322067Y-99080092D01*
X162325746Y-99157330D01*
X162375297Y-99361580D01*
X162462602Y-99552752D01*
X162560241Y-99689865D01*
X162584514Y-99723952D01*
X162736622Y-99868986D01*
X162769305Y-99889990D01*
X162913425Y-99982612D01*
X162952580Y-99998287D01*
X163108543Y-100060725D01*
X163237228Y-100085527D01*
X163314914Y-100100500D01*
X163314915Y-100100500D01*
X164272420Y-100100500D01*
X164272425Y-100100500D01*
X164429218Y-100085528D01*
X164630875Y-100026316D01*
X164817682Y-99930011D01*
X164982886Y-99800092D01*
X165120519Y-99641256D01*
X165225604Y-99459244D01*
X165294344Y-99260633D01*
X165320315Y-99080000D01*
X167695033Y-99080000D01*
X167714858Y-99306602D01*
X167773733Y-99526326D01*
X167869866Y-99732484D01*
X167920972Y-99805471D01*
X167920974Y-99805472D01*
X168646446Y-99080001D01*
X169353553Y-99080001D01*
X170079025Y-99805472D01*
X170130134Y-99732480D01*
X170226266Y-99526326D01*
X170285141Y-99306602D01*
X170304966Y-99080000D01*
X170285141Y-98853397D01*
X170226266Y-98633673D01*
X170130133Y-98427515D01*
X170079025Y-98354526D01*
X169353553Y-99080000D01*
X169353553Y-99080001D01*
X168646446Y-99080001D01*
X168646446Y-99080000D01*
X167920973Y-98354526D01*
X167920973Y-98354527D01*
X167869865Y-98427516D01*
X167773733Y-98633672D01*
X167714858Y-98853397D01*
X167695033Y-99080000D01*
X165320315Y-99080000D01*
X165324254Y-99052602D01*
X165314254Y-98842670D01*
X165264704Y-98638424D01*
X165264702Y-98638419D01*
X165177397Y-98447247D01*
X165055487Y-98276050D01*
X165055486Y-98276048D01*
X164903378Y-98131014D01*
X164871257Y-98110371D01*
X164726574Y-98017387D01*
X164685573Y-98000973D01*
X168274526Y-98000973D01*
X169000000Y-98726446D01*
X169000001Y-98726446D01*
X169725472Y-98000974D01*
X169725471Y-98000972D01*
X169652484Y-97949866D01*
X169446326Y-97853733D01*
X169226602Y-97794858D01*
X169000000Y-97775033D01*
X168773397Y-97794858D01*
X168553672Y-97853733D01*
X168347516Y-97949865D01*
X168274527Y-98000973D01*
X168274526Y-98000973D01*
X164685573Y-98000973D01*
X164557912Y-97949866D01*
X164531457Y-97939275D01*
X164531456Y-97939274D01*
X164531454Y-97939274D01*
X164325086Y-97899500D01*
X164325085Y-97899500D01*
X163367575Y-97899500D01*
X163269579Y-97908857D01*
X163210779Y-97914472D01*
X163009126Y-97973683D01*
X162822315Y-98069990D01*
X162657115Y-98199906D01*
X162519479Y-98358745D01*
X162414396Y-98540754D01*
X162345655Y-98739366D01*
X162315746Y-98947396D01*
X162315746Y-98947398D01*
X157699243Y-98947398D01*
X157694254Y-98842670D01*
X157644704Y-98638424D01*
X157644702Y-98638419D01*
X157557397Y-98447247D01*
X157435487Y-98276050D01*
X157435486Y-98276048D01*
X157283378Y-98131014D01*
X157251257Y-98110371D01*
X157106574Y-98017387D01*
X156937912Y-97949866D01*
X156911457Y-97939275D01*
X156911456Y-97939274D01*
X156911454Y-97939274D01*
X156705086Y-97899500D01*
X156705085Y-97899500D01*
X155747575Y-97899500D01*
X155649579Y-97908857D01*
X155590779Y-97914472D01*
X155389126Y-97973683D01*
X155202315Y-98069990D01*
X155037115Y-98199906D01*
X154899479Y-98358745D01*
X154794396Y-98540754D01*
X154725655Y-98739366D01*
X154695746Y-98947396D01*
X154695746Y-98947398D01*
X140097867Y-98947398D01*
X140120519Y-98921256D01*
X140225604Y-98739244D01*
X140294344Y-98540633D01*
X140324254Y-98332602D01*
X140314254Y-98122670D01*
X140264704Y-97918424D01*
X140256062Y-97899500D01*
X140177397Y-97727247D01*
X140055487Y-97556050D01*
X140055486Y-97556048D01*
X139903378Y-97411014D01*
X139870694Y-97390009D01*
X139726574Y-97297387D01*
X139570609Y-97234949D01*
X139531457Y-97219275D01*
X139531456Y-97219274D01*
X139531454Y-97219274D01*
X139325086Y-97179500D01*
X139325085Y-97179500D01*
X138367575Y-97179500D01*
X138269579Y-97188857D01*
X138210779Y-97194472D01*
X138009126Y-97253683D01*
X137822315Y-97349990D01*
X137657115Y-97479906D01*
X137519479Y-97638745D01*
X137414396Y-97820754D01*
X137345655Y-98019366D01*
X137319698Y-98199908D01*
X137315746Y-98227398D01*
X132699243Y-98227398D01*
X132694254Y-98122670D01*
X132644704Y-97918424D01*
X132636062Y-97899500D01*
X132557397Y-97727247D01*
X132435487Y-97556050D01*
X132435486Y-97556048D01*
X132283378Y-97411014D01*
X132250694Y-97390009D01*
X132106574Y-97297387D01*
X131950609Y-97234949D01*
X131911457Y-97219275D01*
X131911456Y-97219274D01*
X131911454Y-97219274D01*
X131705086Y-97179500D01*
X131705085Y-97179500D01*
X130747575Y-97179500D01*
X130649579Y-97188857D01*
X130590779Y-97194472D01*
X130389126Y-97253683D01*
X130202315Y-97349990D01*
X130037115Y-97479906D01*
X129899479Y-97638745D01*
X129794396Y-97820754D01*
X129725655Y-98019366D01*
X129699698Y-98199908D01*
X129695746Y-98227398D01*
X129705746Y-98437330D01*
X129753378Y-98633672D01*
X129755297Y-98641580D01*
X129842602Y-98832752D01*
X129924242Y-98947398D01*
X129964514Y-99003952D01*
X130116622Y-99148986D01*
X130188964Y-99195478D01*
X130293425Y-99262612D01*
X130338411Y-99280621D01*
X130467186Y-99332175D01*
X130516718Y-99368342D01*
X130542858Y-99423824D01*
X130539211Y-99485048D01*
X130506669Y-99537035D01*
X130453193Y-99567067D01*
X130353673Y-99593733D01*
X130147519Y-99689865D01*
X129961180Y-99820341D01*
X129800341Y-99981180D01*
X129669865Y-100167519D01*
X129573733Y-100373673D01*
X129521128Y-100569999D01*
X129521128Y-100570000D01*
X109763764Y-100570000D01*
X109813430Y-100463492D01*
X109870636Y-100250000D01*
X108790000Y-100250000D01*
X108290000Y-100250000D01*
X106250000Y-100250000D01*
X105750000Y-100250000D01*
X104669364Y-100250000D01*
X102000500Y-100250000D01*
X102000500Y-99750000D01*
X104669364Y-99750000D01*
X109870636Y-99750000D01*
X109870635Y-99749999D01*
X109813430Y-99536507D01*
X109713599Y-99322421D01*
X109578109Y-99128921D01*
X109411081Y-98961893D01*
X109217576Y-98826399D01*
X109018427Y-98733533D01*
X108973432Y-98697893D01*
X108949308Y-98645809D01*
X108951224Y-98588441D01*
X108978769Y-98538083D01*
X109026038Y-98505524D01*
X109055019Y-98494298D01*
X109236302Y-98382052D01*
X109393872Y-98238407D01*
X109464511Y-98144867D01*
X113519500Y-98144867D01*
X113522414Y-98169988D01*
X113567795Y-98272767D01*
X113647232Y-98352204D01*
X113647233Y-98352204D01*
X113647235Y-98352206D01*
X113750009Y-98397585D01*
X113775135Y-98400500D01*
X116064864Y-98400499D01*
X116064867Y-98400499D01*
X116077427Y-98399041D01*
X116089991Y-98397585D01*
X116192765Y-98352206D01*
X116272206Y-98272765D01*
X116317585Y-98169991D01*
X116320500Y-98144865D01*
X116320499Y-96999999D01*
X123674699Y-96999999D01*
X123693865Y-97231299D01*
X123693865Y-97231301D01*
X123693866Y-97231305D01*
X123739375Y-97411013D01*
X123750844Y-97456303D01*
X123830871Y-97638744D01*
X123844076Y-97668849D01*
X123971021Y-97863153D01*
X124128216Y-98033913D01*
X124311374Y-98176470D01*
X124515497Y-98286936D01*
X124625257Y-98324616D01*
X124735015Y-98362297D01*
X124735017Y-98362297D01*
X124735019Y-98362298D01*
X124963951Y-98400500D01*
X125196048Y-98400500D01*
X125196049Y-98400500D01*
X125424981Y-98362298D01*
X125644503Y-98286936D01*
X125848626Y-98176470D01*
X126031784Y-98033913D01*
X126188979Y-97863153D01*
X126315924Y-97668849D01*
X126409157Y-97456300D01*
X126466134Y-97231305D01*
X126485300Y-97000000D01*
X126466134Y-96768695D01*
X126409157Y-96543700D01*
X126315924Y-96331151D01*
X126188979Y-96136847D01*
X126031784Y-95966087D01*
X125848626Y-95823530D01*
X125644503Y-95713064D01*
X125644499Y-95713062D01*
X125644498Y-95713062D01*
X125569742Y-95687398D01*
X129695746Y-95687398D01*
X129697644Y-95727235D01*
X129705746Y-95897330D01*
X129755297Y-96101580D01*
X129842602Y-96292752D01*
X129937276Y-96425702D01*
X129964514Y-96463952D01*
X130116622Y-96608986D01*
X130188964Y-96655478D01*
X130293425Y-96722612D01*
X130332580Y-96738287D01*
X130488543Y-96800725D01*
X130596749Y-96821580D01*
X130694914Y-96840500D01*
X130694915Y-96840500D01*
X131652420Y-96840500D01*
X131652425Y-96840500D01*
X131809218Y-96825528D01*
X132010875Y-96766316D01*
X132197682Y-96670011D01*
X132362886Y-96540092D01*
X132500519Y-96381256D01*
X132605604Y-96199244D01*
X132674344Y-96000633D01*
X132704254Y-95792602D01*
X132694254Y-95582670D01*
X132644704Y-95378424D01*
X132636062Y-95359500D01*
X132557397Y-95187247D01*
X132435487Y-95016050D01*
X132435486Y-95016048D01*
X132283378Y-94871014D01*
X132250694Y-94850009D01*
X132106574Y-94757387D01*
X131950609Y-94694949D01*
X131911457Y-94679275D01*
X131911456Y-94679274D01*
X131911454Y-94679274D01*
X131705086Y-94639500D01*
X131705085Y-94639500D01*
X130747575Y-94639500D01*
X130649579Y-94648857D01*
X130590779Y-94654472D01*
X130389126Y-94713683D01*
X130202315Y-94809990D01*
X130037115Y-94939906D01*
X129899479Y-95098745D01*
X129794396Y-95280754D01*
X129725655Y-95479366D01*
X129699698Y-95659908D01*
X129695746Y-95687398D01*
X125569742Y-95687398D01*
X125424984Y-95637702D01*
X125253281Y-95609050D01*
X125196049Y-95599500D01*
X124963951Y-95599500D01*
X124918164Y-95607140D01*
X124735015Y-95637702D01*
X124515501Y-95713062D01*
X124515497Y-95713063D01*
X124515497Y-95713064D01*
X124379415Y-95786707D01*
X124311372Y-95823531D01*
X124128215Y-95966087D01*
X123971020Y-96136848D01*
X123844076Y-96331150D01*
X123750844Y-96543696D01*
X123750842Y-96543700D01*
X123750843Y-96543700D01*
X123694469Y-96766316D01*
X123693865Y-96768700D01*
X123674699Y-96999999D01*
X116320499Y-96999999D01*
X116320499Y-95855136D01*
X116317585Y-95830009D01*
X116272206Y-95727235D01*
X116272204Y-95727233D01*
X116272204Y-95727232D01*
X116192767Y-95647795D01*
X116192765Y-95647794D01*
X116089991Y-95602415D01*
X116064865Y-95599500D01*
X116064863Y-95599500D01*
X113775132Y-95599500D01*
X113750011Y-95602414D01*
X113647232Y-95647795D01*
X113567795Y-95727232D01*
X113522415Y-95830009D01*
X113519500Y-95855136D01*
X113519500Y-98144867D01*
X109464511Y-98144867D01*
X109522366Y-98068255D01*
X109522366Y-98068253D01*
X109522368Y-98068252D01*
X109581316Y-97949866D01*
X109617405Y-97877389D01*
X109675756Y-97672310D01*
X109695429Y-97460000D01*
X109675756Y-97247690D01*
X109671092Y-97231299D01*
X109634091Y-97101256D01*
X109617405Y-97042611D01*
X109602537Y-97012752D01*
X109522368Y-96851747D01*
X109393873Y-96681594D01*
X109236301Y-96537947D01*
X109055017Y-96425701D01*
X108856198Y-96348679D01*
X108856197Y-96348678D01*
X108659385Y-96311888D01*
X108598634Y-96281637D01*
X108562906Y-96223934D01*
X108562906Y-96156066D01*
X108598634Y-96098363D01*
X108659385Y-96068111D01*
X108856198Y-96031321D01*
X109055019Y-95954298D01*
X109236302Y-95842052D01*
X109393872Y-95698407D01*
X109522366Y-95528255D01*
X109522366Y-95528253D01*
X109522368Y-95528252D01*
X109586590Y-95399274D01*
X109617405Y-95337389D01*
X109675756Y-95132310D01*
X109695429Y-94920000D01*
X109675756Y-94707690D01*
X109617405Y-94502611D01*
X109602537Y-94472752D01*
X109522368Y-94311747D01*
X109393873Y-94141594D01*
X109236301Y-93997947D01*
X109055017Y-93885701D01*
X108856198Y-93808679D01*
X108856197Y-93808678D01*
X108659385Y-93771888D01*
X108598634Y-93741637D01*
X108562906Y-93683934D01*
X108562906Y-93616066D01*
X108598634Y-93558363D01*
X108659385Y-93528111D01*
X108856198Y-93491321D01*
X109055019Y-93414298D01*
X109236302Y-93302052D01*
X109393872Y-93158407D01*
X109522366Y-92988255D01*
X109522366Y-92988253D01*
X109522368Y-92988252D01*
X109596972Y-92838424D01*
X109617405Y-92797389D01*
X109675756Y-92592310D01*
X109695429Y-92380000D01*
X109675756Y-92167690D01*
X109672959Y-92157861D01*
X109647775Y-92069348D01*
X109617405Y-91962611D01*
X109588215Y-91903989D01*
X109522368Y-91771747D01*
X109393873Y-91601594D01*
X109236301Y-91457947D01*
X109085637Y-91364660D01*
X109055019Y-91345702D01*
X109055017Y-91345701D01*
X108856198Y-91268679D01*
X108659385Y-91231888D01*
X108598634Y-91201637D01*
X108562906Y-91143934D01*
X108562906Y-91076066D01*
X108598634Y-91018363D01*
X108659385Y-90988111D01*
X108856198Y-90951321D01*
X109055019Y-90874298D01*
X109236302Y-90762052D01*
X109393872Y-90618407D01*
X109522366Y-90448255D01*
X109522366Y-90448253D01*
X109522368Y-90448252D01*
X109606395Y-90279500D01*
X109617405Y-90257389D01*
X109619507Y-90250000D01*
X113700000Y-90250000D01*
X113700000Y-90847824D01*
X113706402Y-90907375D01*
X113756647Y-91042089D01*
X113842811Y-91157188D01*
X113957910Y-91243352D01*
X114092624Y-91293597D01*
X114152176Y-91300000D01*
X114750000Y-91300000D01*
X114750000Y-90250000D01*
X113700000Y-90250000D01*
X109619507Y-90250000D01*
X109675756Y-90052310D01*
X109695429Y-89840000D01*
X109687089Y-89750000D01*
X113700000Y-89750000D01*
X114750000Y-89750000D01*
X114750000Y-88700000D01*
X115250000Y-88700000D01*
X115250000Y-91300000D01*
X115847824Y-91300000D01*
X115907375Y-91293597D01*
X116042089Y-91243352D01*
X116157188Y-91157188D01*
X116243352Y-91042088D01*
X116256006Y-91008163D01*
X116285711Y-90962626D01*
X116332042Y-90934175D01*
X116386090Y-90928278D01*
X116437463Y-90946068D01*
X116507363Y-90989348D01*
X116697544Y-91063024D01*
X116898024Y-91100500D01*
X117101974Y-91100500D01*
X117101976Y-91100500D01*
X117302456Y-91063024D01*
X117492637Y-90989348D01*
X117666041Y-90881981D01*
X117687120Y-90862765D01*
X117706753Y-90844867D01*
X121899500Y-90844867D01*
X121902414Y-90869988D01*
X121947795Y-90972767D01*
X122027232Y-91052204D01*
X122027233Y-91052204D01*
X122027235Y-91052206D01*
X122130009Y-91097585D01*
X122155135Y-91100500D01*
X123844864Y-91100499D01*
X123844867Y-91100499D01*
X123857427Y-91099042D01*
X123869991Y-91097585D01*
X123972765Y-91052206D01*
X124007692Y-91017278D01*
X124056371Y-90987252D01*
X124113346Y-90982267D01*
X124166499Y-91003383D01*
X124347519Y-91130134D01*
X124553673Y-91226266D01*
X124773397Y-91285141D01*
X125000000Y-91304966D01*
X125226602Y-91285141D01*
X125446326Y-91226266D01*
X125652480Y-91130134D01*
X125725472Y-91079025D01*
X124734128Y-90087681D01*
X124702034Y-90032094D01*
X124702034Y-90000001D01*
X125353553Y-90000001D01*
X126079025Y-90725472D01*
X126130134Y-90652480D01*
X126226266Y-90446326D01*
X126285141Y-90226602D01*
X126304966Y-89999999D01*
X126285141Y-89773397D01*
X126226266Y-89553673D01*
X126130133Y-89347515D01*
X126079025Y-89274526D01*
X125353553Y-90000000D01*
X125353553Y-90000001D01*
X124702034Y-90000001D01*
X124702034Y-89967906D01*
X124734128Y-89912319D01*
X125000000Y-89646447D01*
X125725472Y-88920974D01*
X125725471Y-88920972D01*
X125652484Y-88869866D01*
X125446326Y-88773733D01*
X125226602Y-88714858D01*
X124999999Y-88695033D01*
X124773397Y-88714858D01*
X124553673Y-88773733D01*
X124347515Y-88869866D01*
X124166498Y-88996616D01*
X124113346Y-89017732D01*
X124056371Y-89012747D01*
X124007694Y-88982722D01*
X123972767Y-88947795D01*
X123912023Y-88920974D01*
X123869991Y-88902415D01*
X123844865Y-88899500D01*
X123844863Y-88899500D01*
X122155132Y-88899500D01*
X122130011Y-88902414D01*
X122027232Y-88947795D01*
X121947795Y-89027232D01*
X121902415Y-89130009D01*
X121899500Y-89155136D01*
X121899500Y-90844867D01*
X117706753Y-90844867D01*
X117816763Y-90744580D01*
X117816764Y-90744579D01*
X117939673Y-90581821D01*
X117939673Y-90581819D01*
X117939675Y-90581818D01*
X117985313Y-90490161D01*
X118030582Y-90399250D01*
X118086397Y-90203083D01*
X118105215Y-90000000D01*
X118086397Y-89796917D01*
X118078741Y-89770011D01*
X118061378Y-89708986D01*
X118030582Y-89600750D01*
X118012259Y-89563952D01*
X117939675Y-89418181D01*
X117816763Y-89255419D01*
X117666041Y-89118018D01*
X117492638Y-89010652D01*
X117302457Y-88936976D01*
X117216852Y-88920974D01*
X117101976Y-88899500D01*
X116898024Y-88899500D01*
X116799341Y-88917947D01*
X116697542Y-88936976D01*
X116507361Y-89010652D01*
X116437465Y-89053930D01*
X116386089Y-89071721D01*
X116332042Y-89065824D01*
X116285712Y-89037373D01*
X116256006Y-88991837D01*
X116243352Y-88957910D01*
X116157188Y-88842811D01*
X116042089Y-88756647D01*
X115907375Y-88706402D01*
X115847824Y-88700000D01*
X115250000Y-88700000D01*
X114750000Y-88700000D01*
X114152176Y-88700000D01*
X114092624Y-88706402D01*
X113957910Y-88756647D01*
X113842811Y-88842811D01*
X113756647Y-88957910D01*
X113706402Y-89092624D01*
X113700000Y-89152176D01*
X113700000Y-89750000D01*
X109687089Y-89750000D01*
X109675756Y-89627690D01*
X109617405Y-89422611D01*
X109580012Y-89347515D01*
X109522368Y-89231747D01*
X109393873Y-89061594D01*
X109236301Y-88917947D01*
X109073645Y-88817235D01*
X109055019Y-88805702D01*
X109055017Y-88805701D01*
X108856198Y-88728679D01*
X108793277Y-88716917D01*
X108646610Y-88689500D01*
X108433390Y-88689500D01*
X108342973Y-88706402D01*
X108223801Y-88728679D01*
X108024982Y-88805701D01*
X107843698Y-88917947D01*
X107686126Y-89061594D01*
X107557631Y-89231747D01*
X107462595Y-89422609D01*
X107404243Y-89627689D01*
X107397970Y-89695393D01*
X107376799Y-89754029D01*
X107329770Y-89794952D01*
X107268772Y-89807820D01*
X107209221Y-89789379D01*
X107166170Y-89744291D01*
X107150499Y-89683952D01*
X107150499Y-88945133D01*
X107147697Y-88920974D01*
X107147585Y-88920009D01*
X107102206Y-88817235D01*
X107102204Y-88817233D01*
X107102204Y-88817232D01*
X107022767Y-88737795D01*
X107002121Y-88728679D01*
X106919991Y-88692415D01*
X106894865Y-88689500D01*
X106894863Y-88689500D01*
X105105132Y-88689500D01*
X105080011Y-88692414D01*
X104977232Y-88737795D01*
X104897795Y-88817232D01*
X104852415Y-88920009D01*
X104849500Y-88945136D01*
X104849500Y-90734867D01*
X104852414Y-90759988D01*
X104852414Y-90759990D01*
X104852415Y-90759991D01*
X104889891Y-90844867D01*
X104897795Y-90862767D01*
X104977232Y-90942204D01*
X104977233Y-90942204D01*
X104977235Y-90942206D01*
X105080009Y-90987585D01*
X105105135Y-90990500D01*
X105833759Y-90990499D01*
X105892420Y-91005253D01*
X105937124Y-91046005D01*
X105957228Y-91103057D01*
X105947949Y-91162832D01*
X105911496Y-91211105D01*
X105856543Y-91236387D01*
X105683802Y-91268679D01*
X105646631Y-91283079D01*
X105484982Y-91345701D01*
X105303698Y-91457947D01*
X105146126Y-91601594D01*
X105017631Y-91771747D01*
X104922595Y-91962609D01*
X104864243Y-92167689D01*
X104844571Y-92380000D01*
X104864243Y-92592310D01*
X104922595Y-92797390D01*
X105017631Y-92988252D01*
X105146126Y-93158405D01*
X105146128Y-93158407D01*
X105303698Y-93302052D01*
X105484981Y-93414298D01*
X105683802Y-93491321D01*
X105880613Y-93528111D01*
X105941365Y-93558363D01*
X105977093Y-93616066D01*
X105977093Y-93683934D01*
X105941365Y-93741637D01*
X105880613Y-93771888D01*
X105750475Y-93796215D01*
X105683801Y-93808679D01*
X105484982Y-93885701D01*
X105303698Y-93997947D01*
X105146126Y-94141594D01*
X105017631Y-94311747D01*
X104922595Y-94502609D01*
X104864243Y-94707689D01*
X104844571Y-94920000D01*
X104864243Y-95132310D01*
X104922595Y-95337390D01*
X105017631Y-95528252D01*
X105137814Y-95687398D01*
X105146128Y-95698407D01*
X105303698Y-95842052D01*
X105484981Y-95954298D01*
X105683802Y-96031321D01*
X105880613Y-96068111D01*
X105941365Y-96098363D01*
X105977093Y-96156066D01*
X105977093Y-96223934D01*
X105941365Y-96281637D01*
X105880613Y-96311888D01*
X105777568Y-96331151D01*
X105683801Y-96348679D01*
X105484982Y-96425701D01*
X105303698Y-96537947D01*
X105146126Y-96681594D01*
X105017631Y-96851747D01*
X104922595Y-97042609D01*
X104864243Y-97247689D01*
X104844571Y-97460000D01*
X104864243Y-97672310D01*
X104922595Y-97877390D01*
X105017631Y-98068252D01*
X105137814Y-98227398D01*
X105146128Y-98238407D01*
X105303698Y-98382052D01*
X105484981Y-98494298D01*
X105513961Y-98505524D01*
X105561231Y-98538083D01*
X105588775Y-98588442D01*
X105590691Y-98645809D01*
X105566567Y-98697893D01*
X105521573Y-98733533D01*
X105322419Y-98826401D01*
X105128921Y-98961890D01*
X104961890Y-99128921D01*
X104826400Y-99322421D01*
X104726569Y-99536507D01*
X104669364Y-99749999D01*
X104669364Y-99750000D01*
X102000500Y-99750000D01*
X102000500Y-83067764D01*
X105145787Y-83067764D01*
X105175413Y-83337016D01*
X105208219Y-83462499D01*
X105243928Y-83599088D01*
X105334662Y-83812602D01*
X105349871Y-83848392D01*
X105490982Y-84079611D01*
X105643205Y-84262526D01*
X105664255Y-84287820D01*
X105865998Y-84468582D01*
X106091910Y-84618044D01*
X106198211Y-84667875D01*
X106337177Y-84733021D01*
X106596562Y-84811058D01*
X106596569Y-84811060D01*
X106864561Y-84850500D01*
X107067631Y-84850500D01*
X107067634Y-84850500D01*
X107270156Y-84835677D01*
X107270156Y-84835676D01*
X107534553Y-84776780D01*
X107787558Y-84680014D01*
X108023777Y-84547441D01*
X108238177Y-84381888D01*
X108426186Y-84186881D01*
X108583799Y-83966579D01*
X108707656Y-83725675D01*
X108795118Y-83469305D01*
X108844319Y-83202933D01*
X108854212Y-82932235D01*
X108824586Y-82662982D01*
X108756072Y-82400912D01*
X108650130Y-82151610D01*
X108577999Y-82033420D01*
X108557603Y-81999999D01*
X113514699Y-81999999D01*
X113533865Y-82231299D01*
X113533865Y-82231301D01*
X113533866Y-82231305D01*
X113571761Y-82380946D01*
X113590844Y-82456303D01*
X113645902Y-82581821D01*
X113684076Y-82668849D01*
X113811021Y-82863153D01*
X113968216Y-83033913D01*
X114151374Y-83176470D01*
X114355497Y-83286936D01*
X114408017Y-83304966D01*
X114575015Y-83362297D01*
X114575017Y-83362297D01*
X114575019Y-83362298D01*
X114803951Y-83400500D01*
X115036048Y-83400500D01*
X115036049Y-83400500D01*
X115264981Y-83362298D01*
X115484503Y-83286936D01*
X115688626Y-83176470D01*
X115729230Y-83144867D01*
X123679500Y-83144867D01*
X123682414Y-83169988D01*
X123682414Y-83169990D01*
X123682415Y-83169991D01*
X123698865Y-83207247D01*
X123727795Y-83272767D01*
X123807232Y-83352204D01*
X123807233Y-83352204D01*
X123807235Y-83352206D01*
X123910009Y-83397585D01*
X123935135Y-83400500D01*
X124405500Y-83400500D01*
X124467500Y-83417113D01*
X124512887Y-83462500D01*
X124529500Y-83524500D01*
X124529500Y-83915245D01*
X124529428Y-83919478D01*
X124527237Y-83983593D01*
X124536963Y-84023500D01*
X124539334Y-84035974D01*
X124544930Y-84076689D01*
X124552079Y-84093147D01*
X124558819Y-84113188D01*
X124563067Y-84130620D01*
X124583206Y-84166439D01*
X124588852Y-84177806D01*
X124605220Y-84215487D01*
X124613009Y-84225061D01*
X124616542Y-84229404D01*
X124628437Y-84246883D01*
X124637232Y-84262524D01*
X124666285Y-84291577D01*
X124674793Y-84301004D01*
X124700721Y-84332874D01*
X124715378Y-84343220D01*
X124731552Y-84356844D01*
X128583775Y-88209067D01*
X132262528Y-91887819D01*
X132292778Y-91937182D01*
X132297320Y-91994898D01*
X132275165Y-92048385D01*
X132231142Y-92085985D01*
X132174847Y-92099500D01*
X129955132Y-92099500D01*
X129930011Y-92102414D01*
X129827232Y-92147795D01*
X129747795Y-92227232D01*
X129702415Y-92330009D01*
X129699500Y-92355136D01*
X129699500Y-94044867D01*
X129702414Y-94069988D01*
X129702414Y-94069990D01*
X129702415Y-94069991D01*
X129730524Y-94133652D01*
X129747795Y-94172767D01*
X129827232Y-94252204D01*
X129827233Y-94252204D01*
X129827235Y-94252206D01*
X129930009Y-94297585D01*
X129955135Y-94300500D01*
X132444864Y-94300499D01*
X132444867Y-94300499D01*
X132457427Y-94299042D01*
X132469991Y-94297585D01*
X132572765Y-94252206D01*
X132652206Y-94172765D01*
X132697585Y-94069991D01*
X132700500Y-94044865D01*
X132700499Y-92625151D01*
X132714014Y-92568857D01*
X132751614Y-92524834D01*
X132805101Y-92502679D01*
X132862817Y-92507221D01*
X132912180Y-92537471D01*
X136495811Y-96121102D01*
X136498753Y-96124146D01*
X136542553Y-96171044D01*
X136576283Y-96191555D01*
X136577658Y-96192391D01*
X136588151Y-96199532D01*
X136620891Y-96224361D01*
X136637586Y-96230944D01*
X136656523Y-96240351D01*
X136671851Y-96249672D01*
X136711412Y-96260756D01*
X136723448Y-96264803D01*
X136761668Y-96279876D01*
X136779516Y-96281710D01*
X136800279Y-96285656D01*
X136817568Y-96290500D01*
X136858650Y-96290500D01*
X136871330Y-96291149D01*
X136912204Y-96295352D01*
X136929888Y-96292303D01*
X136950957Y-96290500D01*
X137397073Y-96290500D01*
X137453893Y-96304284D01*
X137498080Y-96342573D01*
X137544241Y-96407396D01*
X137584514Y-96463952D01*
X137736622Y-96608986D01*
X137808964Y-96655478D01*
X137913425Y-96722612D01*
X137952580Y-96738287D01*
X138108543Y-96800725D01*
X138216749Y-96821580D01*
X138314914Y-96840500D01*
X138314915Y-96840500D01*
X139272420Y-96840500D01*
X139272425Y-96840500D01*
X139429218Y-96825528D01*
X139630875Y-96766316D01*
X139817682Y-96670011D01*
X139982886Y-96540092D01*
X140120519Y-96381256D01*
X140137121Y-96352499D01*
X140182508Y-96307113D01*
X140244508Y-96290500D01*
X140616478Y-96290500D01*
X140620711Y-96290572D01*
X140684824Y-96292762D01*
X140684824Y-96292761D01*
X140684826Y-96292762D01*
X140724751Y-96283031D01*
X140737196Y-96280666D01*
X140777920Y-96275070D01*
X140794383Y-96267918D01*
X140814419Y-96261180D01*
X140831852Y-96256933D01*
X140867695Y-96236778D01*
X140879015Y-96231157D01*
X140916720Y-96214780D01*
X140930635Y-96203458D01*
X140948111Y-96191563D01*
X140963759Y-96182766D01*
X140992813Y-96153710D01*
X141002230Y-96145211D01*
X141034108Y-96119278D01*
X141044461Y-96104610D01*
X141058073Y-96088450D01*
X142023524Y-95122999D01*
X144182785Y-95122999D01*
X144201602Y-95326083D01*
X144257418Y-95522251D01*
X144348324Y-95704818D01*
X144471236Y-95867580D01*
X144621958Y-96004981D01*
X144795361Y-96112347D01*
X144795363Y-96112348D01*
X144985544Y-96186024D01*
X145186024Y-96223500D01*
X145389974Y-96223500D01*
X145389976Y-96223500D01*
X145590456Y-96186024D01*
X145780637Y-96112348D01*
X145954041Y-96004981D01*
X146104764Y-95867579D01*
X146227673Y-95704821D01*
X146227673Y-95704819D01*
X146227675Y-95704818D01*
X146284342Y-95591013D01*
X146318582Y-95522250D01*
X146374397Y-95326083D01*
X146388860Y-95169999D01*
X149394785Y-95169999D01*
X149413602Y-95373083D01*
X149469418Y-95569251D01*
X149560324Y-95751818D01*
X149683236Y-95914580D01*
X149833958Y-96051981D01*
X150002062Y-96156066D01*
X150007363Y-96159348D01*
X150197544Y-96233024D01*
X150398024Y-96270500D01*
X150601974Y-96270500D01*
X150601976Y-96270500D01*
X150802456Y-96233024D01*
X150992637Y-96159348D01*
X151166041Y-96051981D01*
X151316764Y-95914579D01*
X151439673Y-95751821D01*
X151439673Y-95751819D01*
X151439675Y-95751818D01*
X151519745Y-95591013D01*
X151530582Y-95569250D01*
X151586397Y-95373083D01*
X151605215Y-95170000D01*
X151586397Y-94966917D01*
X151584143Y-94958996D01*
X151541747Y-94809990D01*
X151530582Y-94770750D01*
X151505358Y-94720093D01*
X151439675Y-94588181D01*
X151316763Y-94425419D01*
X151166041Y-94288018D01*
X150992638Y-94180652D01*
X150965142Y-94170000D01*
X154521128Y-94170000D01*
X154573733Y-94366326D01*
X154669865Y-94572480D01*
X154800341Y-94758819D01*
X154961180Y-94919658D01*
X155147519Y-95050134D01*
X155353672Y-95146266D01*
X155457382Y-95174055D01*
X155512551Y-95205732D01*
X155544752Y-95260597D01*
X155545509Y-95324209D01*
X155514623Y-95379825D01*
X155460224Y-95412807D01*
X155389125Y-95433684D01*
X155202315Y-95529990D01*
X155037115Y-95659906D01*
X154899479Y-95818745D01*
X154794396Y-96000754D01*
X154725655Y-96199366D01*
X154695746Y-96407396D01*
X154695746Y-96407398D01*
X154702239Y-96543700D01*
X154705746Y-96617330D01*
X154755297Y-96821580D01*
X154842602Y-97012752D01*
X154952845Y-97167566D01*
X154964514Y-97183952D01*
X155116622Y-97328986D01*
X155188964Y-97375478D01*
X155293425Y-97442612D01*
X155327617Y-97456300D01*
X155488543Y-97520725D01*
X155617228Y-97545527D01*
X155694914Y-97560500D01*
X155694915Y-97560500D01*
X156652420Y-97560500D01*
X156652425Y-97560500D01*
X156809218Y-97545528D01*
X157010875Y-97486316D01*
X157197682Y-97390011D01*
X157362886Y-97260092D01*
X157500519Y-97101256D01*
X157605604Y-96919244D01*
X157674344Y-96720633D01*
X157704254Y-96512602D01*
X157699243Y-96407398D01*
X162315746Y-96407398D01*
X162322239Y-96543700D01*
X162325746Y-96617330D01*
X162375297Y-96821580D01*
X162462602Y-97012752D01*
X162572845Y-97167566D01*
X162584514Y-97183952D01*
X162736622Y-97328986D01*
X162808964Y-97375478D01*
X162913425Y-97442612D01*
X162947617Y-97456300D01*
X163108543Y-97520725D01*
X163237228Y-97545527D01*
X163314914Y-97560500D01*
X163314915Y-97560500D01*
X164272420Y-97560500D01*
X164272425Y-97560500D01*
X164429218Y-97545528D01*
X164630875Y-97486316D01*
X164817682Y-97390011D01*
X164982886Y-97260092D01*
X165120519Y-97101256D01*
X165225604Y-96919244D01*
X165294344Y-96720633D01*
X165324254Y-96512602D01*
X165314254Y-96302670D01*
X165264704Y-96098424D01*
X165263574Y-96095950D01*
X165177397Y-95907247D01*
X165066718Y-95751821D01*
X165055486Y-95736048D01*
X164903378Y-95591014D01*
X164869513Y-95569250D01*
X164726574Y-95477387D01*
X164552814Y-95407825D01*
X164531457Y-95399275D01*
X164531456Y-95399274D01*
X164531454Y-95399274D01*
X164325086Y-95359500D01*
X164325085Y-95359500D01*
X163367575Y-95359500D01*
X163269579Y-95368857D01*
X163210779Y-95374472D01*
X163009126Y-95433683D01*
X162822315Y-95529990D01*
X162657115Y-95659906D01*
X162519479Y-95818745D01*
X162414396Y-96000754D01*
X162345655Y-96199366D01*
X162315746Y-96407396D01*
X162315746Y-96407398D01*
X157699243Y-96407398D01*
X157694254Y-96302670D01*
X157644704Y-96098424D01*
X157643574Y-96095950D01*
X157557397Y-95907247D01*
X157446718Y-95751821D01*
X157435486Y-95736048D01*
X157283378Y-95591014D01*
X157229014Y-95556076D01*
X157106573Y-95477387D01*
X156932814Y-95407825D01*
X156883281Y-95371656D01*
X156857141Y-95316174D01*
X156860788Y-95254950D01*
X156893331Y-95202963D01*
X156946807Y-95172932D01*
X157046326Y-95146266D01*
X157252480Y-95050134D01*
X157438819Y-94919658D01*
X157599658Y-94758819D01*
X157730134Y-94572480D01*
X157826266Y-94366326D01*
X157878872Y-94170000D01*
X154521128Y-94170000D01*
X150965142Y-94170000D01*
X150802457Y-94106976D01*
X150735629Y-94094483D01*
X150601976Y-94069500D01*
X150398024Y-94069500D01*
X150297784Y-94088237D01*
X150197542Y-94106976D01*
X150007361Y-94180652D01*
X149833958Y-94288018D01*
X149683236Y-94425419D01*
X149560324Y-94588181D01*
X149469418Y-94770748D01*
X149413602Y-94966916D01*
X149394785Y-95169999D01*
X146388860Y-95169999D01*
X146393215Y-95123000D01*
X146374397Y-94919917D01*
X146374323Y-94919658D01*
X146328560Y-94758819D01*
X146318582Y-94723750D01*
X146278848Y-94643952D01*
X146227675Y-94541181D01*
X146104763Y-94378419D01*
X145954041Y-94241018D01*
X145780638Y-94133652D01*
X145590457Y-94059976D01*
X145523629Y-94047484D01*
X145389976Y-94022500D01*
X145186024Y-94022500D01*
X145085783Y-94041238D01*
X144985542Y-94059976D01*
X144795361Y-94133652D01*
X144621958Y-94241018D01*
X144471236Y-94378419D01*
X144348324Y-94541181D01*
X144257418Y-94723748D01*
X144201602Y-94919916D01*
X144182785Y-95122999D01*
X142023524Y-95122999D01*
X144954455Y-92192067D01*
X145005454Y-92161299D01*
X145064919Y-92157861D01*
X145186024Y-92180500D01*
X145389973Y-92180500D01*
X145389976Y-92180500D01*
X145511082Y-92157861D01*
X145570543Y-92161299D01*
X145621544Y-92192069D01*
X146440579Y-93011103D01*
X146443492Y-93014116D01*
X146487320Y-93061044D01*
X146522425Y-93082391D01*
X146532918Y-93089532D01*
X146565658Y-93114361D01*
X146582353Y-93120944D01*
X146601292Y-93130352D01*
X146616618Y-93139672D01*
X146656181Y-93150757D01*
X146668213Y-93154803D01*
X146706436Y-93169876D01*
X146724285Y-93171711D01*
X146745046Y-93175656D01*
X146762335Y-93180500D01*
X146803418Y-93180500D01*
X146816098Y-93181149D01*
X146856972Y-93185352D01*
X146874656Y-93182303D01*
X146895725Y-93180500D01*
X154515802Y-93180500D01*
X154575445Y-93195786D01*
X154620383Y-93237875D01*
X154639537Y-93296390D01*
X154628184Y-93356905D01*
X154573733Y-93473673D01*
X154521128Y-93669999D01*
X154521128Y-93670000D01*
X157878872Y-93670000D01*
X157878871Y-93669999D01*
X157826266Y-93473673D01*
X157771816Y-93356905D01*
X157760463Y-93296390D01*
X157779617Y-93237875D01*
X157824555Y-93195786D01*
X157884198Y-93180500D01*
X162250613Y-93180500D01*
X162298066Y-93189939D01*
X162338294Y-93216819D01*
X162408547Y-93287072D01*
X162437387Y-93332341D01*
X162444394Y-93385558D01*
X162428255Y-93436750D01*
X162414396Y-93460754D01*
X162345655Y-93659366D01*
X162315746Y-93867396D01*
X162315746Y-93867398D01*
X162325746Y-94077330D01*
X162348898Y-94172765D01*
X162375297Y-94281580D01*
X162462602Y-94472752D01*
X162572845Y-94627566D01*
X162584514Y-94643952D01*
X162736622Y-94788986D01*
X162808964Y-94835478D01*
X162913425Y-94902612D01*
X162952580Y-94918287D01*
X163108543Y-94980725D01*
X163237228Y-95005527D01*
X163314914Y-95020500D01*
X163314915Y-95020500D01*
X164272420Y-95020500D01*
X164272425Y-95020500D01*
X164429218Y-95005528D01*
X164630875Y-94946316D01*
X164817682Y-94850011D01*
X164982886Y-94720092D01*
X165120519Y-94561256D01*
X165225604Y-94379244D01*
X165294344Y-94180633D01*
X165324254Y-93972602D01*
X165314254Y-93762670D01*
X165264704Y-93558424D01*
X165264676Y-93558363D01*
X165177397Y-93367247D01*
X165055487Y-93196050D01*
X165055486Y-93196048D01*
X164903378Y-93051014D01*
X164871257Y-93030371D01*
X164726574Y-92937387D01*
X164570609Y-92874949D01*
X164531457Y-92859275D01*
X164531456Y-92859274D01*
X164531454Y-92859274D01*
X164325086Y-92819500D01*
X164325085Y-92819500D01*
X163549387Y-92819500D01*
X163501934Y-92810061D01*
X163461706Y-92783181D01*
X163370706Y-92692181D01*
X163340456Y-92642818D01*
X163335914Y-92585102D01*
X163358069Y-92531615D01*
X163402092Y-92494015D01*
X163458387Y-92480500D01*
X164272420Y-92480500D01*
X164272425Y-92480500D01*
X164429218Y-92465528D01*
X164630875Y-92406316D01*
X164817682Y-92310011D01*
X164982886Y-92180092D01*
X165120519Y-92021256D01*
X165225604Y-91839244D01*
X165294344Y-91640633D01*
X165324254Y-91432602D01*
X165314254Y-91222670D01*
X165264704Y-91018424D01*
X165257835Y-91003383D01*
X165177397Y-90827247D01*
X165055487Y-90656050D01*
X165055486Y-90656048D01*
X164903378Y-90511014D01*
X164871257Y-90490371D01*
X164726574Y-90397387D01*
X164570609Y-90334949D01*
X164531457Y-90319275D01*
X164531456Y-90319274D01*
X164531454Y-90319274D01*
X164325086Y-90279500D01*
X164325085Y-90279500D01*
X163367575Y-90279500D01*
X163269579Y-90288857D01*
X163210779Y-90294472D01*
X163009126Y-90353683D01*
X162822315Y-90449990D01*
X162657115Y-90579906D01*
X162519479Y-90738745D01*
X162414396Y-90920754D01*
X162345655Y-91119366D01*
X162320465Y-91294576D01*
X162315746Y-91327398D01*
X162320757Y-91432602D01*
X162325746Y-91537330D01*
X162375297Y-91741580D01*
X162449467Y-91903989D01*
X162460357Y-91964346D01*
X162440988Y-92022539D01*
X162396100Y-92064332D01*
X162336673Y-92079500D01*
X157681666Y-92079500D01*
X157619666Y-92062887D01*
X157574279Y-92017500D01*
X157557666Y-91955500D01*
X157574279Y-91893500D01*
X157605603Y-91839245D01*
X157605604Y-91839244D01*
X157674344Y-91640633D01*
X157704254Y-91432602D01*
X157694254Y-91222670D01*
X157644704Y-91018424D01*
X157637835Y-91003383D01*
X157557397Y-90827247D01*
X157435487Y-90656050D01*
X157435486Y-90656048D01*
X157283378Y-90511014D01*
X157251257Y-90490371D01*
X157106574Y-90397387D01*
X156950609Y-90334949D01*
X156911457Y-90319275D01*
X156911456Y-90319274D01*
X156911454Y-90319274D01*
X156705086Y-90279500D01*
X156705085Y-90279500D01*
X155747575Y-90279500D01*
X155649579Y-90288857D01*
X155590779Y-90294472D01*
X155389126Y-90353683D01*
X155202315Y-90449990D01*
X155037115Y-90579906D01*
X154899479Y-90738745D01*
X154794396Y-90920754D01*
X154725655Y-91119366D01*
X154700465Y-91294576D01*
X154695746Y-91327398D01*
X154700757Y-91432602D01*
X154705746Y-91537330D01*
X154755297Y-91741580D01*
X154829467Y-91903989D01*
X154840357Y-91964346D01*
X154820988Y-92022539D01*
X154776100Y-92064332D01*
X154716673Y-92079500D01*
X151606210Y-92079500D01*
X151548897Y-92065460D01*
X151504562Y-92026519D01*
X151483246Y-91971496D01*
X151489775Y-91912850D01*
X151522672Y-91863863D01*
X151565763Y-91824580D01*
X151688675Y-91661818D01*
X151750662Y-91537330D01*
X151779582Y-91479250D01*
X151835397Y-91283083D01*
X151854215Y-91080000D01*
X151835397Y-90876917D01*
X151833426Y-90869991D01*
X151794979Y-90734864D01*
X151779582Y-90680750D01*
X151730322Y-90581821D01*
X151688675Y-90498181D01*
X151565763Y-90335419D01*
X151415041Y-90198018D01*
X151241638Y-90090652D01*
X151051457Y-90016976D01*
X150960642Y-90000000D01*
X150850976Y-89979500D01*
X150647024Y-89979500D01*
X150558494Y-89996049D01*
X150446542Y-90016976D01*
X150256361Y-90090652D01*
X150082958Y-90198018D01*
X149932236Y-90335419D01*
X149809324Y-90498181D01*
X149718418Y-90680748D01*
X149662602Y-90876916D01*
X149643785Y-91080000D01*
X149662602Y-91283083D01*
X149718418Y-91479251D01*
X149809324Y-91661818D01*
X149932236Y-91824580D01*
X149975328Y-91863863D01*
X150008225Y-91912850D01*
X150014754Y-91971496D01*
X149993438Y-92026519D01*
X149949103Y-92065460D01*
X149891790Y-92079500D01*
X147117387Y-92079500D01*
X147069934Y-92070061D01*
X147029706Y-92043181D01*
X146402713Y-91416188D01*
X146370375Y-91359676D01*
X146371128Y-91294570D01*
X146371405Y-91293597D01*
X146374397Y-91283083D01*
X146393215Y-91080000D01*
X146374397Y-90876917D01*
X146372426Y-90869991D01*
X146333979Y-90734864D01*
X146318582Y-90680750D01*
X146269322Y-90581821D01*
X146227675Y-90498181D01*
X146104763Y-90335419D01*
X145954041Y-90198018D01*
X145780638Y-90090652D01*
X145590457Y-90016976D01*
X145499642Y-90000000D01*
X145389976Y-89979500D01*
X145186024Y-89979500D01*
X145097494Y-89996049D01*
X144985542Y-90016976D01*
X144795361Y-90090652D01*
X144621958Y-90198018D01*
X144471236Y-90335419D01*
X144348324Y-90498181D01*
X144257418Y-90680748D01*
X144201602Y-90876916D01*
X144182875Y-91079025D01*
X144182785Y-91080000D01*
X144188709Y-91143934D01*
X144201603Y-91283085D01*
X144204872Y-91294576D01*
X144205623Y-91359679D01*
X144173286Y-91416188D01*
X140436294Y-95153181D01*
X140396066Y-95180061D01*
X140348613Y-95189500D01*
X140242927Y-95189500D01*
X140186107Y-95175716D01*
X140141920Y-95137427D01*
X140055487Y-95016050D01*
X140055486Y-95016048D01*
X139903378Y-94871014D01*
X139870694Y-94850009D01*
X139726574Y-94757387D01*
X139570609Y-94694949D01*
X139531457Y-94679275D01*
X139531456Y-94679274D01*
X139531454Y-94679274D01*
X139325086Y-94639500D01*
X139325085Y-94639500D01*
X138367575Y-94639500D01*
X138269579Y-94648857D01*
X138210779Y-94654472D01*
X138009126Y-94713683D01*
X137822315Y-94809990D01*
X137657115Y-94939906D01*
X137591138Y-95016048D01*
X137519481Y-95098744D01*
X137502878Y-95127500D01*
X137457492Y-95172887D01*
X137395492Y-95189500D01*
X137172619Y-95189500D01*
X137125166Y-95180061D01*
X137084938Y-95153181D01*
X135079153Y-93147396D01*
X137315746Y-93147396D01*
X137325746Y-93357330D01*
X137375297Y-93561580D01*
X137462602Y-93752752D01*
X137557276Y-93885702D01*
X137584514Y-93923952D01*
X137736622Y-94068986D01*
X137795735Y-94106976D01*
X137913425Y-94182612D01*
X137952580Y-94198287D01*
X138108543Y-94260725D01*
X138216749Y-94281580D01*
X138314914Y-94300500D01*
X138314915Y-94300500D01*
X139272420Y-94300500D01*
X139272425Y-94300500D01*
X139429218Y-94285528D01*
X139630875Y-94226316D01*
X139817682Y-94130011D01*
X139982886Y-94000092D01*
X140120519Y-93841256D01*
X140225604Y-93659244D01*
X140294344Y-93460633D01*
X140324254Y-93252602D01*
X140314254Y-93042670D01*
X140264704Y-92838424D01*
X140251751Y-92810061D01*
X140177397Y-92647247D01*
X140055487Y-92476050D01*
X140055486Y-92476048D01*
X139903378Y-92331014D01*
X139870694Y-92310009D01*
X139726574Y-92217387D01*
X139552739Y-92147795D01*
X139531457Y-92139275D01*
X139531456Y-92139274D01*
X139531454Y-92139274D01*
X139325086Y-92099500D01*
X139325085Y-92099500D01*
X138367575Y-92099500D01*
X138277994Y-92108054D01*
X138210779Y-92114472D01*
X138009126Y-92173683D01*
X137822315Y-92269990D01*
X137657115Y-92399906D01*
X137519479Y-92558745D01*
X137414396Y-92740754D01*
X137345655Y-92939366D01*
X137315746Y-93147396D01*
X135079153Y-93147396D01*
X130719153Y-88787396D01*
X154695746Y-88787396D01*
X154705746Y-88997330D01*
X154755297Y-89201580D01*
X154842602Y-89392752D01*
X154952846Y-89547566D01*
X154964514Y-89563952D01*
X155116622Y-89708986D01*
X155180441Y-89750000D01*
X155293425Y-89822612D01*
X155332580Y-89838287D01*
X155488543Y-89900725D01*
X155617228Y-89925527D01*
X155694914Y-89940500D01*
X155694915Y-89940500D01*
X156652420Y-89940500D01*
X156652425Y-89940500D01*
X156809218Y-89925528D01*
X157010875Y-89866316D01*
X157197682Y-89770011D01*
X157362886Y-89640092D01*
X157500519Y-89481256D01*
X157605604Y-89299244D01*
X157674344Y-89100633D01*
X157704254Y-88892602D01*
X157699243Y-88787396D01*
X162315746Y-88787396D01*
X162325746Y-88997330D01*
X162375297Y-89201580D01*
X162462602Y-89392752D01*
X162572846Y-89547566D01*
X162584514Y-89563952D01*
X162736622Y-89708986D01*
X162800441Y-89750000D01*
X162913425Y-89822612D01*
X162952580Y-89838287D01*
X163108543Y-89900725D01*
X163237228Y-89925527D01*
X163314914Y-89940500D01*
X163314915Y-89940500D01*
X164272420Y-89940500D01*
X164272425Y-89940500D01*
X164429218Y-89925528D01*
X164630875Y-89866316D01*
X164817682Y-89770011D01*
X164982886Y-89640092D01*
X165120519Y-89481256D01*
X165225604Y-89299244D01*
X165294344Y-89100633D01*
X165320315Y-88919999D01*
X167894785Y-88919999D01*
X167913602Y-89123083D01*
X167969418Y-89319251D01*
X168060324Y-89501818D01*
X168183236Y-89664580D01*
X168333958Y-89801981D01*
X168477119Y-89890622D01*
X168507363Y-89909348D01*
X168697544Y-89983024D01*
X168898024Y-90020500D01*
X169101974Y-90020500D01*
X169101976Y-90020500D01*
X169302456Y-89983024D01*
X169492637Y-89909348D01*
X169666041Y-89801981D01*
X169816764Y-89664579D01*
X169939673Y-89501821D01*
X169939673Y-89501819D01*
X169939675Y-89501818D01*
X169993982Y-89392753D01*
X170030582Y-89319250D01*
X170086397Y-89123083D01*
X170105215Y-88920000D01*
X170086397Y-88716917D01*
X170080170Y-88695033D01*
X170030581Y-88520748D01*
X169939675Y-88338181D01*
X169816763Y-88175419D01*
X169666041Y-88038018D01*
X169492638Y-87930652D01*
X169302457Y-87856976D01*
X169235629Y-87844483D01*
X169101976Y-87819500D01*
X168898024Y-87819500D01*
X168797784Y-87838237D01*
X168697542Y-87856976D01*
X168507361Y-87930652D01*
X168333958Y-88038018D01*
X168183236Y-88175419D01*
X168060324Y-88338181D01*
X167969418Y-88520748D01*
X167913602Y-88716916D01*
X167894785Y-88919999D01*
X165320315Y-88919999D01*
X165324254Y-88892602D01*
X165314254Y-88682670D01*
X165264704Y-88478424D01*
X165264702Y-88478419D01*
X165177397Y-88287247D01*
X165055487Y-88116050D01*
X165055486Y-88116048D01*
X164903378Y-87971014D01*
X164840574Y-87930652D01*
X164726574Y-87857387D01*
X164570609Y-87794949D01*
X164531457Y-87779275D01*
X164531456Y-87779274D01*
X164531454Y-87779274D01*
X164325086Y-87739500D01*
X164325085Y-87739500D01*
X163367575Y-87739500D01*
X163269579Y-87748857D01*
X163210779Y-87754472D01*
X163009126Y-87813683D01*
X162822315Y-87909990D01*
X162657115Y-88039906D01*
X162519479Y-88198745D01*
X162414396Y-88380754D01*
X162345655Y-88579366D01*
X162315746Y-88787396D01*
X157699243Y-88787396D01*
X157694254Y-88682670D01*
X157644704Y-88478424D01*
X157644702Y-88478419D01*
X157557397Y-88287247D01*
X157435487Y-88116050D01*
X157435486Y-88116048D01*
X157283378Y-87971014D01*
X157220574Y-87930652D01*
X157106574Y-87857387D01*
X156950609Y-87794949D01*
X156911457Y-87779275D01*
X156911456Y-87779274D01*
X156911454Y-87779274D01*
X156705086Y-87739500D01*
X156705085Y-87739500D01*
X155747575Y-87739500D01*
X155649579Y-87748857D01*
X155590779Y-87754472D01*
X155389126Y-87813683D01*
X155202315Y-87909990D01*
X155037115Y-88039906D01*
X154899479Y-88198745D01*
X154794396Y-88380754D01*
X154725655Y-88579366D01*
X154695746Y-88787396D01*
X130719153Y-88787396D01*
X130193196Y-88261439D01*
X130162010Y-88209067D01*
X130159547Y-88148163D01*
X130186401Y-88093444D01*
X130236081Y-88058133D01*
X130413637Y-87989348D01*
X130587041Y-87881981D01*
X130614470Y-87856976D01*
X130737763Y-87744580D01*
X130860675Y-87581818D01*
X130906313Y-87490161D01*
X130951582Y-87399250D01*
X131007397Y-87203083D01*
X131026215Y-87000000D01*
X138975785Y-87000000D01*
X138994602Y-87203083D01*
X139050418Y-87399251D01*
X139141324Y-87581818D01*
X139264236Y-87744580D01*
X139414958Y-87881981D01*
X139588361Y-87989347D01*
X139588363Y-87989348D01*
X139778544Y-88063024D01*
X139979024Y-88100500D01*
X140182974Y-88100500D01*
X140182976Y-88100500D01*
X140383456Y-88063024D01*
X140573637Y-87989348D01*
X140747041Y-87881981D01*
X140774470Y-87856976D01*
X140897763Y-87744580D01*
X141020675Y-87581818D01*
X141066313Y-87490161D01*
X141111582Y-87399250D01*
X141167397Y-87203083D01*
X141186215Y-87000000D01*
X141167397Y-86796917D01*
X141111582Y-86600750D01*
X141091606Y-86560633D01*
X141020675Y-86418181D01*
X140897763Y-86255419D01*
X140888962Y-86247396D01*
X154695746Y-86247396D01*
X154705746Y-86457330D01*
X154755297Y-86661580D01*
X154842602Y-86852752D01*
X154947458Y-87000000D01*
X154964514Y-87023952D01*
X155116622Y-87168986D01*
X155169678Y-87203083D01*
X155293425Y-87282612D01*
X155332580Y-87298287D01*
X155488543Y-87360725D01*
X155617228Y-87385527D01*
X155694914Y-87400500D01*
X155694915Y-87400500D01*
X156652420Y-87400500D01*
X156652425Y-87400500D01*
X156809218Y-87385528D01*
X157010875Y-87326316D01*
X157197682Y-87230011D01*
X157362886Y-87100092D01*
X157500519Y-86941256D01*
X157605604Y-86759244D01*
X157674344Y-86560633D01*
X157704254Y-86352602D01*
X157699243Y-86247396D01*
X162315746Y-86247396D01*
X162325746Y-86457330D01*
X162375297Y-86661580D01*
X162462602Y-86852752D01*
X162567458Y-87000000D01*
X162584514Y-87023952D01*
X162736622Y-87168986D01*
X162789678Y-87203083D01*
X162913425Y-87282612D01*
X162952580Y-87298287D01*
X163108543Y-87360725D01*
X163237228Y-87385527D01*
X163314914Y-87400500D01*
X163314915Y-87400500D01*
X164272420Y-87400500D01*
X164272425Y-87400500D01*
X164429218Y-87385528D01*
X164630875Y-87326316D01*
X164817682Y-87230011D01*
X164982886Y-87100092D01*
X165120519Y-86941256D01*
X165225604Y-86759244D01*
X165294344Y-86560633D01*
X165324254Y-86352602D01*
X165314254Y-86142670D01*
X165264704Y-85938424D01*
X165246928Y-85899500D01*
X165177397Y-85747247D01*
X165055487Y-85576050D01*
X165055486Y-85576048D01*
X164903378Y-85431014D01*
X164871257Y-85410371D01*
X164726574Y-85317387D01*
X164570609Y-85254949D01*
X164531457Y-85239275D01*
X164531456Y-85239274D01*
X164531454Y-85239274D01*
X164325086Y-85199500D01*
X164325085Y-85199500D01*
X163367575Y-85199500D01*
X163269579Y-85208857D01*
X163210779Y-85214472D01*
X163009126Y-85273683D01*
X162822315Y-85369990D01*
X162657115Y-85499906D01*
X162519479Y-85658745D01*
X162414396Y-85840754D01*
X162345655Y-86039366D01*
X162315746Y-86247396D01*
X157699243Y-86247396D01*
X157694254Y-86142670D01*
X157644704Y-85938424D01*
X157626928Y-85899500D01*
X157557397Y-85747247D01*
X157435487Y-85576050D01*
X157435486Y-85576048D01*
X157283378Y-85431014D01*
X157251257Y-85410371D01*
X157106574Y-85317387D01*
X156950609Y-85254949D01*
X156911457Y-85239275D01*
X156911456Y-85239274D01*
X156911454Y-85239274D01*
X156705086Y-85199500D01*
X156705085Y-85199500D01*
X155747575Y-85199500D01*
X155649579Y-85208857D01*
X155590779Y-85214472D01*
X155389126Y-85273683D01*
X155202315Y-85369990D01*
X155037115Y-85499906D01*
X154899479Y-85658745D01*
X154794396Y-85840754D01*
X154725655Y-86039366D01*
X154695746Y-86247396D01*
X140888962Y-86247396D01*
X140747041Y-86118018D01*
X140573638Y-86010652D01*
X140383457Y-85936976D01*
X140316629Y-85924484D01*
X140182976Y-85899500D01*
X139979024Y-85899500D01*
X139878783Y-85918238D01*
X139778542Y-85936976D01*
X139588361Y-86010652D01*
X139414958Y-86118018D01*
X139264236Y-86255419D01*
X139141324Y-86418181D01*
X139050418Y-86600748D01*
X138994602Y-86796916D01*
X138975785Y-87000000D01*
X131026215Y-87000000D01*
X131007397Y-86796917D01*
X130951582Y-86600750D01*
X130931606Y-86560633D01*
X130860675Y-86418181D01*
X130737763Y-86255419D01*
X130587041Y-86118018D01*
X130413638Y-86010652D01*
X130223457Y-85936976D01*
X130156629Y-85924484D01*
X130022976Y-85899500D01*
X129819024Y-85899500D01*
X129718783Y-85918238D01*
X129618542Y-85936976D01*
X129428361Y-86010652D01*
X129254958Y-86118018D01*
X129104236Y-86255419D01*
X128981324Y-86418181D01*
X128890418Y-86600747D01*
X128868883Y-86676434D01*
X128836279Y-86731187D01*
X128780787Y-86762517D01*
X128717062Y-86762148D01*
X128661936Y-86730179D01*
X127205441Y-85273684D01*
X125666819Y-83735061D01*
X125648333Y-83707396D01*
X154695746Y-83707396D01*
X154705746Y-83917330D01*
X154755297Y-84121580D01*
X154842602Y-84312752D01*
X154952845Y-84467566D01*
X154964514Y-84483952D01*
X155116622Y-84628986D01*
X155188964Y-84675478D01*
X155293425Y-84742612D01*
X155332580Y-84758287D01*
X155488543Y-84820725D01*
X155617228Y-84845527D01*
X155694914Y-84860500D01*
X155694915Y-84860500D01*
X156652420Y-84860500D01*
X156652425Y-84860500D01*
X156809218Y-84845528D01*
X157010875Y-84786316D01*
X157197682Y-84690011D01*
X157362886Y-84560092D01*
X157500519Y-84401256D01*
X157605604Y-84219244D01*
X157674344Y-84020633D01*
X157704254Y-83812602D01*
X157699243Y-83707396D01*
X162315746Y-83707396D01*
X162325746Y-83917330D01*
X162375297Y-84121580D01*
X162462602Y-84312752D01*
X162572845Y-84467566D01*
X162584514Y-84483952D01*
X162736622Y-84628986D01*
X162808964Y-84675478D01*
X162913425Y-84742612D01*
X162952580Y-84758287D01*
X163108543Y-84820725D01*
X163237228Y-84845527D01*
X163314914Y-84860500D01*
X163314915Y-84860500D01*
X164272420Y-84860500D01*
X164272425Y-84860500D01*
X164429218Y-84845528D01*
X164630875Y-84786316D01*
X164817682Y-84690011D01*
X164982886Y-84560092D01*
X165120519Y-84401256D01*
X165225604Y-84219244D01*
X165294344Y-84020633D01*
X165324254Y-83812602D01*
X165314254Y-83602670D01*
X165264704Y-83398424D01*
X165264321Y-83397585D01*
X165177397Y-83207247D01*
X165086090Y-83079025D01*
X165078071Y-83067764D01*
X169145787Y-83067764D01*
X169175413Y-83337016D01*
X169208219Y-83462499D01*
X169243928Y-83599088D01*
X169334662Y-83812602D01*
X169349871Y-83848392D01*
X169490982Y-84079611D01*
X169643205Y-84262526D01*
X169664255Y-84287820D01*
X169865998Y-84468582D01*
X170091910Y-84618044D01*
X170198211Y-84667875D01*
X170337177Y-84733021D01*
X170596562Y-84811058D01*
X170596569Y-84811060D01*
X170864561Y-84850500D01*
X171067631Y-84850500D01*
X171067634Y-84850500D01*
X171270156Y-84835677D01*
X171270156Y-84835676D01*
X171534553Y-84776780D01*
X171787558Y-84680014D01*
X172023777Y-84547441D01*
X172238177Y-84381888D01*
X172426186Y-84186881D01*
X172583799Y-83966579D01*
X172707656Y-83725675D01*
X172795118Y-83469305D01*
X172844319Y-83202933D01*
X172854212Y-82932235D01*
X172824586Y-82662982D01*
X172756072Y-82400912D01*
X172650130Y-82151610D01*
X172577999Y-82033420D01*
X172509017Y-81920388D01*
X172335746Y-81712181D01*
X172230758Y-81618112D01*
X172134002Y-81531418D01*
X171908090Y-81381956D01*
X171898222Y-81377330D01*
X171662822Y-81266978D01*
X171403437Y-81188941D01*
X171403431Y-81188940D01*
X171135439Y-81149500D01*
X170932369Y-81149500D01*
X170932366Y-81149500D01*
X170729843Y-81164322D01*
X170465449Y-81223219D01*
X170212441Y-81319986D01*
X169976223Y-81452559D01*
X169761825Y-81618109D01*
X169573813Y-81813120D01*
X169416201Y-82033420D01*
X169328972Y-82203083D01*
X169293434Y-82272206D01*
X169292342Y-82274329D01*
X169204881Y-82530695D01*
X169155680Y-82797066D01*
X169145787Y-83067764D01*
X165078071Y-83067764D01*
X165055486Y-83036048D01*
X164903378Y-82891014D01*
X164860023Y-82863151D01*
X164726574Y-82777387D01*
X164570609Y-82714949D01*
X164531457Y-82699275D01*
X164531456Y-82699274D01*
X164531454Y-82699274D01*
X164325086Y-82659500D01*
X164325085Y-82659500D01*
X163367575Y-82659500D01*
X163269668Y-82668849D01*
X163210779Y-82674472D01*
X163009126Y-82733683D01*
X162822315Y-82829990D01*
X162657115Y-82959906D01*
X162519479Y-83118745D01*
X162414396Y-83300754D01*
X162345655Y-83499366D01*
X162315746Y-83707396D01*
X157699243Y-83707396D01*
X157694254Y-83602670D01*
X157644704Y-83398424D01*
X157644321Y-83397585D01*
X157557397Y-83207247D01*
X157466090Y-83079025D01*
X157435486Y-83036048D01*
X157283378Y-82891014D01*
X157240023Y-82863151D01*
X157106574Y-82777387D01*
X156950609Y-82714949D01*
X156911457Y-82699275D01*
X156911456Y-82699274D01*
X156911454Y-82699274D01*
X156705086Y-82659500D01*
X156705085Y-82659500D01*
X155747575Y-82659500D01*
X155649668Y-82668849D01*
X155590779Y-82674472D01*
X155389126Y-82733683D01*
X155202315Y-82829990D01*
X155037115Y-82959906D01*
X154899479Y-83118745D01*
X154794396Y-83300754D01*
X154725655Y-83499366D01*
X154695746Y-83707396D01*
X125648333Y-83707396D01*
X125639939Y-83694833D01*
X125630500Y-83647380D01*
X125630500Y-83524499D01*
X125647113Y-83462499D01*
X125692500Y-83417112D01*
X125754500Y-83400499D01*
X126224867Y-83400499D01*
X126237427Y-83399042D01*
X126249991Y-83397585D01*
X126352765Y-83352206D01*
X126432206Y-83272765D01*
X126477585Y-83169991D01*
X126480500Y-83144865D01*
X126480500Y-83079026D01*
X129194526Y-83079026D01*
X129267515Y-83130133D01*
X129473673Y-83226266D01*
X129693397Y-83285141D01*
X129920000Y-83304966D01*
X130146602Y-83285141D01*
X130366326Y-83226266D01*
X130572480Y-83130134D01*
X130645472Y-83079025D01*
X129920001Y-82353553D01*
X129920000Y-82353553D01*
X129194526Y-83079025D01*
X129194526Y-83079026D01*
X126480500Y-83079026D01*
X126480499Y-81999999D01*
X128615033Y-81999999D01*
X128634858Y-82226602D01*
X128693733Y-82446326D01*
X128789866Y-82652484D01*
X128840972Y-82725471D01*
X128840974Y-82725472D01*
X129566446Y-82000001D01*
X129566446Y-82000000D01*
X129566445Y-81999999D01*
X130273553Y-81999999D01*
X130999025Y-82725472D01*
X131050134Y-82652480D01*
X131146266Y-82446326D01*
X131205141Y-82226602D01*
X131224966Y-81999999D01*
X138974785Y-81999999D01*
X138993602Y-82203083D01*
X139049418Y-82399251D01*
X139140324Y-82581818D01*
X139263236Y-82744580D01*
X139413958Y-82881981D01*
X139587361Y-82989347D01*
X139587363Y-82989348D01*
X139777544Y-83063024D01*
X139978024Y-83100500D01*
X140181974Y-83100500D01*
X140181976Y-83100500D01*
X140382456Y-83063024D01*
X140572637Y-82989348D01*
X140746041Y-82881981D01*
X140766697Y-82863151D01*
X140896763Y-82744580D01*
X140896764Y-82744579D01*
X141019673Y-82581821D01*
X141019673Y-82581819D01*
X141019675Y-82581818D01*
X141082173Y-82456303D01*
X141110582Y-82399250D01*
X141166397Y-82203083D01*
X141179204Y-82064867D01*
X154699500Y-82064867D01*
X154702414Y-82089988D01*
X154702414Y-82089990D01*
X154702415Y-82089991D01*
X154735562Y-82165062D01*
X154747795Y-82192767D01*
X154827232Y-82272204D01*
X154827233Y-82272204D01*
X154827235Y-82272206D01*
X154930009Y-82317585D01*
X154955135Y-82320500D01*
X157444864Y-82320499D01*
X157444867Y-82320499D01*
X157457427Y-82319042D01*
X157469991Y-82317585D01*
X157572765Y-82272206D01*
X157652206Y-82192765D01*
X157697585Y-82089991D01*
X157700500Y-82064865D01*
X157700499Y-81167398D01*
X162315746Y-81167398D01*
X162325746Y-81377330D01*
X162363888Y-81534554D01*
X162375297Y-81581580D01*
X162462602Y-81772752D01*
X162559872Y-81909347D01*
X162584514Y-81943952D01*
X162736622Y-82088986D01*
X162808964Y-82135478D01*
X162913425Y-82202612D01*
X162914602Y-82203083D01*
X163108543Y-82280725D01*
X163237228Y-82305527D01*
X163314914Y-82320500D01*
X163314915Y-82320500D01*
X164272420Y-82320500D01*
X164272425Y-82320500D01*
X164429218Y-82305528D01*
X164630875Y-82246316D01*
X164817682Y-82150011D01*
X164982886Y-82020092D01*
X165120519Y-81861256D01*
X165225604Y-81679244D01*
X165294344Y-81480633D01*
X165324254Y-81272602D01*
X165314254Y-81062670D01*
X165264704Y-80858424D01*
X165264702Y-80858419D01*
X165177397Y-80667247D01*
X165055487Y-80496050D01*
X165055486Y-80496048D01*
X164903378Y-80351014D01*
X164871257Y-80330371D01*
X164726574Y-80237387D01*
X164552739Y-80167795D01*
X164531457Y-80159275D01*
X164531456Y-80159274D01*
X164531454Y-80159274D01*
X164325086Y-80119500D01*
X164325085Y-80119500D01*
X163367575Y-80119500D01*
X163269579Y-80128857D01*
X163210779Y-80134472D01*
X163009126Y-80193683D01*
X162822315Y-80289990D01*
X162657115Y-80419906D01*
X162519479Y-80578745D01*
X162414396Y-80760754D01*
X162345655Y-80959366D01*
X162320138Y-81136848D01*
X162315746Y-81167398D01*
X157700499Y-81167398D01*
X157700499Y-80375136D01*
X157697585Y-80350009D01*
X157652206Y-80247235D01*
X157652204Y-80247233D01*
X157652204Y-80247232D01*
X157572767Y-80167795D01*
X157553469Y-80159274D01*
X157469991Y-80122415D01*
X157444865Y-80119500D01*
X157444863Y-80119500D01*
X154955132Y-80119500D01*
X154930011Y-80122414D01*
X154827232Y-80167795D01*
X154747795Y-80247232D01*
X154702415Y-80350009D01*
X154699500Y-80375136D01*
X154699500Y-82064867D01*
X141179204Y-82064867D01*
X141185215Y-82000000D01*
X141166397Y-81796917D01*
X141159521Y-81772752D01*
X141110581Y-81600748D01*
X141019675Y-81418181D01*
X140896763Y-81255419D01*
X140746041Y-81118018D01*
X140572638Y-81010652D01*
X140382457Y-80936976D01*
X140296847Y-80920973D01*
X140291642Y-80920000D01*
X144182785Y-80920000D01*
X144201602Y-81123083D01*
X144257418Y-81319251D01*
X144348324Y-81501818D01*
X144471236Y-81664580D01*
X144621958Y-81801981D01*
X144795361Y-81909347D01*
X144795363Y-81909348D01*
X144985544Y-81983024D01*
X145186024Y-82020500D01*
X145389974Y-82020500D01*
X145389976Y-82020500D01*
X145590456Y-81983024D01*
X145780637Y-81909348D01*
X145954041Y-81801981D01*
X146104764Y-81664579D01*
X146227673Y-81501821D01*
X146227673Y-81501819D01*
X146227675Y-81501818D01*
X146304507Y-81347516D01*
X146318582Y-81319250D01*
X146374397Y-81123083D01*
X146393215Y-80920000D01*
X149643785Y-80920000D01*
X149662602Y-81123083D01*
X149718418Y-81319251D01*
X149809324Y-81501818D01*
X149932236Y-81664580D01*
X150082958Y-81801981D01*
X150256361Y-81909347D01*
X150256363Y-81909348D01*
X150446544Y-81983024D01*
X150647024Y-82020500D01*
X150850974Y-82020500D01*
X150850976Y-82020500D01*
X151051456Y-81983024D01*
X151241637Y-81909348D01*
X151415041Y-81801981D01*
X151565764Y-81664579D01*
X151688673Y-81501821D01*
X151688673Y-81501819D01*
X151688675Y-81501818D01*
X151765507Y-81347516D01*
X151779582Y-81319250D01*
X151835397Y-81123083D01*
X151854215Y-80920000D01*
X151835397Y-80716917D01*
X151829170Y-80695033D01*
X151801989Y-80599501D01*
X151779582Y-80520750D01*
X151738443Y-80438131D01*
X151688675Y-80338181D01*
X151565763Y-80175419D01*
X151415041Y-80038018D01*
X151241638Y-79930652D01*
X151051457Y-79856976D01*
X150984629Y-79844483D01*
X150850976Y-79819500D01*
X150647024Y-79819500D01*
X150546784Y-79838237D01*
X150446542Y-79856976D01*
X150256361Y-79930652D01*
X150082958Y-80038018D01*
X149932236Y-80175419D01*
X149809324Y-80338181D01*
X149718418Y-80520748D01*
X149662602Y-80716916D01*
X149643785Y-80920000D01*
X146393215Y-80920000D01*
X146374397Y-80716917D01*
X146368170Y-80695033D01*
X146340989Y-80599501D01*
X146318582Y-80520750D01*
X146277443Y-80438131D01*
X146227675Y-80338181D01*
X146104763Y-80175419D01*
X145954041Y-80038018D01*
X145780638Y-79930652D01*
X145590457Y-79856976D01*
X145523629Y-79844483D01*
X145389976Y-79819500D01*
X145186024Y-79819500D01*
X145085784Y-79838237D01*
X144985542Y-79856976D01*
X144795361Y-79930652D01*
X144621958Y-80038018D01*
X144471236Y-80175419D01*
X144348324Y-80338181D01*
X144257418Y-80520748D01*
X144201602Y-80716916D01*
X144182785Y-80920000D01*
X140291642Y-80920000D01*
X140181976Y-80899500D01*
X139978024Y-80899500D01*
X139877784Y-80918237D01*
X139777542Y-80936976D01*
X139587361Y-81010652D01*
X139413958Y-81118018D01*
X139263236Y-81255419D01*
X139140324Y-81418181D01*
X139049418Y-81600748D01*
X138993602Y-81796916D01*
X138974785Y-81999999D01*
X131224966Y-81999999D01*
X131205141Y-81773397D01*
X131146266Y-81553673D01*
X131050133Y-81347515D01*
X130999025Y-81274526D01*
X130273553Y-81999998D01*
X130273553Y-81999999D01*
X129566445Y-81999999D01*
X128840973Y-81274526D01*
X128840973Y-81274527D01*
X128789865Y-81347516D01*
X128693733Y-81553672D01*
X128634858Y-81773397D01*
X128615033Y-81999999D01*
X126480499Y-81999999D01*
X126480499Y-80920973D01*
X129194526Y-80920973D01*
X129920000Y-81646446D01*
X129920001Y-81646446D01*
X130645472Y-80920974D01*
X130645471Y-80920972D01*
X130572484Y-80869866D01*
X130366326Y-80773733D01*
X130146602Y-80714858D01*
X129920000Y-80695033D01*
X129693397Y-80714858D01*
X129473672Y-80773733D01*
X129267516Y-80869865D01*
X129194527Y-80920973D01*
X129194526Y-80920973D01*
X126480499Y-80920973D01*
X126480499Y-80855136D01*
X126477585Y-80830009D01*
X126432206Y-80727235D01*
X126432204Y-80727233D01*
X126432204Y-80727232D01*
X126352767Y-80647795D01*
X126352765Y-80647794D01*
X126249991Y-80602415D01*
X126224865Y-80599500D01*
X126224863Y-80599500D01*
X123935132Y-80599500D01*
X123910011Y-80602414D01*
X123807232Y-80647795D01*
X123727795Y-80727232D01*
X123682415Y-80830009D01*
X123679500Y-80855136D01*
X123679500Y-83144867D01*
X115729230Y-83144867D01*
X115871784Y-83033913D01*
X116028979Y-82863153D01*
X116155924Y-82668849D01*
X116249157Y-82456300D01*
X116306134Y-82231305D01*
X116325300Y-82000000D01*
X116306134Y-81768695D01*
X116249157Y-81543700D01*
X116155924Y-81331151D01*
X116028979Y-81136847D01*
X115871784Y-80966087D01*
X115688626Y-80823530D01*
X115484503Y-80713064D01*
X115484499Y-80713062D01*
X115484498Y-80713062D01*
X115264984Y-80637702D01*
X115093282Y-80609050D01*
X115036049Y-80599500D01*
X114803951Y-80599500D01*
X114758164Y-80607140D01*
X114575015Y-80637702D01*
X114355501Y-80713062D01*
X114355497Y-80713063D01*
X114355497Y-80713064D01*
X114286486Y-80750411D01*
X114151372Y-80823531D01*
X113968215Y-80966087D01*
X113811020Y-81136848D01*
X113684076Y-81331150D01*
X113590844Y-81543696D01*
X113590842Y-81543700D01*
X113590843Y-81543700D01*
X113548178Y-81712181D01*
X113533865Y-81768700D01*
X113514699Y-81999999D01*
X108557603Y-81999999D01*
X108509017Y-81920388D01*
X108335746Y-81712181D01*
X108230758Y-81618112D01*
X108134002Y-81531418D01*
X107908090Y-81381956D01*
X107898222Y-81377330D01*
X107662822Y-81266978D01*
X107403437Y-81188941D01*
X107403431Y-81188940D01*
X107135439Y-81149500D01*
X106932369Y-81149500D01*
X106932366Y-81149500D01*
X106729843Y-81164322D01*
X106465449Y-81223219D01*
X106212441Y-81319986D01*
X105976223Y-81452559D01*
X105761825Y-81618109D01*
X105573813Y-81813120D01*
X105416201Y-82033420D01*
X105328972Y-82203083D01*
X105293434Y-82272206D01*
X105292342Y-82274329D01*
X105204881Y-82530695D01*
X105155680Y-82797066D01*
X105145787Y-83067764D01*
X102000500Y-83067764D01*
X102000500Y-83002561D01*
X102000606Y-82997437D01*
X102003303Y-82932235D01*
X102009488Y-82782687D01*
X102018052Y-82586540D01*
X102018881Y-82576673D01*
X102045491Y-82363195D01*
X102071578Y-82165045D01*
X102073151Y-82155816D01*
X102117062Y-81946392D01*
X102117297Y-81945302D01*
X102160684Y-81749599D01*
X102162885Y-81741111D01*
X102223875Y-81536253D01*
X102224337Y-81534743D01*
X102284704Y-81343284D01*
X102287423Y-81335565D01*
X102365074Y-81136564D01*
X102365883Y-81134553D01*
X102442762Y-80948951D01*
X102445874Y-80942051D01*
X102539587Y-80750357D01*
X102540945Y-80747667D01*
X102633667Y-80569551D01*
X102637118Y-80563362D01*
X102746295Y-80380139D01*
X102748150Y-80377129D01*
X102856090Y-80207697D01*
X102859721Y-80202316D01*
X102983635Y-80028764D01*
X102986102Y-80025433D01*
X103108401Y-79866048D01*
X103112114Y-79861445D01*
X103249903Y-79698758D01*
X103253027Y-79695211D01*
X103388811Y-79547028D01*
X103392440Y-79543238D01*
X103543238Y-79392440D01*
X103547028Y-79388811D01*
X103695211Y-79253027D01*
X103698758Y-79249903D01*
X103861445Y-79112114D01*
X103866048Y-79108401D01*
X104025433Y-78986102D01*
X104028764Y-78983635D01*
X104202316Y-78859721D01*
X104207697Y-78856090D01*
X104377129Y-78748150D01*
X104380139Y-78746295D01*
X104563373Y-78637111D01*
X104569551Y-78633667D01*
X104747667Y-78540945D01*
X104750357Y-78539587D01*
X104942051Y-78445874D01*
X104948951Y-78442762D01*
X105134553Y-78365883D01*
X105136564Y-78365074D01*
X105335565Y-78287423D01*
X105343284Y-78284704D01*
X105534743Y-78224337D01*
X105536253Y-78223875D01*
X105741111Y-78162885D01*
X105749599Y-78160684D01*
X105945302Y-78117297D01*
X105946392Y-78117062D01*
X106155816Y-78073151D01*
X106165045Y-78071578D01*
X106363195Y-78045491D01*
X106576673Y-78018881D01*
X106586540Y-78018052D01*
X106782628Y-78009490D01*
X106997437Y-78000605D01*
X107002561Y-78000500D01*
X170997439Y-78000500D01*
X171002562Y-78000605D01*
G37*
%TD.AperFunction*%
%TD*%
M02*
