%TF.GenerationSoftware,KiCad,Pcbnew,7.0.1-0*%
%TF.CreationDate,2023-07-05T09:43:18+01:00*%
%TF.ProjectId,Penfold_VCA,50656e66-6f6c-4645-9f56-43412e6b6963,rev?*%
%TF.SameCoordinates,Original*%
%TF.FileFunction,Copper,L1,Top*%
%TF.FilePolarity,Positive*%
%FSLAX46Y46*%
G04 Gerber Fmt 4.6, Leading zero omitted, Abs format (unit mm)*
G04 Created by KiCad (PCBNEW 7.0.1-0) date 2023-07-05 09:43:18*
%MOMM*%
%LPD*%
G01*
G04 APERTURE LIST*
%TA.AperFunction,ComponentPad*%
%ADD10R,1.600000X1.600000*%
%TD*%
%TA.AperFunction,ComponentPad*%
%ADD11C,1.600000*%
%TD*%
%TA.AperFunction,ComponentPad*%
%ADD12R,1.700000X1.700000*%
%TD*%
%TA.AperFunction,ComponentPad*%
%ADD13O,1.700000X1.700000*%
%TD*%
%TA.AperFunction,ComponentPad*%
%ADD14O,1.600000X1.600000*%
%TD*%
%TA.AperFunction,ComponentPad*%
%ADD15R,2.200000X2.200000*%
%TD*%
%TA.AperFunction,ComponentPad*%
%ADD16O,2.200000X2.200000*%
%TD*%
%TA.AperFunction,ComponentPad*%
%ADD17R,2.400000X1.600000*%
%TD*%
%TA.AperFunction,ComponentPad*%
%ADD18O,2.400000X1.600000*%
%TD*%
%TA.AperFunction,Conductor*%
%ADD19C,0.300000*%
%TD*%
%TA.AperFunction,Conductor*%
%ADD20C,0.500000*%
%TD*%
G04 APERTURE END LIST*
D10*
%TO.P,C2,1*%
%TO.N,Net-(C2-Pad1)*%
X150000000Y-116000000D03*
D11*
%TO.P,C2,2*%
%TO.N,GND*%
X152000000Y-116000000D03*
%TD*%
D12*
%TO.P,SW1,1,A*%
%TO.N,CV Bus*%
X115475000Y-116000000D03*
D13*
%TO.P,SW1,2,B*%
%TO.N,3*%
X118015000Y-116000000D03*
%TO.P,SW1,3,C*%
%TO.N,Net-(SW1-C)*%
X120555000Y-116000000D03*
%TD*%
D11*
%TO.P,R2,1*%
%TO.N,+12V*%
X145288000Y-105283000D03*
D14*
%TO.P,R2,2*%
%TO.N,Net-(U1C-DIODE_BIAS)*%
X145288000Y-95123000D03*
%TD*%
D15*
%TO.P,D4,1,K*%
%TO.N,+12V*%
X125080000Y-82000000D03*
D16*
%TO.P,D4,2,A*%
%TO.N,Net-(D4-A)*%
X114920000Y-82000000D03*
%TD*%
D11*
%TO.P,R1,1*%
%TO.N,Net-(U2--)*%
X129921000Y-87000000D03*
D14*
%TO.P,R1,2*%
%TO.N,1*%
X140081000Y-87000000D03*
%TD*%
D11*
%TO.P,R3,1*%
%TO.N,Net-(C2-Pad1)*%
X150749000Y-80920000D03*
D14*
%TO.P,R3,2*%
%TO.N,Net-(U1C--)*%
X150749000Y-91080000D03*
%TD*%
D12*
%TO.P,J1,1,Pin_1*%
%TO.N,Gate Bus*%
X106000000Y-89840000D03*
D13*
%TO.P,J1,2,Pin_2*%
X108540000Y-89840000D03*
%TO.P,J1,3,Pin_3*%
%TO.N,CV Bus*%
X106000000Y-92380000D03*
%TO.P,J1,4,Pin_4*%
X108540000Y-92380000D03*
%TO.P,J1,5,Pin_5*%
%TO.N,+5V*%
X106000000Y-94920000D03*
%TO.P,J1,6,Pin_6*%
X108540000Y-94920000D03*
%TO.P,J1,7,Pin_7*%
%TO.N,Net-(D4-A)*%
X106000000Y-97460000D03*
%TO.P,J1,8,Pin_8*%
X108540000Y-97460000D03*
%TO.P,J1,9,Pin_9*%
%TO.N,GND*%
X106000000Y-100000000D03*
%TO.P,J1,10,Pin_10*%
X108540000Y-100000000D03*
%TO.P,J1,11,Pin_11*%
X106000000Y-102540000D03*
%TO.P,J1,12,Pin_12*%
X108540000Y-102540000D03*
%TO.P,J1,13,Pin_13*%
X106000000Y-105080000D03*
%TO.P,J1,14,Pin_14*%
X108540000Y-105080000D03*
%TO.P,J1,15,Pin_15*%
%TO.N,Net-(D1-K)*%
X106000000Y-107620000D03*
%TO.P,J1,16,Pin_16*%
X108540000Y-107620000D03*
%TD*%
D17*
%TO.P,U2,1,NULL*%
%TO.N,unconnected-(U2-NULL-Pad1)*%
X131200000Y-93200000D03*
D18*
%TO.P,U2,2,-*%
%TO.N,Net-(U2--)*%
X131200000Y-95740000D03*
%TO.P,U2,3,+*%
%TO.N,3*%
X131200000Y-98280000D03*
%TO.P,U2,4,V-*%
%TO.N,GND*%
X131200000Y-100820000D03*
%TO.P,U2,5,NULL*%
%TO.N,unconnected-(U2-NULL-Pad5)*%
X138820000Y-100820000D03*
%TO.P,U2,6*%
%TO.N,Net-(U2--)*%
X138820000Y-98280000D03*
%TO.P,U2,7,V+*%
%TO.N,+12V*%
X138820000Y-95740000D03*
%TO.P,U2,8,STRB*%
%TO.N,unconnected-(U2-STRB-Pad8)*%
X138820000Y-93200000D03*
%TD*%
D11*
%TO.P,R8,1*%
%TO.N,GND*%
X169000000Y-99080000D03*
D14*
%TO.P,R8,2*%
%TO.N,Net-(C3-Pad1)*%
X169000000Y-88920000D03*
%TD*%
D12*
%TO.P,J4,1,Pin_1*%
%TO.N,GND*%
X128920000Y-116000000D03*
D13*
%TO.P,J4,2,Pin_2*%
X131460000Y-116000000D03*
%TO.P,J4,3,Pin_3*%
%TO.N,2*%
X134000000Y-116000000D03*
%TD*%
D15*
%TO.P,D1,1,K*%
%TO.N,Net-(D1-K)*%
X114920000Y-97000000D03*
D16*
%TO.P,D1,2,A*%
%TO.N,-12V*%
X125080000Y-97000000D03*
%TD*%
D12*
%TO.P,J6,1,Pin_1*%
%TO.N,GND*%
X169000000Y-108540000D03*
D13*
%TO.P,J6,2,Pin_2*%
X169000000Y-106000000D03*
%TO.P,J6,3,Pin_3*%
%TO.N,3*%
X169000000Y-103460000D03*
%TD*%
D11*
%TO.P,R4,1*%
%TO.N,Net-(C2-Pad1)*%
X149920000Y-104000000D03*
D14*
%TO.P,R4,2*%
%TO.N,Net-(U1C-+)*%
X160080000Y-104000000D03*
%TD*%
D10*
%TO.P,C4,1*%
%TO.N,GND*%
X115000000Y-90000000D03*
D11*
%TO.P,C4,2*%
%TO.N,-12V*%
X117000000Y-90000000D03*
%TD*%
D10*
%TO.P,C3,1*%
%TO.N,Net-(C3-Pad1)*%
X159000000Y-116000000D03*
D11*
%TO.P,C3,2*%
%TO.N,3*%
X161000000Y-116000000D03*
%TD*%
%TO.P,R7,1*%
%TO.N,GND*%
X129920000Y-82000000D03*
D14*
%TO.P,R7,2*%
%TO.N,Net-(C2-Pad1)*%
X140080000Y-82000000D03*
%TD*%
D10*
%TO.P,C1,1*%
%TO.N,Net-(C1-Pad1)*%
X143000000Y-116000000D03*
D11*
%TO.P,C1,2*%
%TO.N,2*%
X141000000Y-116000000D03*
%TD*%
%TO.P,R5,1*%
%TO.N,Net-(C1-Pad1)*%
X149920000Y-109000000D03*
D14*
%TO.P,R5,2*%
%TO.N,Net-(U1C-+)*%
X160080000Y-109000000D03*
%TD*%
D10*
%TO.P,C5,1*%
%TO.N,+12V*%
X123000000Y-90000000D03*
D11*
%TO.P,C5,2*%
%TO.N,GND*%
X125000000Y-90000000D03*
%TD*%
D17*
%TO.P,U1,1*%
%TO.N,1*%
X156200000Y-81220000D03*
D18*
%TO.P,U1,2,DIODE_BIAS*%
%TO.N,Net-(U1C-DIODE_BIAS)*%
X156200000Y-83760000D03*
%TO.P,U1,3,+*%
%TO.N,Net-(U1C-+)*%
X156200000Y-86300000D03*
%TO.P,U1,4,-*%
%TO.N,Net-(U1C--)*%
X156200000Y-88840000D03*
%TO.P,U1,5*%
%TO.N,Net-(C2-Pad1)*%
X156200000Y-91380000D03*
%TO.P,U1,6,V-*%
%TO.N,GND*%
X156200000Y-93920000D03*
%TO.P,U1,7*%
%TO.N,Net-(C2-Pad1)*%
X156200000Y-96460000D03*
%TO.P,U1,8*%
%TO.N,Net-(C3-Pad1)*%
X156200000Y-99000000D03*
%TO.P,U1,9*%
%TO.N,N/C*%
X163820000Y-99000000D03*
%TO.P,U1,10*%
X163820000Y-96460000D03*
%TO.P,U1,11,V+*%
%TO.N,+12V*%
X163820000Y-93920000D03*
%TO.P,U1,12*%
%TO.N,N/C*%
X163820000Y-91380000D03*
%TO.P,U1,13*%
X163820000Y-88840000D03*
%TO.P,U1,14*%
X163820000Y-86300000D03*
%TO.P,U1,15*%
X163820000Y-83760000D03*
%TO.P,U1,16*%
X163820000Y-81220000D03*
%TD*%
D11*
%TO.P,R6,1*%
%TO.N,Net-(C2-Pad1)*%
X145288000Y-80920000D03*
D14*
%TO.P,R6,2*%
%TO.N,+12V*%
X145288000Y-91080000D03*
%TD*%
D19*
%TO.N,Net-(C1-Pad1)*%
X152426346Y-117200000D02*
X144200000Y-117200000D01*
X153150000Y-116476346D02*
X152426346Y-117200000D01*
X153150000Y-112230000D02*
X153150000Y-116476346D01*
X149920000Y-109000000D02*
X153150000Y-112230000D01*
X144200000Y-117200000D02*
X143000000Y-116000000D01*
%TO.N,2*%
X134000000Y-116000000D02*
X141000000Y-116000000D01*
%TO.N,Net-(C2-Pad1)*%
X145288000Y-80920000D02*
X141160000Y-80920000D01*
X150000000Y-116000000D02*
X148770000Y-114770000D01*
X156200000Y-96460000D02*
X156600000Y-96460000D01*
X138931000Y-90392346D02*
X144811654Y-96273000D01*
X148770000Y-105150000D02*
X149920000Y-104000000D01*
X141160000Y-80920000D02*
X140080000Y-82000000D01*
X157750000Y-95310000D02*
X157750000Y-92930000D01*
X149920000Y-102740000D02*
X149920000Y-104000000D01*
X140080000Y-82000000D02*
X138931000Y-83149000D01*
X150749000Y-80920000D02*
X145288000Y-80920000D01*
X148770000Y-114770000D02*
X148770000Y-105150000D01*
X157750000Y-92930000D02*
X156200000Y-91380000D01*
X151307000Y-96273000D02*
X156200000Y-91380000D01*
X156600000Y-96460000D02*
X157750000Y-95310000D01*
X138931000Y-83149000D02*
X138931000Y-90392346D01*
X144811654Y-96273000D02*
X151307000Y-96273000D01*
X156200000Y-96460000D02*
X149920000Y-102740000D01*
%TO.N,Net-(C3-Pad1)*%
X169000000Y-88920000D02*
X169000000Y-95846346D01*
X169000000Y-95846346D02*
X161899519Y-102946827D01*
X156200000Y-113200000D02*
X156200000Y-110700000D01*
X161899519Y-102946827D02*
X161899519Y-108806827D01*
X160006346Y-110700000D02*
X156200000Y-110700000D01*
X156200000Y-110700000D02*
X156200000Y-99000000D01*
X161899519Y-108806827D02*
X160006346Y-110700000D01*
X159000000Y-116000000D02*
X156200000Y-113200000D01*
%TO.N,3*%
X161000000Y-111460000D02*
X169000000Y-103460000D01*
X118015000Y-116000000D02*
X118015000Y-111465000D01*
X161000000Y-116000000D02*
X161000000Y-111460000D01*
X118015000Y-111465000D02*
X131200000Y-98280000D01*
D20*
%TO.N,-12V*%
X118080000Y-90000000D02*
X117000000Y-90000000D01*
X125080000Y-97000000D02*
X118080000Y-90000000D01*
%TO.N,+12V*%
X125080000Y-87920000D02*
X123000000Y-90000000D01*
X145288000Y-105283000D02*
X145288000Y-102208000D01*
X125080000Y-82000000D02*
X125080000Y-87920000D01*
X145288000Y-102208000D02*
X138820000Y-95740000D01*
%TO.N,Net-(D1-K)*%
X106000000Y-107620000D02*
X108540000Y-107620000D01*
X108540000Y-107620000D02*
X114920000Y-101240000D01*
X114920000Y-101240000D02*
X114920000Y-97000000D01*
%TO.N,Net-(D4-A)*%
X106000000Y-97460000D02*
X108540000Y-97460000D01*
X114920000Y-82000000D02*
X111800000Y-85120000D01*
X111800000Y-85120000D02*
X111800000Y-94200000D01*
X111800000Y-94200000D02*
X108540000Y-97460000D01*
D19*
%TO.N,Gate Bus*%
X106000000Y-89840000D02*
X108540000Y-89840000D01*
%TO.N,CV Bus*%
X105400000Y-111100000D02*
X110000000Y-111100000D01*
X110575000Y-111100000D02*
X110000000Y-111100000D01*
X103900000Y-93100000D02*
X103900000Y-107217057D01*
X106000000Y-92380000D02*
X104620000Y-92380000D01*
X115475000Y-116000000D02*
X110575000Y-111100000D01*
X106000000Y-92380000D02*
X108540000Y-92380000D01*
X104620000Y-92380000D02*
X103900000Y-93100000D01*
X103900000Y-107217057D02*
X103900000Y-109600000D01*
X103900000Y-109600000D02*
X105400000Y-111100000D01*
D20*
%TO.N,+5V*%
X106000000Y-94920000D02*
X108540000Y-94920000D01*
D19*
%TO.N,Net-(U2--)*%
X131200000Y-95740000D02*
X136280000Y-95740000D01*
X129121001Y-93661001D02*
X131200000Y-95740000D01*
X129121001Y-87799999D02*
X129121001Y-93661001D01*
X129921000Y-87000000D02*
X129121001Y-87799999D01*
X136280000Y-95740000D02*
X138820000Y-98280000D01*
%TO.N,1*%
X156200000Y-81220000D02*
X150420000Y-87000000D01*
X150420000Y-87000000D02*
X140081000Y-87000000D01*
%TO.N,Net-(U1C-DIODE_BIAS)*%
X156200000Y-83760000D02*
X145288000Y-94672000D01*
X145288000Y-94672000D02*
X145288000Y-95123000D01*
%TO.N,Net-(U1C--)*%
X152989000Y-88840000D02*
X150749000Y-91080000D01*
X156200000Y-88840000D02*
X152989000Y-88840000D01*
%TO.N,Net-(U1C-+)*%
X160080000Y-109000000D02*
X160080000Y-104000000D01*
X160080000Y-90180000D02*
X156200000Y-86300000D01*
X160080000Y-104000000D02*
X160080000Y-90180000D01*
%TD*%
M02*
