%TF.GenerationSoftware,KiCad,Pcbnew,7.0.1-0*%
%TF.CreationDate,2023-07-05T09:43:19+01:00*%
%TF.ProjectId,Penfold_VCA,50656e66-6f6c-4645-9f56-43412e6b6963,rev?*%
%TF.SameCoordinates,Original*%
%TF.FileFunction,Legend,Top*%
%TF.FilePolarity,Positive*%
%FSLAX46Y46*%
G04 Gerber Fmt 4.6, Leading zero omitted, Abs format (unit mm)*
G04 Created by KiCad (PCBNEW 7.0.1-0) date 2023-07-05 09:43:19*
%MOMM*%
%LPD*%
G01*
G04 APERTURE LIST*
%ADD10C,0.125000*%
%ADD11C,0.200000*%
%ADD12C,0.150000*%
%ADD13C,0.120000*%
G04 APERTURE END LIST*
D10*
X130761904Y-118425238D02*
X130666666Y-118377619D01*
X130666666Y-118377619D02*
X130523809Y-118377619D01*
X130523809Y-118377619D02*
X130380952Y-118425238D01*
X130380952Y-118425238D02*
X130285714Y-118520476D01*
X130285714Y-118520476D02*
X130238095Y-118615714D01*
X130238095Y-118615714D02*
X130190476Y-118806190D01*
X130190476Y-118806190D02*
X130190476Y-118949047D01*
X130190476Y-118949047D02*
X130238095Y-119139523D01*
X130238095Y-119139523D02*
X130285714Y-119234761D01*
X130285714Y-119234761D02*
X130380952Y-119330000D01*
X130380952Y-119330000D02*
X130523809Y-119377619D01*
X130523809Y-119377619D02*
X130619047Y-119377619D01*
X130619047Y-119377619D02*
X130761904Y-119330000D01*
X130761904Y-119330000D02*
X130809523Y-119282380D01*
X130809523Y-119282380D02*
X130809523Y-118949047D01*
X130809523Y-118949047D02*
X130619047Y-118949047D01*
X131238095Y-119377619D02*
X131238095Y-118377619D01*
X131238095Y-118377619D02*
X131809523Y-119377619D01*
X131809523Y-119377619D02*
X131809523Y-118377619D01*
X132285714Y-119377619D02*
X132285714Y-118377619D01*
X132285714Y-118377619D02*
X132523809Y-118377619D01*
X132523809Y-118377619D02*
X132666666Y-118425238D01*
X132666666Y-118425238D02*
X132761904Y-118520476D01*
X132761904Y-118520476D02*
X132809523Y-118615714D01*
X132809523Y-118615714D02*
X132857142Y-118806190D01*
X132857142Y-118806190D02*
X132857142Y-118949047D01*
X132857142Y-118949047D02*
X132809523Y-119139523D01*
X132809523Y-119139523D02*
X132761904Y-119234761D01*
X132761904Y-119234761D02*
X132666666Y-119330000D01*
X132666666Y-119330000D02*
X132523809Y-119377619D01*
X132523809Y-119377619D02*
X132285714Y-119377619D01*
D11*
X113976190Y-103515238D02*
X113976190Y-101515238D01*
X113976190Y-101515238D02*
X114738095Y-101515238D01*
X114738095Y-101515238D02*
X114928571Y-101610476D01*
X114928571Y-101610476D02*
X115023809Y-101705714D01*
X115023809Y-101705714D02*
X115119047Y-101896190D01*
X115119047Y-101896190D02*
X115119047Y-102181904D01*
X115119047Y-102181904D02*
X115023809Y-102372380D01*
X115023809Y-102372380D02*
X114928571Y-102467619D01*
X114928571Y-102467619D02*
X114738095Y-102562857D01*
X114738095Y-102562857D02*
X113976190Y-102562857D01*
X116738095Y-103420000D02*
X116547619Y-103515238D01*
X116547619Y-103515238D02*
X116166666Y-103515238D01*
X116166666Y-103515238D02*
X115976190Y-103420000D01*
X115976190Y-103420000D02*
X115880952Y-103229523D01*
X115880952Y-103229523D02*
X115880952Y-102467619D01*
X115880952Y-102467619D02*
X115976190Y-102277142D01*
X115976190Y-102277142D02*
X116166666Y-102181904D01*
X116166666Y-102181904D02*
X116547619Y-102181904D01*
X116547619Y-102181904D02*
X116738095Y-102277142D01*
X116738095Y-102277142D02*
X116833333Y-102467619D01*
X116833333Y-102467619D02*
X116833333Y-102658095D01*
X116833333Y-102658095D02*
X115880952Y-102848571D01*
X117690476Y-102181904D02*
X117690476Y-103515238D01*
X117690476Y-102372380D02*
X117785714Y-102277142D01*
X117785714Y-102277142D02*
X117976190Y-102181904D01*
X117976190Y-102181904D02*
X118261905Y-102181904D01*
X118261905Y-102181904D02*
X118452381Y-102277142D01*
X118452381Y-102277142D02*
X118547619Y-102467619D01*
X118547619Y-102467619D02*
X118547619Y-103515238D01*
X119214286Y-102181904D02*
X119976190Y-102181904D01*
X119500000Y-103515238D02*
X119500000Y-101800952D01*
X119500000Y-101800952D02*
X119595238Y-101610476D01*
X119595238Y-101610476D02*
X119785714Y-101515238D01*
X119785714Y-101515238D02*
X119976190Y-101515238D01*
X120928571Y-103515238D02*
X120738095Y-103420000D01*
X120738095Y-103420000D02*
X120642857Y-103324761D01*
X120642857Y-103324761D02*
X120547619Y-103134285D01*
X120547619Y-103134285D02*
X120547619Y-102562857D01*
X120547619Y-102562857D02*
X120642857Y-102372380D01*
X120642857Y-102372380D02*
X120738095Y-102277142D01*
X120738095Y-102277142D02*
X120928571Y-102181904D01*
X120928571Y-102181904D02*
X121214286Y-102181904D01*
X121214286Y-102181904D02*
X121404762Y-102277142D01*
X121404762Y-102277142D02*
X121500000Y-102372380D01*
X121500000Y-102372380D02*
X121595238Y-102562857D01*
X121595238Y-102562857D02*
X121595238Y-103134285D01*
X121595238Y-103134285D02*
X121500000Y-103324761D01*
X121500000Y-103324761D02*
X121404762Y-103420000D01*
X121404762Y-103420000D02*
X121214286Y-103515238D01*
X121214286Y-103515238D02*
X120928571Y-103515238D01*
X122738095Y-103515238D02*
X122547619Y-103420000D01*
X122547619Y-103420000D02*
X122452381Y-103229523D01*
X122452381Y-103229523D02*
X122452381Y-101515238D01*
X124357143Y-103515238D02*
X124357143Y-101515238D01*
X124357143Y-103420000D02*
X124166667Y-103515238D01*
X124166667Y-103515238D02*
X123785714Y-103515238D01*
X123785714Y-103515238D02*
X123595238Y-103420000D01*
X123595238Y-103420000D02*
X123500000Y-103324761D01*
X123500000Y-103324761D02*
X123404762Y-103134285D01*
X123404762Y-103134285D02*
X123404762Y-102562857D01*
X123404762Y-102562857D02*
X123500000Y-102372380D01*
X123500000Y-102372380D02*
X123595238Y-102277142D01*
X123595238Y-102277142D02*
X123785714Y-102181904D01*
X123785714Y-102181904D02*
X124166667Y-102181904D01*
X124166667Y-102181904D02*
X124357143Y-102277142D01*
X113690476Y-104755238D02*
X114357142Y-106755238D01*
X114357142Y-106755238D02*
X115023809Y-104755238D01*
X116833333Y-106564761D02*
X116738095Y-106660000D01*
X116738095Y-106660000D02*
X116452381Y-106755238D01*
X116452381Y-106755238D02*
X116261905Y-106755238D01*
X116261905Y-106755238D02*
X115976190Y-106660000D01*
X115976190Y-106660000D02*
X115785714Y-106469523D01*
X115785714Y-106469523D02*
X115690476Y-106279047D01*
X115690476Y-106279047D02*
X115595238Y-105898095D01*
X115595238Y-105898095D02*
X115595238Y-105612380D01*
X115595238Y-105612380D02*
X115690476Y-105231428D01*
X115690476Y-105231428D02*
X115785714Y-105040952D01*
X115785714Y-105040952D02*
X115976190Y-104850476D01*
X115976190Y-104850476D02*
X116261905Y-104755238D01*
X116261905Y-104755238D02*
X116452381Y-104755238D01*
X116452381Y-104755238D02*
X116738095Y-104850476D01*
X116738095Y-104850476D02*
X116833333Y-104945714D01*
X117595238Y-106183809D02*
X118547619Y-106183809D01*
X117404762Y-106755238D02*
X118071428Y-104755238D01*
X118071428Y-104755238D02*
X118738095Y-106755238D01*
X119500000Y-106660000D02*
X119500000Y-106755238D01*
X119500000Y-106755238D02*
X119404762Y-106945714D01*
X119404762Y-106945714D02*
X119309524Y-107040952D01*
X122928572Y-106755238D02*
X121785715Y-106755238D01*
X122357143Y-106755238D02*
X122357143Y-104755238D01*
X122357143Y-104755238D02*
X122166667Y-105040952D01*
X122166667Y-105040952D02*
X121976191Y-105231428D01*
X121976191Y-105231428D02*
X121785715Y-105326666D01*
X123880953Y-106755238D02*
X124261905Y-106755238D01*
X124261905Y-106755238D02*
X124452382Y-106660000D01*
X124452382Y-106660000D02*
X124547620Y-106564761D01*
X124547620Y-106564761D02*
X124738096Y-106279047D01*
X124738096Y-106279047D02*
X124833334Y-105898095D01*
X124833334Y-105898095D02*
X124833334Y-105136190D01*
X124833334Y-105136190D02*
X124738096Y-104945714D01*
X124738096Y-104945714D02*
X124642858Y-104850476D01*
X124642858Y-104850476D02*
X124452382Y-104755238D01*
X124452382Y-104755238D02*
X124071429Y-104755238D01*
X124071429Y-104755238D02*
X123880953Y-104850476D01*
X123880953Y-104850476D02*
X123785715Y-104945714D01*
X123785715Y-104945714D02*
X123690477Y-105136190D01*
X123690477Y-105136190D02*
X123690477Y-105612380D01*
X123690477Y-105612380D02*
X123785715Y-105802857D01*
X123785715Y-105802857D02*
X123880953Y-105898095D01*
X123880953Y-105898095D02*
X124071429Y-105993333D01*
X124071429Y-105993333D02*
X124452382Y-105993333D01*
X124452382Y-105993333D02*
X124642858Y-105898095D01*
X124642858Y-105898095D02*
X124738096Y-105802857D01*
X124738096Y-105802857D02*
X124833334Y-105612380D01*
X125976191Y-105612380D02*
X125785715Y-105517142D01*
X125785715Y-105517142D02*
X125690477Y-105421904D01*
X125690477Y-105421904D02*
X125595239Y-105231428D01*
X125595239Y-105231428D02*
X125595239Y-105136190D01*
X125595239Y-105136190D02*
X125690477Y-104945714D01*
X125690477Y-104945714D02*
X125785715Y-104850476D01*
X125785715Y-104850476D02*
X125976191Y-104755238D01*
X125976191Y-104755238D02*
X126357144Y-104755238D01*
X126357144Y-104755238D02*
X126547620Y-104850476D01*
X126547620Y-104850476D02*
X126642858Y-104945714D01*
X126642858Y-104945714D02*
X126738096Y-105136190D01*
X126738096Y-105136190D02*
X126738096Y-105231428D01*
X126738096Y-105231428D02*
X126642858Y-105421904D01*
X126642858Y-105421904D02*
X126547620Y-105517142D01*
X126547620Y-105517142D02*
X126357144Y-105612380D01*
X126357144Y-105612380D02*
X125976191Y-105612380D01*
X125976191Y-105612380D02*
X125785715Y-105707619D01*
X125785715Y-105707619D02*
X125690477Y-105802857D01*
X125690477Y-105802857D02*
X125595239Y-105993333D01*
X125595239Y-105993333D02*
X125595239Y-106374285D01*
X125595239Y-106374285D02*
X125690477Y-106564761D01*
X125690477Y-106564761D02*
X125785715Y-106660000D01*
X125785715Y-106660000D02*
X125976191Y-106755238D01*
X125976191Y-106755238D02*
X126357144Y-106755238D01*
X126357144Y-106755238D02*
X126547620Y-106660000D01*
X126547620Y-106660000D02*
X126642858Y-106564761D01*
X126642858Y-106564761D02*
X126738096Y-106374285D01*
X126738096Y-106374285D02*
X126738096Y-105993333D01*
X126738096Y-105993333D02*
X126642858Y-105802857D01*
X126642858Y-105802857D02*
X126547620Y-105707619D01*
X126547620Y-105707619D02*
X126357144Y-105612380D01*
X128452382Y-104755238D02*
X128071429Y-104755238D01*
X128071429Y-104755238D02*
X127880953Y-104850476D01*
X127880953Y-104850476D02*
X127785715Y-104945714D01*
X127785715Y-104945714D02*
X127595239Y-105231428D01*
X127595239Y-105231428D02*
X127500001Y-105612380D01*
X127500001Y-105612380D02*
X127500001Y-106374285D01*
X127500001Y-106374285D02*
X127595239Y-106564761D01*
X127595239Y-106564761D02*
X127690477Y-106660000D01*
X127690477Y-106660000D02*
X127880953Y-106755238D01*
X127880953Y-106755238D02*
X128261906Y-106755238D01*
X128261906Y-106755238D02*
X128452382Y-106660000D01*
X128452382Y-106660000D02*
X128547620Y-106564761D01*
X128547620Y-106564761D02*
X128642858Y-106374285D01*
X128642858Y-106374285D02*
X128642858Y-105898095D01*
X128642858Y-105898095D02*
X128547620Y-105707619D01*
X128547620Y-105707619D02*
X128452382Y-105612380D01*
X128452382Y-105612380D02*
X128261906Y-105517142D01*
X128261906Y-105517142D02*
X127880953Y-105517142D01*
X127880953Y-105517142D02*
X127690477Y-105612380D01*
X127690477Y-105612380D02*
X127595239Y-105707619D01*
X127595239Y-105707619D02*
X127500001Y-105898095D01*
D10*
X127261904Y-118425238D02*
X127166666Y-118377619D01*
X127166666Y-118377619D02*
X127023809Y-118377619D01*
X127023809Y-118377619D02*
X126880952Y-118425238D01*
X126880952Y-118425238D02*
X126785714Y-118520476D01*
X126785714Y-118520476D02*
X126738095Y-118615714D01*
X126738095Y-118615714D02*
X126690476Y-118806190D01*
X126690476Y-118806190D02*
X126690476Y-118949047D01*
X126690476Y-118949047D02*
X126738095Y-119139523D01*
X126738095Y-119139523D02*
X126785714Y-119234761D01*
X126785714Y-119234761D02*
X126880952Y-119330000D01*
X126880952Y-119330000D02*
X127023809Y-119377619D01*
X127023809Y-119377619D02*
X127119047Y-119377619D01*
X127119047Y-119377619D02*
X127261904Y-119330000D01*
X127261904Y-119330000D02*
X127309523Y-119282380D01*
X127309523Y-119282380D02*
X127309523Y-118949047D01*
X127309523Y-118949047D02*
X127119047Y-118949047D01*
X127738095Y-119377619D02*
X127738095Y-118377619D01*
X127738095Y-118377619D02*
X128309523Y-119377619D01*
X128309523Y-119377619D02*
X128309523Y-118377619D01*
X128785714Y-119377619D02*
X128785714Y-118377619D01*
X128785714Y-118377619D02*
X129023809Y-118377619D01*
X129023809Y-118377619D02*
X129166666Y-118425238D01*
X129166666Y-118425238D02*
X129261904Y-118520476D01*
X129261904Y-118520476D02*
X129309523Y-118615714D01*
X129309523Y-118615714D02*
X129357142Y-118806190D01*
X129357142Y-118806190D02*
X129357142Y-118949047D01*
X129357142Y-118949047D02*
X129309523Y-119139523D01*
X129309523Y-119139523D02*
X129261904Y-119234761D01*
X129261904Y-119234761D02*
X129166666Y-119330000D01*
X129166666Y-119330000D02*
X129023809Y-119377619D01*
X129023809Y-119377619D02*
X128785714Y-119377619D01*
X113309523Y-119282380D02*
X113261904Y-119330000D01*
X113261904Y-119330000D02*
X113119047Y-119377619D01*
X113119047Y-119377619D02*
X113023809Y-119377619D01*
X113023809Y-119377619D02*
X112880952Y-119330000D01*
X112880952Y-119330000D02*
X112785714Y-119234761D01*
X112785714Y-119234761D02*
X112738095Y-119139523D01*
X112738095Y-119139523D02*
X112690476Y-118949047D01*
X112690476Y-118949047D02*
X112690476Y-118806190D01*
X112690476Y-118806190D02*
X112738095Y-118615714D01*
X112738095Y-118615714D02*
X112785714Y-118520476D01*
X112785714Y-118520476D02*
X112880952Y-118425238D01*
X112880952Y-118425238D02*
X113023809Y-118377619D01*
X113023809Y-118377619D02*
X113119047Y-118377619D01*
X113119047Y-118377619D02*
X113261904Y-118425238D01*
X113261904Y-118425238D02*
X113309523Y-118472857D01*
X113595238Y-118377619D02*
X113928571Y-119377619D01*
X113928571Y-119377619D02*
X114261904Y-118377619D01*
X115357143Y-119377619D02*
X115357143Y-118377619D01*
X115833333Y-118710952D02*
X115833333Y-119377619D01*
X115833333Y-118806190D02*
X115880952Y-118758571D01*
X115880952Y-118758571D02*
X115976190Y-118710952D01*
X115976190Y-118710952D02*
X116119047Y-118710952D01*
X116119047Y-118710952D02*
X116214285Y-118758571D01*
X116214285Y-118758571D02*
X116261904Y-118853809D01*
X116261904Y-118853809D02*
X116261904Y-119377619D01*
X116595238Y-118710952D02*
X116976190Y-118710952D01*
X116738095Y-118377619D02*
X116738095Y-119234761D01*
X116738095Y-119234761D02*
X116785714Y-119330000D01*
X116785714Y-119330000D02*
X116880952Y-119377619D01*
X116880952Y-119377619D02*
X116976190Y-119377619D01*
X118038095Y-119377619D02*
X118038095Y-118377619D01*
X118514285Y-118710952D02*
X118514285Y-119377619D01*
X118514285Y-118806190D02*
X118561904Y-118758571D01*
X118561904Y-118758571D02*
X118657142Y-118710952D01*
X118657142Y-118710952D02*
X118799999Y-118710952D01*
X118799999Y-118710952D02*
X118895237Y-118758571D01*
X118895237Y-118758571D02*
X118942856Y-118853809D01*
X118942856Y-118853809D02*
X118942856Y-119377619D01*
X171971904Y-103833332D02*
X171971904Y-103357142D01*
X172257619Y-103928570D02*
X171257619Y-103595237D01*
X171257619Y-103595237D02*
X172257619Y-103261904D01*
X171590952Y-102499999D02*
X172257619Y-102499999D01*
X171590952Y-102928570D02*
X172114761Y-102928570D01*
X172114761Y-102928570D02*
X172210000Y-102880951D01*
X172210000Y-102880951D02*
X172257619Y-102785713D01*
X172257619Y-102785713D02*
X172257619Y-102642856D01*
X172257619Y-102642856D02*
X172210000Y-102547618D01*
X172210000Y-102547618D02*
X172162380Y-102499999D01*
X172257619Y-101595237D02*
X171257619Y-101595237D01*
X172210000Y-101595237D02*
X172257619Y-101690475D01*
X172257619Y-101690475D02*
X172257619Y-101880951D01*
X172257619Y-101880951D02*
X172210000Y-101976189D01*
X172210000Y-101976189D02*
X172162380Y-102023808D01*
X172162380Y-102023808D02*
X172067142Y-102071427D01*
X172067142Y-102071427D02*
X171781428Y-102071427D01*
X171781428Y-102071427D02*
X171686190Y-102023808D01*
X171686190Y-102023808D02*
X171638571Y-101976189D01*
X171638571Y-101976189D02*
X171590952Y-101880951D01*
X171590952Y-101880951D02*
X171590952Y-101690475D01*
X171590952Y-101690475D02*
X171638571Y-101595237D01*
X172257619Y-101119046D02*
X171590952Y-101119046D01*
X171257619Y-101119046D02*
X171305238Y-101166665D01*
X171305238Y-101166665D02*
X171352857Y-101119046D01*
X171352857Y-101119046D02*
X171305238Y-101071427D01*
X171305238Y-101071427D02*
X171257619Y-101119046D01*
X171257619Y-101119046D02*
X171352857Y-101119046D01*
X172257619Y-100499999D02*
X172210000Y-100595237D01*
X172210000Y-100595237D02*
X172162380Y-100642856D01*
X172162380Y-100642856D02*
X172067142Y-100690475D01*
X172067142Y-100690475D02*
X171781428Y-100690475D01*
X171781428Y-100690475D02*
X171686190Y-100642856D01*
X171686190Y-100642856D02*
X171638571Y-100595237D01*
X171638571Y-100595237D02*
X171590952Y-100499999D01*
X171590952Y-100499999D02*
X171590952Y-100357142D01*
X171590952Y-100357142D02*
X171638571Y-100261904D01*
X171638571Y-100261904D02*
X171686190Y-100214285D01*
X171686190Y-100214285D02*
X171781428Y-100166666D01*
X171781428Y-100166666D02*
X172067142Y-100166666D01*
X172067142Y-100166666D02*
X172162380Y-100214285D01*
X172162380Y-100214285D02*
X172210000Y-100261904D01*
X172210000Y-100261904D02*
X172257619Y-100357142D01*
X172257619Y-100357142D02*
X172257619Y-100499999D01*
X172877619Y-102833333D02*
X172877619Y-102642857D01*
X172877619Y-102642857D02*
X172925238Y-102547619D01*
X172925238Y-102547619D02*
X173020476Y-102452381D01*
X173020476Y-102452381D02*
X173210952Y-102404762D01*
X173210952Y-102404762D02*
X173544285Y-102404762D01*
X173544285Y-102404762D02*
X173734761Y-102452381D01*
X173734761Y-102452381D02*
X173830000Y-102547619D01*
X173830000Y-102547619D02*
X173877619Y-102642857D01*
X173877619Y-102642857D02*
X173877619Y-102833333D01*
X173877619Y-102833333D02*
X173830000Y-102928571D01*
X173830000Y-102928571D02*
X173734761Y-103023809D01*
X173734761Y-103023809D02*
X173544285Y-103071428D01*
X173544285Y-103071428D02*
X173210952Y-103071428D01*
X173210952Y-103071428D02*
X173020476Y-103023809D01*
X173020476Y-103023809D02*
X172925238Y-102928571D01*
X172925238Y-102928571D02*
X172877619Y-102833333D01*
X173210952Y-101547619D02*
X173877619Y-101547619D01*
X173210952Y-101976190D02*
X173734761Y-101976190D01*
X173734761Y-101976190D02*
X173830000Y-101928571D01*
X173830000Y-101928571D02*
X173877619Y-101833333D01*
X173877619Y-101833333D02*
X173877619Y-101690476D01*
X173877619Y-101690476D02*
X173830000Y-101595238D01*
X173830000Y-101595238D02*
X173782380Y-101547619D01*
X173210952Y-101214285D02*
X173210952Y-100833333D01*
X172877619Y-101071428D02*
X173734761Y-101071428D01*
X173734761Y-101071428D02*
X173830000Y-101023809D01*
X173830000Y-101023809D02*
X173877619Y-100928571D01*
X173877619Y-100928571D02*
X173877619Y-100833333D01*
X113738095Y-109257619D02*
X113738095Y-108257619D01*
X113738095Y-108257619D02*
X114119047Y-108257619D01*
X114119047Y-108257619D02*
X114214285Y-108305238D01*
X114214285Y-108305238D02*
X114261904Y-108352857D01*
X114261904Y-108352857D02*
X114309523Y-108448095D01*
X114309523Y-108448095D02*
X114309523Y-108590952D01*
X114309523Y-108590952D02*
X114261904Y-108686190D01*
X114261904Y-108686190D02*
X114214285Y-108733809D01*
X114214285Y-108733809D02*
X114119047Y-108781428D01*
X114119047Y-108781428D02*
X113738095Y-108781428D01*
X115309523Y-109162380D02*
X115261904Y-109210000D01*
X115261904Y-109210000D02*
X115119047Y-109257619D01*
X115119047Y-109257619D02*
X115023809Y-109257619D01*
X115023809Y-109257619D02*
X114880952Y-109210000D01*
X114880952Y-109210000D02*
X114785714Y-109114761D01*
X114785714Y-109114761D02*
X114738095Y-109019523D01*
X114738095Y-109019523D02*
X114690476Y-108829047D01*
X114690476Y-108829047D02*
X114690476Y-108686190D01*
X114690476Y-108686190D02*
X114738095Y-108495714D01*
X114738095Y-108495714D02*
X114785714Y-108400476D01*
X114785714Y-108400476D02*
X114880952Y-108305238D01*
X114880952Y-108305238D02*
X115023809Y-108257619D01*
X115023809Y-108257619D02*
X115119047Y-108257619D01*
X115119047Y-108257619D02*
X115261904Y-108305238D01*
X115261904Y-108305238D02*
X115309523Y-108352857D01*
X116071428Y-108733809D02*
X116214285Y-108781428D01*
X116214285Y-108781428D02*
X116261904Y-108829047D01*
X116261904Y-108829047D02*
X116309523Y-108924285D01*
X116309523Y-108924285D02*
X116309523Y-109067142D01*
X116309523Y-109067142D02*
X116261904Y-109162380D01*
X116261904Y-109162380D02*
X116214285Y-109210000D01*
X116214285Y-109210000D02*
X116119047Y-109257619D01*
X116119047Y-109257619D02*
X115738095Y-109257619D01*
X115738095Y-109257619D02*
X115738095Y-108257619D01*
X115738095Y-108257619D02*
X116071428Y-108257619D01*
X116071428Y-108257619D02*
X116166666Y-108305238D01*
X116166666Y-108305238D02*
X116214285Y-108352857D01*
X116214285Y-108352857D02*
X116261904Y-108448095D01*
X116261904Y-108448095D02*
X116261904Y-108543333D01*
X116261904Y-108543333D02*
X116214285Y-108638571D01*
X116214285Y-108638571D02*
X116166666Y-108686190D01*
X116166666Y-108686190D02*
X116071428Y-108733809D01*
X116071428Y-108733809D02*
X115738095Y-108733809D01*
X117928571Y-109257619D02*
X117928571Y-108257619D01*
X117928571Y-109210000D02*
X117833333Y-109257619D01*
X117833333Y-109257619D02*
X117642857Y-109257619D01*
X117642857Y-109257619D02*
X117547619Y-109210000D01*
X117547619Y-109210000D02*
X117500000Y-109162380D01*
X117500000Y-109162380D02*
X117452381Y-109067142D01*
X117452381Y-109067142D02*
X117452381Y-108781428D01*
X117452381Y-108781428D02*
X117500000Y-108686190D01*
X117500000Y-108686190D02*
X117547619Y-108638571D01*
X117547619Y-108638571D02*
X117642857Y-108590952D01*
X117642857Y-108590952D02*
X117833333Y-108590952D01*
X117833333Y-108590952D02*
X117928571Y-108638571D01*
X118785714Y-109210000D02*
X118690476Y-109257619D01*
X118690476Y-109257619D02*
X118500000Y-109257619D01*
X118500000Y-109257619D02*
X118404762Y-109210000D01*
X118404762Y-109210000D02*
X118357143Y-109114761D01*
X118357143Y-109114761D02*
X118357143Y-108733809D01*
X118357143Y-108733809D02*
X118404762Y-108638571D01*
X118404762Y-108638571D02*
X118500000Y-108590952D01*
X118500000Y-108590952D02*
X118690476Y-108590952D01*
X118690476Y-108590952D02*
X118785714Y-108638571D01*
X118785714Y-108638571D02*
X118833333Y-108733809D01*
X118833333Y-108733809D02*
X118833333Y-108829047D01*
X118833333Y-108829047D02*
X118357143Y-108924285D01*
X119214286Y-109210000D02*
X119309524Y-109257619D01*
X119309524Y-109257619D02*
X119500000Y-109257619D01*
X119500000Y-109257619D02*
X119595238Y-109210000D01*
X119595238Y-109210000D02*
X119642857Y-109114761D01*
X119642857Y-109114761D02*
X119642857Y-109067142D01*
X119642857Y-109067142D02*
X119595238Y-108971904D01*
X119595238Y-108971904D02*
X119500000Y-108924285D01*
X119500000Y-108924285D02*
X119357143Y-108924285D01*
X119357143Y-108924285D02*
X119261905Y-108876666D01*
X119261905Y-108876666D02*
X119214286Y-108781428D01*
X119214286Y-108781428D02*
X119214286Y-108733809D01*
X119214286Y-108733809D02*
X119261905Y-108638571D01*
X119261905Y-108638571D02*
X119357143Y-108590952D01*
X119357143Y-108590952D02*
X119500000Y-108590952D01*
X119500000Y-108590952D02*
X119595238Y-108638571D01*
X120071429Y-109257619D02*
X120071429Y-108590952D01*
X120071429Y-108257619D02*
X120023810Y-108305238D01*
X120023810Y-108305238D02*
X120071429Y-108352857D01*
X120071429Y-108352857D02*
X120119048Y-108305238D01*
X120119048Y-108305238D02*
X120071429Y-108257619D01*
X120071429Y-108257619D02*
X120071429Y-108352857D01*
X120976190Y-108590952D02*
X120976190Y-109400476D01*
X120976190Y-109400476D02*
X120928571Y-109495714D01*
X120928571Y-109495714D02*
X120880952Y-109543333D01*
X120880952Y-109543333D02*
X120785714Y-109590952D01*
X120785714Y-109590952D02*
X120642857Y-109590952D01*
X120642857Y-109590952D02*
X120547619Y-109543333D01*
X120976190Y-109210000D02*
X120880952Y-109257619D01*
X120880952Y-109257619D02*
X120690476Y-109257619D01*
X120690476Y-109257619D02*
X120595238Y-109210000D01*
X120595238Y-109210000D02*
X120547619Y-109162380D01*
X120547619Y-109162380D02*
X120500000Y-109067142D01*
X120500000Y-109067142D02*
X120500000Y-108781428D01*
X120500000Y-108781428D02*
X120547619Y-108686190D01*
X120547619Y-108686190D02*
X120595238Y-108638571D01*
X120595238Y-108638571D02*
X120690476Y-108590952D01*
X120690476Y-108590952D02*
X120880952Y-108590952D01*
X120880952Y-108590952D02*
X120976190Y-108638571D01*
X121452381Y-108590952D02*
X121452381Y-109257619D01*
X121452381Y-108686190D02*
X121500000Y-108638571D01*
X121500000Y-108638571D02*
X121595238Y-108590952D01*
X121595238Y-108590952D02*
X121738095Y-108590952D01*
X121738095Y-108590952D02*
X121833333Y-108638571D01*
X121833333Y-108638571D02*
X121880952Y-108733809D01*
X121880952Y-108733809D02*
X121880952Y-109257619D01*
X123119048Y-109257619D02*
X123119048Y-108257619D01*
X123119048Y-108638571D02*
X123214286Y-108590952D01*
X123214286Y-108590952D02*
X123404762Y-108590952D01*
X123404762Y-108590952D02*
X123500000Y-108638571D01*
X123500000Y-108638571D02*
X123547619Y-108686190D01*
X123547619Y-108686190D02*
X123595238Y-108781428D01*
X123595238Y-108781428D02*
X123595238Y-109067142D01*
X123595238Y-109067142D02*
X123547619Y-109162380D01*
X123547619Y-109162380D02*
X123500000Y-109210000D01*
X123500000Y-109210000D02*
X123404762Y-109257619D01*
X123404762Y-109257619D02*
X123214286Y-109257619D01*
X123214286Y-109257619D02*
X123119048Y-109210000D01*
X123928572Y-108590952D02*
X124166667Y-109257619D01*
X124404762Y-108590952D02*
X124166667Y-109257619D01*
X124166667Y-109257619D02*
X124071429Y-109495714D01*
X124071429Y-109495714D02*
X124023810Y-109543333D01*
X124023810Y-109543333D02*
X123928572Y-109590952D01*
X125500001Y-108971904D02*
X125976191Y-108971904D01*
X125404763Y-109257619D02*
X125738096Y-108257619D01*
X125738096Y-108257619D02*
X126071429Y-109257619D01*
X126547620Y-109257619D02*
X126452382Y-109210000D01*
X126452382Y-109210000D02*
X126404763Y-109114761D01*
X126404763Y-109114761D02*
X126404763Y-108257619D01*
X126928573Y-109257619D02*
X126928573Y-108590952D01*
X126928573Y-108257619D02*
X126880954Y-108305238D01*
X126880954Y-108305238D02*
X126928573Y-108352857D01*
X126928573Y-108352857D02*
X126976192Y-108305238D01*
X126976192Y-108305238D02*
X126928573Y-108257619D01*
X126928573Y-108257619D02*
X126928573Y-108352857D01*
X127357144Y-109210000D02*
X127452382Y-109257619D01*
X127452382Y-109257619D02*
X127642858Y-109257619D01*
X127642858Y-109257619D02*
X127738096Y-109210000D01*
X127738096Y-109210000D02*
X127785715Y-109114761D01*
X127785715Y-109114761D02*
X127785715Y-109067142D01*
X127785715Y-109067142D02*
X127738096Y-108971904D01*
X127738096Y-108971904D02*
X127642858Y-108924285D01*
X127642858Y-108924285D02*
X127500001Y-108924285D01*
X127500001Y-108924285D02*
X127404763Y-108876666D01*
X127404763Y-108876666D02*
X127357144Y-108781428D01*
X127357144Y-108781428D02*
X127357144Y-108733809D01*
X127357144Y-108733809D02*
X127404763Y-108638571D01*
X127404763Y-108638571D02*
X127500001Y-108590952D01*
X127500001Y-108590952D02*
X127642858Y-108590952D01*
X127642858Y-108590952D02*
X127738096Y-108638571D01*
X128071430Y-108590952D02*
X128452382Y-108590952D01*
X128214287Y-108257619D02*
X128214287Y-109114761D01*
X128214287Y-109114761D02*
X128261906Y-109210000D01*
X128261906Y-109210000D02*
X128357144Y-109257619D01*
X128357144Y-109257619D02*
X128452382Y-109257619D01*
X129166668Y-109210000D02*
X129071430Y-109257619D01*
X129071430Y-109257619D02*
X128880954Y-109257619D01*
X128880954Y-109257619D02*
X128785716Y-109210000D01*
X128785716Y-109210000D02*
X128738097Y-109114761D01*
X128738097Y-109114761D02*
X128738097Y-108733809D01*
X128738097Y-108733809D02*
X128785716Y-108638571D01*
X128785716Y-108638571D02*
X128880954Y-108590952D01*
X128880954Y-108590952D02*
X129071430Y-108590952D01*
X129071430Y-108590952D02*
X129166668Y-108638571D01*
X129166668Y-108638571D02*
X129214287Y-108733809D01*
X129214287Y-108733809D02*
X129214287Y-108829047D01*
X129214287Y-108829047D02*
X128738097Y-108924285D01*
X129642859Y-109257619D02*
X129642859Y-108590952D01*
X129642859Y-108781428D02*
X129690478Y-108686190D01*
X129690478Y-108686190D02*
X129738097Y-108638571D01*
X129738097Y-108638571D02*
X129833335Y-108590952D01*
X129833335Y-108590952D02*
X129928573Y-108590952D01*
X131500002Y-109257619D02*
X131023812Y-109257619D01*
X131023812Y-109257619D02*
X131023812Y-108257619D01*
X132214288Y-109210000D02*
X132119050Y-109257619D01*
X132119050Y-109257619D02*
X131928574Y-109257619D01*
X131928574Y-109257619D02*
X131833336Y-109210000D01*
X131833336Y-109210000D02*
X131785717Y-109114761D01*
X131785717Y-109114761D02*
X131785717Y-108733809D01*
X131785717Y-108733809D02*
X131833336Y-108638571D01*
X131833336Y-108638571D02*
X131928574Y-108590952D01*
X131928574Y-108590952D02*
X132119050Y-108590952D01*
X132119050Y-108590952D02*
X132214288Y-108638571D01*
X132214288Y-108638571D02*
X132261907Y-108733809D01*
X132261907Y-108733809D02*
X132261907Y-108829047D01*
X132261907Y-108829047D02*
X131785717Y-108924285D01*
X132595241Y-108590952D02*
X132785717Y-109257619D01*
X132785717Y-109257619D02*
X132976193Y-108781428D01*
X132976193Y-108781428D02*
X133166669Y-109257619D01*
X133166669Y-109257619D02*
X133357145Y-108590952D01*
X133738098Y-109257619D02*
X133738098Y-108590952D01*
X133738098Y-108257619D02*
X133690479Y-108305238D01*
X133690479Y-108305238D02*
X133738098Y-108352857D01*
X133738098Y-108352857D02*
X133785717Y-108305238D01*
X133785717Y-108305238D02*
X133738098Y-108257619D01*
X133738098Y-108257619D02*
X133738098Y-108352857D01*
X134166669Y-109210000D02*
X134261907Y-109257619D01*
X134261907Y-109257619D02*
X134452383Y-109257619D01*
X134452383Y-109257619D02*
X134547621Y-109210000D01*
X134547621Y-109210000D02*
X134595240Y-109114761D01*
X134595240Y-109114761D02*
X134595240Y-109067142D01*
X134595240Y-109067142D02*
X134547621Y-108971904D01*
X134547621Y-108971904D02*
X134452383Y-108924285D01*
X134452383Y-108924285D02*
X134309526Y-108924285D01*
X134309526Y-108924285D02*
X134214288Y-108876666D01*
X134214288Y-108876666D02*
X134166669Y-108781428D01*
X134166669Y-108781428D02*
X134166669Y-108733809D01*
X134166669Y-108733809D02*
X134214288Y-108638571D01*
X134214288Y-108638571D02*
X134309526Y-108590952D01*
X134309526Y-108590952D02*
X134452383Y-108590952D01*
X134452383Y-108590952D02*
X134547621Y-108638571D01*
X135023812Y-108876666D02*
X135785717Y-108876666D01*
X136595240Y-108733809D02*
X136738097Y-108781428D01*
X136738097Y-108781428D02*
X136785716Y-108829047D01*
X136785716Y-108829047D02*
X136833335Y-108924285D01*
X136833335Y-108924285D02*
X136833335Y-109067142D01*
X136833335Y-109067142D02*
X136785716Y-109162380D01*
X136785716Y-109162380D02*
X136738097Y-109210000D01*
X136738097Y-109210000D02*
X136642859Y-109257619D01*
X136642859Y-109257619D02*
X136261907Y-109257619D01*
X136261907Y-109257619D02*
X136261907Y-108257619D01*
X136261907Y-108257619D02*
X136595240Y-108257619D01*
X136595240Y-108257619D02*
X136690478Y-108305238D01*
X136690478Y-108305238D02*
X136738097Y-108352857D01*
X136738097Y-108352857D02*
X136785716Y-108448095D01*
X136785716Y-108448095D02*
X136785716Y-108543333D01*
X136785716Y-108543333D02*
X136738097Y-108638571D01*
X136738097Y-108638571D02*
X136690478Y-108686190D01*
X136690478Y-108686190D02*
X136595240Y-108733809D01*
X136595240Y-108733809D02*
X136261907Y-108733809D01*
X137404764Y-109257619D02*
X137309526Y-109210000D01*
X137309526Y-109210000D02*
X137261907Y-109162380D01*
X137261907Y-109162380D02*
X137214288Y-109067142D01*
X137214288Y-109067142D02*
X137214288Y-108781428D01*
X137214288Y-108781428D02*
X137261907Y-108686190D01*
X137261907Y-108686190D02*
X137309526Y-108638571D01*
X137309526Y-108638571D02*
X137404764Y-108590952D01*
X137404764Y-108590952D02*
X137547621Y-108590952D01*
X137547621Y-108590952D02*
X137642859Y-108638571D01*
X137642859Y-108638571D02*
X137690478Y-108686190D01*
X137690478Y-108686190D02*
X137738097Y-108781428D01*
X137738097Y-108781428D02*
X137738097Y-109067142D01*
X137738097Y-109067142D02*
X137690478Y-109162380D01*
X137690478Y-109162380D02*
X137642859Y-109210000D01*
X137642859Y-109210000D02*
X137547621Y-109257619D01*
X137547621Y-109257619D02*
X137404764Y-109257619D01*
X138071431Y-108590952D02*
X138261907Y-109257619D01*
X138261907Y-109257619D02*
X138452383Y-108781428D01*
X138452383Y-108781428D02*
X138642859Y-109257619D01*
X138642859Y-109257619D02*
X138833335Y-108590952D01*
X139595240Y-109210000D02*
X139500002Y-109257619D01*
X139500002Y-109257619D02*
X139309526Y-109257619D01*
X139309526Y-109257619D02*
X139214288Y-109210000D01*
X139214288Y-109210000D02*
X139166669Y-109114761D01*
X139166669Y-109114761D02*
X139166669Y-108733809D01*
X139166669Y-108733809D02*
X139214288Y-108638571D01*
X139214288Y-108638571D02*
X139309526Y-108590952D01*
X139309526Y-108590952D02*
X139500002Y-108590952D01*
X139500002Y-108590952D02*
X139595240Y-108638571D01*
X139595240Y-108638571D02*
X139642859Y-108733809D01*
X139642859Y-108733809D02*
X139642859Y-108829047D01*
X139642859Y-108829047D02*
X139166669Y-108924285D01*
X140071431Y-108590952D02*
X140071431Y-109257619D01*
X140071431Y-108686190D02*
X140119050Y-108638571D01*
X140119050Y-108638571D02*
X140214288Y-108590952D01*
X140214288Y-108590952D02*
X140357145Y-108590952D01*
X140357145Y-108590952D02*
X140452383Y-108638571D01*
X140452383Y-108638571D02*
X140500002Y-108733809D01*
X140500002Y-108733809D02*
X140500002Y-109257619D01*
X113642857Y-110210952D02*
X113880952Y-110877619D01*
X113880952Y-110877619D02*
X114119047Y-110210952D01*
X115023809Y-110877619D02*
X114452381Y-110877619D01*
X114738095Y-110877619D02*
X114738095Y-109877619D01*
X114738095Y-109877619D02*
X114642857Y-110020476D01*
X114642857Y-110020476D02*
X114547619Y-110115714D01*
X114547619Y-110115714D02*
X114452381Y-110163333D01*
X115452381Y-110782380D02*
X115500000Y-110830000D01*
X115500000Y-110830000D02*
X115452381Y-110877619D01*
X115452381Y-110877619D02*
X115404762Y-110830000D01*
X115404762Y-110830000D02*
X115452381Y-110782380D01*
X115452381Y-110782380D02*
X115452381Y-110877619D01*
X116119047Y-109877619D02*
X116214285Y-109877619D01*
X116214285Y-109877619D02*
X116309523Y-109925238D01*
X116309523Y-109925238D02*
X116357142Y-109972857D01*
X116357142Y-109972857D02*
X116404761Y-110068095D01*
X116404761Y-110068095D02*
X116452380Y-110258571D01*
X116452380Y-110258571D02*
X116452380Y-110496666D01*
X116452380Y-110496666D02*
X116404761Y-110687142D01*
X116404761Y-110687142D02*
X116357142Y-110782380D01*
X116357142Y-110782380D02*
X116309523Y-110830000D01*
X116309523Y-110830000D02*
X116214285Y-110877619D01*
X116214285Y-110877619D02*
X116119047Y-110877619D01*
X116119047Y-110877619D02*
X116023809Y-110830000D01*
X116023809Y-110830000D02*
X115976190Y-110782380D01*
X115976190Y-110782380D02*
X115928571Y-110687142D01*
X115928571Y-110687142D02*
X115880952Y-110496666D01*
X115880952Y-110496666D02*
X115880952Y-110258571D01*
X115880952Y-110258571D02*
X115928571Y-110068095D01*
X115928571Y-110068095D02*
X115976190Y-109972857D01*
X115976190Y-109972857D02*
X116023809Y-109925238D01*
X116023809Y-109925238D02*
X116119047Y-109877619D01*
X103238095Y-87096666D02*
X104000000Y-87096666D01*
X104999999Y-87477619D02*
X104428571Y-87477619D01*
X104714285Y-87477619D02*
X104714285Y-86477619D01*
X104714285Y-86477619D02*
X104619047Y-86620476D01*
X104619047Y-86620476D02*
X104523809Y-86715714D01*
X104523809Y-86715714D02*
X104428571Y-86763333D01*
X105380952Y-86572857D02*
X105428571Y-86525238D01*
X105428571Y-86525238D02*
X105523809Y-86477619D01*
X105523809Y-86477619D02*
X105761904Y-86477619D01*
X105761904Y-86477619D02*
X105857142Y-86525238D01*
X105857142Y-86525238D02*
X105904761Y-86572857D01*
X105904761Y-86572857D02*
X105952380Y-86668095D01*
X105952380Y-86668095D02*
X105952380Y-86763333D01*
X105952380Y-86763333D02*
X105904761Y-86906190D01*
X105904761Y-86906190D02*
X105333333Y-87477619D01*
X105333333Y-87477619D02*
X105952380Y-87477619D01*
X106238095Y-86477619D02*
X106571428Y-87477619D01*
X106571428Y-87477619D02*
X106904761Y-86477619D01*
X171525238Y-110261904D02*
X171477619Y-110357142D01*
X171477619Y-110357142D02*
X171477619Y-110499999D01*
X171477619Y-110499999D02*
X171525238Y-110642856D01*
X171525238Y-110642856D02*
X171620476Y-110738094D01*
X171620476Y-110738094D02*
X171715714Y-110785713D01*
X171715714Y-110785713D02*
X171906190Y-110833332D01*
X171906190Y-110833332D02*
X172049047Y-110833332D01*
X172049047Y-110833332D02*
X172239523Y-110785713D01*
X172239523Y-110785713D02*
X172334761Y-110738094D01*
X172334761Y-110738094D02*
X172430000Y-110642856D01*
X172430000Y-110642856D02*
X172477619Y-110499999D01*
X172477619Y-110499999D02*
X172477619Y-110404761D01*
X172477619Y-110404761D02*
X172430000Y-110261904D01*
X172430000Y-110261904D02*
X172382380Y-110214285D01*
X172382380Y-110214285D02*
X172049047Y-110214285D01*
X172049047Y-110214285D02*
X172049047Y-110404761D01*
X172477619Y-109785713D02*
X171477619Y-109785713D01*
X171477619Y-109785713D02*
X172477619Y-109214285D01*
X172477619Y-109214285D02*
X171477619Y-109214285D01*
X172477619Y-108738094D02*
X171477619Y-108738094D01*
X171477619Y-108738094D02*
X171477619Y-108499999D01*
X171477619Y-108499999D02*
X171525238Y-108357142D01*
X171525238Y-108357142D02*
X171620476Y-108261904D01*
X171620476Y-108261904D02*
X171715714Y-108214285D01*
X171715714Y-108214285D02*
X171906190Y-108166666D01*
X171906190Y-108166666D02*
X172049047Y-108166666D01*
X172049047Y-108166666D02*
X172239523Y-108214285D01*
X172239523Y-108214285D02*
X172334761Y-108261904D01*
X172334761Y-108261904D02*
X172430000Y-108357142D01*
X172430000Y-108357142D02*
X172477619Y-108499999D01*
X172477619Y-108499999D02*
X172477619Y-108738094D01*
X171425238Y-106738095D02*
X171377619Y-106833333D01*
X171377619Y-106833333D02*
X171377619Y-106976190D01*
X171377619Y-106976190D02*
X171425238Y-107119047D01*
X171425238Y-107119047D02*
X171520476Y-107214285D01*
X171520476Y-107214285D02*
X171615714Y-107261904D01*
X171615714Y-107261904D02*
X171806190Y-107309523D01*
X171806190Y-107309523D02*
X171949047Y-107309523D01*
X171949047Y-107309523D02*
X172139523Y-107261904D01*
X172139523Y-107261904D02*
X172234761Y-107214285D01*
X172234761Y-107214285D02*
X172330000Y-107119047D01*
X172330000Y-107119047D02*
X172377619Y-106976190D01*
X172377619Y-106976190D02*
X172377619Y-106880952D01*
X172377619Y-106880952D02*
X172330000Y-106738095D01*
X172330000Y-106738095D02*
X172282380Y-106690476D01*
X172282380Y-106690476D02*
X171949047Y-106690476D01*
X171949047Y-106690476D02*
X171949047Y-106880952D01*
X172377619Y-106261904D02*
X171377619Y-106261904D01*
X171377619Y-106261904D02*
X172377619Y-105690476D01*
X172377619Y-105690476D02*
X171377619Y-105690476D01*
X172377619Y-105214285D02*
X171377619Y-105214285D01*
X171377619Y-105214285D02*
X171377619Y-104976190D01*
X171377619Y-104976190D02*
X171425238Y-104833333D01*
X171425238Y-104833333D02*
X171520476Y-104738095D01*
X171520476Y-104738095D02*
X171615714Y-104690476D01*
X171615714Y-104690476D02*
X171806190Y-104642857D01*
X171806190Y-104642857D02*
X171949047Y-104642857D01*
X171949047Y-104642857D02*
X172139523Y-104690476D01*
X172139523Y-104690476D02*
X172234761Y-104738095D01*
X172234761Y-104738095D02*
X172330000Y-104833333D01*
X172330000Y-104833333D02*
X172377619Y-104976190D01*
X172377619Y-104976190D02*
X172377619Y-105214285D01*
X120809523Y-119282380D02*
X120761904Y-119330000D01*
X120761904Y-119330000D02*
X120619047Y-119377619D01*
X120619047Y-119377619D02*
X120523809Y-119377619D01*
X120523809Y-119377619D02*
X120380952Y-119330000D01*
X120380952Y-119330000D02*
X120285714Y-119234761D01*
X120285714Y-119234761D02*
X120238095Y-119139523D01*
X120238095Y-119139523D02*
X120190476Y-118949047D01*
X120190476Y-118949047D02*
X120190476Y-118806190D01*
X120190476Y-118806190D02*
X120238095Y-118615714D01*
X120238095Y-118615714D02*
X120285714Y-118520476D01*
X120285714Y-118520476D02*
X120380952Y-118425238D01*
X120380952Y-118425238D02*
X120523809Y-118377619D01*
X120523809Y-118377619D02*
X120619047Y-118377619D01*
X120619047Y-118377619D02*
X120761904Y-118425238D01*
X120761904Y-118425238D02*
X120809523Y-118472857D01*
X121095238Y-118377619D02*
X121428571Y-119377619D01*
X121428571Y-119377619D02*
X121761904Y-118377619D01*
X122857143Y-119377619D02*
X122857143Y-118377619D01*
X123333333Y-118710952D02*
X123333333Y-119377619D01*
X123333333Y-118806190D02*
X123380952Y-118758571D01*
X123380952Y-118758571D02*
X123476190Y-118710952D01*
X123476190Y-118710952D02*
X123619047Y-118710952D01*
X123619047Y-118710952D02*
X123714285Y-118758571D01*
X123714285Y-118758571D02*
X123761904Y-118853809D01*
X123761904Y-118853809D02*
X123761904Y-119377619D01*
X133690476Y-119091904D02*
X134166666Y-119091904D01*
X133595238Y-119377619D02*
X133928571Y-118377619D01*
X133928571Y-118377619D02*
X134261904Y-119377619D01*
X135023809Y-118710952D02*
X135023809Y-119377619D01*
X134595238Y-118710952D02*
X134595238Y-119234761D01*
X134595238Y-119234761D02*
X134642857Y-119330000D01*
X134642857Y-119330000D02*
X134738095Y-119377619D01*
X134738095Y-119377619D02*
X134880952Y-119377619D01*
X134880952Y-119377619D02*
X134976190Y-119330000D01*
X134976190Y-119330000D02*
X135023809Y-119282380D01*
X135928571Y-119377619D02*
X135928571Y-118377619D01*
X135928571Y-119330000D02*
X135833333Y-119377619D01*
X135833333Y-119377619D02*
X135642857Y-119377619D01*
X135642857Y-119377619D02*
X135547619Y-119330000D01*
X135547619Y-119330000D02*
X135500000Y-119282380D01*
X135500000Y-119282380D02*
X135452381Y-119187142D01*
X135452381Y-119187142D02*
X135452381Y-118901428D01*
X135452381Y-118901428D02*
X135500000Y-118806190D01*
X135500000Y-118806190D02*
X135547619Y-118758571D01*
X135547619Y-118758571D02*
X135642857Y-118710952D01*
X135642857Y-118710952D02*
X135833333Y-118710952D01*
X135833333Y-118710952D02*
X135928571Y-118758571D01*
X136404762Y-119377619D02*
X136404762Y-118710952D01*
X136404762Y-118377619D02*
X136357143Y-118425238D01*
X136357143Y-118425238D02*
X136404762Y-118472857D01*
X136404762Y-118472857D02*
X136452381Y-118425238D01*
X136452381Y-118425238D02*
X136404762Y-118377619D01*
X136404762Y-118377619D02*
X136404762Y-118472857D01*
X137023809Y-119377619D02*
X136928571Y-119330000D01*
X136928571Y-119330000D02*
X136880952Y-119282380D01*
X136880952Y-119282380D02*
X136833333Y-119187142D01*
X136833333Y-119187142D02*
X136833333Y-118901428D01*
X136833333Y-118901428D02*
X136880952Y-118806190D01*
X136880952Y-118806190D02*
X136928571Y-118758571D01*
X136928571Y-118758571D02*
X137023809Y-118710952D01*
X137023809Y-118710952D02*
X137166666Y-118710952D01*
X137166666Y-118710952D02*
X137261904Y-118758571D01*
X137261904Y-118758571D02*
X137309523Y-118806190D01*
X137309523Y-118806190D02*
X137357142Y-118901428D01*
X137357142Y-118901428D02*
X137357142Y-119187142D01*
X137357142Y-119187142D02*
X137309523Y-119282380D01*
X137309523Y-119282380D02*
X137261904Y-119330000D01*
X137261904Y-119330000D02*
X137166666Y-119377619D01*
X137166666Y-119377619D02*
X137023809Y-119377619D01*
X138547619Y-119377619D02*
X138547619Y-118377619D01*
X139023809Y-118710952D02*
X139023809Y-119377619D01*
X139023809Y-118806190D02*
X139071428Y-118758571D01*
X139071428Y-118758571D02*
X139166666Y-118710952D01*
X139166666Y-118710952D02*
X139309523Y-118710952D01*
X139309523Y-118710952D02*
X139404761Y-118758571D01*
X139404761Y-118758571D02*
X139452380Y-118853809D01*
X139452380Y-118853809D02*
X139452380Y-119377619D01*
D12*
%TO.C,C2*%
X150833333Y-112617380D02*
X150785714Y-112665000D01*
X150785714Y-112665000D02*
X150642857Y-112712619D01*
X150642857Y-112712619D02*
X150547619Y-112712619D01*
X150547619Y-112712619D02*
X150404762Y-112665000D01*
X150404762Y-112665000D02*
X150309524Y-112569761D01*
X150309524Y-112569761D02*
X150261905Y-112474523D01*
X150261905Y-112474523D02*
X150214286Y-112284047D01*
X150214286Y-112284047D02*
X150214286Y-112141190D01*
X150214286Y-112141190D02*
X150261905Y-111950714D01*
X150261905Y-111950714D02*
X150309524Y-111855476D01*
X150309524Y-111855476D02*
X150404762Y-111760238D01*
X150404762Y-111760238D02*
X150547619Y-111712619D01*
X150547619Y-111712619D02*
X150642857Y-111712619D01*
X150642857Y-111712619D02*
X150785714Y-111760238D01*
X150785714Y-111760238D02*
X150833333Y-111807857D01*
X151214286Y-111807857D02*
X151261905Y-111760238D01*
X151261905Y-111760238D02*
X151357143Y-111712619D01*
X151357143Y-111712619D02*
X151595238Y-111712619D01*
X151595238Y-111712619D02*
X151690476Y-111760238D01*
X151690476Y-111760238D02*
X151738095Y-111807857D01*
X151738095Y-111807857D02*
X151785714Y-111903095D01*
X151785714Y-111903095D02*
X151785714Y-111998333D01*
X151785714Y-111998333D02*
X151738095Y-112141190D01*
X151738095Y-112141190D02*
X151166667Y-112712619D01*
X151166667Y-112712619D02*
X151785714Y-112712619D01*
%TO.C,SW1*%
X119566667Y-113815000D02*
X119709524Y-113862619D01*
X119709524Y-113862619D02*
X119947619Y-113862619D01*
X119947619Y-113862619D02*
X120042857Y-113815000D01*
X120042857Y-113815000D02*
X120090476Y-113767380D01*
X120090476Y-113767380D02*
X120138095Y-113672142D01*
X120138095Y-113672142D02*
X120138095Y-113576904D01*
X120138095Y-113576904D02*
X120090476Y-113481666D01*
X120090476Y-113481666D02*
X120042857Y-113434047D01*
X120042857Y-113434047D02*
X119947619Y-113386428D01*
X119947619Y-113386428D02*
X119757143Y-113338809D01*
X119757143Y-113338809D02*
X119661905Y-113291190D01*
X119661905Y-113291190D02*
X119614286Y-113243571D01*
X119614286Y-113243571D02*
X119566667Y-113148333D01*
X119566667Y-113148333D02*
X119566667Y-113053095D01*
X119566667Y-113053095D02*
X119614286Y-112957857D01*
X119614286Y-112957857D02*
X119661905Y-112910238D01*
X119661905Y-112910238D02*
X119757143Y-112862619D01*
X119757143Y-112862619D02*
X119995238Y-112862619D01*
X119995238Y-112862619D02*
X120138095Y-112910238D01*
X120471429Y-112862619D02*
X120709524Y-113862619D01*
X120709524Y-113862619D02*
X120900000Y-113148333D01*
X120900000Y-113148333D02*
X121090476Y-113862619D01*
X121090476Y-113862619D02*
X121328572Y-112862619D01*
X122233333Y-113862619D02*
X121661905Y-113862619D01*
X121947619Y-113862619D02*
X121947619Y-112862619D01*
X121947619Y-112862619D02*
X121852381Y-113005476D01*
X121852381Y-113005476D02*
X121757143Y-113100714D01*
X121757143Y-113100714D02*
X121661905Y-113148333D01*
%TO.C,R2*%
X148062619Y-99966666D02*
X147586428Y-100299999D01*
X148062619Y-100538094D02*
X147062619Y-100538094D01*
X147062619Y-100538094D02*
X147062619Y-100157142D01*
X147062619Y-100157142D02*
X147110238Y-100061904D01*
X147110238Y-100061904D02*
X147157857Y-100014285D01*
X147157857Y-100014285D02*
X147253095Y-99966666D01*
X147253095Y-99966666D02*
X147395952Y-99966666D01*
X147395952Y-99966666D02*
X147491190Y-100014285D01*
X147491190Y-100014285D02*
X147538809Y-100061904D01*
X147538809Y-100061904D02*
X147586428Y-100157142D01*
X147586428Y-100157142D02*
X147586428Y-100538094D01*
X147157857Y-99585713D02*
X147110238Y-99538094D01*
X147110238Y-99538094D02*
X147062619Y-99442856D01*
X147062619Y-99442856D02*
X147062619Y-99204761D01*
X147062619Y-99204761D02*
X147110238Y-99109523D01*
X147110238Y-99109523D02*
X147157857Y-99061904D01*
X147157857Y-99061904D02*
X147253095Y-99014285D01*
X147253095Y-99014285D02*
X147348333Y-99014285D01*
X147348333Y-99014285D02*
X147491190Y-99061904D01*
X147491190Y-99061904D02*
X148062619Y-99633332D01*
X148062619Y-99633332D02*
X148062619Y-99014285D01*
%TO.C,D4*%
X119261905Y-84932619D02*
X119261905Y-83932619D01*
X119261905Y-83932619D02*
X119500000Y-83932619D01*
X119500000Y-83932619D02*
X119642857Y-83980238D01*
X119642857Y-83980238D02*
X119738095Y-84075476D01*
X119738095Y-84075476D02*
X119785714Y-84170714D01*
X119785714Y-84170714D02*
X119833333Y-84361190D01*
X119833333Y-84361190D02*
X119833333Y-84504047D01*
X119833333Y-84504047D02*
X119785714Y-84694523D01*
X119785714Y-84694523D02*
X119738095Y-84789761D01*
X119738095Y-84789761D02*
X119642857Y-84885000D01*
X119642857Y-84885000D02*
X119500000Y-84932619D01*
X119500000Y-84932619D02*
X119261905Y-84932619D01*
X120690476Y-84265952D02*
X120690476Y-84932619D01*
X120452381Y-83885000D02*
X120214286Y-84599285D01*
X120214286Y-84599285D02*
X120833333Y-84599285D01*
X124818095Y-84562619D02*
X124818095Y-83562619D01*
X125389523Y-84562619D02*
X124960952Y-83991190D01*
X125389523Y-83562619D02*
X124818095Y-84134047D01*
%TO.C,R1*%
X134834333Y-89962619D02*
X134501000Y-89486428D01*
X134262905Y-89962619D02*
X134262905Y-88962619D01*
X134262905Y-88962619D02*
X134643857Y-88962619D01*
X134643857Y-88962619D02*
X134739095Y-89010238D01*
X134739095Y-89010238D02*
X134786714Y-89057857D01*
X134786714Y-89057857D02*
X134834333Y-89153095D01*
X134834333Y-89153095D02*
X134834333Y-89295952D01*
X134834333Y-89295952D02*
X134786714Y-89391190D01*
X134786714Y-89391190D02*
X134739095Y-89438809D01*
X134739095Y-89438809D02*
X134643857Y-89486428D01*
X134643857Y-89486428D02*
X134262905Y-89486428D01*
X135786714Y-89962619D02*
X135215286Y-89962619D01*
X135501000Y-89962619D02*
X135501000Y-88962619D01*
X135501000Y-88962619D02*
X135405762Y-89105476D01*
X135405762Y-89105476D02*
X135310524Y-89200714D01*
X135310524Y-89200714D02*
X135215286Y-89248333D01*
%TO.C,R3*%
X153581619Y-86166666D02*
X153105428Y-86499999D01*
X153581619Y-86738094D02*
X152581619Y-86738094D01*
X152581619Y-86738094D02*
X152581619Y-86357142D01*
X152581619Y-86357142D02*
X152629238Y-86261904D01*
X152629238Y-86261904D02*
X152676857Y-86214285D01*
X152676857Y-86214285D02*
X152772095Y-86166666D01*
X152772095Y-86166666D02*
X152914952Y-86166666D01*
X152914952Y-86166666D02*
X153010190Y-86214285D01*
X153010190Y-86214285D02*
X153057809Y-86261904D01*
X153057809Y-86261904D02*
X153105428Y-86357142D01*
X153105428Y-86357142D02*
X153105428Y-86738094D01*
X152581619Y-85833332D02*
X152581619Y-85214285D01*
X152581619Y-85214285D02*
X152962571Y-85547618D01*
X152962571Y-85547618D02*
X152962571Y-85404761D01*
X152962571Y-85404761D02*
X153010190Y-85309523D01*
X153010190Y-85309523D02*
X153057809Y-85261904D01*
X153057809Y-85261904D02*
X153153047Y-85214285D01*
X153153047Y-85214285D02*
X153391142Y-85214285D01*
X153391142Y-85214285D02*
X153486380Y-85261904D01*
X153486380Y-85261904D02*
X153534000Y-85309523D01*
X153534000Y-85309523D02*
X153581619Y-85404761D01*
X153581619Y-85404761D02*
X153581619Y-85690475D01*
X153581619Y-85690475D02*
X153534000Y-85785713D01*
X153534000Y-85785713D02*
X153486380Y-85833332D01*
%TO.C,J1*%
X104367666Y-110002619D02*
X104367666Y-110716904D01*
X104367666Y-110716904D02*
X104320047Y-110859761D01*
X104320047Y-110859761D02*
X104224809Y-110955000D01*
X104224809Y-110955000D02*
X104081952Y-111002619D01*
X104081952Y-111002619D02*
X103986714Y-111002619D01*
X105367666Y-111002619D02*
X104796238Y-111002619D01*
X105081952Y-111002619D02*
X105081952Y-110002619D01*
X105081952Y-110002619D02*
X104986714Y-110145476D01*
X104986714Y-110145476D02*
X104891476Y-110240714D01*
X104891476Y-110240714D02*
X104796238Y-110288333D01*
%TO.C,U2*%
X134238095Y-102962619D02*
X134238095Y-103772142D01*
X134238095Y-103772142D02*
X134285714Y-103867380D01*
X134285714Y-103867380D02*
X134333333Y-103915000D01*
X134333333Y-103915000D02*
X134428571Y-103962619D01*
X134428571Y-103962619D02*
X134619047Y-103962619D01*
X134619047Y-103962619D02*
X134714285Y-103915000D01*
X134714285Y-103915000D02*
X134761904Y-103867380D01*
X134761904Y-103867380D02*
X134809523Y-103772142D01*
X134809523Y-103772142D02*
X134809523Y-102962619D01*
X135238095Y-103057857D02*
X135285714Y-103010238D01*
X135285714Y-103010238D02*
X135380952Y-102962619D01*
X135380952Y-102962619D02*
X135619047Y-102962619D01*
X135619047Y-102962619D02*
X135714285Y-103010238D01*
X135714285Y-103010238D02*
X135761904Y-103057857D01*
X135761904Y-103057857D02*
X135809523Y-103153095D01*
X135809523Y-103153095D02*
X135809523Y-103248333D01*
X135809523Y-103248333D02*
X135761904Y-103391190D01*
X135761904Y-103391190D02*
X135190476Y-103962619D01*
X135190476Y-103962619D02*
X135809523Y-103962619D01*
%TO.C,R8*%
X171962619Y-94266666D02*
X171486428Y-94599999D01*
X171962619Y-94838094D02*
X170962619Y-94838094D01*
X170962619Y-94838094D02*
X170962619Y-94457142D01*
X170962619Y-94457142D02*
X171010238Y-94361904D01*
X171010238Y-94361904D02*
X171057857Y-94314285D01*
X171057857Y-94314285D02*
X171153095Y-94266666D01*
X171153095Y-94266666D02*
X171295952Y-94266666D01*
X171295952Y-94266666D02*
X171391190Y-94314285D01*
X171391190Y-94314285D02*
X171438809Y-94361904D01*
X171438809Y-94361904D02*
X171486428Y-94457142D01*
X171486428Y-94457142D02*
X171486428Y-94838094D01*
X171391190Y-93695237D02*
X171343571Y-93790475D01*
X171343571Y-93790475D02*
X171295952Y-93838094D01*
X171295952Y-93838094D02*
X171200714Y-93885713D01*
X171200714Y-93885713D02*
X171153095Y-93885713D01*
X171153095Y-93885713D02*
X171057857Y-93838094D01*
X171057857Y-93838094D02*
X171010238Y-93790475D01*
X171010238Y-93790475D02*
X170962619Y-93695237D01*
X170962619Y-93695237D02*
X170962619Y-93504761D01*
X170962619Y-93504761D02*
X171010238Y-93409523D01*
X171010238Y-93409523D02*
X171057857Y-93361904D01*
X171057857Y-93361904D02*
X171153095Y-93314285D01*
X171153095Y-93314285D02*
X171200714Y-93314285D01*
X171200714Y-93314285D02*
X171295952Y-93361904D01*
X171295952Y-93361904D02*
X171343571Y-93409523D01*
X171343571Y-93409523D02*
X171391190Y-93504761D01*
X171391190Y-93504761D02*
X171391190Y-93695237D01*
X171391190Y-93695237D02*
X171438809Y-93790475D01*
X171438809Y-93790475D02*
X171486428Y-93838094D01*
X171486428Y-93838094D02*
X171581666Y-93885713D01*
X171581666Y-93885713D02*
X171772142Y-93885713D01*
X171772142Y-93885713D02*
X171867380Y-93838094D01*
X171867380Y-93838094D02*
X171915000Y-93790475D01*
X171915000Y-93790475D02*
X171962619Y-93695237D01*
X171962619Y-93695237D02*
X171962619Y-93504761D01*
X171962619Y-93504761D02*
X171915000Y-93409523D01*
X171915000Y-93409523D02*
X171867380Y-93361904D01*
X171867380Y-93361904D02*
X171772142Y-93314285D01*
X171772142Y-93314285D02*
X171581666Y-93314285D01*
X171581666Y-93314285D02*
X171486428Y-93361904D01*
X171486428Y-93361904D02*
X171438809Y-93409523D01*
X171438809Y-93409523D02*
X171391190Y-93504761D01*
%TO.C,J4*%
X134666666Y-112762619D02*
X134666666Y-113476904D01*
X134666666Y-113476904D02*
X134619047Y-113619761D01*
X134619047Y-113619761D02*
X134523809Y-113715000D01*
X134523809Y-113715000D02*
X134380952Y-113762619D01*
X134380952Y-113762619D02*
X134285714Y-113762619D01*
X135571428Y-113095952D02*
X135571428Y-113762619D01*
X135333333Y-112715000D02*
X135095238Y-113429285D01*
X135095238Y-113429285D02*
X135714285Y-113429285D01*
%TO.C,D1*%
X119261905Y-94992619D02*
X119261905Y-93992619D01*
X119261905Y-93992619D02*
X119500000Y-93992619D01*
X119500000Y-93992619D02*
X119642857Y-94040238D01*
X119642857Y-94040238D02*
X119738095Y-94135476D01*
X119738095Y-94135476D02*
X119785714Y-94230714D01*
X119785714Y-94230714D02*
X119833333Y-94421190D01*
X119833333Y-94421190D02*
X119833333Y-94564047D01*
X119833333Y-94564047D02*
X119785714Y-94754523D01*
X119785714Y-94754523D02*
X119738095Y-94849761D01*
X119738095Y-94849761D02*
X119642857Y-94945000D01*
X119642857Y-94945000D02*
X119500000Y-94992619D01*
X119500000Y-94992619D02*
X119261905Y-94992619D01*
X120785714Y-94992619D02*
X120214286Y-94992619D01*
X120500000Y-94992619D02*
X120500000Y-93992619D01*
X120500000Y-93992619D02*
X120404762Y-94135476D01*
X120404762Y-94135476D02*
X120309524Y-94230714D01*
X120309524Y-94230714D02*
X120214286Y-94278333D01*
X114658095Y-95362619D02*
X114658095Y-94362619D01*
X115229523Y-95362619D02*
X114800952Y-94791190D01*
X115229523Y-94362619D02*
X114658095Y-94934047D01*
%TO.C,J6*%
X165762619Y-108833333D02*
X166476904Y-108833333D01*
X166476904Y-108833333D02*
X166619761Y-108880952D01*
X166619761Y-108880952D02*
X166715000Y-108976190D01*
X166715000Y-108976190D02*
X166762619Y-109119047D01*
X166762619Y-109119047D02*
X166762619Y-109214285D01*
X165762619Y-107928571D02*
X165762619Y-108119047D01*
X165762619Y-108119047D02*
X165810238Y-108214285D01*
X165810238Y-108214285D02*
X165857857Y-108261904D01*
X165857857Y-108261904D02*
X166000714Y-108357142D01*
X166000714Y-108357142D02*
X166191190Y-108404761D01*
X166191190Y-108404761D02*
X166572142Y-108404761D01*
X166572142Y-108404761D02*
X166667380Y-108357142D01*
X166667380Y-108357142D02*
X166715000Y-108309523D01*
X166715000Y-108309523D02*
X166762619Y-108214285D01*
X166762619Y-108214285D02*
X166762619Y-108023809D01*
X166762619Y-108023809D02*
X166715000Y-107928571D01*
X166715000Y-107928571D02*
X166667380Y-107880952D01*
X166667380Y-107880952D02*
X166572142Y-107833333D01*
X166572142Y-107833333D02*
X166334047Y-107833333D01*
X166334047Y-107833333D02*
X166238809Y-107880952D01*
X166238809Y-107880952D02*
X166191190Y-107928571D01*
X166191190Y-107928571D02*
X166143571Y-108023809D01*
X166143571Y-108023809D02*
X166143571Y-108214285D01*
X166143571Y-108214285D02*
X166191190Y-108309523D01*
X166191190Y-108309523D02*
X166238809Y-108357142D01*
X166238809Y-108357142D02*
X166334047Y-108404761D01*
%TO.C,R4*%
X154833333Y-102092619D02*
X154500000Y-101616428D01*
X154261905Y-102092619D02*
X154261905Y-101092619D01*
X154261905Y-101092619D02*
X154642857Y-101092619D01*
X154642857Y-101092619D02*
X154738095Y-101140238D01*
X154738095Y-101140238D02*
X154785714Y-101187857D01*
X154785714Y-101187857D02*
X154833333Y-101283095D01*
X154833333Y-101283095D02*
X154833333Y-101425952D01*
X154833333Y-101425952D02*
X154785714Y-101521190D01*
X154785714Y-101521190D02*
X154738095Y-101568809D01*
X154738095Y-101568809D02*
X154642857Y-101616428D01*
X154642857Y-101616428D02*
X154261905Y-101616428D01*
X155690476Y-101425952D02*
X155690476Y-102092619D01*
X155452381Y-101045000D02*
X155214286Y-101759285D01*
X155214286Y-101759285D02*
X155833333Y-101759285D01*
%TO.C,C4*%
X115833333Y-86617380D02*
X115785714Y-86665000D01*
X115785714Y-86665000D02*
X115642857Y-86712619D01*
X115642857Y-86712619D02*
X115547619Y-86712619D01*
X115547619Y-86712619D02*
X115404762Y-86665000D01*
X115404762Y-86665000D02*
X115309524Y-86569761D01*
X115309524Y-86569761D02*
X115261905Y-86474523D01*
X115261905Y-86474523D02*
X115214286Y-86284047D01*
X115214286Y-86284047D02*
X115214286Y-86141190D01*
X115214286Y-86141190D02*
X115261905Y-85950714D01*
X115261905Y-85950714D02*
X115309524Y-85855476D01*
X115309524Y-85855476D02*
X115404762Y-85760238D01*
X115404762Y-85760238D02*
X115547619Y-85712619D01*
X115547619Y-85712619D02*
X115642857Y-85712619D01*
X115642857Y-85712619D02*
X115785714Y-85760238D01*
X115785714Y-85760238D02*
X115833333Y-85807857D01*
X116690476Y-86045952D02*
X116690476Y-86712619D01*
X116452381Y-85665000D02*
X116214286Y-86379285D01*
X116214286Y-86379285D02*
X116833333Y-86379285D01*
%TO.C,C3*%
X159833333Y-112617380D02*
X159785714Y-112665000D01*
X159785714Y-112665000D02*
X159642857Y-112712619D01*
X159642857Y-112712619D02*
X159547619Y-112712619D01*
X159547619Y-112712619D02*
X159404762Y-112665000D01*
X159404762Y-112665000D02*
X159309524Y-112569761D01*
X159309524Y-112569761D02*
X159261905Y-112474523D01*
X159261905Y-112474523D02*
X159214286Y-112284047D01*
X159214286Y-112284047D02*
X159214286Y-112141190D01*
X159214286Y-112141190D02*
X159261905Y-111950714D01*
X159261905Y-111950714D02*
X159309524Y-111855476D01*
X159309524Y-111855476D02*
X159404762Y-111760238D01*
X159404762Y-111760238D02*
X159547619Y-111712619D01*
X159547619Y-111712619D02*
X159642857Y-111712619D01*
X159642857Y-111712619D02*
X159785714Y-111760238D01*
X159785714Y-111760238D02*
X159833333Y-111807857D01*
X160166667Y-111712619D02*
X160785714Y-111712619D01*
X160785714Y-111712619D02*
X160452381Y-112093571D01*
X160452381Y-112093571D02*
X160595238Y-112093571D01*
X160595238Y-112093571D02*
X160690476Y-112141190D01*
X160690476Y-112141190D02*
X160738095Y-112188809D01*
X160738095Y-112188809D02*
X160785714Y-112284047D01*
X160785714Y-112284047D02*
X160785714Y-112522142D01*
X160785714Y-112522142D02*
X160738095Y-112617380D01*
X160738095Y-112617380D02*
X160690476Y-112665000D01*
X160690476Y-112665000D02*
X160595238Y-112712619D01*
X160595238Y-112712619D02*
X160309524Y-112712619D01*
X160309524Y-112712619D02*
X160214286Y-112665000D01*
X160214286Y-112665000D02*
X160166667Y-112617380D01*
%TO.C,R7*%
X134733333Y-84862619D02*
X134400000Y-84386428D01*
X134161905Y-84862619D02*
X134161905Y-83862619D01*
X134161905Y-83862619D02*
X134542857Y-83862619D01*
X134542857Y-83862619D02*
X134638095Y-83910238D01*
X134638095Y-83910238D02*
X134685714Y-83957857D01*
X134685714Y-83957857D02*
X134733333Y-84053095D01*
X134733333Y-84053095D02*
X134733333Y-84195952D01*
X134733333Y-84195952D02*
X134685714Y-84291190D01*
X134685714Y-84291190D02*
X134638095Y-84338809D01*
X134638095Y-84338809D02*
X134542857Y-84386428D01*
X134542857Y-84386428D02*
X134161905Y-84386428D01*
X135066667Y-83862619D02*
X135733333Y-83862619D01*
X135733333Y-83862619D02*
X135304762Y-84862619D01*
%TO.C,C1*%
X141833333Y-112667380D02*
X141785714Y-112715000D01*
X141785714Y-112715000D02*
X141642857Y-112762619D01*
X141642857Y-112762619D02*
X141547619Y-112762619D01*
X141547619Y-112762619D02*
X141404762Y-112715000D01*
X141404762Y-112715000D02*
X141309524Y-112619761D01*
X141309524Y-112619761D02*
X141261905Y-112524523D01*
X141261905Y-112524523D02*
X141214286Y-112334047D01*
X141214286Y-112334047D02*
X141214286Y-112191190D01*
X141214286Y-112191190D02*
X141261905Y-112000714D01*
X141261905Y-112000714D02*
X141309524Y-111905476D01*
X141309524Y-111905476D02*
X141404762Y-111810238D01*
X141404762Y-111810238D02*
X141547619Y-111762619D01*
X141547619Y-111762619D02*
X141642857Y-111762619D01*
X141642857Y-111762619D02*
X141785714Y-111810238D01*
X141785714Y-111810238D02*
X141833333Y-111857857D01*
X142785714Y-112762619D02*
X142214286Y-112762619D01*
X142500000Y-112762619D02*
X142500000Y-111762619D01*
X142500000Y-111762619D02*
X142404762Y-111905476D01*
X142404762Y-111905476D02*
X142309524Y-112000714D01*
X142309524Y-112000714D02*
X142214286Y-112048333D01*
%TO.C,R5*%
X154833333Y-107092619D02*
X154500000Y-106616428D01*
X154261905Y-107092619D02*
X154261905Y-106092619D01*
X154261905Y-106092619D02*
X154642857Y-106092619D01*
X154642857Y-106092619D02*
X154738095Y-106140238D01*
X154738095Y-106140238D02*
X154785714Y-106187857D01*
X154785714Y-106187857D02*
X154833333Y-106283095D01*
X154833333Y-106283095D02*
X154833333Y-106425952D01*
X154833333Y-106425952D02*
X154785714Y-106521190D01*
X154785714Y-106521190D02*
X154738095Y-106568809D01*
X154738095Y-106568809D02*
X154642857Y-106616428D01*
X154642857Y-106616428D02*
X154261905Y-106616428D01*
X155738095Y-106092619D02*
X155261905Y-106092619D01*
X155261905Y-106092619D02*
X155214286Y-106568809D01*
X155214286Y-106568809D02*
X155261905Y-106521190D01*
X155261905Y-106521190D02*
X155357143Y-106473571D01*
X155357143Y-106473571D02*
X155595238Y-106473571D01*
X155595238Y-106473571D02*
X155690476Y-106521190D01*
X155690476Y-106521190D02*
X155738095Y-106568809D01*
X155738095Y-106568809D02*
X155785714Y-106664047D01*
X155785714Y-106664047D02*
X155785714Y-106902142D01*
X155785714Y-106902142D02*
X155738095Y-106997380D01*
X155738095Y-106997380D02*
X155690476Y-107045000D01*
X155690476Y-107045000D02*
X155595238Y-107092619D01*
X155595238Y-107092619D02*
X155357143Y-107092619D01*
X155357143Y-107092619D02*
X155261905Y-107045000D01*
X155261905Y-107045000D02*
X155214286Y-106997380D01*
%TO.C,C5*%
X123833333Y-86617380D02*
X123785714Y-86665000D01*
X123785714Y-86665000D02*
X123642857Y-86712619D01*
X123642857Y-86712619D02*
X123547619Y-86712619D01*
X123547619Y-86712619D02*
X123404762Y-86665000D01*
X123404762Y-86665000D02*
X123309524Y-86569761D01*
X123309524Y-86569761D02*
X123261905Y-86474523D01*
X123261905Y-86474523D02*
X123214286Y-86284047D01*
X123214286Y-86284047D02*
X123214286Y-86141190D01*
X123214286Y-86141190D02*
X123261905Y-85950714D01*
X123261905Y-85950714D02*
X123309524Y-85855476D01*
X123309524Y-85855476D02*
X123404762Y-85760238D01*
X123404762Y-85760238D02*
X123547619Y-85712619D01*
X123547619Y-85712619D02*
X123642857Y-85712619D01*
X123642857Y-85712619D02*
X123785714Y-85760238D01*
X123785714Y-85760238D02*
X123833333Y-85807857D01*
X124738095Y-85712619D02*
X124261905Y-85712619D01*
X124261905Y-85712619D02*
X124214286Y-86188809D01*
X124214286Y-86188809D02*
X124261905Y-86141190D01*
X124261905Y-86141190D02*
X124357143Y-86093571D01*
X124357143Y-86093571D02*
X124595238Y-86093571D01*
X124595238Y-86093571D02*
X124690476Y-86141190D01*
X124690476Y-86141190D02*
X124738095Y-86188809D01*
X124738095Y-86188809D02*
X124785714Y-86284047D01*
X124785714Y-86284047D02*
X124785714Y-86522142D01*
X124785714Y-86522142D02*
X124738095Y-86617380D01*
X124738095Y-86617380D02*
X124690476Y-86665000D01*
X124690476Y-86665000D02*
X124595238Y-86712619D01*
X124595238Y-86712619D02*
X124357143Y-86712619D01*
X124357143Y-86712619D02*
X124261905Y-86665000D01*
X124261905Y-86665000D02*
X124214286Y-86617380D01*
%TO.C,U1*%
X163238095Y-101462619D02*
X163238095Y-102272142D01*
X163238095Y-102272142D02*
X163285714Y-102367380D01*
X163285714Y-102367380D02*
X163333333Y-102415000D01*
X163333333Y-102415000D02*
X163428571Y-102462619D01*
X163428571Y-102462619D02*
X163619047Y-102462619D01*
X163619047Y-102462619D02*
X163714285Y-102415000D01*
X163714285Y-102415000D02*
X163761904Y-102367380D01*
X163761904Y-102367380D02*
X163809523Y-102272142D01*
X163809523Y-102272142D02*
X163809523Y-101462619D01*
X164809523Y-102462619D02*
X164238095Y-102462619D01*
X164523809Y-102462619D02*
X164523809Y-101462619D01*
X164523809Y-101462619D02*
X164428571Y-101605476D01*
X164428571Y-101605476D02*
X164333333Y-101700714D01*
X164333333Y-101700714D02*
X164238095Y-101748333D01*
%TO.C,R6*%
X148120619Y-86166666D02*
X147644428Y-86499999D01*
X148120619Y-86738094D02*
X147120619Y-86738094D01*
X147120619Y-86738094D02*
X147120619Y-86357142D01*
X147120619Y-86357142D02*
X147168238Y-86261904D01*
X147168238Y-86261904D02*
X147215857Y-86214285D01*
X147215857Y-86214285D02*
X147311095Y-86166666D01*
X147311095Y-86166666D02*
X147453952Y-86166666D01*
X147453952Y-86166666D02*
X147549190Y-86214285D01*
X147549190Y-86214285D02*
X147596809Y-86261904D01*
X147596809Y-86261904D02*
X147644428Y-86357142D01*
X147644428Y-86357142D02*
X147644428Y-86738094D01*
X147120619Y-85309523D02*
X147120619Y-85499999D01*
X147120619Y-85499999D02*
X147168238Y-85595237D01*
X147168238Y-85595237D02*
X147215857Y-85642856D01*
X147215857Y-85642856D02*
X147358714Y-85738094D01*
X147358714Y-85738094D02*
X147549190Y-85785713D01*
X147549190Y-85785713D02*
X147930142Y-85785713D01*
X147930142Y-85785713D02*
X148025380Y-85738094D01*
X148025380Y-85738094D02*
X148073000Y-85690475D01*
X148073000Y-85690475D02*
X148120619Y-85595237D01*
X148120619Y-85595237D02*
X148120619Y-85404761D01*
X148120619Y-85404761D02*
X148073000Y-85309523D01*
X148073000Y-85309523D02*
X148025380Y-85261904D01*
X148025380Y-85261904D02*
X147930142Y-85214285D01*
X147930142Y-85214285D02*
X147692047Y-85214285D01*
X147692047Y-85214285D02*
X147596809Y-85261904D01*
X147596809Y-85261904D02*
X147549190Y-85309523D01*
X147549190Y-85309523D02*
X147501571Y-85404761D01*
X147501571Y-85404761D02*
X147501571Y-85595237D01*
X147501571Y-85595237D02*
X147549190Y-85690475D01*
X147549190Y-85690475D02*
X147596809Y-85738094D01*
X147596809Y-85738094D02*
X147692047Y-85785713D01*
D13*
%TO.C,C2*%
X148195225Y-114525000D02*
X148695225Y-114525000D01*
X148445225Y-114275000D02*
X148445225Y-114775000D01*
X151000000Y-113420000D02*
X151000000Y-114960000D01*
X151000000Y-117040000D02*
X151000000Y-118580000D01*
X151040000Y-113420000D02*
X151040000Y-114960000D01*
X151040000Y-117040000D02*
X151040000Y-118580000D01*
X151080000Y-113421000D02*
X151080000Y-114960000D01*
X151080000Y-117040000D02*
X151080000Y-118579000D01*
X151120000Y-113422000D02*
X151120000Y-114960000D01*
X151120000Y-117040000D02*
X151120000Y-118578000D01*
X151160000Y-113424000D02*
X151160000Y-114960000D01*
X151160000Y-117040000D02*
X151160000Y-118576000D01*
X151200000Y-113427000D02*
X151200000Y-114960000D01*
X151200000Y-117040000D02*
X151200000Y-118573000D01*
X151240000Y-113431000D02*
X151240000Y-114960000D01*
X151240000Y-117040000D02*
X151240000Y-118569000D01*
X151280000Y-113435000D02*
X151280000Y-114960000D01*
X151280000Y-117040000D02*
X151280000Y-118565000D01*
X151320000Y-113439000D02*
X151320000Y-114960000D01*
X151320000Y-117040000D02*
X151320000Y-118561000D01*
X151360000Y-113444000D02*
X151360000Y-114960000D01*
X151360000Y-117040000D02*
X151360000Y-118556000D01*
X151400000Y-113450000D02*
X151400000Y-114960000D01*
X151400000Y-117040000D02*
X151400000Y-118550000D01*
X151440000Y-113457000D02*
X151440000Y-114960000D01*
X151440000Y-117040000D02*
X151440000Y-118543000D01*
X151480000Y-113464000D02*
X151480000Y-114960000D01*
X151480000Y-117040000D02*
X151480000Y-118536000D01*
X151520000Y-113472000D02*
X151520000Y-114960000D01*
X151520000Y-117040000D02*
X151520000Y-118528000D01*
X151560000Y-113480000D02*
X151560000Y-114960000D01*
X151560000Y-117040000D02*
X151560000Y-118520000D01*
X151600000Y-113489000D02*
X151600000Y-114960000D01*
X151600000Y-117040000D02*
X151600000Y-118511000D01*
X151640000Y-113499000D02*
X151640000Y-114960000D01*
X151640000Y-117040000D02*
X151640000Y-118501000D01*
X151680000Y-113509000D02*
X151680000Y-114960000D01*
X151680000Y-117040000D02*
X151680000Y-118491000D01*
X151721000Y-113520000D02*
X151721000Y-114960000D01*
X151721000Y-117040000D02*
X151721000Y-118480000D01*
X151761000Y-113532000D02*
X151761000Y-114960000D01*
X151761000Y-117040000D02*
X151761000Y-118468000D01*
X151801000Y-113545000D02*
X151801000Y-114960000D01*
X151801000Y-117040000D02*
X151801000Y-118455000D01*
X151841000Y-113558000D02*
X151841000Y-114960000D01*
X151841000Y-117040000D02*
X151841000Y-118442000D01*
X151881000Y-113572000D02*
X151881000Y-114960000D01*
X151881000Y-117040000D02*
X151881000Y-118428000D01*
X151921000Y-113586000D02*
X151921000Y-114960000D01*
X151921000Y-117040000D02*
X151921000Y-118414000D01*
X151961000Y-113602000D02*
X151961000Y-114960000D01*
X151961000Y-117040000D02*
X151961000Y-118398000D01*
X152001000Y-113618000D02*
X152001000Y-114960000D01*
X152001000Y-117040000D02*
X152001000Y-118382000D01*
X152041000Y-113635000D02*
X152041000Y-114960000D01*
X152041000Y-117040000D02*
X152041000Y-118365000D01*
X152081000Y-113652000D02*
X152081000Y-114960000D01*
X152081000Y-117040000D02*
X152081000Y-118348000D01*
X152121000Y-113671000D02*
X152121000Y-114960000D01*
X152121000Y-117040000D02*
X152121000Y-118329000D01*
X152161000Y-113690000D02*
X152161000Y-114960000D01*
X152161000Y-117040000D02*
X152161000Y-118310000D01*
X152201000Y-113710000D02*
X152201000Y-114960000D01*
X152201000Y-117040000D02*
X152201000Y-118290000D01*
X152241000Y-113732000D02*
X152241000Y-114960000D01*
X152241000Y-117040000D02*
X152241000Y-118268000D01*
X152281000Y-113753000D02*
X152281000Y-114960000D01*
X152281000Y-117040000D02*
X152281000Y-118247000D01*
X152321000Y-113776000D02*
X152321000Y-114960000D01*
X152321000Y-117040000D02*
X152321000Y-118224000D01*
X152361000Y-113800000D02*
X152361000Y-114960000D01*
X152361000Y-117040000D02*
X152361000Y-118200000D01*
X152401000Y-113825000D02*
X152401000Y-114960000D01*
X152401000Y-117040000D02*
X152401000Y-118175000D01*
X152441000Y-113851000D02*
X152441000Y-114960000D01*
X152441000Y-117040000D02*
X152441000Y-118149000D01*
X152481000Y-113878000D02*
X152481000Y-114960000D01*
X152481000Y-117040000D02*
X152481000Y-118122000D01*
X152521000Y-113905000D02*
X152521000Y-114960000D01*
X152521000Y-117040000D02*
X152521000Y-118095000D01*
X152561000Y-113935000D02*
X152561000Y-114960000D01*
X152561000Y-117040000D02*
X152561000Y-118065000D01*
X152601000Y-113965000D02*
X152601000Y-114960000D01*
X152601000Y-117040000D02*
X152601000Y-118035000D01*
X152641000Y-113996000D02*
X152641000Y-114960000D01*
X152641000Y-117040000D02*
X152641000Y-118004000D01*
X152681000Y-114029000D02*
X152681000Y-114960000D01*
X152681000Y-117040000D02*
X152681000Y-117971000D01*
X152721000Y-114063000D02*
X152721000Y-114960000D01*
X152721000Y-117040000D02*
X152721000Y-117937000D01*
X152761000Y-114099000D02*
X152761000Y-114960000D01*
X152761000Y-117040000D02*
X152761000Y-117901000D01*
X152801000Y-114136000D02*
X152801000Y-114960000D01*
X152801000Y-117040000D02*
X152801000Y-117864000D01*
X152841000Y-114174000D02*
X152841000Y-114960000D01*
X152841000Y-117040000D02*
X152841000Y-117826000D01*
X152881000Y-114215000D02*
X152881000Y-114960000D01*
X152881000Y-117040000D02*
X152881000Y-117785000D01*
X152921000Y-114257000D02*
X152921000Y-114960000D01*
X152921000Y-117040000D02*
X152921000Y-117743000D01*
X152961000Y-114301000D02*
X152961000Y-114960000D01*
X152961000Y-117040000D02*
X152961000Y-117699000D01*
X153001000Y-114347000D02*
X153001000Y-114960000D01*
X153001000Y-117040000D02*
X153001000Y-117653000D01*
X153041000Y-114395000D02*
X153041000Y-117605000D01*
X153081000Y-114446000D02*
X153081000Y-117554000D01*
X153121000Y-114500000D02*
X153121000Y-117500000D01*
X153161000Y-114557000D02*
X153161000Y-117443000D01*
X153201000Y-114617000D02*
X153201000Y-117383000D01*
X153241000Y-114681000D02*
X153241000Y-117319000D01*
X153281000Y-114749000D02*
X153281000Y-117251000D01*
X153321000Y-114822000D02*
X153321000Y-117178000D01*
X153361000Y-114902000D02*
X153361000Y-117098000D01*
X153401000Y-114989000D02*
X153401000Y-117011000D01*
X153441000Y-115085000D02*
X153441000Y-116915000D01*
X153481000Y-115195000D02*
X153481000Y-116805000D01*
X153521000Y-115323000D02*
X153521000Y-116677000D01*
X153561000Y-115482000D02*
X153561000Y-116518000D01*
X153601000Y-115716000D02*
X153601000Y-116284000D01*
X153620000Y-116000000D02*
G75*
G03*
X153620000Y-116000000I-2620000J0D01*
G01*
%TO.C,SW1*%
X114145000Y-117330000D02*
X114145000Y-116000000D01*
X115475000Y-117330000D02*
X114145000Y-117330000D01*
X116745000Y-117330000D02*
X121885000Y-117330000D01*
X116745000Y-117330000D02*
X116745000Y-114670000D01*
X121885000Y-117330000D02*
X121885000Y-114670000D01*
X116745000Y-114670000D02*
X121885000Y-114670000D01*
%TO.C,R2*%
X145288000Y-104243000D02*
X145288000Y-103473000D01*
X143918000Y-103473000D02*
X146658000Y-103473000D01*
X146658000Y-103473000D02*
X146658000Y-96933000D01*
X143918000Y-96933000D02*
X143918000Y-103473000D01*
X146658000Y-96933000D02*
X143918000Y-96933000D01*
X145288000Y-96163000D02*
X145288000Y-96933000D01*
%TO.C,D4*%
X123740000Y-82000000D02*
X122720000Y-82000000D01*
X122720000Y-83470000D02*
X122720000Y-80530000D01*
X122720000Y-80530000D02*
X117280000Y-80530000D01*
X121940000Y-83470000D02*
X121940000Y-80530000D01*
X121820000Y-83470000D02*
X121820000Y-80530000D01*
X121700000Y-83470000D02*
X121700000Y-80530000D01*
X117280000Y-83470000D02*
X122720000Y-83470000D01*
X117280000Y-80530000D02*
X117280000Y-83470000D01*
X116260000Y-82000000D02*
X117280000Y-82000000D01*
%TO.C,R1*%
X130961000Y-87000000D02*
X131731000Y-87000000D01*
X131731000Y-85630000D02*
X131731000Y-88370000D01*
X131731000Y-88370000D02*
X138271000Y-88370000D01*
X138271000Y-85630000D02*
X131731000Y-85630000D01*
X138271000Y-88370000D02*
X138271000Y-85630000D01*
X139041000Y-87000000D02*
X138271000Y-87000000D01*
%TO.C,R3*%
X150749000Y-81960000D02*
X150749000Y-82730000D01*
X152119000Y-82730000D02*
X149379000Y-82730000D01*
X149379000Y-82730000D02*
X149379000Y-89270000D01*
X152119000Y-89270000D02*
X152119000Y-82730000D01*
X149379000Y-89270000D02*
X152119000Y-89270000D01*
X150749000Y-90040000D02*
X150749000Y-89270000D01*
%TO.C,J1*%
X104670000Y-88510000D02*
X106000000Y-88510000D01*
X104670000Y-89840000D02*
X104670000Y-88510000D01*
X104670000Y-91110000D02*
X104670000Y-108950000D01*
X104670000Y-91110000D02*
X107270000Y-91110000D01*
X104670000Y-108950000D02*
X109870000Y-108950000D01*
X107270000Y-88510000D02*
X109870000Y-88510000D01*
X107270000Y-91110000D02*
X107270000Y-88510000D01*
X109870000Y-88510000D02*
X109870000Y-108950000D01*
%TO.C,U2*%
X129760000Y-91810000D02*
X129760000Y-102210000D01*
X129760000Y-102210000D02*
X140260000Y-102210000D01*
X132760000Y-91870000D02*
X132760000Y-102150000D01*
X132760000Y-102150000D02*
X137260000Y-102150000D01*
X134010000Y-91870000D02*
X132760000Y-91870000D01*
X137260000Y-91870000D02*
X136010000Y-91870000D01*
X137260000Y-102150000D02*
X137260000Y-91870000D01*
X140260000Y-91810000D02*
X129760000Y-91810000D01*
X140260000Y-102210000D02*
X140260000Y-91810000D01*
X134010000Y-91870000D02*
G75*
G03*
X136010000Y-91870000I1000000J0D01*
G01*
%TO.C,R8*%
X169000000Y-98040000D02*
X169000000Y-97270000D01*
X167630000Y-97270000D02*
X170370000Y-97270000D01*
X170370000Y-97270000D02*
X170370000Y-90730000D01*
X167630000Y-90730000D02*
X167630000Y-97270000D01*
X170370000Y-90730000D02*
X167630000Y-90730000D01*
X169000000Y-89960000D02*
X169000000Y-90730000D01*
%TO.C,J4*%
X127590000Y-117330000D02*
X127590000Y-116000000D01*
X128920000Y-117330000D02*
X127590000Y-117330000D01*
X130190000Y-117330000D02*
X135330000Y-117330000D01*
X130190000Y-117330000D02*
X130190000Y-114670000D01*
X135330000Y-117330000D02*
X135330000Y-114670000D01*
X130190000Y-114670000D02*
X135330000Y-114670000D01*
%TO.C,D1*%
X116260000Y-97000000D02*
X117280000Y-97000000D01*
X117280000Y-95530000D02*
X117280000Y-98470000D01*
X117280000Y-98470000D02*
X122720000Y-98470000D01*
X118060000Y-95530000D02*
X118060000Y-98470000D01*
X118180000Y-95530000D02*
X118180000Y-98470000D01*
X118300000Y-95530000D02*
X118300000Y-98470000D01*
X122720000Y-95530000D02*
X117280000Y-95530000D01*
X122720000Y-98470000D02*
X122720000Y-95530000D01*
X123740000Y-97000000D02*
X122720000Y-97000000D01*
%TO.C,J6*%
X170330000Y-109870000D02*
X169000000Y-109870000D01*
X170330000Y-108540000D02*
X170330000Y-109870000D01*
X170330000Y-107270000D02*
X170330000Y-102130000D01*
X170330000Y-107270000D02*
X167670000Y-107270000D01*
X170330000Y-102130000D02*
X167670000Y-102130000D01*
X167670000Y-107270000D02*
X167670000Y-102130000D01*
%TO.C,R4*%
X150960000Y-104000000D02*
X151730000Y-104000000D01*
X151730000Y-102630000D02*
X151730000Y-105370000D01*
X151730000Y-105370000D02*
X158270000Y-105370000D01*
X158270000Y-102630000D02*
X151730000Y-102630000D01*
X158270000Y-105370000D02*
X158270000Y-102630000D01*
X159040000Y-104000000D02*
X158270000Y-104000000D01*
%TO.C,C4*%
X113195225Y-88525000D02*
X113695225Y-88525000D01*
X113445225Y-88275000D02*
X113445225Y-88775000D01*
X116000000Y-87420000D02*
X116000000Y-88960000D01*
X116000000Y-91040000D02*
X116000000Y-92580000D01*
X116040000Y-87420000D02*
X116040000Y-88960000D01*
X116040000Y-91040000D02*
X116040000Y-92580000D01*
X116080000Y-87421000D02*
X116080000Y-88960000D01*
X116080000Y-91040000D02*
X116080000Y-92579000D01*
X116120000Y-87422000D02*
X116120000Y-88960000D01*
X116120000Y-91040000D02*
X116120000Y-92578000D01*
X116160000Y-87424000D02*
X116160000Y-88960000D01*
X116160000Y-91040000D02*
X116160000Y-92576000D01*
X116200000Y-87427000D02*
X116200000Y-88960000D01*
X116200000Y-91040000D02*
X116200000Y-92573000D01*
X116240000Y-87431000D02*
X116240000Y-88960000D01*
X116240000Y-91040000D02*
X116240000Y-92569000D01*
X116280000Y-87435000D02*
X116280000Y-88960000D01*
X116280000Y-91040000D02*
X116280000Y-92565000D01*
X116320000Y-87439000D02*
X116320000Y-88960000D01*
X116320000Y-91040000D02*
X116320000Y-92561000D01*
X116360000Y-87444000D02*
X116360000Y-88960000D01*
X116360000Y-91040000D02*
X116360000Y-92556000D01*
X116400000Y-87450000D02*
X116400000Y-88960000D01*
X116400000Y-91040000D02*
X116400000Y-92550000D01*
X116440000Y-87457000D02*
X116440000Y-88960000D01*
X116440000Y-91040000D02*
X116440000Y-92543000D01*
X116480000Y-87464000D02*
X116480000Y-88960000D01*
X116480000Y-91040000D02*
X116480000Y-92536000D01*
X116520000Y-87472000D02*
X116520000Y-88960000D01*
X116520000Y-91040000D02*
X116520000Y-92528000D01*
X116560000Y-87480000D02*
X116560000Y-88960000D01*
X116560000Y-91040000D02*
X116560000Y-92520000D01*
X116600000Y-87489000D02*
X116600000Y-88960000D01*
X116600000Y-91040000D02*
X116600000Y-92511000D01*
X116640000Y-87499000D02*
X116640000Y-88960000D01*
X116640000Y-91040000D02*
X116640000Y-92501000D01*
X116680000Y-87509000D02*
X116680000Y-88960000D01*
X116680000Y-91040000D02*
X116680000Y-92491000D01*
X116721000Y-87520000D02*
X116721000Y-88960000D01*
X116721000Y-91040000D02*
X116721000Y-92480000D01*
X116761000Y-87532000D02*
X116761000Y-88960000D01*
X116761000Y-91040000D02*
X116761000Y-92468000D01*
X116801000Y-87545000D02*
X116801000Y-88960000D01*
X116801000Y-91040000D02*
X116801000Y-92455000D01*
X116841000Y-87558000D02*
X116841000Y-88960000D01*
X116841000Y-91040000D02*
X116841000Y-92442000D01*
X116881000Y-87572000D02*
X116881000Y-88960000D01*
X116881000Y-91040000D02*
X116881000Y-92428000D01*
X116921000Y-87586000D02*
X116921000Y-88960000D01*
X116921000Y-91040000D02*
X116921000Y-92414000D01*
X116961000Y-87602000D02*
X116961000Y-88960000D01*
X116961000Y-91040000D02*
X116961000Y-92398000D01*
X117001000Y-87618000D02*
X117001000Y-88960000D01*
X117001000Y-91040000D02*
X117001000Y-92382000D01*
X117041000Y-87635000D02*
X117041000Y-88960000D01*
X117041000Y-91040000D02*
X117041000Y-92365000D01*
X117081000Y-87652000D02*
X117081000Y-88960000D01*
X117081000Y-91040000D02*
X117081000Y-92348000D01*
X117121000Y-87671000D02*
X117121000Y-88960000D01*
X117121000Y-91040000D02*
X117121000Y-92329000D01*
X117161000Y-87690000D02*
X117161000Y-88960000D01*
X117161000Y-91040000D02*
X117161000Y-92310000D01*
X117201000Y-87710000D02*
X117201000Y-88960000D01*
X117201000Y-91040000D02*
X117201000Y-92290000D01*
X117241000Y-87732000D02*
X117241000Y-88960000D01*
X117241000Y-91040000D02*
X117241000Y-92268000D01*
X117281000Y-87753000D02*
X117281000Y-88960000D01*
X117281000Y-91040000D02*
X117281000Y-92247000D01*
X117321000Y-87776000D02*
X117321000Y-88960000D01*
X117321000Y-91040000D02*
X117321000Y-92224000D01*
X117361000Y-87800000D02*
X117361000Y-88960000D01*
X117361000Y-91040000D02*
X117361000Y-92200000D01*
X117401000Y-87825000D02*
X117401000Y-88960000D01*
X117401000Y-91040000D02*
X117401000Y-92175000D01*
X117441000Y-87851000D02*
X117441000Y-88960000D01*
X117441000Y-91040000D02*
X117441000Y-92149000D01*
X117481000Y-87878000D02*
X117481000Y-88960000D01*
X117481000Y-91040000D02*
X117481000Y-92122000D01*
X117521000Y-87905000D02*
X117521000Y-88960000D01*
X117521000Y-91040000D02*
X117521000Y-92095000D01*
X117561000Y-87935000D02*
X117561000Y-88960000D01*
X117561000Y-91040000D02*
X117561000Y-92065000D01*
X117601000Y-87965000D02*
X117601000Y-88960000D01*
X117601000Y-91040000D02*
X117601000Y-92035000D01*
X117641000Y-87996000D02*
X117641000Y-88960000D01*
X117641000Y-91040000D02*
X117641000Y-92004000D01*
X117681000Y-88029000D02*
X117681000Y-88960000D01*
X117681000Y-91040000D02*
X117681000Y-91971000D01*
X117721000Y-88063000D02*
X117721000Y-88960000D01*
X117721000Y-91040000D02*
X117721000Y-91937000D01*
X117761000Y-88099000D02*
X117761000Y-88960000D01*
X117761000Y-91040000D02*
X117761000Y-91901000D01*
X117801000Y-88136000D02*
X117801000Y-88960000D01*
X117801000Y-91040000D02*
X117801000Y-91864000D01*
X117841000Y-88174000D02*
X117841000Y-88960000D01*
X117841000Y-91040000D02*
X117841000Y-91826000D01*
X117881000Y-88215000D02*
X117881000Y-88960000D01*
X117881000Y-91040000D02*
X117881000Y-91785000D01*
X117921000Y-88257000D02*
X117921000Y-88960000D01*
X117921000Y-91040000D02*
X117921000Y-91743000D01*
X117961000Y-88301000D02*
X117961000Y-88960000D01*
X117961000Y-91040000D02*
X117961000Y-91699000D01*
X118001000Y-88347000D02*
X118001000Y-88960000D01*
X118001000Y-91040000D02*
X118001000Y-91653000D01*
X118041000Y-88395000D02*
X118041000Y-91605000D01*
X118081000Y-88446000D02*
X118081000Y-91554000D01*
X118121000Y-88500000D02*
X118121000Y-91500000D01*
X118161000Y-88557000D02*
X118161000Y-91443000D01*
X118201000Y-88617000D02*
X118201000Y-91383000D01*
X118241000Y-88681000D02*
X118241000Y-91319000D01*
X118281000Y-88749000D02*
X118281000Y-91251000D01*
X118321000Y-88822000D02*
X118321000Y-91178000D01*
X118361000Y-88902000D02*
X118361000Y-91098000D01*
X118401000Y-88989000D02*
X118401000Y-91011000D01*
X118441000Y-89085000D02*
X118441000Y-90915000D01*
X118481000Y-89195000D02*
X118481000Y-90805000D01*
X118521000Y-89323000D02*
X118521000Y-90677000D01*
X118561000Y-89482000D02*
X118561000Y-90518000D01*
X118601000Y-89716000D02*
X118601000Y-90284000D01*
X118620000Y-90000000D02*
G75*
G03*
X118620000Y-90000000I-2620000J0D01*
G01*
%TO.C,C3*%
X157195225Y-114525000D02*
X157695225Y-114525000D01*
X157445225Y-114275000D02*
X157445225Y-114775000D01*
X160000000Y-113420000D02*
X160000000Y-114960000D01*
X160000000Y-117040000D02*
X160000000Y-118580000D01*
X160040000Y-113420000D02*
X160040000Y-114960000D01*
X160040000Y-117040000D02*
X160040000Y-118580000D01*
X160080000Y-113421000D02*
X160080000Y-114960000D01*
X160080000Y-117040000D02*
X160080000Y-118579000D01*
X160120000Y-113422000D02*
X160120000Y-114960000D01*
X160120000Y-117040000D02*
X160120000Y-118578000D01*
X160160000Y-113424000D02*
X160160000Y-114960000D01*
X160160000Y-117040000D02*
X160160000Y-118576000D01*
X160200000Y-113427000D02*
X160200000Y-114960000D01*
X160200000Y-117040000D02*
X160200000Y-118573000D01*
X160240000Y-113431000D02*
X160240000Y-114960000D01*
X160240000Y-117040000D02*
X160240000Y-118569000D01*
X160280000Y-113435000D02*
X160280000Y-114960000D01*
X160280000Y-117040000D02*
X160280000Y-118565000D01*
X160320000Y-113439000D02*
X160320000Y-114960000D01*
X160320000Y-117040000D02*
X160320000Y-118561000D01*
X160360000Y-113444000D02*
X160360000Y-114960000D01*
X160360000Y-117040000D02*
X160360000Y-118556000D01*
X160400000Y-113450000D02*
X160400000Y-114960000D01*
X160400000Y-117040000D02*
X160400000Y-118550000D01*
X160440000Y-113457000D02*
X160440000Y-114960000D01*
X160440000Y-117040000D02*
X160440000Y-118543000D01*
X160480000Y-113464000D02*
X160480000Y-114960000D01*
X160480000Y-117040000D02*
X160480000Y-118536000D01*
X160520000Y-113472000D02*
X160520000Y-114960000D01*
X160520000Y-117040000D02*
X160520000Y-118528000D01*
X160560000Y-113480000D02*
X160560000Y-114960000D01*
X160560000Y-117040000D02*
X160560000Y-118520000D01*
X160600000Y-113489000D02*
X160600000Y-114960000D01*
X160600000Y-117040000D02*
X160600000Y-118511000D01*
X160640000Y-113499000D02*
X160640000Y-114960000D01*
X160640000Y-117040000D02*
X160640000Y-118501000D01*
X160680000Y-113509000D02*
X160680000Y-114960000D01*
X160680000Y-117040000D02*
X160680000Y-118491000D01*
X160721000Y-113520000D02*
X160721000Y-114960000D01*
X160721000Y-117040000D02*
X160721000Y-118480000D01*
X160761000Y-113532000D02*
X160761000Y-114960000D01*
X160761000Y-117040000D02*
X160761000Y-118468000D01*
X160801000Y-113545000D02*
X160801000Y-114960000D01*
X160801000Y-117040000D02*
X160801000Y-118455000D01*
X160841000Y-113558000D02*
X160841000Y-114960000D01*
X160841000Y-117040000D02*
X160841000Y-118442000D01*
X160881000Y-113572000D02*
X160881000Y-114960000D01*
X160881000Y-117040000D02*
X160881000Y-118428000D01*
X160921000Y-113586000D02*
X160921000Y-114960000D01*
X160921000Y-117040000D02*
X160921000Y-118414000D01*
X160961000Y-113602000D02*
X160961000Y-114960000D01*
X160961000Y-117040000D02*
X160961000Y-118398000D01*
X161001000Y-113618000D02*
X161001000Y-114960000D01*
X161001000Y-117040000D02*
X161001000Y-118382000D01*
X161041000Y-113635000D02*
X161041000Y-114960000D01*
X161041000Y-117040000D02*
X161041000Y-118365000D01*
X161081000Y-113652000D02*
X161081000Y-114960000D01*
X161081000Y-117040000D02*
X161081000Y-118348000D01*
X161121000Y-113671000D02*
X161121000Y-114960000D01*
X161121000Y-117040000D02*
X161121000Y-118329000D01*
X161161000Y-113690000D02*
X161161000Y-114960000D01*
X161161000Y-117040000D02*
X161161000Y-118310000D01*
X161201000Y-113710000D02*
X161201000Y-114960000D01*
X161201000Y-117040000D02*
X161201000Y-118290000D01*
X161241000Y-113732000D02*
X161241000Y-114960000D01*
X161241000Y-117040000D02*
X161241000Y-118268000D01*
X161281000Y-113753000D02*
X161281000Y-114960000D01*
X161281000Y-117040000D02*
X161281000Y-118247000D01*
X161321000Y-113776000D02*
X161321000Y-114960000D01*
X161321000Y-117040000D02*
X161321000Y-118224000D01*
X161361000Y-113800000D02*
X161361000Y-114960000D01*
X161361000Y-117040000D02*
X161361000Y-118200000D01*
X161401000Y-113825000D02*
X161401000Y-114960000D01*
X161401000Y-117040000D02*
X161401000Y-118175000D01*
X161441000Y-113851000D02*
X161441000Y-114960000D01*
X161441000Y-117040000D02*
X161441000Y-118149000D01*
X161481000Y-113878000D02*
X161481000Y-114960000D01*
X161481000Y-117040000D02*
X161481000Y-118122000D01*
X161521000Y-113905000D02*
X161521000Y-114960000D01*
X161521000Y-117040000D02*
X161521000Y-118095000D01*
X161561000Y-113935000D02*
X161561000Y-114960000D01*
X161561000Y-117040000D02*
X161561000Y-118065000D01*
X161601000Y-113965000D02*
X161601000Y-114960000D01*
X161601000Y-117040000D02*
X161601000Y-118035000D01*
X161641000Y-113996000D02*
X161641000Y-114960000D01*
X161641000Y-117040000D02*
X161641000Y-118004000D01*
X161681000Y-114029000D02*
X161681000Y-114960000D01*
X161681000Y-117040000D02*
X161681000Y-117971000D01*
X161721000Y-114063000D02*
X161721000Y-114960000D01*
X161721000Y-117040000D02*
X161721000Y-117937000D01*
X161761000Y-114099000D02*
X161761000Y-114960000D01*
X161761000Y-117040000D02*
X161761000Y-117901000D01*
X161801000Y-114136000D02*
X161801000Y-114960000D01*
X161801000Y-117040000D02*
X161801000Y-117864000D01*
X161841000Y-114174000D02*
X161841000Y-114960000D01*
X161841000Y-117040000D02*
X161841000Y-117826000D01*
X161881000Y-114215000D02*
X161881000Y-114960000D01*
X161881000Y-117040000D02*
X161881000Y-117785000D01*
X161921000Y-114257000D02*
X161921000Y-114960000D01*
X161921000Y-117040000D02*
X161921000Y-117743000D01*
X161961000Y-114301000D02*
X161961000Y-114960000D01*
X161961000Y-117040000D02*
X161961000Y-117699000D01*
X162001000Y-114347000D02*
X162001000Y-114960000D01*
X162001000Y-117040000D02*
X162001000Y-117653000D01*
X162041000Y-114395000D02*
X162041000Y-117605000D01*
X162081000Y-114446000D02*
X162081000Y-117554000D01*
X162121000Y-114500000D02*
X162121000Y-117500000D01*
X162161000Y-114557000D02*
X162161000Y-117443000D01*
X162201000Y-114617000D02*
X162201000Y-117383000D01*
X162241000Y-114681000D02*
X162241000Y-117319000D01*
X162281000Y-114749000D02*
X162281000Y-117251000D01*
X162321000Y-114822000D02*
X162321000Y-117178000D01*
X162361000Y-114902000D02*
X162361000Y-117098000D01*
X162401000Y-114989000D02*
X162401000Y-117011000D01*
X162441000Y-115085000D02*
X162441000Y-116915000D01*
X162481000Y-115195000D02*
X162481000Y-116805000D01*
X162521000Y-115323000D02*
X162521000Y-116677000D01*
X162561000Y-115482000D02*
X162561000Y-116518000D01*
X162601000Y-115716000D02*
X162601000Y-116284000D01*
X162620000Y-116000000D02*
G75*
G03*
X162620000Y-116000000I-2620000J0D01*
G01*
%TO.C,R7*%
X130960000Y-82000000D02*
X131730000Y-82000000D01*
X131730000Y-80630000D02*
X131730000Y-83370000D01*
X131730000Y-83370000D02*
X138270000Y-83370000D01*
X138270000Y-80630000D02*
X131730000Y-80630000D01*
X138270000Y-83370000D02*
X138270000Y-80630000D01*
X139040000Y-82000000D02*
X138270000Y-82000000D01*
%TO.C,C1*%
X144804775Y-117475000D02*
X144304775Y-117475000D01*
X144554775Y-117725000D02*
X144554775Y-117225000D01*
X142000000Y-118580000D02*
X142000000Y-117040000D01*
X142000000Y-114960000D02*
X142000000Y-113420000D01*
X141960000Y-118580000D02*
X141960000Y-117040000D01*
X141960000Y-114960000D02*
X141960000Y-113420000D01*
X141920000Y-118579000D02*
X141920000Y-117040000D01*
X141920000Y-114960000D02*
X141920000Y-113421000D01*
X141880000Y-118578000D02*
X141880000Y-117040000D01*
X141880000Y-114960000D02*
X141880000Y-113422000D01*
X141840000Y-118576000D02*
X141840000Y-117040000D01*
X141840000Y-114960000D02*
X141840000Y-113424000D01*
X141800000Y-118573000D02*
X141800000Y-117040000D01*
X141800000Y-114960000D02*
X141800000Y-113427000D01*
X141760000Y-118569000D02*
X141760000Y-117040000D01*
X141760000Y-114960000D02*
X141760000Y-113431000D01*
X141720000Y-118565000D02*
X141720000Y-117040000D01*
X141720000Y-114960000D02*
X141720000Y-113435000D01*
X141680000Y-118561000D02*
X141680000Y-117040000D01*
X141680000Y-114960000D02*
X141680000Y-113439000D01*
X141640000Y-118556000D02*
X141640000Y-117040000D01*
X141640000Y-114960000D02*
X141640000Y-113444000D01*
X141600000Y-118550000D02*
X141600000Y-117040000D01*
X141600000Y-114960000D02*
X141600000Y-113450000D01*
X141560000Y-118543000D02*
X141560000Y-117040000D01*
X141560000Y-114960000D02*
X141560000Y-113457000D01*
X141520000Y-118536000D02*
X141520000Y-117040000D01*
X141520000Y-114960000D02*
X141520000Y-113464000D01*
X141480000Y-118528000D02*
X141480000Y-117040000D01*
X141480000Y-114960000D02*
X141480000Y-113472000D01*
X141440000Y-118520000D02*
X141440000Y-117040000D01*
X141440000Y-114960000D02*
X141440000Y-113480000D01*
X141400000Y-118511000D02*
X141400000Y-117040000D01*
X141400000Y-114960000D02*
X141400000Y-113489000D01*
X141360000Y-118501000D02*
X141360000Y-117040000D01*
X141360000Y-114960000D02*
X141360000Y-113499000D01*
X141320000Y-118491000D02*
X141320000Y-117040000D01*
X141320000Y-114960000D02*
X141320000Y-113509000D01*
X141279000Y-118480000D02*
X141279000Y-117040000D01*
X141279000Y-114960000D02*
X141279000Y-113520000D01*
X141239000Y-118468000D02*
X141239000Y-117040000D01*
X141239000Y-114960000D02*
X141239000Y-113532000D01*
X141199000Y-118455000D02*
X141199000Y-117040000D01*
X141199000Y-114960000D02*
X141199000Y-113545000D01*
X141159000Y-118442000D02*
X141159000Y-117040000D01*
X141159000Y-114960000D02*
X141159000Y-113558000D01*
X141119000Y-118428000D02*
X141119000Y-117040000D01*
X141119000Y-114960000D02*
X141119000Y-113572000D01*
X141079000Y-118414000D02*
X141079000Y-117040000D01*
X141079000Y-114960000D02*
X141079000Y-113586000D01*
X141039000Y-118398000D02*
X141039000Y-117040000D01*
X141039000Y-114960000D02*
X141039000Y-113602000D01*
X140999000Y-118382000D02*
X140999000Y-117040000D01*
X140999000Y-114960000D02*
X140999000Y-113618000D01*
X140959000Y-118365000D02*
X140959000Y-117040000D01*
X140959000Y-114960000D02*
X140959000Y-113635000D01*
X140919000Y-118348000D02*
X140919000Y-117040000D01*
X140919000Y-114960000D02*
X140919000Y-113652000D01*
X140879000Y-118329000D02*
X140879000Y-117040000D01*
X140879000Y-114960000D02*
X140879000Y-113671000D01*
X140839000Y-118310000D02*
X140839000Y-117040000D01*
X140839000Y-114960000D02*
X140839000Y-113690000D01*
X140799000Y-118290000D02*
X140799000Y-117040000D01*
X140799000Y-114960000D02*
X140799000Y-113710000D01*
X140759000Y-118268000D02*
X140759000Y-117040000D01*
X140759000Y-114960000D02*
X140759000Y-113732000D01*
X140719000Y-118247000D02*
X140719000Y-117040000D01*
X140719000Y-114960000D02*
X140719000Y-113753000D01*
X140679000Y-118224000D02*
X140679000Y-117040000D01*
X140679000Y-114960000D02*
X140679000Y-113776000D01*
X140639000Y-118200000D02*
X140639000Y-117040000D01*
X140639000Y-114960000D02*
X140639000Y-113800000D01*
X140599000Y-118175000D02*
X140599000Y-117040000D01*
X140599000Y-114960000D02*
X140599000Y-113825000D01*
X140559000Y-118149000D02*
X140559000Y-117040000D01*
X140559000Y-114960000D02*
X140559000Y-113851000D01*
X140519000Y-118122000D02*
X140519000Y-117040000D01*
X140519000Y-114960000D02*
X140519000Y-113878000D01*
X140479000Y-118095000D02*
X140479000Y-117040000D01*
X140479000Y-114960000D02*
X140479000Y-113905000D01*
X140439000Y-118065000D02*
X140439000Y-117040000D01*
X140439000Y-114960000D02*
X140439000Y-113935000D01*
X140399000Y-118035000D02*
X140399000Y-117040000D01*
X140399000Y-114960000D02*
X140399000Y-113965000D01*
X140359000Y-118004000D02*
X140359000Y-117040000D01*
X140359000Y-114960000D02*
X140359000Y-113996000D01*
X140319000Y-117971000D02*
X140319000Y-117040000D01*
X140319000Y-114960000D02*
X140319000Y-114029000D01*
X140279000Y-117937000D02*
X140279000Y-117040000D01*
X140279000Y-114960000D02*
X140279000Y-114063000D01*
X140239000Y-117901000D02*
X140239000Y-117040000D01*
X140239000Y-114960000D02*
X140239000Y-114099000D01*
X140199000Y-117864000D02*
X140199000Y-117040000D01*
X140199000Y-114960000D02*
X140199000Y-114136000D01*
X140159000Y-117826000D02*
X140159000Y-117040000D01*
X140159000Y-114960000D02*
X140159000Y-114174000D01*
X140119000Y-117785000D02*
X140119000Y-117040000D01*
X140119000Y-114960000D02*
X140119000Y-114215000D01*
X140079000Y-117743000D02*
X140079000Y-117040000D01*
X140079000Y-114960000D02*
X140079000Y-114257000D01*
X140039000Y-117699000D02*
X140039000Y-117040000D01*
X140039000Y-114960000D02*
X140039000Y-114301000D01*
X139999000Y-117653000D02*
X139999000Y-117040000D01*
X139999000Y-114960000D02*
X139999000Y-114347000D01*
X139959000Y-117605000D02*
X139959000Y-114395000D01*
X139919000Y-117554000D02*
X139919000Y-114446000D01*
X139879000Y-117500000D02*
X139879000Y-114500000D01*
X139839000Y-117443000D02*
X139839000Y-114557000D01*
X139799000Y-117383000D02*
X139799000Y-114617000D01*
X139759000Y-117319000D02*
X139759000Y-114681000D01*
X139719000Y-117251000D02*
X139719000Y-114749000D01*
X139679000Y-117178000D02*
X139679000Y-114822000D01*
X139639000Y-117098000D02*
X139639000Y-114902000D01*
X139599000Y-117011000D02*
X139599000Y-114989000D01*
X139559000Y-116915000D02*
X139559000Y-115085000D01*
X139519000Y-116805000D02*
X139519000Y-115195000D01*
X139479000Y-116677000D02*
X139479000Y-115323000D01*
X139439000Y-116518000D02*
X139439000Y-115482000D01*
X139399000Y-116284000D02*
X139399000Y-115716000D01*
X144620000Y-116000000D02*
G75*
G03*
X144620000Y-116000000I-2620000J0D01*
G01*
%TO.C,R5*%
X150960000Y-109000000D02*
X151730000Y-109000000D01*
X151730000Y-107630000D02*
X151730000Y-110370000D01*
X151730000Y-110370000D02*
X158270000Y-110370000D01*
X158270000Y-107630000D02*
X151730000Y-107630000D01*
X158270000Y-110370000D02*
X158270000Y-107630000D01*
X159040000Y-109000000D02*
X158270000Y-109000000D01*
%TO.C,C5*%
X121195225Y-88525000D02*
X121695225Y-88525000D01*
X121445225Y-88275000D02*
X121445225Y-88775000D01*
X124000000Y-87420000D02*
X124000000Y-88960000D01*
X124000000Y-91040000D02*
X124000000Y-92580000D01*
X124040000Y-87420000D02*
X124040000Y-88960000D01*
X124040000Y-91040000D02*
X124040000Y-92580000D01*
X124080000Y-87421000D02*
X124080000Y-88960000D01*
X124080000Y-91040000D02*
X124080000Y-92579000D01*
X124120000Y-87422000D02*
X124120000Y-88960000D01*
X124120000Y-91040000D02*
X124120000Y-92578000D01*
X124160000Y-87424000D02*
X124160000Y-88960000D01*
X124160000Y-91040000D02*
X124160000Y-92576000D01*
X124200000Y-87427000D02*
X124200000Y-88960000D01*
X124200000Y-91040000D02*
X124200000Y-92573000D01*
X124240000Y-87431000D02*
X124240000Y-88960000D01*
X124240000Y-91040000D02*
X124240000Y-92569000D01*
X124280000Y-87435000D02*
X124280000Y-88960000D01*
X124280000Y-91040000D02*
X124280000Y-92565000D01*
X124320000Y-87439000D02*
X124320000Y-88960000D01*
X124320000Y-91040000D02*
X124320000Y-92561000D01*
X124360000Y-87444000D02*
X124360000Y-88960000D01*
X124360000Y-91040000D02*
X124360000Y-92556000D01*
X124400000Y-87450000D02*
X124400000Y-88960000D01*
X124400000Y-91040000D02*
X124400000Y-92550000D01*
X124440000Y-87457000D02*
X124440000Y-88960000D01*
X124440000Y-91040000D02*
X124440000Y-92543000D01*
X124480000Y-87464000D02*
X124480000Y-88960000D01*
X124480000Y-91040000D02*
X124480000Y-92536000D01*
X124520000Y-87472000D02*
X124520000Y-88960000D01*
X124520000Y-91040000D02*
X124520000Y-92528000D01*
X124560000Y-87480000D02*
X124560000Y-88960000D01*
X124560000Y-91040000D02*
X124560000Y-92520000D01*
X124600000Y-87489000D02*
X124600000Y-88960000D01*
X124600000Y-91040000D02*
X124600000Y-92511000D01*
X124640000Y-87499000D02*
X124640000Y-88960000D01*
X124640000Y-91040000D02*
X124640000Y-92501000D01*
X124680000Y-87509000D02*
X124680000Y-88960000D01*
X124680000Y-91040000D02*
X124680000Y-92491000D01*
X124721000Y-87520000D02*
X124721000Y-88960000D01*
X124721000Y-91040000D02*
X124721000Y-92480000D01*
X124761000Y-87532000D02*
X124761000Y-88960000D01*
X124761000Y-91040000D02*
X124761000Y-92468000D01*
X124801000Y-87545000D02*
X124801000Y-88960000D01*
X124801000Y-91040000D02*
X124801000Y-92455000D01*
X124841000Y-87558000D02*
X124841000Y-88960000D01*
X124841000Y-91040000D02*
X124841000Y-92442000D01*
X124881000Y-87572000D02*
X124881000Y-88960000D01*
X124881000Y-91040000D02*
X124881000Y-92428000D01*
X124921000Y-87586000D02*
X124921000Y-88960000D01*
X124921000Y-91040000D02*
X124921000Y-92414000D01*
X124961000Y-87602000D02*
X124961000Y-88960000D01*
X124961000Y-91040000D02*
X124961000Y-92398000D01*
X125001000Y-87618000D02*
X125001000Y-88960000D01*
X125001000Y-91040000D02*
X125001000Y-92382000D01*
X125041000Y-87635000D02*
X125041000Y-88960000D01*
X125041000Y-91040000D02*
X125041000Y-92365000D01*
X125081000Y-87652000D02*
X125081000Y-88960000D01*
X125081000Y-91040000D02*
X125081000Y-92348000D01*
X125121000Y-87671000D02*
X125121000Y-88960000D01*
X125121000Y-91040000D02*
X125121000Y-92329000D01*
X125161000Y-87690000D02*
X125161000Y-88960000D01*
X125161000Y-91040000D02*
X125161000Y-92310000D01*
X125201000Y-87710000D02*
X125201000Y-88960000D01*
X125201000Y-91040000D02*
X125201000Y-92290000D01*
X125241000Y-87732000D02*
X125241000Y-88960000D01*
X125241000Y-91040000D02*
X125241000Y-92268000D01*
X125281000Y-87753000D02*
X125281000Y-88960000D01*
X125281000Y-91040000D02*
X125281000Y-92247000D01*
X125321000Y-87776000D02*
X125321000Y-88960000D01*
X125321000Y-91040000D02*
X125321000Y-92224000D01*
X125361000Y-87800000D02*
X125361000Y-88960000D01*
X125361000Y-91040000D02*
X125361000Y-92200000D01*
X125401000Y-87825000D02*
X125401000Y-88960000D01*
X125401000Y-91040000D02*
X125401000Y-92175000D01*
X125441000Y-87851000D02*
X125441000Y-88960000D01*
X125441000Y-91040000D02*
X125441000Y-92149000D01*
X125481000Y-87878000D02*
X125481000Y-88960000D01*
X125481000Y-91040000D02*
X125481000Y-92122000D01*
X125521000Y-87905000D02*
X125521000Y-88960000D01*
X125521000Y-91040000D02*
X125521000Y-92095000D01*
X125561000Y-87935000D02*
X125561000Y-88960000D01*
X125561000Y-91040000D02*
X125561000Y-92065000D01*
X125601000Y-87965000D02*
X125601000Y-88960000D01*
X125601000Y-91040000D02*
X125601000Y-92035000D01*
X125641000Y-87996000D02*
X125641000Y-88960000D01*
X125641000Y-91040000D02*
X125641000Y-92004000D01*
X125681000Y-88029000D02*
X125681000Y-88960000D01*
X125681000Y-91040000D02*
X125681000Y-91971000D01*
X125721000Y-88063000D02*
X125721000Y-88960000D01*
X125721000Y-91040000D02*
X125721000Y-91937000D01*
X125761000Y-88099000D02*
X125761000Y-88960000D01*
X125761000Y-91040000D02*
X125761000Y-91901000D01*
X125801000Y-88136000D02*
X125801000Y-88960000D01*
X125801000Y-91040000D02*
X125801000Y-91864000D01*
X125841000Y-88174000D02*
X125841000Y-88960000D01*
X125841000Y-91040000D02*
X125841000Y-91826000D01*
X125881000Y-88215000D02*
X125881000Y-88960000D01*
X125881000Y-91040000D02*
X125881000Y-91785000D01*
X125921000Y-88257000D02*
X125921000Y-88960000D01*
X125921000Y-91040000D02*
X125921000Y-91743000D01*
X125961000Y-88301000D02*
X125961000Y-88960000D01*
X125961000Y-91040000D02*
X125961000Y-91699000D01*
X126001000Y-88347000D02*
X126001000Y-88960000D01*
X126001000Y-91040000D02*
X126001000Y-91653000D01*
X126041000Y-88395000D02*
X126041000Y-91605000D01*
X126081000Y-88446000D02*
X126081000Y-91554000D01*
X126121000Y-88500000D02*
X126121000Y-91500000D01*
X126161000Y-88557000D02*
X126161000Y-91443000D01*
X126201000Y-88617000D02*
X126201000Y-91383000D01*
X126241000Y-88681000D02*
X126241000Y-91319000D01*
X126281000Y-88749000D02*
X126281000Y-91251000D01*
X126321000Y-88822000D02*
X126321000Y-91178000D01*
X126361000Y-88902000D02*
X126361000Y-91098000D01*
X126401000Y-88989000D02*
X126401000Y-91011000D01*
X126441000Y-89085000D02*
X126441000Y-90915000D01*
X126481000Y-89195000D02*
X126481000Y-90805000D01*
X126521000Y-89323000D02*
X126521000Y-90677000D01*
X126561000Y-89482000D02*
X126561000Y-90518000D01*
X126601000Y-89716000D02*
X126601000Y-90284000D01*
X126620000Y-90000000D02*
G75*
G03*
X126620000Y-90000000I-2620000J0D01*
G01*
%TO.C,U1*%
X154760000Y-79830000D02*
X154760000Y-100390000D01*
X154760000Y-100390000D02*
X165260000Y-100390000D01*
X157760000Y-79890000D02*
X157760000Y-100330000D01*
X157760000Y-100330000D02*
X162260000Y-100330000D01*
X159010000Y-79890000D02*
X157760000Y-79890000D01*
X162260000Y-79890000D02*
X161010000Y-79890000D01*
X162260000Y-100330000D02*
X162260000Y-79890000D01*
X165260000Y-79830000D02*
X154760000Y-79830000D01*
X165260000Y-100390000D02*
X165260000Y-79830000D01*
X159010000Y-79890000D02*
G75*
G03*
X161010000Y-79890000I1000000J0D01*
G01*
%TO.C,R6*%
X145288000Y-81960000D02*
X145288000Y-82730000D01*
X146658000Y-82730000D02*
X143918000Y-82730000D01*
X143918000Y-82730000D02*
X143918000Y-89270000D01*
X146658000Y-89270000D02*
X146658000Y-82730000D01*
X143918000Y-89270000D02*
X146658000Y-89270000D01*
X145288000Y-90040000D02*
X145288000Y-89270000D01*
%TD*%
M02*
