M48
; DRILL file {KiCad 7.0.1-0} date 2023 July 23, Sunday 18:38:04
; FORMAT={-:-/ absolute / metric / decimal}
; #@! TF.CreationDate,2023-07-23T18:38:04-04:00
; #@! TF.GenerationSoftware,Kicad,Pcbnew,7.0.1-0
; #@! TF.FileFunction,MixedPlating,1,2
FMAT,2
METRIC
; #@! TA.AperFunction,Plated,PTH,ComponentDrill
T1C0.800
; #@! TA.AperFunction,Plated,PTH,ComponentDrill
T2C1.000
; #@! TA.AperFunction,Plated,PTH,ComponentDrill
T3C1.100
; #@! TA.AperFunction,NonPlated,NPTH,ComponentDrill
T4C3.200
%
G90
G05
T1
X115.0Y-90.0
X117.0Y-90.0
X123.0Y-90.0
X125.0Y-90.0
X129.92Y-82.0
X129.921Y-87.0
X131.2Y-93.2
X131.2Y-95.74
X131.2Y-98.28
X131.2Y-100.82
X138.82Y-93.2
X138.82Y-95.74
X138.82Y-98.28
X138.82Y-100.82
X140.08Y-82.0
X140.081Y-87.0
X141.0Y-116.0
X143.0Y-116.0
X145.288Y-80.92
X145.288Y-91.08
X145.288Y-95.123
X145.288Y-105.283
X149.92Y-109.0
X150.0Y-116.0
X150.5Y-95.17
X150.5Y-105.33
X150.749Y-80.92
X150.749Y-91.08
X152.0Y-116.0
X154.17Y-104.5
X156.2Y-81.22
X156.2Y-83.76
X156.2Y-86.3
X156.2Y-88.84
X156.2Y-91.38
X156.2Y-93.92
X156.2Y-96.46
X156.2Y-99.0
X159.0Y-116.0
X160.08Y-109.0
X161.0Y-116.0
X163.82Y-81.22
X163.82Y-83.76
X163.82Y-86.3
X163.82Y-88.84
X163.82Y-91.38
X163.82Y-93.92
X163.82Y-96.46
X163.82Y-99.0
X164.33Y-104.5
X169.0Y-88.92
X169.0Y-99.08
T2
X106.0Y-89.84
X106.0Y-92.38
X106.0Y-94.92
X106.0Y-97.46
X106.0Y-100.0
X106.0Y-102.54
X106.0Y-105.08
X106.0Y-107.62
X108.54Y-89.84
X108.54Y-92.38
X108.54Y-94.92
X108.54Y-97.46
X108.54Y-100.0
X108.54Y-102.54
X108.54Y-105.08
X108.54Y-107.62
X115.475Y-116.0
X118.015Y-116.0
X120.555Y-116.0
X128.92Y-116.0
X131.46Y-116.0
X134.0Y-116.0
X169.0Y-103.46
X169.0Y-106.0
X169.0Y-108.54
T3
X114.92Y-82.0
X114.92Y-97.0
X125.08Y-82.0
X125.08Y-97.0
T4
X107.0Y-83.0
X107.0Y-116.0
X171.0Y-83.0
X171.0Y-116.0
T0
M30
